<svg width="112" height="272" viewBox="0 0 112 272" fill="none" xmlns="http://www.w3.org/2000/svg">
<path d="M0 0H104.032C108.059 0 111.324 3.26469 111.324 7.29189V151.742C111.324 155.769 108.059 159.034 104.032 159.034H0V0Z" fill="#253D65"/>
<mask id="path-2-outside-1_91999_7194" maskUnits="userSpaceOnUse" x="21.8145" y="21.5117" width="68" height="68" fill="black">
<rect fill="white" x="21.8145" y="21.5117" width="68" height="68"/>
<path d="M52.8018 22.8904C51.1547 23.0552 48.8217 23.4667 47.1061 23.9191C43.0161 24.9753 38.4326 27.3215 35.0149 30.0933C33.8484 31.0403 31.323 33.5098 30.4582 34.5519C26.4506 39.3403 24.0493 44.7733 23.0611 51.29C22.7594 53.1832 22.7319 57.8757 22.9927 59.659C24.1317 67.4926 27.2336 73.7493 32.5727 79.0315C37.8151 84.2314 43.9774 87.2223 51.691 88.3469C53.1866 88.5667 58.1281 88.5667 59.6512 88.3469C67.4607 87.2216 73.513 84.2448 78.8788 78.8801C84.2453 73.5161 87.2232 67.4651 88.3488 59.659C88.5687 58.1358 88.5687 53.1973 88.3488 51.7015C87.2098 43.8672 84.2313 37.8311 78.8788 32.4798C73.6223 27.2257 67.5833 24.1938 60.1312 23.0961C58.4016 22.8354 54.4905 22.7255 52.8018 22.8904ZM49.2199 25.9637C49.2199 25.9912 48.9732 26.1836 48.6574 26.3752C46.5578 27.7745 43.7166 31.3278 42.0835 34.6069C41.7678 35.2516 41.4386 35.787 41.3562 35.787C40.8205 35.787 35.578 34.0037 34.9606 33.6057C34.8232 33.5232 34.9331 33.345 35.4138 32.8919C37.7334 30.7655 41.1919 28.625 44.4172 27.3356C46.3379 26.5669 49.2199 25.7439 49.2199 25.9637ZM63.9599 26.3337C68.2966 27.5681 72.8258 30.0518 75.9277 32.8919C76.4084 33.345 76.5177 33.5232 76.3809 33.6057C75.7494 34.0037 70.5203 35.787 69.9713 35.787C69.8888 35.787 69.5047 35.1557 69.1065 34.3737C68.2558 32.6996 67.4593 31.4377 66.3069 29.9559C65.3596 28.7349 63.5482 26.9516 62.6834 26.3752C61.7502 25.758 61.9152 25.758 63.9599 26.3337ZM54.4356 31.9457V37.4336H53.1732C50.552 37.4196 44.0056 36.6107 44.0056 36.281C44.0056 36.0337 45.1995 33.8798 46.0228 32.6587C46.9426 31.2728 48.9739 29.1189 50.1129 28.3093C51.1144 27.5956 52.1991 27.0474 53.2007 26.7177C54.5723 26.2794 54.4356 25.7165 54.4356 31.9457ZM58.0175 26.6768C61.2012 27.6238 64.399 30.6697 66.7051 34.9634C67.0484 35.6081 67.3366 36.1979 67.3366 36.2803C67.3366 36.6093 60.7902 37.4189 58.1824 37.433H56.906V31.945C56.906 27.4998 56.9335 26.457 57.0843 26.457C57.1802 26.4577 57.6059 26.5535 58.0175 26.6768ZM34.1917 35.9238C35.1389 36.3352 39.1184 37.7071 40.3814 38.0502C40.4914 38.0777 40.3814 38.585 40.0657 39.5185C38.7343 43.4839 37.9794 47.7093 37.6087 53.2382L37.5262 54.4458H31.3505H25.1614L25.2573 53.2382C25.683 48.0658 27.5078 42.8801 30.418 38.6131C31.2278 37.4196 32.82 35.3756 32.9293 35.3756C32.9568 35.3756 33.5193 35.6222 34.1917 35.9238ZM79.2214 36.2944C82.1718 39.8617 84.4096 44.4436 85.4521 49.1086C85.7403 50.3846 86.1385 53.2107 86.1385 53.9794V54.4458H79.9629C76.5727 54.4458 73.7865 54.4049 73.7865 54.3359C73.7865 54.281 73.7181 53.3072 73.6491 52.182C73.3199 47.3803 72.5376 43.2641 71.1921 39.3128C70.9038 38.4758 70.8354 38.0917 70.9454 38.0643C72.3452 37.6662 76.1879 36.3359 77.0802 35.9378C77.7251 35.6363 78.2882 35.403 78.3425 35.389C78.3982 35.3756 78.7964 35.787 79.2214 36.2944ZM44.4849 38.9422C46.2279 39.2712 50.249 39.7243 52.6235 39.8476L54.4349 39.9434V47.1879V54.4458H47.2027H39.9832L40.0657 52.69C40.244 49.3834 40.7381 46.1458 41.6029 42.8526C42.097 40.9453 42.8652 38.6681 43.0167 38.6681C43.0717 38.6681 43.73 38.7914 44.4849 38.9422ZM68.7089 39.4502C69.9854 42.8526 71.0285 48.2448 71.2618 52.621L71.3577 54.4458H64.1248H56.906V47.1879V39.9441L58.6624 39.8483C61.6819 39.6834 65.9362 39.1895 67.4734 38.8195C68.3516 38.5991 68.3932 38.6131 68.7089 39.4502ZM37.6093 58.2463C37.9526 63.5561 38.7349 67.8773 40.0663 71.8427C40.3821 72.7755 40.492 73.2835 40.3821 73.311C37.8567 74.0381 35.1939 74.9985 33.0667 75.9314C32.696 76.1096 29.7865 72.0484 28.5241 69.5788C26.7261 66.0806 25.5731 62.0328 25.258 58.1089L25.1614 56.9154H31.3512H37.5269L37.6093 58.2463ZM54.4356 64.1592V71.4171L51.8277 71.5679C49.1374 71.7462 45.8029 72.1442 44.1282 72.4874C43.5933 72.5973 43.1126 72.6931 43.0442 72.6931C42.7425 72.6931 41.5754 68.8102 40.9854 65.8333C40.4914 63.418 40.1897 61.0034 40.0657 58.6578L39.9832 56.9154H47.202H54.4349V64.1592H54.4356ZM71.2752 58.6853C71.0969 62.1568 70.4104 66.2722 69.4638 69.4964C69.0522 70.9507 68.5031 72.5423 68.3798 72.6656C68.3523 72.679 67.6249 72.5832 66.7742 72.419C64.3038 71.9801 62.2725 71.7468 59.4863 71.5686L56.906 71.4178V64.1599V56.9154H64.1389H71.3577L71.2752 58.6853ZM86.1385 57.3818C86.1385 58.2738 85.7128 61.0999 85.3562 62.6091C84.3546 66.8486 82.5566 70.6491 79.8804 74.2023C78.3707 76.192 78.6449 76.0955 76.7785 75.3001C75.5161 74.7787 73.1966 73.9832 70.9454 73.2969C70.8079 73.2695 70.8354 73.0637 71.0553 72.5014C71.9335 70.1143 72.9083 65.9981 73.2924 62.8839C73.4708 61.5529 73.7724 57.8214 73.7865 57.0802C73.7865 56.9569 75.1179 56.9154 79.9629 56.9154H86.1385V57.3818ZM54.4356 79.4155C54.4356 83.8608 54.4081 84.9035 54.2572 84.9035C53.8731 84.9035 52.5417 84.4371 51.691 84.0116C49.4405 82.8729 47.2442 80.719 45.5428 77.9747C44.8154 76.8086 44.0056 75.2585 44.0056 75.0521C44.0056 74.8598 48.0816 74.2559 50.9361 74.0234C51.2378 73.9959 52.1442 73.9684 52.9674 73.955L54.4362 73.9276V79.4155H54.4356ZM62.3952 74.2023C65.0305 74.518 67.336 74.9295 67.336 75.0802C67.336 75.3409 66.1286 77.4949 65.3047 78.73C64.3574 80.1293 62.3677 82.2423 61.2287 83.0519C59.9248 83.9847 57.8526 84.9042 57.0836 84.9042C56.9328 84.9042 56.9053 83.8614 56.9053 79.3887V73.8873L59.074 73.9698C60.2546 74.0241 61.7502 74.1199 62.3952 74.2023ZM42.2203 76.9735C43.785 80.0602 45.9946 82.8729 48.2592 84.6703C49.4257 85.6032 49.4257 85.6032 47.1336 84.9444C43.071 83.8058 38.8026 81.4596 35.564 78.606C35.1932 78.2769 34.8641 77.9613 34.8366 77.9063C34.7407 77.6731 40.5048 75.6016 41.273 75.5742C41.4245 75.5742 41.7403 76.054 42.2203 76.9735ZM71.7834 76.054C73.3756 76.5345 75.9968 77.5083 76.395 77.7555C76.5459 77.8655 76.4634 78.0022 75.9143 78.4827C72.1541 81.8168 66.925 84.5055 62.5333 85.3834C61.9842 85.4933 61.9983 85.4792 63.1232 84.6288C65.1404 83.1196 67.6249 79.9503 69.1206 76.9735C69.5047 76.2048 69.9029 75.5742 70.0129 75.5742C70.1087 75.5742 70.9045 75.7933 71.7834 76.054Z"/>
</mask>
<path d="M52.8018 22.8904C51.1547 23.0552 48.8217 23.4667 47.1061 23.9191C43.0161 24.9753 38.4326 27.3215 35.0149 30.0933C33.8484 31.0403 31.323 33.5098 30.4582 34.5519C26.4506 39.3403 24.0493 44.7733 23.0611 51.29C22.7594 53.1832 22.7319 57.8757 22.9927 59.659C24.1317 67.4926 27.2336 73.7493 32.5727 79.0315C37.8151 84.2314 43.9774 87.2223 51.691 88.3469C53.1866 88.5667 58.1281 88.5667 59.6512 88.3469C67.4607 87.2216 73.513 84.2448 78.8788 78.8801C84.2453 73.5161 87.2232 67.4651 88.3488 59.659C88.5687 58.1358 88.5687 53.1973 88.3488 51.7015C87.2098 43.8672 84.2313 37.8311 78.8788 32.4798C73.6223 27.2257 67.5833 24.1938 60.1312 23.0961C58.4016 22.8354 54.4905 22.7255 52.8018 22.8904ZM49.2199 25.9637C49.2199 25.9912 48.9732 26.1836 48.6574 26.3752C46.5578 27.7745 43.7166 31.3278 42.0835 34.6069C41.7678 35.2516 41.4386 35.787 41.3562 35.787C40.8205 35.787 35.578 34.0037 34.9606 33.6057C34.8232 33.5232 34.9331 33.345 35.4138 32.8919C37.7334 30.7655 41.1919 28.625 44.4172 27.3356C46.3379 26.5669 49.2199 25.7439 49.2199 25.9637ZM63.9599 26.3337C68.2966 27.5681 72.8258 30.0518 75.9277 32.8919C76.4084 33.345 76.5177 33.5232 76.3809 33.6057C75.7494 34.0037 70.5203 35.787 69.9713 35.787C69.8888 35.787 69.5047 35.1557 69.1065 34.3737C68.2558 32.6996 67.4593 31.4377 66.3069 29.9559C65.3596 28.7349 63.5482 26.9516 62.6834 26.3752C61.7502 25.758 61.9152 25.758 63.9599 26.3337ZM54.4356 31.9457V37.4336H53.1732C50.552 37.4196 44.0056 36.6107 44.0056 36.281C44.0056 36.0337 45.1995 33.8798 46.0228 32.6587C46.9426 31.2728 48.9739 29.1189 50.1129 28.3093C51.1144 27.5956 52.1991 27.0474 53.2007 26.7177C54.5723 26.2794 54.4356 25.7165 54.4356 31.9457ZM58.0175 26.6768C61.2012 27.6238 64.399 30.6697 66.7051 34.9634C67.0484 35.6081 67.3366 36.1979 67.3366 36.2803C67.3366 36.6093 60.7902 37.4189 58.1824 37.433H56.906V31.945C56.906 27.4998 56.9335 26.457 57.0843 26.457C57.1802 26.4577 57.6059 26.5535 58.0175 26.6768ZM34.1917 35.9238C35.1389 36.3352 39.1184 37.7071 40.3814 38.0502C40.4914 38.0777 40.3814 38.585 40.0657 39.5185C38.7343 43.4839 37.9794 47.7093 37.6087 53.2382L37.5262 54.4458H31.3505H25.1614L25.2573 53.2382C25.683 48.0658 27.5078 42.8801 30.418 38.6131C31.2278 37.4196 32.82 35.3756 32.9293 35.3756C32.9568 35.3756 33.5193 35.6222 34.1917 35.9238ZM79.2214 36.2944C82.1718 39.8617 84.4096 44.4436 85.4521 49.1086C85.7403 50.3846 86.1385 53.2107 86.1385 53.9794V54.4458H79.9629C76.5727 54.4458 73.7865 54.4049 73.7865 54.3359C73.7865 54.281 73.7181 53.3072 73.6491 52.182C73.3199 47.3803 72.5376 43.2641 71.1921 39.3128C70.9038 38.4758 70.8354 38.0917 70.9454 38.0643C72.3452 37.6662 76.1879 36.3359 77.0802 35.9378C77.7251 35.6363 78.2882 35.403 78.3425 35.389C78.3982 35.3756 78.7964 35.787 79.2214 36.2944ZM44.4849 38.9422C46.2279 39.2712 50.249 39.7243 52.6235 39.8476L54.4349 39.9434V47.1879V54.4458H47.2027H39.9832L40.0657 52.69C40.244 49.3834 40.7381 46.1458 41.6029 42.8526C42.097 40.9453 42.8652 38.6681 43.0167 38.6681C43.0717 38.6681 43.73 38.7914 44.4849 38.9422ZM68.7089 39.4502C69.9854 42.8526 71.0285 48.2448 71.2618 52.621L71.3577 54.4458H64.1248H56.906V47.1879V39.9441L58.6624 39.8483C61.6819 39.6834 65.9362 39.1895 67.4734 38.8195C68.3516 38.5991 68.3932 38.6131 68.7089 39.4502ZM37.6093 58.2463C37.9526 63.5561 38.7349 67.8773 40.0663 71.8427C40.3821 72.7755 40.492 73.2835 40.3821 73.311C37.8567 74.0381 35.1939 74.9985 33.0667 75.9314C32.696 76.1096 29.7865 72.0484 28.5241 69.5788C26.7261 66.0806 25.5731 62.0328 25.258 58.1089L25.1614 56.9154H31.3512H37.5269L37.6093 58.2463ZM54.4356 64.1592V71.4171L51.8277 71.5679C49.1374 71.7462 45.8029 72.1442 44.1282 72.4874C43.5933 72.5973 43.1126 72.6931 43.0442 72.6931C42.7425 72.6931 41.5754 68.8102 40.9854 65.8333C40.4914 63.418 40.1897 61.0034 40.0657 58.6578L39.9832 56.9154H47.202H54.4349V64.1592H54.4356ZM71.2752 58.6853C71.0969 62.1568 70.4104 66.2722 69.4638 69.4964C69.0522 70.9507 68.5031 72.5423 68.3798 72.6656C68.3523 72.679 67.6249 72.5832 66.7742 72.419C64.3038 71.9801 62.2725 71.7468 59.4863 71.5686L56.906 71.4178V64.1599V56.9154H64.1389H71.3577L71.2752 58.6853ZM86.1385 57.3818C86.1385 58.2738 85.7128 61.0999 85.3562 62.6091C84.3546 66.8486 82.5566 70.6491 79.8804 74.2023C78.3707 76.192 78.6449 76.0955 76.7785 75.3001C75.5161 74.7787 73.1966 73.9832 70.9454 73.2969C70.8079 73.2695 70.8354 73.0637 71.0553 72.5014C71.9335 70.1143 72.9083 65.9981 73.2924 62.8839C73.4708 61.5529 73.7724 57.8214 73.7865 57.0802C73.7865 56.9569 75.1179 56.9154 79.9629 56.9154H86.1385V57.3818ZM54.4356 79.4155C54.4356 83.8608 54.4081 84.9035 54.2572 84.9035C53.8731 84.9035 52.5417 84.4371 51.691 84.0116C49.4405 82.8729 47.2442 80.719 45.5428 77.9747C44.8154 76.8086 44.0056 75.2585 44.0056 75.0521C44.0056 74.8598 48.0816 74.2559 50.9361 74.0234C51.2378 73.9959 52.1442 73.9684 52.9674 73.955L54.4362 73.9276V79.4155H54.4356ZM62.3952 74.2023C65.0305 74.518 67.336 74.9295 67.336 75.0802C67.336 75.3409 66.1286 77.4949 65.3047 78.73C64.3574 80.1293 62.3677 82.2423 61.2287 83.0519C59.9248 83.9847 57.8526 84.9042 57.0836 84.9042C56.9328 84.9042 56.9053 83.8614 56.9053 79.3887V73.8873L59.074 73.9698C60.2546 74.0241 61.7502 74.1199 62.3952 74.2023ZM42.2203 76.9735C43.785 80.0602 45.9946 82.8729 48.2592 84.6703C49.4257 85.6032 49.4257 85.6032 47.1336 84.9444C43.071 83.8058 38.8026 81.4596 35.564 78.606C35.1932 78.2769 34.8641 77.9613 34.8366 77.9063C34.7407 77.6731 40.5048 75.6016 41.273 75.5742C41.4245 75.5742 41.7403 76.054 42.2203 76.9735ZM71.7834 76.054C73.3756 76.5345 75.9968 77.5083 76.395 77.7555C76.5459 77.8655 76.4634 78.0022 75.9143 78.4827C72.1541 81.8168 66.925 84.5055 62.5333 85.3834C61.9842 85.4933 61.9983 85.4792 63.1232 84.6288C65.1404 83.1196 67.6249 79.9503 69.1206 76.9735C69.5047 76.2048 69.9029 75.5742 70.0129 75.5742C70.1087 75.5742 70.9045 75.7933 71.7834 76.054Z" fill="#F3D94E"/>
<path d="M52.8018 22.8904C51.1547 23.0552 48.8217 23.4667 47.1061 23.9191C43.0161 24.9753 38.4326 27.3215 35.0149 30.0933C33.8484 31.0403 31.323 33.5098 30.4582 34.5519C26.4506 39.3403 24.0493 44.7733 23.0611 51.29C22.7594 53.1832 22.7319 57.8757 22.9927 59.659C24.1317 67.4926 27.2336 73.7493 32.5727 79.0315C37.8151 84.2314 43.9774 87.2223 51.691 88.3469C53.1866 88.5667 58.1281 88.5667 59.6512 88.3469C67.4607 87.2216 73.513 84.2448 78.8788 78.8801C84.2453 73.5161 87.2232 67.4651 88.3488 59.659C88.5687 58.1358 88.5687 53.1973 88.3488 51.7015C87.2098 43.8672 84.2313 37.8311 78.8788 32.4798C73.6223 27.2257 67.5833 24.1938 60.1312 23.0961C58.4016 22.8354 54.4905 22.7255 52.8018 22.8904ZM49.2199 25.9637C49.2199 25.9912 48.9732 26.1836 48.6574 26.3752C46.5578 27.7745 43.7166 31.3278 42.0835 34.6069C41.7678 35.2516 41.4386 35.787 41.3562 35.787C40.8205 35.787 35.578 34.0037 34.9606 33.6057C34.8232 33.5232 34.9331 33.345 35.4138 32.8919C37.7334 30.7655 41.1919 28.625 44.4172 27.3356C46.3379 26.5669 49.2199 25.7439 49.2199 25.9637ZM63.9599 26.3337C68.2966 27.5681 72.8258 30.0518 75.9277 32.8919C76.4084 33.345 76.5177 33.5232 76.3809 33.6057C75.7494 34.0037 70.5203 35.787 69.9713 35.787C69.8888 35.787 69.5047 35.1557 69.1065 34.3737C68.2558 32.6996 67.4593 31.4377 66.3069 29.9559C65.3596 28.7349 63.5482 26.9516 62.6834 26.3752C61.7502 25.758 61.9152 25.758 63.9599 26.3337ZM54.4356 31.9457V37.4336H53.1732C50.552 37.4196 44.0056 36.6107 44.0056 36.281C44.0056 36.0337 45.1995 33.8798 46.0228 32.6587C46.9426 31.2728 48.9739 29.1189 50.1129 28.3093C51.1144 27.5956 52.1991 27.0474 53.2007 26.7177C54.5723 26.2794 54.4356 25.7165 54.4356 31.9457ZM58.0175 26.6768C61.2012 27.6238 64.399 30.6697 66.7051 34.9634C67.0484 35.6081 67.3366 36.1979 67.3366 36.2803C67.3366 36.6093 60.7902 37.4189 58.1824 37.433H56.906V31.945C56.906 27.4998 56.9335 26.457 57.0843 26.457C57.1802 26.4577 57.6059 26.5535 58.0175 26.6768ZM34.1917 35.9238C35.1389 36.3352 39.1184 37.7071 40.3814 38.0502C40.4914 38.0777 40.3814 38.585 40.0657 39.5185C38.7343 43.4839 37.9794 47.7093 37.6087 53.2382L37.5262 54.4458H31.3505H25.1614L25.2573 53.2382C25.683 48.0658 27.5078 42.8801 30.418 38.6131C31.2278 37.4196 32.82 35.3756 32.9293 35.3756C32.9568 35.3756 33.5193 35.6222 34.1917 35.9238ZM79.2214 36.2944C82.1718 39.8617 84.4096 44.4436 85.4521 49.1086C85.7403 50.3846 86.1385 53.2107 86.1385 53.9794V54.4458H79.9629C76.5727 54.4458 73.7865 54.4049 73.7865 54.3359C73.7865 54.281 73.7181 53.3072 73.6491 52.182C73.3199 47.3803 72.5376 43.2641 71.1921 39.3128C70.9038 38.4758 70.8354 38.0917 70.9454 38.0643C72.3452 37.6662 76.1879 36.3359 77.0802 35.9378C77.7251 35.6363 78.2882 35.403 78.3425 35.389C78.3982 35.3756 78.7964 35.787 79.2214 36.2944ZM44.4849 38.9422C46.2279 39.2712 50.249 39.7243 52.6235 39.8476L54.4349 39.9434V47.1879V54.4458H47.2027H39.9832L40.0657 52.69C40.244 49.3834 40.7381 46.1458 41.6029 42.8526C42.097 40.9453 42.8652 38.6681 43.0167 38.6681C43.0717 38.6681 43.73 38.7914 44.4849 38.9422ZM68.7089 39.4502C69.9854 42.8526 71.0285 48.2448 71.2618 52.621L71.3577 54.4458H64.1248H56.906V47.1879V39.9441L58.6624 39.8483C61.6819 39.6834 65.9362 39.1895 67.4734 38.8195C68.3516 38.5991 68.3932 38.6131 68.7089 39.4502ZM37.6093 58.2463C37.9526 63.5561 38.7349 67.8773 40.0663 71.8427C40.3821 72.7755 40.492 73.2835 40.3821 73.311C37.8567 74.0381 35.1939 74.9985 33.0667 75.9314C32.696 76.1096 29.7865 72.0484 28.5241 69.5788C26.7261 66.0806 25.5731 62.0328 25.258 58.1089L25.1614 56.9154H31.3512H37.5269L37.6093 58.2463ZM54.4356 64.1592V71.4171L51.8277 71.5679C49.1374 71.7462 45.8029 72.1442 44.1282 72.4874C43.5933 72.5973 43.1126 72.6931 43.0442 72.6931C42.7425 72.6931 41.5754 68.8102 40.9854 65.8333C40.4914 63.418 40.1897 61.0034 40.0657 58.6578L39.9832 56.9154H47.202H54.4349V64.1592H54.4356ZM71.2752 58.6853C71.0969 62.1568 70.4104 66.2722 69.4638 69.4964C69.0522 70.9507 68.5031 72.5423 68.3798 72.6656C68.3523 72.679 67.6249 72.5832 66.7742 72.419C64.3038 71.9801 62.2725 71.7468 59.4863 71.5686L56.906 71.4178V64.1599V56.9154H64.1389H71.3577L71.2752 58.6853ZM86.1385 57.3818C86.1385 58.2738 85.7128 61.0999 85.3562 62.6091C84.3546 66.8486 82.5566 70.6491 79.8804 74.2023C78.3707 76.192 78.6449 76.0955 76.7785 75.3001C75.5161 74.7787 73.1966 73.9832 70.9454 73.2969C70.8079 73.2695 70.8354 73.0637 71.0553 72.5014C71.9335 70.1143 72.9083 65.9981 73.2924 62.8839C73.4708 61.5529 73.7724 57.8214 73.7865 57.0802C73.7865 56.9569 75.1179 56.9154 79.9629 56.9154H86.1385V57.3818ZM54.4356 79.4155C54.4356 83.8608 54.4081 84.9035 54.2572 84.9035C53.8731 84.9035 52.5417 84.4371 51.691 84.0116C49.4405 82.8729 47.2442 80.719 45.5428 77.9747C44.8154 76.8086 44.0056 75.2585 44.0056 75.0521C44.0056 74.8598 48.0816 74.2559 50.9361 74.0234C51.2378 73.9959 52.1442 73.9684 52.9674 73.955L54.4362 73.9276V79.4155H54.4356ZM62.3952 74.2023C65.0305 74.518 67.336 74.9295 67.336 75.0802C67.336 75.3409 66.1286 77.4949 65.3047 78.73C64.3574 80.1293 62.3677 82.2423 61.2287 83.0519C59.9248 83.9847 57.8526 84.9042 57.0836 84.9042C56.9328 84.9042 56.9053 83.8614 56.9053 79.3887V73.8873L59.074 73.9698C60.2546 74.0241 61.7502 74.1199 62.3952 74.2023ZM42.2203 76.9735C43.785 80.0602 45.9946 82.8729 48.2592 84.6703C49.4257 85.6032 49.4257 85.6032 47.1336 84.9444C43.071 83.8058 38.8026 81.4596 35.564 78.606C35.1932 78.2769 34.8641 77.9613 34.8366 77.9063C34.7407 77.6731 40.5048 75.6016 41.273 75.5742C41.4245 75.5742 41.7403 76.054 42.2203 76.9735ZM71.7834 76.054C73.3756 76.5345 75.9968 77.5083 76.395 77.7555C76.5459 77.8655 76.4634 78.0022 75.9143 78.4827C72.1541 81.8168 66.925 84.5055 62.5333 85.3834C61.9842 85.4933 61.9983 85.4792 63.1232 84.6288C65.1404 83.1196 67.6249 79.9503 69.1206 76.9735C69.5047 76.2048 69.9029 75.5742 70.0129 75.5742C70.1087 75.5742 70.9045 75.7933 71.7834 76.054Z" stroke="#F3D94E" stroke-width="0.972252" mask="url(#path-2-outside-1_91999_7194)"/>
<path fill-rule="evenodd" clip-rule="evenodd" d="M71.8708 121.103C71.8708 120.432 71.3267 119.888 70.6555 119.888H40.6968C40.0256 119.888 39.4814 120.432 39.4814 121.103V125.819C39.4814 126.491 40.0256 127.035 40.6968 127.035H48.8162C49.3951 127.035 49.8812 126.62 50.0889 126.08C50.9495 123.84 53.1264 122.25 55.6758 122.25C58.2252 122.25 60.402 123.84 61.2627 126.08C61.4704 126.62 61.9565 127.035 62.5354 127.035H70.6555C71.3267 127.035 71.8708 126.491 71.8708 125.819V121.103Z" fill="#F3D94E"/>
<circle cx="55.6788" cy="128.27" r="3.49426" fill="#F3D94E"/>
<path fill-rule="evenodd" clip-rule="evenodd" d="M39.4847 135.306C39.4847 135.977 40.0288 136.521 40.7 136.521L70.6587 136.521C71.3299 136.521 71.874 135.977 71.874 135.306L71.874 130.59C71.874 129.919 71.3299 129.374 70.6587 129.374L62.5393 129.374C61.9604 129.374 61.4743 129.789 61.2666 130.329C60.4059 132.569 58.2291 134.159 55.6797 134.159C53.1303 134.159 50.9534 132.569 50.0928 130.329C49.8851 129.789 49.399 129.374 48.8201 129.374L40.7 129.374C40.0288 129.374 39.4847 129.919 39.4847 130.59L39.4847 135.306Z" fill="#F3D94E"/>
<rect width="92.8181" height="174.72" rx="8.06605" transform="matrix(-1 0 0 1 101.818 97)" fill="#999999"/>
<rect width="76.1584" height="158.284" rx="2.42425" transform="matrix(-1 0 0 1 93.4873 105.162)" fill="white"/>
<path d="M65.5195 105.162H45.564V107.383C45.564 109.162 47.0064 110.605 48.7856 110.605H62.2979C64.0772 110.605 65.5195 109.162 65.5195 107.383V105.162Z" fill="#999999"/>
<rect x="21" y="192" width="68.3998" height="64.7585" rx="1" fill="white" stroke="#1D70B8" stroke-width="2"/>
<rect x="45.4893" y="215.275" width="19.4206" height="24.2758" fill="#BCE4FD"/>
<path fill-rule="evenodd" clip-rule="evenodd" d="M43.0645 237.719V214.849C43.0645 213.744 43.9599 212.849 45.0645 212.849H64.1265C65.231 212.849 66.1265 213.744 66.1265 214.849V238.619C65.4862 239.055 64.8185 239.454 64.1265 239.813L64.1265 214.849H45.0645V239.126C44.3675 238.698 43.6996 238.228 43.0645 237.719ZM46.6109 239.98C49.2014 241.26 52.1185 241.979 55.2037 241.979C58.2888 241.979 61.206 241.26 63.7965 239.98H46.6109Z" fill="#1D70B8"/>
<circle cx="55.1999" cy="222.558" r="18.4206" stroke="#1D70B8" stroke-width="2"/>
<ellipse cx="33.3606" cy="247.373" rx="4.46122" ry="4.45056" fill="url(#paint0_linear_91999_7194)"/>
<ellipse cx="44.2727" cy="247.373" rx="4.46122" ry="4.45056" fill="url(#paint1_linear_91999_7194)"/>
<ellipse cx="55.1878" cy="247.373" rx="4.46122" ry="4.45056" fill="url(#paint2_linear_91999_7194)"/>
<ellipse cx="66.0999" cy="247.373" rx="4.46122" ry="4.45056" fill="url(#paint3_linear_91999_7194)"/>
<ellipse cx="77.014" cy="247.373" rx="4.46122" ry="4.45056" fill="url(#paint4_linear_91999_7194)"/>
<ellipse cx="33.6391" cy="247.451" rx="4.63906" ry="4.45056" fill="url(#paint5_linear_91999_7194)"/>
<ellipse cx="44.4643" cy="247.451" rx="4.63906" ry="4.45056" fill="url(#paint6_linear_91999_7194)"/>
<defs>
<linearGradient id="paint0_linear_91999_7194" x1="33.3606" y1="242.923" x2="33.3606" y2="251.824" gradientUnits="userSpaceOnUse">
<stop stop-color="#FAFAFA"/>
<stop offset="1" stop-color="#BBBBBB"/>
</linearGradient>
<linearGradient id="paint1_linear_91999_7194" x1="44.2727" y1="242.923" x2="44.2727" y2="251.824" gradientUnits="userSpaceOnUse">
<stop stop-color="#FAFAFA"/>
<stop offset="1" stop-color="#BBBBBB"/>
</linearGradient>
<linearGradient id="paint2_linear_91999_7194" x1="55.1878" y1="242.923" x2="55.1878" y2="251.824" gradientUnits="userSpaceOnUse">
<stop stop-color="#FAFAFA"/>
<stop offset="1" stop-color="#BBBBBB"/>
</linearGradient>
<linearGradient id="paint3_linear_91999_7194" x1="66.0999" y1="242.923" x2="66.0999" y2="251.824" gradientUnits="userSpaceOnUse">
<stop stop-color="#FAFAFA"/>
<stop offset="1" stop-color="#BBBBBB"/>
</linearGradient>
<linearGradient id="paint4_linear_91999_7194" x1="77.014" y1="242.923" x2="77.014" y2="251.824" gradientUnits="userSpaceOnUse">
<stop stop-color="#FAFAFA"/>
<stop offset="1" stop-color="#BBBBBB"/>
</linearGradient>
<linearGradient id="paint5_linear_91999_7194" x1="33.6391" y1="243" x2="33.6391" y2="251.901" gradientUnits="userSpaceOnUse">
<stop stop-color="#B2C4FE"/>
<stop offset="1" stop-color="#0334D3"/>
</linearGradient>
<linearGradient id="paint6_linear_91999_7194" x1="44.4643" y1="243" x2="44.4643" y2="251.901" gradientUnits="userSpaceOnUse">
<stop stop-color="#B2C4FE"/>
<stop offset="1" stop-color="#0334D3"/>
</linearGradient>
</defs>
</svg>
