<svg width="360" height="34" viewBox="0 0 360 34" fill="none" xmlns="http://www.w3.org/2000/svg">
<path d="M20.5184 16.4219V25H19.4344V17.7754L17.2488 18.5723V17.5938L20.3484 16.4219H20.5184ZM29.8715 22.1289V23.0195H23.7074V22.3809L27.5277 16.4688H28.4125L27.4633 18.1797L24.9379 22.1289H29.8715ZM28.682 16.4688V25H27.598V16.4688H28.682ZM31.3262 24.4258C31.3262 24.2422 31.3828 24.0879 31.4961 23.9629C31.6133 23.834 31.7812 23.7695 32 23.7695C32.2188 23.7695 32.3848 23.834 32.498 23.9629C32.6152 24.0879 32.6738 24.2422 32.6738 24.4258C32.6738 24.6055 32.6152 24.7578 32.498 24.8828C32.3848 25.0078 32.2188 25.0703 32 25.0703C31.7812 25.0703 31.6133 25.0078 31.4961 24.8828C31.3828 24.7578 31.3262 24.6055 31.3262 24.4258ZM31.332 19.252C31.332 19.0684 31.3887 18.9141 31.502 18.7891C31.6191 18.6602 31.7871 18.5957 32.0059 18.5957C32.2246 18.5957 32.3906 18.6602 32.5039 18.7891C32.6211 18.9141 32.6797 19.0684 32.6797 19.252C32.6797 19.4316 32.6211 19.584 32.5039 19.709C32.3906 19.834 32.2246 19.8965 32.0059 19.8965C31.7871 19.8965 31.6191 19.834 31.502 19.709C31.3887 19.584 31.332 19.4316 31.332 19.252ZM38.1246 16.4219V25H37.0406V17.7754L34.8551 18.5723V17.5938L37.9547 16.4219H38.1246ZM47.091 22.6914C47.091 23.2109 46.9699 23.6523 46.7277 24.0156C46.4895 24.375 46.1652 24.6484 45.7551 24.8359C45.3488 25.0234 44.8898 25.1172 44.3781 25.1172C43.8664 25.1172 43.4055 25.0234 42.9953 24.8359C42.5852 24.6484 42.2609 24.375 42.0227 24.0156C41.7844 23.6523 41.6652 23.2109 41.6652 22.6914C41.6652 22.3516 41.7297 22.041 41.8586 21.7598C41.9914 21.4746 42.177 21.2266 42.4152 21.0156C42.6574 20.8047 42.9426 20.6426 43.2707 20.5293C43.6027 20.4121 43.968 20.3535 44.3664 20.3535C44.8898 20.3535 45.3566 20.4551 45.7668 20.6582C46.177 20.8574 46.4992 21.1328 46.7336 21.4844C46.9719 21.8359 47.091 22.2383 47.091 22.6914ZM46.0012 22.668C46.0012 22.3516 45.9328 22.0723 45.7961 21.8301C45.6594 21.584 45.468 21.3926 45.2219 21.2559C44.9758 21.1191 44.6906 21.0508 44.3664 21.0508C44.0344 21.0508 43.7473 21.1191 43.5051 21.2559C43.2668 21.3926 43.0812 21.584 42.9484 21.8301C42.8156 22.0723 42.7492 22.3516 42.7492 22.668C42.7492 22.9961 42.8137 23.2773 42.9426 23.5117C43.0754 23.7422 43.2629 23.9199 43.5051 24.0449C43.7512 24.166 44.0422 24.2266 44.3781 24.2266C44.7141 24.2266 45.0031 24.166 45.2453 24.0449C45.4875 23.9199 45.673 23.7422 45.802 23.5117C45.9348 23.2773 46.0012 22.9961 46.0012 22.668ZM46.8918 18.6895C46.8918 19.1035 46.7824 19.4766 46.5637 19.8086C46.3449 20.1406 46.0461 20.4023 45.6672 20.5938C45.2883 20.7852 44.8586 20.8809 44.3781 20.8809C43.8898 20.8809 43.4543 20.7852 43.0715 20.5938C42.6926 20.4023 42.3957 20.1406 42.1809 19.8086C41.966 19.4766 41.8586 19.1035 41.8586 18.6895C41.8586 18.1934 41.966 17.7715 42.1809 17.4238C42.3996 17.0762 42.6984 16.8105 43.0773 16.627C43.4562 16.4434 43.8879 16.3516 44.3723 16.3516C44.8605 16.3516 45.2941 16.4434 45.673 16.627C46.052 16.8105 46.3488 17.0762 46.5637 17.4238C46.7824 17.7715 46.8918 18.1934 46.8918 18.6895ZM45.8078 18.707C45.8078 18.4219 45.7473 18.1699 45.6262 17.9512C45.5051 17.7324 45.3371 17.5605 45.1223 17.4355C44.9074 17.3066 44.6574 17.2422 44.3723 17.2422C44.0871 17.2422 43.8371 17.3027 43.6223 17.4238C43.4113 17.541 43.2453 17.709 43.1242 17.9277C43.007 18.1465 42.9484 18.4062 42.9484 18.707C42.9484 19 43.007 19.2559 43.1242 19.4746C43.2453 19.6934 43.4133 19.8633 43.6281 19.9844C43.843 20.1055 44.093 20.166 44.3781 20.166C44.6633 20.166 44.9113 20.1055 45.1223 19.9844C45.3371 19.8633 45.5051 19.6934 45.6262 19.4746C45.7473 19.2559 45.8078 19 45.8078 18.707Z" fill="#0B0C0C"/>
<path d="M303.5 16.2412C304.818 16.2412 306.058 16.4961 307.218 17.0059C308.378 17.498 309.389 18.1836 310.25 19.0625L303.5 25.8125L296.75 19.0625C297.611 18.1836 298.622 17.498 299.782 17.0059C300.942 16.4961 302.182 16.2412 303.5 16.2412Z" fill="#0B0C0C"/>
<path d="M321.908 26.4082H311.092L321.908 15.5918V26.4082Z" fill="#0B0C0C"/>
<path d="M334.209 15.4072C334.436 15.4072 334.624 15.4922 334.775 15.6621C334.945 15.8132 335.03 16.002 335.03 16.2285V25.4893C335.03 25.7158 334.945 25.9046 334.775 26.0557C334.624 26.2067 334.436 26.2822 334.209 26.2822H329.791C329.564 26.2822 329.366 26.2067 329.196 26.0557C329.045 25.9046 328.97 25.7158 328.97 25.4893V16.2285C328.97 16.002 329.045 15.8132 329.196 15.6621C329.366 15.4922 329.564 15.4072 329.791 15.4072H330.782V14.2178H333.218V15.4072H334.209Z" fill="#0B0C0C"/>
</svg>
