<svg width="17" height="16" viewBox="0 0 17 16" fill="none" xmlns="http://www.w3.org/2000/svg">
<path d="M16.5 8.44617V14.0493C16.5 14.5888 16.3063 15.0489 15.9189 15.4293C15.5316 15.8098 15.0681 16 14.5285 16H2.45071C1.91115 16 1.45115 15.8098 1.07069 15.4293C0.690229 15.0489 0.5 14.5888 0.5 14.0493V1.97147C0.5 1.43191 0.690229 0.968439 1.07069 0.581064C1.45115 0.193688 1.91115 0 2.45071 0H8.05383V1.97147H2.45071V14.0493H14.5285V8.44617H16.5ZM6.9332 10.9364L5.58431 9.5668L13.1796 1.97147H9.29896V0H16.5V7.20104H14.5285V3.34112L6.9332 10.9364Z" fill="#008547"/>
</svg>
