<svg width="16" height="16" viewBox="0 0 16 16" fill="none" xmlns="http://www.w3.org/2000/svg">
<path d="M16 8.44617V14.0493C16 14.5888 15.8063 15.0489 15.4189 15.4293C15.0316 15.8098 14.5681 16 14.0285 16H1.95071C1.41115 16 0.951146 15.8098 0.570687 15.4293C0.190229 15.0489 0 14.5888 0 14.0493V1.97147C0 1.43191 0.190229 0.968439 0.570687 0.581064C0.951146 0.193688 1.41115 0 1.95071 0H7.55383V1.97147H1.95071V14.0493H14.0285V8.44617H16ZM6.4332 10.9364L5.08431 9.5668L12.6796 1.97147H8.79896V0H16V7.20104H14.0285V3.34112L6.4332 10.9364Z" fill="white"/>
</svg>
