<svg width="18" height="18" viewBox="0 0 18 18" fill="none" xmlns="http://www.w3.org/2000/svg">
<path d="M15.3501 12.5864C15.3501 13.1924 14.877 13.6572 14.3208 13.6572C13.7646 13.6572 13.3164 13.1841 13.3164 12.603V9.47363L13.4492 6.38574L12.1211 7.87158L4.45117 15.5332C4.22705 15.7573 3.96973 15.8735 3.6958 15.8735C3.13965 15.8735 2.6416 15.3589 2.6416 14.8193C2.6416 14.5537 2.76611 14.2798 2.98193 14.064L10.6436 6.39404L12.1294 5.07422L8.91699 5.19043H5.90381C5.33105 5.19043 4.85791 4.74219 4.85791 4.19434C4.85791 3.63818 5.30615 3.17334 5.92041 3.17334H14.2544C14.9102 3.17334 15.3418 3.61328 15.3418 4.26074L15.3501 12.5864Z" fill="white"/>
</svg>
