<svg width="129" height="198" viewBox="0 0 129 198" fill="none" xmlns="http://www.w3.org/2000/svg">
<g filter="url(#filter0_d_93724_15839)">
<path d="M110.389 14L3 14L3 178H110.357C118.013 178 123.987 171.995 123.987 165.028V27.0523C124.321 19.7656 118.013 14 110.357 14" fill="#253D65"/>
</g>
<path d="M62.5389 163.376C64.7566 163.376 66.5544 161.59 66.5544 159.386C66.5544 157.183 64.7566 155.396 62.5389 155.396C60.3212 155.396 58.5234 157.183 58.5234 159.386C58.5234 161.59 60.3212 163.376 62.5389 163.376Z" fill="#F3D94E"/>
<path d="M46.4297 150.076V158.056H55.9277C56.2359 156.554 57.057 155.204 58.2519 154.234C59.4469 153.264 60.9424 152.735 62.4852 152.735C64.028 152.735 65.5235 153.264 66.7185 154.234C67.9134 155.204 68.7345 156.554 69.0428 158.056H78.545V150.076H46.4297Z" fill="#F3D94E"/>
<path d="M78.545 168.696V160.716H69.0428C68.7345 162.218 67.9134 163.568 66.7185 164.538C65.5235 165.507 64.028 166.037 62.4852 166.037C60.9424 166.037 59.4469 165.507 58.2519 164.538C57.057 163.568 56.2359 162.218 55.9277 160.716H46.4297V168.696H78.545Z" fill="#F3D94E"/>
<path d="M62.4026 95.9152H62.4023C44.7058 95.9162 30.3802 81.6667 30.3812 64.1079L30.3812 64.1075C30.3782 46.5479 44.7057 32.2982 62.4035 32.2982C80.0991 32.2982 94.4257 46.5478 94.4247 64.1066V64.1068C94.4257 81.6667 80.0979 95.9172 62.4026 95.9152Z" stroke="#F3D94E" stroke-width="3.0828" stroke-miterlimit="10"/>
<path d="M62.4023 30.8789V97.3364" stroke="#F3D94E" stroke-width="3.0828" stroke-miterlimit="10"/>
<path d="M95.8445 64.1064H28.9609" stroke="#F3D94E" stroke-width="3.0828" stroke-miterlimit="10"/>
<mask id="path-8-inside-1_93724_15839" fill="white">
<path d="M60.7782 30.9536C60.7782 30.9536 44.3516 33.6461 44.3516 64.1081C44.3516 94.5701 60.7782 97.2149 60.7782 97.2149"/>
</mask>
<path d="M60.7782 30.9536C60.2796 27.9114 60.2768 27.9119 60.274 27.9123C60.273 27.9125 60.2701 27.913 60.2681 27.9133C60.264 27.914 60.2596 27.9147 60.255 27.9155C60.2458 27.9171 60.2355 27.9189 60.2242 27.9209C60.2017 27.9249 60.1751 27.9299 60.1445 27.9358C60.0834 27.9476 60.0066 27.9635 59.915 27.9841C59.7319 28.0255 59.4895 28.0862 59.1964 28.1731C58.6106 28.3467 57.8196 28.6254 56.8935 29.0635C55.0363 29.9419 52.6459 31.4565 50.2922 34.0247C45.5418 39.208 41.2688 48.3091 41.2688 64.1081H47.4344C47.4344 49.4451 51.3747 41.969 54.8376 38.1905C56.5905 36.2779 58.3068 35.2155 59.5297 34.6371C60.1435 34.3468 60.6359 34.1771 60.9484 34.0845C61.1045 34.0383 61.215 34.0114 61.2725 33.9984C61.3013 33.9919 61.3166 33.9889 61.3177 33.9887C61.3182 33.9886 61.3152 33.9892 61.3084 33.9904C61.305 33.991 61.3007 33.9918 61.2955 33.9927C61.2929 33.9932 61.29 33.9936 61.2869 33.9942C61.2854 33.9944 61.2828 33.9948 61.2821 33.995C61.2795 33.9954 61.2769 33.9958 60.7782 30.9536ZM41.2688 64.1081C41.2688 79.9067 45.5416 88.998 50.295 94.1707C52.6501 96.7335 55.0418 98.2421 56.9001 99.1156C57.8268 99.5513 58.6182 99.8278 59.2043 99.9999C59.4975 100.086 59.74 100.146 59.9233 100.187C60.0149 100.207 60.0919 100.223 60.153 100.235C60.1836 100.24 60.2102 100.245 60.2328 100.249C60.2441 100.251 60.2543 100.253 60.2636 100.254C60.2682 100.255 60.2726 100.256 60.2767 100.257C60.2787 100.257 60.2816 100.257 60.2826 100.258C60.2854 100.258 60.2882 100.259 60.7782 97.2149C61.2683 94.1713 61.2709 94.1718 61.2735 94.1722C61.2743 94.1723 61.2768 94.1727 61.2783 94.173C61.2814 94.1735 61.2843 94.174 61.2869 94.1744C61.2922 94.1753 61.2965 94.176 61.2999 94.1766C61.3067 94.1778 61.3097 94.1784 61.3092 94.1783C61.3082 94.1781 61.2929 94.1752 61.2642 94.1688C61.2068 94.156 61.0964 94.1295 60.9405 94.0838C60.6283 93.9921 60.1364 93.8241 59.5231 93.5358C58.3013 92.9615 56.5864 91.905 54.8348 89.9989C51.3748 86.2336 47.4344 78.7715 47.4344 64.1081H41.2688Z" fill="#F3D94E" mask="url(#path-8-inside-1_93724_15839)"/>
<mask id="path-10-inside-2_93724_15839" fill="white">
<path d="M63.9375 30.9536C63.9375 30.9536 79.6622 33.646 79.6622 64.108C79.6622 94.57 63.9375 97.261 63.9375 97.261"/>
</mask>
<path d="M63.9375 30.9536C63.4172 33.9922 63.4145 33.9917 63.4118 33.9913C63.411 33.9911 63.4084 33.9907 63.4067 33.9904C63.4035 33.9898 63.4004 33.9893 63.3976 33.9888C63.392 33.9878 63.3873 33.9869 63.3834 33.9862C63.3757 33.9847 63.3716 33.9839 63.3709 33.9838C63.3694 33.9835 63.3816 33.9859 63.4066 33.9918C63.4566 34.0036 63.5572 34.029 63.7014 34.0737C63.9901 34.1631 64.4511 34.3286 65.0289 34.6141C66.1786 35.1822 67.8095 36.2338 69.4825 38.1407C72.7956 41.917 76.5794 49.4116 76.5794 64.108H82.745C82.745 48.3425 78.6665 39.2598 74.1172 34.0745C71.859 31.5005 69.5588 29.9752 67.7601 29.0864C66.8637 28.6435 66.0962 28.3608 65.5249 28.1839C65.2391 28.0954 65.002 28.0333 64.8216 27.9908C64.7314 27.9695 64.6553 27.9531 64.5944 27.9408C64.5639 27.9346 64.5372 27.9294 64.5144 27.9252C64.503 27.9231 64.4925 27.9212 64.4831 27.9195C64.4784 27.9186 64.4739 27.9178 64.4697 27.9171C64.4676 27.9167 64.4646 27.9162 64.4635 27.916C64.4606 27.9155 64.4578 27.915 63.9375 30.9536ZM76.5794 64.108C76.5794 78.8045 72.7956 86.2986 69.4826 90.0746C67.8097 91.9813 66.1787 93.0327 65.0291 93.6006C64.4513 93.8861 63.9903 94.0516 63.7017 94.1409C63.5575 94.1855 63.4568 94.211 63.4068 94.2228C63.3819 94.2287 63.3697 94.2311 63.3711 94.2308C63.3718 94.2307 63.376 94.2298 63.3837 94.2284C63.3875 94.2277 63.3923 94.2268 63.3979 94.2258C63.4007 94.2253 63.4037 94.2248 63.407 94.2242C63.4086 94.2239 63.4113 94.2235 63.4121 94.2233C63.4148 94.2229 63.4175 94.2224 63.9375 97.261C64.4575 100.3 64.4604 100.299 64.4633 100.299C64.4643 100.298 64.4673 100.298 64.4694 100.298C64.4736 100.297 64.4781 100.296 64.4828 100.295C64.4923 100.294 64.5027 100.292 64.5141 100.289C64.5369 100.285 64.5636 100.28 64.5941 100.274C64.655 100.262 64.7311 100.245 64.8213 100.224C65.0017 100.181 65.2389 100.119 65.5246 100.031C66.096 99.854 66.8635 99.5713 67.7599 99.1285C69.5586 98.2399 71.8589 96.7148 74.1171 94.1409C78.6665 88.9559 82.745 79.8736 82.745 64.108H76.5794Z" fill="#F3D94E" mask="url(#path-10-inside-2_93724_15839)"/>
<mask id="path-12-inside-3_93724_15839" fill="white">
<path d="M36.5117 42.6699C36.5117 42.6699 41.9056 53.3889 62.4021 53.3889C82.8987 53.3889 88.2925 42.6699 88.2925 42.6699"/>
</mask>
<path d="M36.5117 42.6699C33.7579 44.0556 33.759 44.0577 33.7601 44.0599C33.7604 44.0606 33.7615 44.0628 33.7623 44.0644C33.7639 44.0674 33.7655 44.0707 33.7673 44.0741C33.7707 44.0809 33.7746 44.0883 33.7788 44.0965C33.7872 44.1127 33.7971 44.1315 33.8085 44.1529C33.8313 44.1956 33.8602 44.2485 33.8955 44.3107C33.9661 44.4352 34.0623 44.5974 34.1867 44.7919C34.4355 45.1808 34.7975 45.6991 35.2932 46.3022C36.2856 47.5097 37.8112 49.0533 40.0281 50.5724C44.4936 53.6325 51.5846 56.4717 62.4021 56.4717V50.3061C52.723 50.3061 46.8688 47.7858 43.5133 45.4864C41.8197 44.3258 40.7158 43.1896 40.0564 42.3873C39.7261 41.9855 39.5066 41.6664 39.3803 41.4691C39.3172 41.3705 39.2775 41.3024 39.2591 41.2699C39.2499 41.2536 39.246 41.2463 39.2471 41.2484C39.2477 41.2495 39.2496 41.253 39.2526 41.2589C39.2542 41.2619 39.256 41.2655 39.2582 41.2697C39.2592 41.2718 39.2604 41.274 39.2616 41.2765C39.2622 41.2777 39.2632 41.2796 39.2635 41.2802C39.2645 41.2822 39.2655 41.2842 36.5117 42.6699ZM62.4021 56.4717C73.2196 56.4717 80.3106 53.6325 84.7761 50.5724C86.993 49.0533 88.5186 47.5097 89.5111 46.3022C90.0067 45.6991 90.3687 45.1808 90.6175 44.7919C90.7419 44.5974 90.8381 44.4352 90.9087 44.3107C90.944 44.2485 90.9729 44.1956 90.9957 44.1529C91.0071 44.1315 91.017 44.1127 91.0254 44.0965C91.0296 44.0883 91.0335 44.0809 91.037 44.0741C91.0387 44.0707 91.0403 44.0674 91.0419 44.0644C91.0427 44.0628 91.0438 44.0606 91.0442 44.0599C91.0452 44.0577 91.0463 44.0556 88.2925 42.6699C85.5387 41.2842 85.5397 41.2822 85.5407 41.2802C85.541 41.2796 85.542 41.2777 85.5426 41.2765C85.5438 41.274 85.545 41.2718 85.5461 41.2697C85.5482 41.2655 85.5501 41.2619 85.5516 41.2589C85.5547 41.253 85.5565 41.2495 85.5571 41.2484C85.5582 41.2463 85.5544 41.2536 85.5451 41.2699C85.5267 41.3024 85.487 41.3705 85.4239 41.4691C85.2976 41.6664 85.0781 41.9855 84.7478 42.3873C84.0885 43.1896 82.9846 44.3258 81.2909 45.4864C77.9354 47.7858 72.0812 50.3061 62.4021 50.3061V56.4717Z" fill="#F3D94E" mask="url(#path-12-inside-3_93724_15839)"/>
<mask id="path-14-inside-4_93724_15839" fill="white">
<path d="M36.5117 85.5461C36.5117 85.5461 41.9056 74.8271 62.4021 74.8271C82.8987 74.8271 88.2925 85.5461 88.2925 85.5461"/>
</mask>
<path d="M36.5117 85.5461C39.2655 86.9318 39.2645 86.9338 39.2635 86.9358C39.2632 86.9364 39.2622 86.9383 39.2616 86.9396C39.2604 86.942 39.2592 86.9442 39.2582 86.9463C39.256 86.9506 39.2542 86.9541 39.2526 86.9571C39.2496 86.963 39.2477 86.9665 39.2471 86.9676C39.246 86.9698 39.2499 86.9624 39.2591 86.9461C39.2775 86.9136 39.3172 86.8456 39.3803 86.7469C39.5066 86.5496 39.7261 86.2305 40.0564 85.8287C40.7158 85.0264 41.8197 83.8902 43.5133 82.7296C46.8688 80.4302 52.723 77.9099 62.4021 77.9099V71.7444C51.5846 71.7444 44.4936 74.5835 40.0281 77.6436C37.8112 79.1627 36.2856 80.7063 35.2932 81.9138C34.7975 82.5169 34.4355 83.0353 34.1867 83.4241C34.0623 83.6186 33.9661 83.7808 33.8955 83.9053C33.8602 83.9675 33.8313 84.0204 33.8085 84.0631C33.7971 84.0845 33.7872 84.1033 33.7788 84.1196C33.7746 84.1277 33.7707 84.1351 33.7673 84.142C33.7655 84.1454 33.7639 84.1486 33.7623 84.1517C33.7615 84.1532 33.7604 84.1554 33.7601 84.1561C33.759 84.1583 33.7579 84.1604 36.5117 85.5461ZM62.4021 77.9099C72.0812 77.9099 77.9354 80.4302 81.2909 82.7296C82.9846 83.8902 84.0885 85.0264 84.7478 85.8287C85.0781 86.2305 85.2976 86.5496 85.4239 86.7469C85.487 86.8456 85.5267 86.9136 85.5451 86.9461C85.5544 86.9624 85.5582 86.9698 85.5571 86.9676C85.5565 86.9665 85.5547 86.963 85.5516 86.9571C85.5501 86.9541 85.5482 86.9506 85.5461 86.9463C85.545 86.9442 85.5438 86.942 85.5426 86.9396C85.542 86.9383 85.541 86.9364 85.5407 86.9358C85.5397 86.9338 85.5387 86.9318 88.2925 85.5461C91.0463 84.1604 91.0452 84.1583 91.0442 84.1561C91.0438 84.1554 91.0427 84.1532 91.0419 84.1517C91.0403 84.1486 91.0387 84.1454 91.037 84.142C91.0335 84.1351 91.0296 84.1277 91.0254 84.1196C91.017 84.1033 91.0071 84.0845 90.9957 84.0631C90.9729 84.0204 90.944 83.9675 90.9087 83.9053C90.8381 83.7808 90.7419 83.6186 90.6175 83.4241C90.3687 83.0353 90.0067 82.5169 89.5111 81.9138C88.5186 80.7063 86.993 79.1627 84.7761 77.6436C80.3106 74.5835 73.2196 71.7444 62.4021 71.7444V77.9099Z" fill="#F3D94E" mask="url(#path-14-inside-4_93724_15839)"/>
<g filter="url(#filter1_d_93724_15839)">
<circle cx="58.5" cy="47.5" r="19.5" fill="#107DC5" fill-opacity="0.5" shape-rendering="crispEdges"/>
</g>
<g filter="url(#filter2_d_93724_15839)">
<circle cx="58.5014" cy="47.5" r="16.7632" fill="#107DC5" fill-opacity="0.5" shape-rendering="crispEdges"/>
</g>
<g filter="url(#filter3_d_93724_15839)">
<circle cx="58.1569" cy="47.8419" r="13.6842" fill="#107DC5" fill-opacity="0.8" shape-rendering="crispEdges"/>
</g>
<g filter="url(#filter4_d_93724_15839)">
<circle cx="58.1571" cy="47.8421" r="9.57895" fill="#107DC5" fill-opacity="0.8" shape-rendering="crispEdges"/>
</g>
<g filter="url(#filter5_d_93724_15839)">
<rect x="22.0938" y="13.0913" width="80.9199" height="169.932" rx="3" fill="white"/>
<path d="M101.5 5H23.7222C22.4454 5 21.1812 5.24101 20.0017 5.70927C18.8221 6.17753 17.7503 6.86387 16.8476 7.7291C15.0243 9.47652 14 11.8465 14 14.3177V182.037C14 184.508 15.0243 186.878 16.8476 188.626C17.7503 189.491 18.8221 190.177 20.0017 190.646C21.1812 191.114 22.4454 191.355 23.7222 191.355H101.5C104.078 191.355 106.551 190.373 108.374 188.626C110.197 186.878 111.222 184.508 111.222 182.037V14.3177C111.222 13.0941 110.97 11.8825 110.482 10.752C109.993 9.62152 109.277 8.59434 108.374 7.7291C107.471 6.86387 106.4 6.17753 105.22 5.70927C104.04 5.24101 102.776 5 101.5 5ZM103.93 179.831C103.93 182.335 101.875 184.367 99.3393 184.367H25.8824C23.3469 184.367 21.2916 182.335 21.2916 179.831V16.5242C21.2916 14.0196 23.3469 11.9883 25.8824 11.9883H53.472V13.8863C53.472 15.4116 54.7155 16.6472 56.2487 16.6472H69.0703C70.6034 16.6472 71.8469 15.4116 71.8469 13.8863V11.9883H99.3393C101.875 11.9883 103.93 14.0196 103.93 16.5242V179.831Z" fill="#999999" stroke="#999999" stroke-width="2.76656" stroke-linecap="round" stroke-linejoin="round"/>
</g>
<line x1="49.0607" y1="97.8202" x2="59.1398" y2="107.899" stroke="#037034" stroke-width="3"/>
<line x1="57.0384" y1="108.077" x2="76.9603" y2="88.9188" stroke="#037034" stroke-width="3"/>
<defs>
<filter id="filter0_d_93724_15839" x="0" y="11" width="129" height="172" filterUnits="userSpaceOnUse" color-interpolation-filters="sRGB">
<feFlood flood-opacity="0" result="BackgroundImageFix"/>
<feColorMatrix in="SourceAlpha" type="matrix" values="0 0 0 0 0 0 0 0 0 0 0 0 0 0 0 0 0 0 127 0" result="hardAlpha"/>
<feOffset dx="1" dy="1"/>
<feGaussianBlur stdDeviation="2"/>
<feComposite in2="hardAlpha" operator="out"/>
<feColorMatrix type="matrix" values="0 0 0 0 0 0 0 0 0 0 0 0 0 0 0 0 0 0 0.9 0"/>
<feBlend mode="normal" in2="BackgroundImageFix" result="effect1_dropShadow_93724_15839"/>
<feBlend mode="normal" in="SourceGraphic" in2="effect1_dropShadow_93724_15839" result="shape"/>
</filter>
<filter id="filter1_d_93724_15839" x="35" y="24" width="47" height="47" filterUnits="userSpaceOnUse" color-interpolation-filters="sRGB">
<feFlood flood-opacity="0" result="BackgroundImageFix"/>
<feColorMatrix in="SourceAlpha" type="matrix" values="0 0 0 0 0 0 0 0 0 0 0 0 0 0 0 0 0 0 127 0" result="hardAlpha"/>
<feOffset/>
<feGaussianBlur stdDeviation="2"/>
<feComposite in2="hardAlpha" operator="out"/>
<feColorMatrix type="matrix" values="0 0 0 0 0 0 0 0 0 0 0 0 0 0 0 0 0 0 0.25 0"/>
<feBlend mode="normal" in2="BackgroundImageFix" result="effect1_dropShadow_93724_15839"/>
<feBlend mode="normal" in="SourceGraphic" in2="effect1_dropShadow_93724_15839" result="shape"/>
</filter>
<filter id="filter2_d_93724_15839" x="37.7383" y="26.7368" width="41.5273" height="41.5264" filterUnits="userSpaceOnUse" color-interpolation-filters="sRGB">
<feFlood flood-opacity="0" result="BackgroundImageFix"/>
<feColorMatrix in="SourceAlpha" type="matrix" values="0 0 0 0 0 0 0 0 0 0 0 0 0 0 0 0 0 0 127 0" result="hardAlpha"/>
<feOffset/>
<feGaussianBlur stdDeviation="2"/>
<feComposite in2="hardAlpha" operator="out"/>
<feColorMatrix type="matrix" values="0 0 0 0 0 0 0 0 0 0 0 0 0 0 0 0 0 0 0.25 0"/>
<feBlend mode="normal" in2="BackgroundImageFix" result="effect1_dropShadow_93724_15839"/>
<feBlend mode="normal" in="SourceGraphic" in2="effect1_dropShadow_93724_15839" result="shape"/>
</filter>
<filter id="filter3_d_93724_15839" x="39.4727" y="29.1577" width="37.3672" height="37.3687" filterUnits="userSpaceOnUse" color-interpolation-filters="sRGB">
<feFlood flood-opacity="0" result="BackgroundImageFix"/>
<feColorMatrix in="SourceAlpha" type="matrix" values="0 0 0 0 0 0 0 0 0 0 0 0 0 0 0 0 0 0 127 0" result="hardAlpha"/>
<feOffset/>
<feGaussianBlur stdDeviation="2.5"/>
<feComposite in2="hardAlpha" operator="out"/>
<feColorMatrix type="matrix" values="0 0 0 0 0 0 0 0 0 0 0 0 0 0 0 0 0 0 0.25 0"/>
<feBlend mode="normal" in2="BackgroundImageFix" result="effect1_dropShadow_93724_15839"/>
<feBlend mode="normal" in="SourceGraphic" in2="effect1_dropShadow_93724_15839" result="shape"/>
</filter>
<filter id="filter4_d_93724_15839" x="44.5781" y="34.2632" width="27.1562" height="27.1577" filterUnits="userSpaceOnUse" color-interpolation-filters="sRGB">
<feFlood flood-opacity="0" result="BackgroundImageFix"/>
<feColorMatrix in="SourceAlpha" type="matrix" values="0 0 0 0 0 0 0 0 0 0 0 0 0 0 0 0 0 0 127 0" result="hardAlpha"/>
<feOffset/>
<feGaussianBlur stdDeviation="2"/>
<feComposite in2="hardAlpha" operator="out"/>
<feColorMatrix type="matrix" values="0 0 0 0 0 0 0 0 0 0 0 0 0 0 0 0 0 0 0.25 0"/>
<feBlend mode="normal" in2="BackgroundImageFix" result="effect1_dropShadow_93724_15839"/>
<feBlend mode="normal" in="SourceGraphic" in2="effect1_dropShadow_93724_15839" result="shape"/>
</filter>
<filter id="filter5_d_93724_15839" x="9.61719" y="0.616699" width="107.988" height="197.122" filterUnits="userSpaceOnUse" color-interpolation-filters="sRGB">
<feFlood flood-opacity="0" result="BackgroundImageFix"/>
<feColorMatrix in="SourceAlpha" type="matrix" values="0 0 0 0 0 0 0 0 0 0 0 0 0 0 0 0 0 0 127 0" result="hardAlpha"/>
<feOffset dx="1" dy="1"/>
<feGaussianBlur stdDeviation="2"/>
<feComposite in2="hardAlpha" operator="out"/>
<feColorMatrix type="matrix" values="0 0 0 0 0 0 0 0 0 0 0 0 0 0 0 0 0 0 1 0"/>
<feBlend mode="normal" in2="BackgroundImageFix" result="effect1_dropShadow_93724_15839"/>
<feBlend mode="normal" in="SourceGraphic" in2="effect1_dropShadow_93724_15839" result="shape"/>
</filter>
</defs>
</svg>
