<svg width="209" height="334" viewBox="0 0 209 334" fill="none" xmlns="http://www.w3.org/2000/svg">
<rect x="194" y="136" width="11" height="198" rx="5" fill="#999999"/>
<g filter="url(#filter0_d_93724_15830)">
<path d="M110.389 3L3 3L3 167H110.357C118.013 167 123.987 160.995 123.987 154.028V16.0523C124.321 8.76562 118.013 3 110.357 3" fill="#253D65"/>
</g>
<path d="M62.5389 152.376C64.7566 152.376 66.5544 150.59 66.5544 148.386C66.5544 146.183 64.7566 144.396 62.5389 144.396C60.3212 144.396 58.5234 146.183 58.5234 148.386C58.5234 150.59 60.3212 152.376 62.5389 152.376Z" fill="#F3D94E"/>
<path d="M46.4297 139.076V147.056H55.9277C56.2359 145.554 57.057 144.204 58.2519 143.234C59.4469 142.264 60.9424 141.735 62.4852 141.735C64.028 141.735 65.5235 142.264 66.7185 143.234C67.9134 144.204 68.7345 145.554 69.0428 147.056H78.545V139.076H46.4297Z" fill="#F3D94E"/>
<path d="M78.545 157.696V149.716H69.0428C68.7345 151.218 67.9134 152.568 66.7185 153.538C65.5235 154.507 64.028 155.037 62.4852 155.037C60.9424 155.037 59.4469 154.507 58.2519 153.538C57.057 152.568 56.2359 151.218 55.9277 149.716H46.4297V157.696H78.545Z" fill="#F3D94E"/>
<path d="M62.4026 84.9152H62.4023C44.7058 84.9162 30.3802 70.6667 30.3812 53.1079L30.3812 53.1075C30.3782 35.5479 44.7057 21.2982 62.4035 21.2982C80.0991 21.2982 94.4257 35.5478 94.4247 53.1066V53.1068C94.4257 70.6667 80.0979 84.9172 62.4026 84.9152Z" stroke="#F3D94E" stroke-width="3.0828" stroke-miterlimit="10"/>
<path d="M62.4023 19.8789V86.3364" stroke="#F3D94E" stroke-width="3.0828" stroke-miterlimit="10"/>
<path d="M95.8445 53.1064H28.9609" stroke="#F3D94E" stroke-width="3.0828" stroke-miterlimit="10"/>
<mask id="path-9-inside-1_93724_15830" fill="white">
<path d="M60.7782 19.9536C60.7782 19.9536 44.3516 22.6461 44.3516 53.1081C44.3516 83.5701 60.7782 86.2149 60.7782 86.2149"/>
</mask>
<path d="M60.7782 19.9536C60.2796 16.9114 60.2768 16.9119 60.274 16.9123C60.273 16.9125 60.2701 16.913 60.2681 16.9133C60.264 16.914 60.2596 16.9147 60.255 16.9155C60.2458 16.9171 60.2355 16.9189 60.2242 16.9209C60.2017 16.9249 60.1751 16.9299 60.1445 16.9358C60.0834 16.9476 60.0066 16.9635 59.915 16.9841C59.7319 17.0255 59.4895 17.0862 59.1964 17.1731C58.6106 17.3467 57.8196 17.6254 56.8935 18.0635C55.0363 18.9419 52.6459 20.4565 50.2922 23.0247C45.5418 28.208 41.2688 37.3091 41.2688 53.1081H47.4344C47.4344 38.4451 51.3747 30.969 54.8376 27.1905C56.5905 25.2779 58.3068 24.2155 59.5297 23.6371C60.1435 23.3468 60.6359 23.1771 60.9484 23.0845C61.1045 23.0383 61.215 23.0114 61.2725 22.9984C61.3013 22.9919 61.3166 22.9889 61.3177 22.9887C61.3182 22.9886 61.3152 22.9892 61.3084 22.9904C61.305 22.991 61.3007 22.9918 61.2955 22.9927C61.2929 22.9932 61.29 22.9936 61.2869 22.9942C61.2854 22.9944 61.2828 22.9948 61.2821 22.995C61.2795 22.9954 61.2769 22.9958 60.7782 19.9536ZM41.2688 53.1081C41.2688 68.9067 45.5416 77.998 50.295 83.1707C52.6501 85.7335 55.0418 87.2421 56.9001 88.1156C57.8268 88.5513 58.6182 88.8278 59.2043 88.9999C59.4975 89.0859 59.74 89.146 59.9233 89.1868C60.0149 89.2072 60.0919 89.2229 60.153 89.2345C60.1836 89.2404 60.2102 89.2452 60.2328 89.2492C60.2441 89.2512 60.2543 89.2529 60.2636 89.2545C60.2682 89.2553 60.2726 89.256 60.2767 89.2567C60.2787 89.257 60.2816 89.2575 60.2826 89.2576C60.2854 89.2581 60.2882 89.2585 60.7782 86.2149C61.2683 83.1713 61.2709 83.1718 61.2735 83.1722C61.2743 83.1723 61.2768 83.1727 61.2783 83.173C61.2814 83.1735 61.2843 83.174 61.2869 83.1744C61.2922 83.1753 61.2965 83.176 61.2999 83.1766C61.3067 83.1778 61.3097 83.1784 61.3092 83.1783C61.3082 83.1781 61.2929 83.1752 61.2642 83.1688C61.2068 83.156 61.0964 83.1295 60.9405 83.0838C60.6283 82.9921 60.1364 82.8241 59.5231 82.5358C58.3013 81.9615 56.5864 80.905 54.8348 78.9989C51.3748 75.2336 47.4344 67.7715 47.4344 53.1081H41.2688Z" fill="#F3D94E" mask="url(#path-9-inside-1_93724_15830)"/>
<mask id="path-11-inside-2_93724_15830" fill="white">
<path d="M63.9375 19.9536C63.9375 19.9536 79.6622 22.646 79.6622 53.108C79.6622 83.57 63.9375 86.261 63.9375 86.261"/>
</mask>
<path d="M63.9375 19.9536C63.4172 22.9922 63.4145 22.9917 63.4118 22.9913C63.411 22.9911 63.4084 22.9907 63.4067 22.9904C63.4035 22.9898 63.4004 22.9893 63.3976 22.9888C63.392 22.9878 63.3873 22.9869 63.3834 22.9862C63.3757 22.9847 63.3716 22.9839 63.3709 22.9838C63.3694 22.9835 63.3816 22.9859 63.4066 22.9918C63.4566 23.0036 63.5572 23.029 63.7014 23.0737C63.9901 23.1631 64.4511 23.3286 65.0289 23.6141C66.1786 24.1822 67.8095 25.2338 69.4825 27.1407C72.7956 30.917 76.5794 38.4116 76.5794 53.108H82.745C82.745 37.3425 78.6665 28.2598 74.1172 23.0745C71.859 20.5005 69.5588 18.9752 67.7601 18.0864C66.8637 17.6435 66.0962 17.3608 65.5249 17.1839C65.2391 17.0954 65.002 17.0333 64.8216 16.9908C64.7314 16.9695 64.6553 16.9531 64.5944 16.9408C64.5639 16.9346 64.5372 16.9294 64.5144 16.9252C64.503 16.9231 64.4925 16.9212 64.4831 16.9195C64.4784 16.9186 64.4739 16.9178 64.4697 16.9171C64.4676 16.9167 64.4646 16.9162 64.4635 16.916C64.4606 16.9155 64.4578 16.915 63.9375 19.9536ZM76.5794 53.108C76.5794 67.8045 72.7956 75.2986 69.4826 79.0746C67.8097 80.9813 66.1787 82.0327 65.0291 82.6006C64.4513 82.8861 63.9903 83.0516 63.7017 83.1409C63.5575 83.1855 63.4568 83.211 63.4068 83.2228C63.3819 83.2287 63.3697 83.2311 63.3711 83.2308C63.3718 83.2307 63.376 83.2298 63.3837 83.2284C63.3875 83.2277 63.3923 83.2268 63.3979 83.2258C63.4007 83.2253 63.4037 83.2248 63.407 83.2242C63.4086 83.2239 63.4113 83.2235 63.4121 83.2233C63.4148 83.2229 63.4175 83.2224 63.9375 86.261C64.4575 89.2996 64.4604 89.2991 64.4633 89.2986C64.4643 89.2985 64.4673 89.2979 64.4694 89.2976C64.4736 89.2968 64.4781 89.296 64.4828 89.2952C64.4923 89.2935 64.5027 89.2916 64.5141 89.2895C64.5369 89.2852 64.5636 89.2801 64.5941 89.2739C64.655 89.2616 64.7311 89.2452 64.8213 89.2239C65.0017 89.1814 65.2389 89.1193 65.5246 89.0309C66.096 88.854 66.8635 88.5713 67.7599 88.1285C69.5586 87.2399 71.8589 85.7148 74.1171 83.1409C78.6665 77.9559 82.745 68.8736 82.745 53.108H76.5794Z" fill="#F3D94E" mask="url(#path-11-inside-2_93724_15830)"/>
<mask id="path-13-inside-3_93724_15830" fill="white">
<path d="M36.5117 31.6699C36.5117 31.6699 41.9056 42.3889 62.4021 42.3889C82.8987 42.3889 88.2925 31.6699 88.2925 31.6699"/>
</mask>
<path d="M36.5117 31.6699C33.7579 33.0556 33.759 33.0577 33.7601 33.0599C33.7604 33.0606 33.7615 33.0628 33.7623 33.0644C33.7639 33.0674 33.7655 33.0707 33.7673 33.0741C33.7707 33.0809 33.7746 33.0883 33.7788 33.0965C33.7872 33.1127 33.7971 33.1315 33.8085 33.1529C33.8313 33.1956 33.8602 33.2485 33.8955 33.3107C33.9661 33.4352 34.0623 33.5974 34.1867 33.7919C34.4355 34.1808 34.7975 34.6991 35.2932 35.3022C36.2856 36.5097 37.8112 38.0533 40.0281 39.5724C44.4936 42.6325 51.5846 45.4717 62.4021 45.4717V39.3061C52.723 39.3061 46.8688 36.7858 43.5133 34.4864C41.8197 33.3258 40.7158 32.1896 40.0564 31.3873C39.7261 30.9855 39.5066 30.6664 39.3803 30.4691C39.3172 30.3705 39.2775 30.3024 39.2591 30.2699C39.2499 30.2536 39.246 30.2463 39.2471 30.2484C39.2477 30.2495 39.2496 30.253 39.2526 30.2589C39.2542 30.2619 39.256 30.2655 39.2582 30.2697C39.2592 30.2718 39.2604 30.274 39.2616 30.2765C39.2622 30.2777 39.2632 30.2796 39.2635 30.2802C39.2645 30.2822 39.2655 30.2842 36.5117 31.6699ZM62.4021 45.4717C73.2196 45.4717 80.3106 42.6325 84.7761 39.5724C86.993 38.0533 88.5186 36.5097 89.5111 35.3022C90.0067 34.6991 90.3687 34.1808 90.6175 33.7919C90.7419 33.5974 90.8381 33.4352 90.9087 33.3107C90.944 33.2485 90.9729 33.1956 90.9957 33.1529C91.0071 33.1315 91.017 33.1127 91.0254 33.0965C91.0296 33.0883 91.0335 33.0809 91.037 33.0741C91.0387 33.0707 91.0403 33.0674 91.0419 33.0644C91.0427 33.0628 91.0438 33.0606 91.0442 33.0599C91.0452 33.0577 91.0463 33.0556 88.2925 31.6699C85.5387 30.2842 85.5397 30.2822 85.5407 30.2802C85.541 30.2796 85.542 30.2777 85.5426 30.2765C85.5438 30.274 85.545 30.2718 85.5461 30.2697C85.5482 30.2655 85.5501 30.2619 85.5516 30.2589C85.5547 30.253 85.5565 30.2495 85.5571 30.2484C85.5582 30.2463 85.5544 30.2536 85.5451 30.2699C85.5267 30.3024 85.487 30.3705 85.4239 30.4691C85.2976 30.6664 85.0781 30.9855 84.7478 31.3873C84.0885 32.1896 82.9846 33.3258 81.2909 34.4864C77.9354 36.7858 72.0812 39.3061 62.4021 39.3061V45.4717Z" fill="#F3D94E" mask="url(#path-13-inside-3_93724_15830)"/>
<mask id="path-15-inside-4_93724_15830" fill="white">
<path d="M36.5117 74.5461C36.5117 74.5461 41.9056 63.8271 62.4021 63.8271C82.8987 63.8271 88.2925 74.5461 88.2925 74.5461"/>
</mask>
<path d="M36.5117 74.5461C39.2655 75.9318 39.2645 75.9338 39.2635 75.9358C39.2632 75.9364 39.2622 75.9383 39.2616 75.9396C39.2604 75.942 39.2592 75.9442 39.2582 75.9463C39.256 75.9506 39.2542 75.9541 39.2526 75.9571C39.2496 75.963 39.2477 75.9665 39.2471 75.9676C39.246 75.9698 39.2499 75.9624 39.2591 75.9461C39.2775 75.9136 39.3172 75.8456 39.3803 75.7469C39.5066 75.5496 39.7261 75.2305 40.0564 74.8287C40.7158 74.0264 41.8197 72.8902 43.5133 71.7296C46.8688 69.4302 52.723 66.9099 62.4021 66.9099V60.7444C51.5846 60.7444 44.4936 63.5835 40.0281 66.6436C37.8112 68.1627 36.2856 69.7063 35.2932 70.9138C34.7975 71.5169 34.4355 72.0353 34.1867 72.4241C34.0623 72.6186 33.9661 72.7808 33.8955 72.9053C33.8602 72.9675 33.8313 73.0204 33.8085 73.0631C33.7971 73.0845 33.7872 73.1033 33.7788 73.1196C33.7746 73.1277 33.7707 73.1351 33.7673 73.142C33.7655 73.1454 33.7639 73.1486 33.7623 73.1517C33.7615 73.1532 33.7604 73.1554 33.7601 73.1561C33.759 73.1583 33.7579 73.1604 36.5117 74.5461ZM62.4021 66.9099C72.0812 66.9099 77.9354 69.4302 81.2909 71.7296C82.9846 72.8902 84.0885 74.0264 84.7478 74.8287C85.0781 75.2305 85.2976 75.5496 85.4239 75.7469C85.487 75.8456 85.5267 75.9136 85.5451 75.9461C85.5544 75.9624 85.5582 75.9698 85.5571 75.9676C85.5565 75.9665 85.5547 75.963 85.5516 75.9571C85.5501 75.9541 85.5482 75.9506 85.5461 75.9463C85.545 75.9442 85.5438 75.942 85.5426 75.9396C85.542 75.9383 85.541 75.9364 85.5407 75.9358C85.5397 75.9338 85.5387 75.9318 88.2925 74.5461C91.0463 73.1604 91.0452 73.1583 91.0442 73.1561C91.0438 73.1554 91.0427 73.1532 91.0419 73.1517C91.0403 73.1486 91.0387 73.1454 91.037 73.142C91.0335 73.1351 91.0296 73.1277 91.0254 73.1196C91.017 73.1033 91.0071 73.0845 90.9957 73.0631C90.9729 73.0204 90.944 72.9675 90.9087 72.9053C90.8381 72.7808 90.7419 72.6186 90.6175 72.4241C90.3687 72.0353 90.0067 71.5169 89.5111 70.9138C88.5186 69.7063 86.993 68.1627 84.7761 66.6436C80.3106 63.5835 73.2196 60.7444 62.4021 60.7444V66.9099Z" fill="#F3D94E" mask="url(#path-15-inside-4_93724_15830)"/>
<g opacity="0.5" filter="url(#filter1_d_93724_15830)">
<circle cx="61.5" cy="111.5" r="19.5" fill="#F47738"/>
</g>
<g opacity="0.5" filter="url(#filter2_d_93724_15830)">
<circle cx="61.5014" cy="111.5" r="16.7632" fill="#F47738"/>
</g>
<g opacity="0.8" filter="url(#filter3_d_93724_15830)">
<circle cx="61.1569" cy="111.842" r="13.6842" fill="#F47738"/>
</g>
<g filter="url(#filter4_d_93724_15830)">
<circle cx="61.1571" cy="111.842" r="9.57895" fill="#F4661F"/>
</g>
<g opacity="0.5" filter="url(#filter5_d_93724_15830)">
<ellipse cx="199.5" cy="234.5" rx="5.5" ry="19.5" fill="#F47738"/>
</g>
<g opacity="0.5" filter="url(#filter6_d_93724_15830)">
<ellipse cx="199.502" cy="234.5" rx="4.72807" ry="16.7632" fill="#F47738"/>
</g>
<g opacity="0.8" filter="url(#filter7_d_93724_15830)">
<ellipse cx="199.403" cy="234.842" rx="3.85965" ry="13.6842" fill="#F47738"/>
</g>
<g filter="url(#filter8_d_93724_15830)">
<ellipse cx="199.405" cy="234.842" rx="2.70175" ry="9.57895" fill="#F4661F"/>
</g>
<defs>
<filter id="filter0_d_93724_15830" x="0" y="0" width="129" height="172" filterUnits="userSpaceOnUse" color-interpolation-filters="sRGB">
<feFlood flood-opacity="0" result="BackgroundImageFix"/>
<feColorMatrix in="SourceAlpha" type="matrix" values="0 0 0 0 0 0 0 0 0 0 0 0 0 0 0 0 0 0 127 0" result="hardAlpha"/>
<feOffset dx="1" dy="1"/>
<feGaussianBlur stdDeviation="2"/>
<feComposite in2="hardAlpha" operator="out"/>
<feColorMatrix type="matrix" values="0 0 0 0 0 0 0 0 0 0 0 0 0 0 0 0 0 0 0.9 0"/>
<feBlend mode="normal" in2="BackgroundImageFix" result="effect1_dropShadow_93724_15830"/>
<feBlend mode="normal" in="SourceGraphic" in2="effect1_dropShadow_93724_15830" result="shape"/>
</filter>
<filter id="filter1_d_93724_15830" x="38" y="88" width="47" height="47" filterUnits="userSpaceOnUse" color-interpolation-filters="sRGB">
<feFlood flood-opacity="0" result="BackgroundImageFix"/>
<feColorMatrix in="SourceAlpha" type="matrix" values="0 0 0 0 0 0 0 0 0 0 0 0 0 0 0 0 0 0 127 0" result="hardAlpha"/>
<feOffset/>
<feGaussianBlur stdDeviation="2"/>
<feComposite in2="hardAlpha" operator="out"/>
<feColorMatrix type="matrix" values="0 0 0 0 0 0 0 0 0 0 0 0 0 0 0 0 0 0 0.25 0"/>
<feBlend mode="normal" in2="BackgroundImageFix" result="effect1_dropShadow_93724_15830"/>
<feBlend mode="normal" in="SourceGraphic" in2="effect1_dropShadow_93724_15830" result="shape"/>
</filter>
<filter id="filter2_d_93724_15830" x="40.7383" y="90.7368" width="41.5273" height="41.5264" filterUnits="userSpaceOnUse" color-interpolation-filters="sRGB">
<feFlood flood-opacity="0" result="BackgroundImageFix"/>
<feColorMatrix in="SourceAlpha" type="matrix" values="0 0 0 0 0 0 0 0 0 0 0 0 0 0 0 0 0 0 127 0" result="hardAlpha"/>
<feOffset/>
<feGaussianBlur stdDeviation="2"/>
<feComposite in2="hardAlpha" operator="out"/>
<feColorMatrix type="matrix" values="0 0 0 0 0 0 0 0 0 0 0 0 0 0 0 0 0 0 0.25 0"/>
<feBlend mode="normal" in2="BackgroundImageFix" result="effect1_dropShadow_93724_15830"/>
<feBlend mode="normal" in="SourceGraphic" in2="effect1_dropShadow_93724_15830" result="shape"/>
</filter>
<filter id="filter3_d_93724_15830" x="42.4727" y="93.1577" width="37.3672" height="37.3687" filterUnits="userSpaceOnUse" color-interpolation-filters="sRGB">
<feFlood flood-opacity="0" result="BackgroundImageFix"/>
<feColorMatrix in="SourceAlpha" type="matrix" values="0 0 0 0 0 0 0 0 0 0 0 0 0 0 0 0 0 0 127 0" result="hardAlpha"/>
<feOffset/>
<feGaussianBlur stdDeviation="2.5"/>
<feComposite in2="hardAlpha" operator="out"/>
<feColorMatrix type="matrix" values="0 0 0 0 0 0 0 0 0 0 0 0 0 0 0 0 0 0 0.25 0"/>
<feBlend mode="normal" in2="BackgroundImageFix" result="effect1_dropShadow_93724_15830"/>
<feBlend mode="normal" in="SourceGraphic" in2="effect1_dropShadow_93724_15830" result="shape"/>
</filter>
<filter id="filter4_d_93724_15830" x="47.5781" y="98.2632" width="27.1562" height="27.1577" filterUnits="userSpaceOnUse" color-interpolation-filters="sRGB">
<feFlood flood-opacity="0" result="BackgroundImageFix"/>
<feColorMatrix in="SourceAlpha" type="matrix" values="0 0 0 0 0 0 0 0 0 0 0 0 0 0 0 0 0 0 127 0" result="hardAlpha"/>
<feOffset/>
<feGaussianBlur stdDeviation="2"/>
<feComposite in2="hardAlpha" operator="out"/>
<feColorMatrix type="matrix" values="0 0 0 0 0 0 0 0 0 0 0 0 0 0 0 0 0 0 0.25 0"/>
<feBlend mode="normal" in2="BackgroundImageFix" result="effect1_dropShadow_93724_15830"/>
<feBlend mode="normal" in="SourceGraphic" in2="effect1_dropShadow_93724_15830" result="shape"/>
</filter>
<filter id="filter5_d_93724_15830" x="190" y="211" width="19" height="47" filterUnits="userSpaceOnUse" color-interpolation-filters="sRGB">
<feFlood flood-opacity="0" result="BackgroundImageFix"/>
<feColorMatrix in="SourceAlpha" type="matrix" values="0 0 0 0 0 0 0 0 0 0 0 0 0 0 0 0 0 0 127 0" result="hardAlpha"/>
<feOffset/>
<feGaussianBlur stdDeviation="2"/>
<feComposite in2="hardAlpha" operator="out"/>
<feColorMatrix type="matrix" values="0 0 0 0 0 0 0 0 0 0 0 0 0 0 0 0 0 0 0.25 0"/>
<feBlend mode="normal" in2="BackgroundImageFix" result="effect1_dropShadow_93724_15830"/>
<feBlend mode="normal" in="SourceGraphic" in2="effect1_dropShadow_93724_15830" result="shape"/>
</filter>
<filter id="filter6_d_93724_15830" x="190.773" y="213.737" width="17.457" height="41.5264" filterUnits="userSpaceOnUse" color-interpolation-filters="sRGB">
<feFlood flood-opacity="0" result="BackgroundImageFix"/>
<feColorMatrix in="SourceAlpha" type="matrix" values="0 0 0 0 0 0 0 0 0 0 0 0 0 0 0 0 0 0 127 0" result="hardAlpha"/>
<feOffset/>
<feGaussianBlur stdDeviation="2"/>
<feComposite in2="hardAlpha" operator="out"/>
<feColorMatrix type="matrix" values="0 0 0 0 0 0 0 0 0 0 0 0 0 0 0 0 0 0 0.25 0"/>
<feBlend mode="normal" in2="BackgroundImageFix" result="effect1_dropShadow_93724_15830"/>
<feBlend mode="normal" in="SourceGraphic" in2="effect1_dropShadow_93724_15830" result="shape"/>
</filter>
<filter id="filter7_d_93724_15830" x="190.543" y="216.158" width="17.7188" height="37.3687" filterUnits="userSpaceOnUse" color-interpolation-filters="sRGB">
<feFlood flood-opacity="0" result="BackgroundImageFix"/>
<feColorMatrix in="SourceAlpha" type="matrix" values="0 0 0 0 0 0 0 0 0 0 0 0 0 0 0 0 0 0 127 0" result="hardAlpha"/>
<feOffset/>
<feGaussianBlur stdDeviation="2.5"/>
<feComposite in2="hardAlpha" operator="out"/>
<feColorMatrix type="matrix" values="0 0 0 0 0 0 0 0 0 0 0 0 0 0 0 0 0 0 0.25 0"/>
<feBlend mode="normal" in2="BackgroundImageFix" result="effect1_dropShadow_93724_15830"/>
<feBlend mode="normal" in="SourceGraphic" in2="effect1_dropShadow_93724_15830" result="shape"/>
</filter>
<filter id="filter8_d_93724_15830" x="192.703" y="221.263" width="13.4023" height="27.1577" filterUnits="userSpaceOnUse" color-interpolation-filters="sRGB">
<feFlood flood-opacity="0" result="BackgroundImageFix"/>
<feColorMatrix in="SourceAlpha" type="matrix" values="0 0 0 0 0 0 0 0 0 0 0 0 0 0 0 0 0 0 127 0" result="hardAlpha"/>
<feOffset/>
<feGaussianBlur stdDeviation="2"/>
<feComposite in2="hardAlpha" operator="out"/>
<feColorMatrix type="matrix" values="0 0 0 0 0 0 0 0 0 0 0 0 0 0 0 0 0 0 0.25 0"/>
<feBlend mode="normal" in2="BackgroundImageFix" result="effect1_dropShadow_93724_15830"/>
<feBlend mode="normal" in="SourceGraphic" in2="effect1_dropShadow_93724_15830" result="shape"/>
</filter>
</defs>
</svg>
