<svg width="375" height="250" viewBox="0 0 375 250" fill="none" xmlns="http://www.w3.org/2000/svg">
<rect width="291" height="250" fill="#F2F2F2"/>
<mask id="mask0_86577_72920" style="mask-type:alpha" maskUnits="userSpaceOnUse" x="0" y="0" width="375" height="250">
<path d="M0 0H375V250H0V0Z" fill="white"/>
</mask>
<g mask="url(#mask0_86577_72920)">
<path d="M65 99V349" stroke="#4C4E4D" stroke-width="41"/>
<path d="M347.487 -90.6875L683.58 100.74L421.15 304.379L30.6511 86.6567L347.487 -90.6875Z" fill="#C5C5C5"/>
<path d="M73.9971 120L85.9971 122.524V250H76.6058L73.9971 120Z" fill="#3D3D3D"/>
<path d="M30.7617 86.6289L325.873 250.985L306 263.5L30.7617 111L30.7617 86.6289Z" fill="#ACACAC"/>
</g>
<path d="M177.827 44.5802L109.062 84.0466C107.152 85.1426 107.154 87.8978 109.065 88.9918L224.466 155.061C227.397 156.739 231 156.735 233.927 155.049L299.925 117.037C301.836 115.936 301.826 113.174 299.906 112.088L180.65 44.5719C179.773 44.0757 178.7 44.0789 177.827 44.5802Z" fill="#253D65"/>
<rect width="147.769" height="90.2691" rx="8.75517" transform="matrix(0.866045 0.499967 -0.866045 0.499967 179.602 35.2188)" fill="url(#paint0_linear_86577_72920)"/>
<rect width="145.947" height="44.6776" rx="6.07998" transform="matrix(0.866045 0.499967 -0.866045 0.499967 141.77 58.0527)" fill="white" fill-opacity="0.7"/>
<path d="M140.893 69.5677L139.801 68.9373L145.018 65.9254L146.11 66.5557L140.893 69.5677ZM148.961 70.7273L145.487 69.7609L145.45 69.7818L147.11 71.796L146.022 72.4243L143.791 69.379L144.753 68.8238L150.031 70.1095L148.961 70.7273ZM154.05 73.6654L150.576 72.699L150.54 72.7198L152.199 74.7341L151.111 75.3623L148.88 72.317L149.842 71.7618L155.121 73.0475L154.05 73.6654ZM159.14 76.6034L155.665 75.637L155.629 75.6579L157.289 77.6721L156.2 78.3004L153.969 75.255L154.931 74.6998L160.21 75.9856L159.14 76.6034ZM164.229 79.5414L160.754 78.575L160.718 78.5959L162.378 80.6101L161.29 81.2384L159.059 78.1931L160.02 77.6379L165.299 78.9236L164.229 79.5414ZM169.318 82.4795L165.844 81.5131L165.808 81.534L167.467 83.5482L166.379 84.1764L164.148 81.1311L165.11 80.5759L170.388 81.8617L169.318 82.4795ZM174.408 85.4175L170.933 84.4511L170.897 84.472L172.556 86.4862L171.468 87.1145L169.237 84.0691L170.199 83.5139L175.478 84.7997L174.408 85.4175ZM179.497 88.3555L176.022 87.3891L175.986 87.41L177.646 89.4242L176.557 90.0525L174.327 87.0072L175.288 86.452L180.567 87.7377L179.497 88.3555ZM184.586 91.2936L181.112 90.3272L181.075 90.3481L182.735 92.3623L181.647 92.9905L179.416 89.9452L180.378 89.39L185.656 90.6758L184.586 91.2936ZM189.675 94.2316L186.201 93.2652L186.165 93.2861L187.824 95.3003L186.736 95.9286L184.505 92.8832L185.467 92.328L190.746 93.6138L189.675 94.2316ZM194.765 97.1697L191.29 96.2033L191.254 96.2241L192.913 98.2383L191.825 98.8666L189.594 95.8213L190.556 95.2661L195.835 96.5518L194.765 97.1697ZM199.854 100.108L196.379 99.1413L196.343 99.1622L198.003 101.176L196.914 101.805L194.684 98.7593L195.645 98.2041L200.924 99.4899L199.854 100.108ZM204.943 103.046L201.469 102.079L201.432 102.1L203.092 104.114L202.004 104.743L199.773 101.697L200.735 101.142L206.013 102.428L204.943 103.046ZM210.032 105.984L206.558 105.017L206.522 105.038L208.181 107.052L207.093 107.681L204.862 104.635L205.824 104.08L211.103 105.366L210.032 105.984ZM215.122 108.922L211.647 107.955L211.611 107.976L213.271 109.99L212.182 110.619L209.952 107.573L210.913 107.018L216.192 108.304L215.122 108.922ZM220.211 111.86L216.736 110.893L216.7 110.914L218.36 112.929L217.272 113.557L215.041 110.511L216.003 109.956L221.281 111.242L220.211 111.86ZM225.3 114.798L221.826 113.831L221.79 113.852L223.449 115.867L222.361 116.495L220.13 113.449L221.092 112.894L226.371 114.18L225.3 114.798ZM230.39 117.736L226.915 116.769L226.879 116.79L228.538 118.805L227.45 119.433L225.219 116.388L226.181 115.832L231.46 117.118L230.39 117.736ZM235.479 120.674L232.004 119.708L231.968 119.728L233.628 121.743L232.539 122.371L230.309 119.326L231.27 118.77L236.549 120.056L235.479 120.674ZM240.568 123.612L237.094 122.646L237.057 122.666L238.717 124.681L237.629 125.309L235.398 122.264L236.36 121.708L241.638 122.994L240.568 123.612ZM245.657 126.55L242.183 125.584L242.147 125.604L243.806 127.619L242.718 128.247L240.487 125.202L241.449 124.646L246.728 125.932L245.657 126.55ZM138.84 73.8837L135.365 72.9173L135.329 72.9381L136.989 74.9524L135.9 75.5806L133.67 72.5353L134.631 71.9801L139.91 73.2658L138.84 73.8837ZM143.929 76.8217L140.454 75.8553L140.418 75.8762L142.078 77.8904L140.99 78.5187L138.759 75.4733L139.721 74.9181L144.999 76.2039L143.929 76.8217ZM149.018 79.7597L145.544 78.7933L145.508 78.8142L147.167 80.8284L146.079 81.4567L143.848 78.4114L144.81 77.8562L150.089 79.1419L149.018 79.7597ZM154.108 82.6978L150.633 81.7314L150.597 81.7523L152.256 83.7665L151.168 84.3947L148.937 81.3494L149.899 80.7942L155.178 82.08L154.108 82.6978ZM159.197 85.6358L155.722 84.6694L155.686 84.6903L157.346 86.7045L156.257 87.3328L154.027 84.2874L154.988 83.7322L160.267 85.018L159.197 85.6358ZM164.286 88.5738L160.812 87.6074L160.775 87.6283L162.435 89.6425L161.347 90.2708L159.116 87.2255L160.078 86.6703L165.356 87.956L164.286 88.5738ZM169.375 91.5119L165.901 90.5455L165.865 90.5664L167.524 92.5806L166.436 93.2088L164.205 90.1635L165.167 89.6083L170.446 90.8941L169.375 91.5119ZM174.465 94.4499L170.99 93.4835L170.954 93.5044L172.614 95.5186L171.525 96.1469L169.294 93.1015L170.256 92.5463L175.535 93.8321L174.465 94.4499ZM179.554 97.3879L176.079 96.4215L176.043 96.4424L177.703 98.4566L176.615 99.0849L174.384 96.0396L175.345 95.4844L180.624 96.7701L179.554 97.3879ZM184.643 100.326L181.169 99.3596L181.133 99.3805L182.792 101.395L181.704 102.023L179.473 98.9776L180.435 98.4224L185.713 99.7082L184.643 100.326ZM189.733 103.264L186.258 102.298L186.222 102.318L187.881 104.333L186.793 104.961L184.562 101.916L185.524 101.36L190.803 102.646L189.733 103.264ZM194.822 106.202L191.347 105.236L191.311 105.257L192.971 107.271L191.882 107.899L189.652 104.854L190.613 104.298L195.892 105.584L194.822 106.202ZM199.911 109.14L196.437 108.174L196.4 108.195L198.06 110.209L196.972 110.837L194.741 107.792L195.703 107.237L200.981 108.522L199.911 109.14ZM205 112.078L201.526 111.112L201.49 111.133L203.149 113.147L202.061 113.775L199.83 110.73L200.792 110.175L206.071 111.46L205 112.078ZM210.09 115.016L206.615 114.05L206.579 114.071L208.238 116.085L207.15 116.713L204.919 113.668L205.881 113.113L211.16 114.398L210.09 115.016ZM215.179 117.954L211.704 116.988L211.668 117.009L213.328 119.023L212.239 119.651L210.009 116.606L210.97 116.051L216.249 117.336L215.179 117.954ZM220.268 120.892L216.794 119.926L216.757 119.947L218.417 121.961L217.329 122.589L215.098 119.544L216.06 118.989L221.338 120.274L220.268 120.892ZM225.357 123.83L221.883 122.864L221.847 122.885L223.506 124.899L222.418 125.527L220.187 122.482L221.149 121.927L226.428 123.212L225.357 123.83ZM230.447 126.768L226.972 125.802L226.936 125.823L228.596 127.837L227.507 128.465L225.277 125.42L226.238 124.865L231.517 126.15L230.447 126.768ZM235.536 129.706L232.061 128.74L232.025 128.761L233.685 130.775L232.597 131.403L230.366 128.358L231.328 127.803L236.606 129.089L235.536 129.706ZM240.625 132.644L237.151 131.678L237.115 131.699L238.774 133.713L237.686 134.341L235.455 131.296L236.417 130.741L241.696 132.027L240.625 132.644ZM131.045 78.3834L127.571 77.417L127.535 77.4378L129.194 79.4521L128.106 80.0803L125.875 77.035L126.837 76.4798L132.116 77.7655L131.045 78.3834ZM136.135 81.3214L132.66 80.355L132.624 80.3759L134.283 82.3901L133.195 83.0184L130.964 79.973L131.926 79.4178L137.205 80.7036L136.135 81.3214ZM141.224 84.2594L137.749 83.293L137.713 83.3139L139.373 85.3281L138.284 85.9564L136.054 82.9111L137.015 82.3559L142.294 83.6416L141.224 84.2594ZM146.313 87.1975L142.839 86.2311L142.802 86.252L144.462 88.2662L143.374 88.8944L141.143 85.8491L142.105 85.2939L147.383 86.5797L146.313 87.1975ZM151.402 90.1355L147.928 89.1691L147.892 89.19L149.551 91.2042L148.463 91.8325L146.232 88.7871L147.194 88.2319L152.473 89.5177L151.402 90.1355ZM156.492 93.0735L153.017 92.1071L152.981 92.128L154.641 94.1422L153.552 94.7705L151.321 91.7252L152.283 91.17L157.562 92.4557L156.492 93.0735ZM161.581 96.0116L158.106 95.0452L158.07 95.0661L159.73 97.0803L158.642 97.7085L156.411 94.6632L157.373 94.108L162.651 95.3938L161.581 96.0116ZM166.67 98.9496L163.196 97.9832L163.16 98.0041L164.819 100.018L163.731 100.647L161.5 97.6012L162.462 97.046L167.741 98.3318L166.67 98.9496ZM171.76 101.888L168.285 100.921L168.249 100.942L169.908 102.956L168.82 103.585L166.589 100.539L167.551 99.9841L172.83 101.27L171.76 101.888ZM176.849 104.826L173.374 103.859L173.338 103.88L174.998 105.894L173.909 106.523L171.679 103.477L172.64 102.922L177.919 104.208L176.849 104.826ZM181.938 107.764L178.464 106.797L178.427 106.818L180.087 108.832L178.999 109.461L176.768 106.415L177.73 105.86L183.008 107.146L181.938 107.764ZM187.027 110.702L183.553 109.735L183.517 109.756L185.176 111.77L184.088 112.399L181.857 109.353L182.819 108.798L188.098 110.084L187.027 110.702ZM192.117 113.64L188.642 112.673L188.606 112.694L190.266 114.708L189.177 115.337L186.946 112.291L187.908 111.736L193.187 113.022L192.117 113.64ZM197.206 116.578L193.731 115.611L193.695 115.632L195.355 117.646L194.267 118.275L192.036 115.229L192.997 114.674L198.276 115.96L197.206 116.578ZM202.295 119.516L198.821 118.549L198.785 118.57L200.444 120.585L199.356 121.213L197.125 118.167L198.087 117.612L203.365 118.898L202.295 119.516ZM207.385 122.454L203.91 121.487L203.874 121.508L205.533 123.523L204.445 124.151L202.214 121.106L203.176 120.55L208.455 121.836L207.385 122.454ZM212.474 125.392L208.999 124.426L208.963 124.446L210.623 126.461L209.534 127.089L207.304 124.044L208.265 123.488L213.544 124.774L212.474 125.392ZM217.563 128.33L214.089 127.364L214.052 127.384L215.712 129.399L214.624 130.027L212.393 126.982L213.355 126.426L218.633 127.712L217.563 128.33ZM222.652 131.268L219.178 130.302L219.142 130.322L220.801 132.337L219.713 132.965L217.482 129.92L218.444 129.364L223.723 130.65L222.652 131.268ZM123.251 82.8831L119.776 81.9167L119.74 81.9375L121.4 83.9518L120.312 84.58L118.081 81.5347L119.042 80.9795L124.321 82.2652L123.251 82.8831ZM128.34 85.8211L124.866 84.8547L124.83 84.8756L126.489 86.8898L125.401 87.5181L123.17 84.4727L124.132 83.9175L129.41 85.2033L128.34 85.8211ZM133.43 88.7591L129.955 87.7927L129.919 87.8136L131.578 89.8278L130.49 90.4561L128.259 87.4108L129.221 86.8556L134.5 88.1413L133.43 88.7591Z" fill="#253D65"/>
<rect y="1.4591" width="144.851" height="87.3507" rx="7.29598" transform="matrix(0.866045 0.499967 -0.866045 0.499967 180.865 35.9483)" stroke="#253D65" stroke-width="2.91839"/>
<path d="M142.199 58.7988L266.876 130.775" stroke="#253D65" stroke-width="2.43199"/>
<defs>
<linearGradient id="paint0_linear_86577_72920" x1="-3.09141" y1="59.9733" x2="147.769" y2="58.1185" gradientUnits="userSpaceOnUse">
<stop stop-color="#FFD7E7"/>
<stop offset="0.416284" stop-color="#DDEDFF"/>
<stop offset="0.6875" stop-color="#D9EBFF"/>
<stop offset="1" stop-color="#FFDFEA"/>
</linearGradient>
</defs>
</svg>
