<svg width="59" height="60" viewBox="0 0 59 60" fill="none" xmlns="http://www.w3.org/2000/svg">
<path d="M1.22119 19.1035C0.459473 19.1035 0.046875 18.6592 0.046875 17.8975V9.23291C0.046875 3.64697 2.99854 0.727051 8.61621 0.727051H17.249C18.0107 0.727051 18.4551 1.13965 18.4551 1.90137C18.4551 2.66309 18.0107 3.07568 17.249 3.07568H8.67969C4.55371 3.07568 2.39551 5.23389 2.39551 9.35986V17.8975C2.39551 18.6592 1.98291 19.1035 1.22119 19.1035ZM57.7471 19.1035C56.9854 19.1035 56.5728 18.6592 56.5728 17.8975V9.35986C56.5728 5.23389 54.2876 3.07568 50.2886 3.07568H41.7192C40.9575 3.07568 40.5132 2.66309 40.5132 1.90137C40.5132 1.13965 40.9575 0.727051 41.7192 0.727051H50.3838C56.0015 0.727051 58.9214 3.71045 58.9214 9.23291V17.8975C58.9214 18.6592 58.5088 19.1035 57.7471 19.1035ZM14.6465 44.3989C11.79 44.3989 10.2349 42.8755 10.2349 39.9556V22.7217C10.2349 19.8018 11.79 18.2783 14.6465 18.2783H19.0898C20.4229 18.2783 20.8037 18.1514 21.6606 17.231L23.0889 15.644C23.9458 14.6602 24.644 14.4062 26.1675 14.4062H32.3882C33.9751 14.4062 34.5464 14.6919 35.4668 15.644L36.9268 17.231C37.8154 18.1831 38.1328 18.2783 39.4658 18.2783H44.3218C47.21 18.2783 48.7334 19.8018 48.7334 22.7217V39.9556C48.7334 42.8755 47.21 44.3989 44.3218 44.3989H14.6465ZM29.5 40.6855C34.7686 40.6855 39.0215 36.4961 39.0215 31.1323C39.0215 25.832 34.7686 21.5791 29.5 21.5791C24.1997 21.5791 19.9468 25.832 19.9468 31.1323C19.9468 36.4644 24.1997 40.6855 29.5 40.6855ZM42.2271 26.5303C43.1792 26.5303 43.9092 25.7686 43.8774 24.8164C43.8457 23.896 43.1792 23.1343 42.2271 23.1343C41.3066 23.1343 40.5132 23.896 40.5132 24.8164C40.5132 25.7686 41.3066 26.5303 42.2271 26.5303ZM29.5 39.0352C25.1519 39.0352 21.6289 35.5439 21.6289 31.1323C21.6289 26.7524 25.1519 23.1978 29.5 23.1978C33.8481 23.1978 37.3711 26.7524 37.3711 31.1323C37.3711 35.5439 33.8481 39.0352 29.5 39.0352ZM8.61621 59.6016C2.99854 59.6016 0.046875 56.6816 0.046875 51.064V42.4312C0.046875 41.6694 0.459473 41.1934 1.22119 41.1934C1.98291 41.1934 2.39551 41.6694 2.39551 42.4312V50.937C2.39551 55.0947 4.55371 57.2529 8.67969 57.2529H17.249C18.0107 57.2529 18.4551 57.6655 18.4551 58.4272C18.4551 59.189 18.0107 59.6016 17.249 59.6016H8.61621ZM41.7192 59.6016C40.9575 59.6016 40.5132 59.189 40.5132 58.4272C40.5132 57.6655 40.9575 57.2529 41.7192 57.2529H50.2886C54.2876 57.2529 56.5728 55.0947 56.5728 50.937V42.4312C56.5728 41.6694 56.9854 41.1934 57.7471 41.1934C58.5088 41.1934 58.9214 41.6694 58.9214 42.4312V51.064C58.9214 56.5864 56.0015 59.6016 50.3838 59.6016H41.7192Z" fill="#00703C"/>
</svg>
