<svg width="375" height="250" viewBox="0 0 375 250" fill="none" xmlns="http://www.w3.org/2000/svg">
<rect width="375" height="250" fill="#F9F9F9"/>
<rect y="199" width="375" height="51" fill="#C6C6C6"/>
<rect x="242.75" y="191.75" width="89.5" height="6.5" rx="2.25" fill="#FFCACA" stroke="#253D65" stroke-width="1.5"/>
<path d="M88.3782 100V88.022H93.1594C95.5915 88.022 97.2351 89.624 97.2351 92.0229V92.0396C97.2351 94.4302 95.5915 96.0405 93.1594 96.0405H90.5198V100H88.3782ZM92.6365 89.7734H90.5198V94.314H92.6365C94.1721 94.314 95.0686 93.4839 95.0686 92.0479V92.0312C95.0686 90.5952 94.1721 89.7734 92.6365 89.7734ZM99.3983 100V87.416H101.465V92.3135H101.606C102.038 91.3423 102.91 90.7529 104.221 90.7529C106.246 90.7529 107.35 91.9731 107.35 94.1313V100H105.284V94.6128C105.284 93.2017 104.711 92.4878 103.457 92.4878C102.229 92.4878 101.465 93.3511 101.465 94.7124V100H99.3983ZM113.639 100.183C110.917 100.183 109.273 98.4062 109.273 95.4678V95.4512C109.273 92.5376 110.941 90.7529 113.639 90.7529C116.345 90.7529 118.005 92.5293 118.005 95.4512V95.4678C118.005 98.4062 116.354 100.183 113.639 100.183ZM113.639 98.5059C115.075 98.5059 115.889 97.3853 115.889 95.4761V95.4595C115.889 93.5503 115.067 92.4214 113.639 92.4214C112.203 92.4214 111.381 93.5503 111.381 95.4595V95.4761C111.381 97.3853 112.203 98.5059 113.639 98.5059ZM120.011 100V90.9272H122.078V92.3135H122.219C122.651 91.3423 123.522 90.7529 124.834 90.7529C126.859 90.7529 127.963 91.9731 127.963 94.1313V100H125.896V94.6128C125.896 93.2017 125.323 92.4878 124.07 92.4878C122.841 92.4878 122.078 93.3511 122.078 94.7124V100H120.011ZM134.219 100.183C131.521 100.183 129.885 98.373 129.885 95.4844V95.4761C129.885 92.6206 131.537 90.7529 134.119 90.7529C136.7 90.7529 138.294 92.5625 138.294 95.3018V95.9824H131.952C131.977 97.6094 132.857 98.5557 134.26 98.5557C135.381 98.5557 136.02 97.9912 136.219 97.5762L136.244 97.5181H138.211L138.186 97.5928C137.896 98.7632 136.684 100.183 134.219 100.183ZM134.144 92.3716C132.99 92.3716 132.127 93.1519 131.969 94.5962H136.277C136.136 93.1104 135.298 92.3716 134.144 92.3716Z" fill="black"/>
<path d="M284.103 103.013V90.9272H286.17V92.3467H286.311C286.809 91.3589 287.797 90.7778 289.067 90.7778C291.341 90.7778 292.794 92.5874 292.794 95.4595V95.4761C292.794 98.3647 291.366 100.149 289.067 100.149C287.822 100.149 286.784 99.5352 286.311 98.5557H286.17V103.013H284.103ZM288.419 98.4062C289.83 98.4062 290.685 97.2939 290.685 95.4761V95.4595C290.685 93.6333 289.83 92.521 288.419 92.521C287.016 92.521 286.145 93.6333 286.145 95.4512V95.4678C286.145 97.2856 287.016 98.4062 288.419 98.4062ZM294.891 100V87.416H296.957V92.3135H297.099C297.53 91.3423 298.402 90.7529 299.713 90.7529C301.739 90.7529 302.843 91.9731 302.843 94.1313V100H300.776V94.6128C300.776 93.2017 300.203 92.4878 298.95 92.4878C297.721 92.4878 296.957 93.3511 296.957 94.7124V100H294.891ZM309.131 100.183C306.409 100.183 304.765 98.4062 304.765 95.4678V95.4512C304.765 92.5376 306.434 90.7529 309.131 90.7529C311.837 90.7529 313.498 92.5293 313.498 95.4512V95.4678C313.498 98.4062 311.846 100.183 309.131 100.183ZM309.131 98.5059C310.567 98.5059 311.381 97.3853 311.381 95.4761V95.4595C311.381 93.5503 310.559 92.4214 309.131 92.4214C307.695 92.4214 306.874 93.5503 306.874 95.4595V95.4761C306.874 97.3853 307.695 98.5059 309.131 98.5059ZM319.072 100.042C316.989 100.042 316.134 99.3442 316.134 97.5928V92.5293H314.723V90.9272H316.134V88.7026H318.234V90.9272H320.152V92.5293H318.234V97.103C318.234 98.0078 318.591 98.3896 319.454 98.3896C319.745 98.3896 319.903 98.3813 320.152 98.3564V99.9502C319.853 100.008 319.471 100.042 319.072 100.042ZM325.975 100.183C323.253 100.183 321.609 98.4062 321.609 95.4678V95.4512C321.609 92.5376 323.278 90.7529 325.975 90.7529C328.681 90.7529 330.342 92.5293 330.342 95.4512V95.4678C330.342 98.4062 328.69 100.183 325.975 100.183ZM325.975 98.5059C327.411 98.5059 328.225 97.3853 328.225 95.4761V95.4595C328.225 93.5503 327.403 92.4214 325.975 92.4214C324.539 92.4214 323.718 93.5503 323.718 95.4595V95.4761C323.718 97.3853 324.539 98.5059 325.975 98.5059ZM337.025 100V88.022H339.167V100H337.025ZM342.052 100V88.022H346.543C350.104 88.022 352.179 90.1968 352.179 93.9487V93.9653C352.179 97.8003 350.129 100 346.543 100H342.052ZM344.194 98.1987H346.261C348.643 98.1987 349.996 96.688 349.996 93.9985V93.9819C349.996 91.3506 348.61 89.8232 346.261 89.8232H344.194V98.1987Z" fill="black"/>
<path d="M114 114C114 113.448 113.552 113 113 113C112.448 113 112 113.448 112 114H114ZM113 155L118.774 145H107.226L113 155ZM112 114V146H114V114H112Z" fill="black"/>
<path d="M319 114C319 113.448 318.552 113 318 113C317.448 113 317 113.448 317 114H319ZM318 170L323.774 160H312.226L318 170ZM317 114V161H319V114H317Z" fill="black"/>
<rect x="39.9033" y="178.168" width="261.141" height="21.8163" rx="8" transform="rotate(-1.6998 39.9033 178.168)" fill="black"/>
<mask id="mask0_86577_72614" style="mask-type:alpha" maskUnits="userSpaceOnUse" x="40" y="170" width="262" height="30">
<rect x="39.9033" y="178.168" width="261.141" height="21.8163" rx="8" transform="rotate(-1.6998 39.9033 178.168)" fill="black"/>
</mask>
<g mask="url(#mask0_86577_72614)">
<path d="M40.9884 177.287L299.839 169.604L303.223 174.465L39.0264 182.55L40.9884 177.287Z" fill="#9F9F9F"/>
</g>
<rect width="21.8594" height="5.55231" rx="2" transform="matrix(0.999552 -0.0299434 0.0298732 0.999554 232.12 181.809)" fill="#777777"/>
</svg>
