<svg width="91" height="64" viewBox="0 0 91 64" fill="none" xmlns="http://www.w3.org/2000/svg">
<path d="M35.3438 63.5376C30.3291 63.5376 27.5996 60.8081 27.5996 55.8252V8.34473C27.5996 3.36182 30.3291 0.664062 35.3438 0.664062H55.7197C60.7344 0.664062 63.4639 3.36182 63.4639 8.34473V55.8252C63.4639 60.8081 60.7344 63.5376 55.7197 63.5376H35.3438ZM35.5342 61.1572H55.5293C59.3379 61.1572 61.0835 59.4751 61.0835 55.6665V8.53516C61.0835 4.72656 59.3379 3.0127 55.5293 3.0127H51.7842C51.4033 3.0127 51.1812 3.23486 51.1812 3.61572V3.99658C51.1812 5.01221 50.5146 5.71045 49.499 5.71045H41.5645C40.5488 5.71045 39.8823 5.01221 39.8823 3.99658V3.61572C39.8823 3.23486 39.6919 3.0127 39.2476 3.0127H35.5342C31.7256 3.0127 29.98 4.72656 29.98 8.53516V55.6665C29.98 59.4751 31.7256 61.1572 35.5342 61.1572ZM10.937 52.3975C10.4609 52.937 9.63574 52.9053 9.09619 52.334C3.92285 47.0654 0.8125 39.9561 0.8125 32.085C0.8125 24.2139 3.92285 17.1045 9.09619 11.8359C9.63574 11.2646 10.4609 11.2329 10.937 11.7725C11.3813 12.2803 11.2227 13.0103 10.7148 13.5181C5.98584 18.374 3.19287 24.8169 3.19287 32.085C3.19287 39.353 5.98584 45.7959 10.7148 50.6201C11.2227 51.1597 11.3813 51.8896 10.937 52.3975ZM80.063 52.3975C79.6187 51.8896 79.7773 51.1597 80.2852 50.6201C85.0142 45.7959 87.8071 39.353 87.8071 32.085C87.8071 24.8169 85.0142 18.374 80.2852 13.5181C79.7773 13.0103 79.6187 12.2803 80.063 11.7725C80.5391 11.2329 81.3643 11.2646 81.9038 11.8359C87.0771 17.1045 90.1875 24.2139 90.1875 32.085C90.1875 39.9561 87.0771 47.0654 81.9038 52.334C81.3643 52.9053 80.5391 52.937 80.063 52.3975ZM19.4429 43.6694C18.9668 44.209 18.1099 44.1772 17.5703 43.606C14.7139 40.5591 13.0635 36.5283 13.0635 32.085C13.0635 27.6416 14.7139 23.5791 17.5703 20.564C18.1099 19.9927 18.9668 19.9609 19.4429 20.5005C19.8872 20.9766 19.7285 21.7065 19.2207 22.2461C16.6499 24.6582 15.4121 28.2446 15.4121 32.085C15.4121 35.9253 16.6499 39.5117 19.2207 41.9238C19.7285 42.4634 19.8872 43.1616 19.4429 43.6694ZM71.5571 43.6694C71.1128 43.1616 71.2715 42.4634 71.7793 41.9238C74.3501 39.5117 75.5879 35.9253 75.5879 32.085C75.5879 28.2446 74.3501 24.6582 71.7793 22.2461C71.2715 21.7065 71.1128 20.9766 71.5571 20.5005C72.0332 19.9609 72.8901 19.9927 73.4297 20.564C76.2861 23.5791 77.9365 27.6416 77.9365 32.085C77.9365 36.5283 76.2861 40.5591 73.4297 43.606C72.8901 44.1772 72.0332 44.209 71.5571 43.6694ZM39.1523 59.0625C38.6128 59.0625 38.2002 58.6499 38.2002 58.1104C38.2002 57.5708 38.6128 57.1582 39.1523 57.1582H51.9111C52.4507 57.1582 52.8633 57.5708 52.8633 58.1104C52.8633 58.6499 52.4507 59.0625 51.9111 59.0625H39.1523Z" fill="#00703C"/>
</svg>
