<svg width="375" height="250" viewBox="0 0 375 250" fill="none" xmlns="http://www.w3.org/2000/svg">
<rect width="375" height="250" fill="#D9D9D9"/>
<rect x="127.08" y="29.625" width="121.188" height="74.0335" rx="6.4153" fill="url(#paint0_linear_86577_72460)"/>
<rect x="127.895" y="66.2656" width="119.693" height="36.642" rx="4.45507" fill="white" fill-opacity="0.7"/>
<path d="M138.507 77.2246H137.456V72.2022H138.507V77.2246ZM143.358 74.3079L140.88 75.1746V75.2094L143.358 76.09V77.1376L139.745 75.6723V74.7465L143.358 73.2777V74.3079ZM148.257 74.3079L145.779 75.1746V75.2094L148.257 76.09V77.1376L144.644 75.6723V74.7465L148.257 73.2777V74.3079ZM153.156 74.3079L150.678 75.1746V75.2094L153.156 76.09V77.1376L149.543 75.6723V74.7465L153.156 73.2777V74.3079ZM158.055 74.3079L155.577 75.1746V75.2094L158.055 76.09V77.1376L154.443 75.6723V74.7465L158.055 73.2777V74.3079ZM162.955 74.3079L160.476 75.1746V75.2094L162.955 76.09V77.1376L159.342 75.6723V74.7465L162.955 73.2777V74.3079ZM167.854 74.3079L165.376 75.1746V75.2094L167.854 76.09V77.1376L164.241 75.6723V74.7465L167.854 73.2777V74.3079ZM172.753 74.3079L170.275 75.1746V75.2094L172.753 76.09V77.1376L169.14 75.6723V74.7465L172.753 73.2777V74.3079ZM177.652 74.3079L175.174 75.1746V75.2094L177.652 76.09V77.1376L174.039 75.6723V74.7465L177.652 73.2777V74.3079ZM182.551 74.3079L180.073 75.1746V75.2094L182.551 76.09V77.1376L178.939 75.6723V74.7465L182.551 73.2777V74.3079ZM187.451 74.3079L184.972 75.1746V75.2094L187.451 76.09V77.1376L183.838 75.6723V74.7465L187.451 73.2777V74.3079ZM192.35 74.3079L189.872 75.1746V75.2094L192.35 76.09V77.1376L188.737 75.6723V74.7465L192.35 73.2777V74.3079ZM197.249 74.3079L194.771 75.1746V75.2094L197.249 76.09V77.1376L193.636 75.6723V74.7465L197.249 73.2777V74.3079ZM202.148 74.3079L199.67 75.1746V75.2094L202.148 76.09V77.1376L198.535 75.6723V74.7465L202.148 73.2777V74.3079ZM207.047 74.3079L204.569 75.1746V75.2094L207.047 76.09V77.1376L203.434 75.6723V74.7465L207.047 73.2777V74.3079ZM211.946 74.3079L209.468 75.1746V75.2094L211.946 76.09V77.1376L208.334 75.6723V74.7465L211.946 73.2777V74.3079ZM216.846 74.3079L214.368 75.1746V75.2094L216.846 76.09V77.1376L213.233 75.6723V74.7465L216.846 73.2777V74.3079ZM221.745 74.3079L219.267 75.1746V75.2094L221.745 76.09V77.1376L218.132 75.6723V74.7465L221.745 73.2777V74.3079ZM226.644 74.3079L224.166 75.1746V75.2094L226.644 76.09V77.1376L223.031 75.6723V74.7465L226.644 73.2777V74.3079ZM231.543 74.3079L229.065 75.1746V75.2094L231.543 76.09V77.1376L227.93 75.6723V74.7465L231.543 73.2777V74.3079ZM236.442 74.3079L233.964 75.1746V75.2094L236.442 76.09V77.1376L232.83 75.6723V74.7465L236.442 73.2777V74.3079ZM141.118 82.3079L138.64 83.1746V83.2094L141.118 84.09V85.1376L137.505 83.6723V82.7465L141.118 81.2777V82.3079ZM146.017 82.3079L143.539 83.1746V83.2094L146.017 84.09V85.1376L142.404 83.6723V82.7465L146.017 81.2777V82.3079ZM150.916 82.3079L148.438 83.1746V83.2094L150.916 84.09V85.1376L147.303 83.6723V82.7465L150.916 81.2777V82.3079ZM155.815 82.3079L153.337 83.1746V83.2094L155.815 84.09V85.1376L152.203 83.6723V82.7465L155.815 81.2777V82.3079ZM160.714 82.3079L158.236 83.1746V83.2094L160.714 84.09V85.1376L157.102 83.6723V82.7465L160.714 81.2777V82.3079ZM165.614 82.3079L163.136 83.1746V83.2094L165.614 84.09V85.1376L162.001 83.6723V82.7465L165.614 81.2777V82.3079ZM170.513 82.3079L168.035 83.1746V83.2094L170.513 84.09V85.1376L166.9 83.6723V82.7465L170.513 81.2777V82.3079ZM175.412 82.3079L172.934 83.1746V83.2094L175.412 84.09V85.1376L171.799 83.6723V82.7465L175.412 81.2777V82.3079ZM180.311 82.3079L177.833 83.1746V83.2094L180.311 84.09V85.1376L176.698 83.6723V82.7465L180.311 81.2777V82.3079ZM185.21 82.3079L182.732 83.1746V83.2094L185.21 84.09V85.1376L181.598 83.6723V82.7465L185.21 81.2777V82.3079ZM190.11 82.3079L187.631 83.1746V83.2094L190.11 84.09V85.1376L186.497 83.6723V82.7465L190.11 81.2777V82.3079ZM195.009 82.3079L192.531 83.1746V83.2094L195.009 84.09V85.1376L191.396 83.6723V82.7465L195.009 81.2777V82.3079ZM199.908 82.3079L197.43 83.1746V83.2094L199.908 84.09V85.1376L196.295 83.6723V82.7465L199.908 81.2777V82.3079ZM204.807 82.3079L202.329 83.1746V83.2094L204.807 84.09V85.1376L201.194 83.6723V82.7465L204.807 81.2777V82.3079ZM209.706 82.3079L207.228 83.1746V83.2094L209.706 84.09V85.1376L206.094 83.6723V82.7465L209.706 81.2777V82.3079ZM214.606 82.3079L212.127 83.1746V83.2094L214.606 84.09V85.1376L210.993 83.6723V82.7465L214.606 81.2777V82.3079ZM219.505 82.3079L217.027 83.1746V83.2094L219.505 84.09V85.1376L215.892 83.6723V82.7465L219.505 81.2777V82.3079ZM224.404 82.3079L221.926 83.1746V83.2094L224.404 84.09V85.1376L220.791 83.6723V82.7465L224.404 81.2777V82.3079ZM229.303 82.3079L226.825 83.1746V83.2094L229.303 84.09V85.1376L225.69 83.6723V82.7465L229.303 81.2777V82.3079ZM234.202 82.3079L231.724 83.1746V83.2094L234.202 84.09V85.1376L230.59 83.6723V82.7465L234.202 81.2777V82.3079ZM141.118 89.3079L138.64 90.1746V90.2094L141.118 91.09V92.1376L137.505 90.6723V89.7465L141.118 88.2777V89.3079ZM146.017 89.3079L143.539 90.1746V90.2094L146.017 91.09V92.1376L142.404 90.6723V89.7465L146.017 88.2777V89.3079ZM150.916 89.3079L148.438 90.1746V90.2094L150.916 91.09V92.1376L147.303 90.6723V89.7465L150.916 88.2777V89.3079ZM155.815 89.3079L153.337 90.1746V90.2094L155.815 91.09V92.1376L152.203 90.6723V89.7465L155.815 88.2777V89.3079ZM160.714 89.3079L158.236 90.1746V90.2094L160.714 91.09V92.1376L157.102 90.6723V89.7465L160.714 88.2777V89.3079ZM165.614 89.3079L163.136 90.1746V90.2094L165.614 91.09V92.1376L162.001 90.6723V89.7465L165.614 88.2777V89.3079ZM170.513 89.3079L168.035 90.1746V90.2094L170.513 91.09V92.1376L166.9 90.6723V89.7465L170.513 88.2777V89.3079ZM175.412 89.3079L172.934 90.1746V90.2094L175.412 91.09V92.1376L171.799 90.6723V89.7465L175.412 88.2777V89.3079ZM180.311 89.3079L177.833 90.1746V90.2094L180.311 91.09V92.1376L176.698 90.6723V89.7465L180.311 88.2777V89.3079ZM185.21 89.3079L182.732 90.1746V90.2094L185.21 91.09V92.1376L181.598 90.6723V89.7465L185.21 88.2777V89.3079ZM190.11 89.3079L187.631 90.1746V90.2094L190.11 91.09V92.1376L186.497 90.6723V89.7465L190.11 88.2777V89.3079ZM195.009 89.3079L192.531 90.1746V90.2094L195.009 91.09V92.1376L191.396 90.6723V89.7465L195.009 88.2777V89.3079ZM199.908 89.3079L197.43 90.1746V90.2094L199.908 91.09V92.1376L196.295 90.6723V89.7465L199.908 88.2777V89.3079ZM204.807 89.3079L202.329 90.1746V90.2094L204.807 91.09V92.1376L201.194 90.6723V89.7465L204.807 88.2777V89.3079ZM209.706 89.3079L207.228 90.1746V90.2094L209.706 91.09V92.1376L206.094 90.6723V89.7465L209.706 88.2777V89.3079ZM214.606 89.3079L212.127 90.1746V90.2094L214.606 91.09V92.1376L210.993 90.6723V89.7465L214.606 88.2777V89.3079ZM219.505 89.3079L217.027 90.1746V90.2094L219.505 91.09V92.1376L215.892 90.6723V89.7465L219.505 88.2777V89.3079ZM224.404 89.3079L221.926 90.1746V90.2094L224.404 91.09V92.1376L220.791 90.6723V89.7465L224.404 88.2777V89.3079ZM229.303 89.3079L226.825 90.1746V90.2094L229.303 91.09V92.1376L225.69 90.6723V89.7465L229.303 88.2777V89.3079ZM234.202 89.3079L231.724 90.1746V90.2094L234.202 91.09V92.1376L230.59 90.6723V89.7465L234.202 88.2777V89.3079ZM141.118 97.3079L138.64 98.1746V98.2094L141.118 99.09V100.138L137.505 98.6723V97.7465L141.118 96.2777V97.3079ZM146.017 97.3079L143.539 98.1746V98.2094L146.017 99.09V100.138L142.404 98.6723V97.7465L146.017 96.2777V97.3079ZM150.916 97.3079L148.438 98.1746V98.2094L150.916 99.09V100.138L147.303 98.6723V97.7465L150.916 96.2777V97.3079ZM155.815 97.3079L153.337 98.1746V98.2094L155.815 99.09V100.138L152.203 98.6723V97.7465L155.815 96.2777V97.3079ZM160.714 97.3079L158.236 98.1746V98.2094L160.714 99.09V100.138L157.102 98.6723V97.7465L160.714 96.2777V97.3079ZM165.614 97.3079L163.136 98.1746V98.2094L165.614 99.09V100.138L162.001 98.6723V97.7465L165.614 96.2777V97.3079ZM170.513 97.3079L168.035 98.1746V98.2094L170.513 99.09V100.138L166.9 98.6723V97.7465L170.513 96.2777V97.3079ZM175.412 97.3079L172.934 98.1746V98.2094L175.412 99.09V100.138L171.799 98.6723V97.7465L175.412 96.2777V97.3079Z" fill="#253D65"/>
<rect x="128.149" y="30.6942" width="119.05" height="71.8951" rx="5.34608" stroke="#253D65" stroke-width="2.13843"/>
<path d="M128.709 66.6738H246.774" stroke="#253D65" stroke-width="1.78203"/>
<rect x="141.169" y="39.9277" width="91.8093" height="180.945" rx="14.2561" fill="black"/>
<rect x="144.734" y="45.2754" width="84.6785" height="171.14" rx="9.50404" fill="#ECECEC"/>
<rect x="232.978" y="73.7988" width="0.891352" height="22.2839" fill="black"/>
<rect x="166.127" y="42.6035" width="42.7849" height="5.34812" rx="2.37601" fill="black"/>
<g filter="url(#filter0_d_86577_72460)">
<rect x="150.139" y="136.615" width="74.7586" height="74.7587" rx="7.42502" fill="white"/>
</g>
<ellipse cx="163.595" cy="200.907" rx="3.48873" ry="3.48874" fill="#007AFF"/>
<ellipse cx="175.556" cy="200.907" rx="3.48873" ry="3.48874" fill="#007AFF"/>
<ellipse cx="187.517" cy="200.907" rx="3.48873" ry="3.48874" fill="#007AFF"/>
<ellipse cx="199.48" cy="200.907" rx="3.48873" ry="3.48874" fill="#D9D9D9"/>
<ellipse cx="211.441" cy="200.907" rx="3.48873" ry="3.48874" fill="#D9D9D9"/>
<path fill-rule="evenodd" clip-rule="evenodd" d="M179.419 183.394V160.469H196.863V183.266C194.222 184.663 191.212 185.454 188.017 185.454C184.921 185.454 181.999 184.711 179.419 183.394Z" fill="#BADBFF"/>
<path d="M205.766 166.517C205.766 176.321 197.819 184.268 188.015 184.268C178.211 184.268 170.264 176.321 170.264 166.517C170.264 156.713 178.211 148.766 188.015 148.766C197.819 148.766 205.766 156.713 205.766 166.517Z" stroke="#1D70B8" stroke-width="2.37601"/>
<mask id="path-19-inside-1_86577_72460" fill="white">
<path fill-rule="evenodd" clip-rule="evenodd" d="M178.173 182.7V160.71C178.173 159.889 178.838 159.225 179.658 159.225H196.623C197.444 159.225 198.108 159.889 198.108 160.71V182.546C197.397 182.995 196.653 183.398 195.881 183.751V161.452H180.4V183.862C179.63 183.524 178.886 183.135 178.173 182.7ZM181.79 184.409C183.74 185.087 185.835 185.456 188.016 185.456C190.197 185.456 192.292 185.087 194.242 184.409H181.79Z"/>
</mask>
<path fill-rule="evenodd" clip-rule="evenodd" d="M178.173 182.7V160.71C178.173 159.889 178.838 159.225 179.658 159.225H196.623C197.444 159.225 198.108 159.889 198.108 160.71V182.546C197.397 182.995 196.653 183.398 195.881 183.751V161.452H180.4V183.862C179.63 183.524 178.886 183.135 178.173 182.7ZM181.79 184.409C183.74 185.087 185.835 185.456 188.016 185.456C190.197 185.456 192.292 185.087 194.242 184.409H181.79Z" fill="#D9D9D9"/>
<path d="M178.173 182.7H175.797V184.035L176.936 184.729L178.173 182.7ZM198.108 182.546L199.376 184.555L200.484 183.856V182.546H198.108ZM195.881 183.751H193.505V187.449L196.869 185.912L195.881 183.751ZM195.881 161.452H198.257V159.076H195.881V161.452ZM180.4 161.452V159.076H178.024V161.452H180.4ZM180.4 183.862L179.444 186.037L182.776 187.503V183.862H180.4ZM181.79 184.409V182.033L181.009 186.653L181.79 184.409ZM194.242 184.409L195.023 186.653L194.242 182.033V184.409ZM175.797 160.71V182.7H180.549V160.71H175.797ZM179.658 156.849C177.525 156.849 175.797 158.577 175.797 160.71H180.549C180.549 161.202 180.15 161.601 179.658 161.601V156.849ZM196.623 156.849H179.658V161.601H196.623V156.849ZM200.484 160.71C200.484 158.577 198.756 156.849 196.623 156.849V161.601C196.131 161.601 195.732 161.202 195.732 160.71H200.484ZM200.484 182.546V160.71H195.732V182.546H200.484ZM196.841 180.536C196.218 180.929 195.568 181.281 194.893 181.59L196.869 185.912C197.738 185.514 198.575 185.061 199.376 184.555L196.841 180.536ZM198.257 183.751V161.452H193.505V183.751H198.257ZM195.881 159.076H180.4V163.828H195.881V159.076ZM178.024 161.452V183.862H182.776V161.452H178.024ZM181.357 181.687C180.683 181.391 180.033 181.051 179.409 180.671L176.936 184.729C177.739 185.218 178.576 185.656 179.444 186.037L181.357 181.687ZM188.016 183.08C186.104 183.08 184.273 182.757 182.57 182.165L181.009 186.653C183.206 187.417 185.565 187.832 188.016 187.832V183.08ZM193.461 182.165C191.759 182.757 189.928 183.08 188.016 183.08V187.832C190.467 187.832 192.825 187.417 195.023 186.653L193.461 182.165ZM181.79 186.785H194.242V182.033H181.79V186.785Z" fill="#1D70B8" mask="url(#path-19-inside-1_86577_72460)"/>
<defs>
<filter id="filter0_d_86577_72460" x="146.575" y="134.239" width="81.8868" height="81.8868" filterUnits="userSpaceOnUse" color-interpolation-filters="sRGB">
<feFlood flood-opacity="0" result="BackgroundImageFix"/>
<feColorMatrix in="SourceAlpha" type="matrix" values="0 0 0 0 0 0 0 0 0 0 0 0 0 0 0 0 0 0 127 0" result="hardAlpha"/>
<feOffset dy="1.188"/>
<feGaussianBlur stdDeviation="1.78201"/>
<feComposite in2="hardAlpha" operator="out"/>
<feColorMatrix type="matrix" values="0 0 0 0 0 0 0 0 0 0 0 0 0 0 0 0 0 0 0.1 0"/>
<feBlend mode="normal" in2="BackgroundImageFix" result="effect1_dropShadow_86577_72460"/>
<feBlend mode="normal" in="SourceGraphic" in2="effect1_dropShadow_86577_72460" result="shape"/>
</filter>
<linearGradient id="paint0_linear_86577_72460" x1="124.545" y1="78.8117" x2="248.268" y2="77.2905" gradientUnits="userSpaceOnUse">
<stop stop-color="#FFD7E7"/>
<stop offset="0.416284" stop-color="#DDEDFF"/>
<stop offset="0.6875" stop-color="#D9EBFF"/>
<stop offset="1" stop-color="#FFDFEA"/>
</linearGradient>
</defs>
</svg>
