<svg width="375" height="250" viewBox="0 0 375 250" fill="none" xmlns="http://www.w3.org/2000/svg">
<rect width="375" height="250" fill="#C5C5C5"/>
<path fill-rule="evenodd" clip-rule="evenodd" d="M45.6533 197.65C48.9557 199.3 53.2636 199.3 61.8793 199.3L314.011 199.3H314.011C322.627 199.3 326.935 199.3 330.237 197.65C333.268 196.136 335.726 193.678 337.24 190.647C338.891 187.344 338.891 183.037 338.891 174.421V77.4438C338.891 68.828 338.891 64.5202 337.24 61.2178C335.726 58.1867 333.268 55.7291 330.237 54.2146C326.935 52.5645 322.627 52.5645 314.011 52.5645L61.8793 52.5645C53.2636 52.5645 48.9557 52.5645 45.6533 54.2146C42.6222 55.7291 40.1647 58.1867 38.6501 61.2178C37 64.5202 37 68.828 37 77.4438L37 174.421C37 183.037 37 187.344 38.6501 190.647C40.1647 193.678 42.6222 196.136 45.6533 197.65ZM120.519 77.252C118.034 77.252 116.019 79.2667 116.019 81.752V169.766C116.019 172.251 118.034 174.266 120.519 174.266H256.257C258.742 174.266 260.757 172.251 260.757 169.766V81.752C260.757 79.2667 258.742 77.252 256.257 77.252H120.519Z" fill="#4B4B4B"/>
<path d="M44.2002 102.301H45.1002C47.5855 102.301 49.6002 104.315 49.6002 106.801V143.701C49.6002 146.186 47.5855 148.201 45.1002 148.201H44.2002V102.301Z" fill="black"/>
<path fill-rule="evenodd" clip-rule="evenodd" d="M139.901 52.5498V51L101.156 51V52.5498L139.901 52.5498ZM37 68.2121C37 59.5702 44.0056 52.5647 52.6474 52.5647H323.347C331.989 52.5647 338.994 59.5702 338.994 68.2121V184.003C338.994 192.645 331.989 199.65 323.347 199.65H52.6474C44.0056 199.65 37 192.645 37 184.003V68.2121ZM44.8237 68.2121C44.8237 63.8912 48.3265 60.3884 52.6474 60.3884H323.347C327.668 60.3884 331.171 63.8912 331.171 68.2121V184.003C331.171 188.324 327.668 191.826 323.347 191.826H52.6474C48.3265 191.826 44.8237 188.324 44.8237 184.003V68.2121Z" fill="black"/>
<path d="M116.02 80.7302C116.02 78.5698 117.771 76.8184 119.931 76.8184H256.846C259.006 76.8184 260.758 78.5698 260.758 80.7302V170.703C260.758 172.863 259.006 174.615 256.846 174.615H119.931C117.771 174.615 116.02 172.863 116.02 170.703V80.7302Z" stroke="white" stroke-width="2.7"/>
<path d="M116.02 80.7302C116.02 78.5698 117.771 76.8184 119.931 76.8184H256.846C259.006 76.8184 260.758 78.5698 260.758 80.7302V170.703C260.758 172.863 259.006 174.615 256.846 174.615H119.931C117.771 174.615 116.02 172.863 116.02 170.703V80.7302Z" stroke="white" stroke-width="2.7"/>
<rect x="121.6" y="85.1992" width="133.952" height="81.8285" rx="6.48" fill="url(#paint0_linear_86577_72859)"/>
<rect x="122.5" y="125.699" width="132.3" height="40.5" rx="4.5" fill="white" fill-opacity="0.7"/>
<path d="M134.073 138.6H133.011V133.527H134.073V138.6ZM138.972 135.654L136.469 136.529V136.564L138.972 137.454V138.512L135.323 137.032V136.096L138.972 134.613V135.654ZM143.921 135.654L141.418 136.529V136.564L143.921 137.454V138.512L140.272 137.032V136.096L143.921 134.613V135.654ZM148.869 135.654L146.366 136.529V136.564L148.869 137.454V138.512L145.22 137.032V136.096L148.869 134.613V135.654ZM153.818 135.654L151.315 136.529V136.564L153.818 137.454V138.512L150.169 137.032V136.096L153.818 134.613V135.654ZM158.767 135.654L156.264 136.529V136.564L158.767 137.454V138.512L155.117 137.032V136.096L158.767 134.613V135.654ZM163.715 135.654L161.212 136.529V136.564L163.715 137.454V138.512L160.066 137.032V136.096L163.715 134.613V135.654ZM168.664 135.654L166.161 136.529V136.564L168.664 137.454V138.512L165.015 137.032V136.096L168.664 134.613V135.654ZM173.612 135.654L171.109 136.529V136.564L173.612 137.454V138.512L169.963 137.032V136.096L173.612 134.613V135.654ZM178.561 135.654L176.058 136.529V136.564L178.561 137.454V138.512L174.912 137.032V136.096L178.561 134.613V135.654ZM183.51 135.654L181.007 136.529V136.564L183.51 137.454V138.512L179.86 137.032V136.096L183.51 134.613V135.654ZM188.458 135.654L185.955 136.529V136.564L188.458 137.454V138.512L184.809 137.032V136.096L188.458 134.613V135.654ZM193.407 135.654L190.904 136.529V136.564L193.407 137.454V138.512L189.758 137.032V136.096L193.407 134.613V135.654ZM198.355 135.654L195.852 136.529V136.564L198.355 137.454V138.512L194.706 137.032V136.096L198.355 134.613V135.654ZM203.304 135.654L200.801 136.529V136.564L203.304 137.454V138.512L199.655 137.032V136.096L203.304 134.613V135.654ZM208.253 135.654L205.75 136.529V136.564L208.253 137.454V138.512L204.603 137.032V136.096L208.253 134.613V135.654ZM213.201 135.654L210.698 136.529V136.564L213.201 137.454V138.512L209.552 137.032V136.096L213.201 134.613V135.654ZM218.15 135.654L215.647 136.529V136.564L218.15 137.454V138.512L214.501 137.032V136.096L218.15 134.613V135.654ZM223.099 135.654L220.595 136.529V136.564L223.099 137.454V138.512L219.449 137.032V136.096L223.099 134.613V135.654ZM228.047 135.654L225.544 136.529V136.564L228.047 137.454V138.512L224.398 137.032V136.096L228.047 134.613V135.654ZM232.996 135.654L230.493 136.529V136.564L232.996 137.454V138.512L229.346 137.032V136.096L232.996 134.613V135.654ZM237.944 135.654L235.441 136.529V136.564L237.944 137.454V138.512L234.295 137.032V136.096L237.944 134.613V135.654ZM242.893 135.654L240.39 136.529V136.564L242.893 137.454V138.512L239.244 137.032V136.096L242.893 134.613V135.654ZM136.71 143.654L134.206 144.529V144.564L136.71 145.454V146.512L133.06 145.032V144.096L136.71 142.613V143.654ZM141.658 143.654L139.155 144.529V144.564L141.658 145.454V146.512L138.009 145.032V144.096L141.658 142.613V143.654ZM146.607 143.654L144.104 144.529V144.564L146.607 145.454V146.512L142.958 145.032V144.096L146.607 142.613V143.654ZM151.555 143.654L149.052 144.529V144.564L151.555 145.454V146.512L147.906 145.032V144.096L151.555 142.613V143.654ZM156.504 143.654L154.001 144.529V144.564L156.504 145.454V146.512L152.855 145.032V144.096L156.504 142.613V143.654ZM161.453 143.654L158.949 144.529V144.564L161.453 145.454V146.512L157.803 145.032V144.096L161.453 142.613V143.654ZM166.401 143.654L163.898 144.529V144.564L166.401 145.454V146.512L162.752 145.032V144.096L166.401 142.613V143.654ZM171.35 143.654L168.847 144.529V144.564L171.35 145.454V146.512L167.701 145.032V144.096L171.35 142.613V143.654ZM176.298 143.654L173.795 144.529V144.564L176.298 145.454V146.512L172.649 145.032V144.096L176.298 142.613V143.654ZM181.247 143.654L178.744 144.529V144.564L181.247 145.454V146.512L177.598 145.032V144.096L181.247 142.613V143.654ZM186.196 143.654L183.692 144.529V144.564L186.196 145.454V146.512L182.546 145.032V144.096L186.196 142.613V143.654ZM191.144 143.654L188.641 144.529V144.564L191.144 145.454V146.512L187.495 145.032V144.096L191.144 142.613V143.654ZM196.093 143.654L193.59 144.529V144.564L196.093 145.454V146.512L192.444 145.032V144.096L196.093 142.613V143.654ZM201.041 143.654L198.538 144.529V144.564L201.041 145.454V146.512L197.392 145.032V144.096L201.041 142.613V143.654ZM205.99 143.654L203.487 144.529V144.564L205.99 145.454V146.512L202.341 145.032V144.096L205.99 142.613V143.654ZM210.939 143.654L208.436 144.529V144.564L210.939 145.454V146.512L207.289 145.032V144.096L210.939 142.613V143.654ZM215.887 143.654L213.384 144.529V144.564L215.887 145.454V146.512L212.238 145.032V144.096L215.887 142.613V143.654ZM220.836 143.654L218.333 144.529V144.564L220.836 145.454V146.512L217.187 145.032V144.096L220.836 142.613V143.654ZM225.784 143.654L223.281 144.529V144.564L225.784 145.454V146.512L222.135 145.032V144.096L225.784 142.613V143.654ZM230.733 143.654L228.23 144.529V144.564L230.733 145.454V146.512L227.084 145.032V144.096L230.733 142.613V143.654ZM235.682 143.654L233.179 144.529V144.564L235.682 145.454V146.512L232.032 145.032V144.096L235.682 142.613V143.654ZM240.63 143.654L238.127 144.529V144.564L240.63 145.454V146.512L236.981 145.032V144.096L240.63 142.613V143.654ZM136.71 151.654L134.206 152.529V152.564L136.71 153.454V154.512L133.06 153.032V152.096L136.71 150.613V151.654ZM141.658 151.654L139.155 152.529V152.564L141.658 153.454V154.512L138.009 153.032V152.096L141.658 150.613V151.654ZM146.607 151.654L144.104 152.529V152.564L146.607 153.454V154.512L142.958 153.032V152.096L146.607 150.613V151.654ZM151.555 151.654L149.052 152.529V152.564L151.555 153.454V154.512L147.906 153.032V152.096L151.555 150.613V151.654ZM156.504 151.654L154.001 152.529V152.564L156.504 153.454V154.512L152.855 153.032V152.096L156.504 150.613V151.654ZM161.453 151.654L158.949 152.529V152.564L161.453 153.454V154.512L157.803 153.032V152.096L161.453 150.613V151.654ZM166.401 151.654L163.898 152.529V152.564L166.401 153.454V154.512L162.752 153.032V152.096L166.401 150.613V151.654ZM171.35 151.654L168.847 152.529V152.564L171.35 153.454V154.512L167.701 153.032V152.096L171.35 150.613V151.654ZM176.298 151.654L173.795 152.529V152.564L176.298 153.454V154.512L172.649 153.032V152.096L176.298 150.613V151.654ZM181.247 151.654L178.744 152.529V152.564L181.247 153.454V154.512L177.598 153.032V152.096L181.247 150.613V151.654ZM186.196 151.654L183.692 152.529V152.564L186.196 153.454V154.512L182.546 153.032V152.096L186.196 150.613V151.654ZM191.144 151.654L188.641 152.529V152.564L191.144 153.454V154.512L187.495 153.032V152.096L191.144 150.613V151.654ZM196.093 151.654L193.59 152.529V152.564L196.093 153.454V154.512L192.444 153.032V152.096L196.093 150.613V151.654ZM201.041 151.654L198.538 152.529V152.564L201.041 153.454V154.512L197.392 153.032V152.096L201.041 150.613V151.654ZM205.99 151.654L203.487 152.529V152.564L205.99 153.454V154.512L202.341 153.032V152.096L205.99 150.613V151.654ZM210.939 151.654L208.436 152.529V152.564L210.939 153.454V154.512L207.289 153.032V152.096L210.939 150.613V151.654ZM215.887 151.654L213.384 152.529V152.564L215.887 153.454V154.512L212.238 153.032V152.096L215.887 150.613V151.654ZM220.836 151.654L218.333 152.529V152.564L220.836 153.454V154.512L217.187 153.032V152.096L220.836 150.613V151.654ZM225.784 151.654L223.281 152.529V152.564L225.784 153.454V154.512L222.135 153.032V152.096L225.784 150.613V151.654ZM230.733 151.654L228.23 152.529V152.564L230.733 153.454V154.512L227.084 153.032V152.096L230.733 150.613V151.654ZM235.682 151.654L233.179 152.529V152.564L235.682 153.454V154.512L232.032 153.032V152.096L235.682 150.613V151.654ZM136.71 159.654L134.206 160.529V160.564L136.71 161.454V162.512L133.06 161.032V160.096L136.71 158.613V159.654ZM141.658 159.654L139.155 160.529V160.564L141.658 161.454V162.512L138.009 161.032V160.096L141.658 158.613V159.654ZM146.607 159.654L144.104 160.529V160.564L146.607 161.454V162.512L142.958 161.032V160.096L146.607 158.613V159.654Z" fill="#253D65"/>
<rect x="122.68" y="86.2792" width="131.792" height="79.6685" rx="5.4" stroke="#253D65" stroke-width="2.16"/>
<path d="M123.399 126.148H253.899" stroke="#253D65" stroke-width="1.8"/>
<defs>
<linearGradient id="paint0_linear_86577_72859" x1="118.797" y1="139.565" x2="255.552" y2="137.883" gradientUnits="userSpaceOnUse">
<stop stop-color="#FFD7E7"/>
<stop offset="0.416284" stop-color="#DDEDFF"/>
<stop offset="0.6875" stop-color="#D9EBFF"/>
<stop offset="1" stop-color="#FFDFEA"/>
</linearGradient>
</defs>
</svg>
