<svg width="360" height="66" viewBox="0 0 360 66" fill="none" xmlns="http://www.w3.org/2000/svg">
<rect width="360" height="66" fill="white"/>
<path d="M14.8929 32.2945C14.5024 32.685 14.5024 33.3181 14.8929 33.7087C15.2834 34.0992 15.9166 34.0992 16.3071 33.7087L14.8929 32.2945ZM24 24.6016L24.7071 23.8945C24.3166 23.5039 23.6834 23.5039 23.2929 23.8945L24 24.6016ZM31.6929 33.7087C32.0834 34.0992 32.7166 34.0992 33.1071 33.7087C33.4976 33.3181 33.4976 32.685 33.1071 32.2945L31.6929 33.7087ZM29 30.6016V39.0016H31V30.6016H29ZM27.6 40.4016H20.4V42.4016H27.6V40.4016ZM19 39.0016V30.6016H17V39.0016H19ZM20.4 40.4016C19.6268 40.4016 19 39.7748 19 39.0016H17C17 40.8793 18.5222 42.4016 20.4 42.4016V40.4016ZM29 39.0016C29 39.7748 28.3732 40.4016 27.6 40.4016V42.4016C29.4778 42.4016 31 40.8793 31 39.0016H29ZM16.3071 33.7087L24.7071 25.3087L23.2929 23.8945L14.8929 32.2945L16.3071 33.7087ZM23.2929 25.3087L31.6929 33.7087L33.1071 32.2945L24.7071 23.8945L23.2929 25.3087Z" fill="#333333"/>
<rect x="44" y="16" width="232" height="34" rx="17" fill="#333333" fill-opacity="0.1"/>
<rect x="59" y="31" width="8" height="8" rx="1" fill="#333333"/>
<path d="M65 31V30C65 28.8954 64.1046 28 63 28C61.8955 28 61 28.8954 61 30V31" stroke="#333333" stroke-width="0.7"/>
<path d="M82.9893 31.2168H84.0586V36.3535C84.0586 36.8288 83.9577 37.2324 83.7559 37.5645C83.554 37.8965 83.2725 38.1488 82.9111 38.3213C82.5498 38.4971 82.1315 38.585 81.6562 38.585C81.4544 38.585 81.2298 38.5557 80.9824 38.4971C80.7383 38.4385 80.5007 38.3441 80.2695 38.2139C80.0417 38.0869 79.8512 37.9193 79.6982 37.7109L80.25 37.0176C80.4388 37.2422 80.6471 37.4066 80.875 37.5107C81.1029 37.6149 81.3421 37.667 81.5928 37.667C81.863 37.667 82.0924 37.6165 82.2812 37.5156C82.4733 37.418 82.6214 37.2731 82.7256 37.0811C82.8298 36.889 82.8818 36.6546 82.8818 36.3779V32.4131L82.9893 31.2168ZM79.4004 33.917V33.8145C79.4004 33.4141 79.4492 33.0495 79.5469 32.7207C79.6445 32.3887 79.7845 32.1038 79.9668 31.8662C80.1491 31.6253 80.3704 31.4414 80.6309 31.3145C80.8913 31.1842 81.1859 31.1191 81.5146 31.1191C81.8564 31.1191 82.1478 31.181 82.3887 31.3047C82.6328 31.4284 82.8363 31.6058 82.999 31.8369C83.1618 32.0648 83.2887 32.3382 83.3799 32.6572C83.4743 32.973 83.5443 33.3245 83.5898 33.7119V34.0391C83.5475 34.4167 83.4759 34.7617 83.375 35.0742C83.2741 35.3867 83.1406 35.6569 82.9746 35.8848C82.8086 36.1126 82.6035 36.2884 82.3594 36.4121C82.1185 36.5358 81.8337 36.5977 81.5049 36.5977C81.1826 36.5977 80.8913 36.5309 80.6309 36.3975C80.3737 36.264 80.1523 36.0768 79.9668 35.8359C79.7845 35.5951 79.6445 35.3118 79.5469 34.9863C79.4492 34.6576 79.4004 34.3011 79.4004 33.917ZM80.5771 33.8145V33.917C80.5771 34.1579 80.5999 34.3825 80.6455 34.5908C80.6943 34.7992 80.7676 34.9831 80.8652 35.1426C80.9661 35.2988 81.0931 35.4225 81.2461 35.5137C81.4023 35.6016 81.5863 35.6455 81.7979 35.6455C82.0745 35.6455 82.3008 35.5869 82.4766 35.4697C82.6556 35.3525 82.7923 35.1947 82.8867 34.9961C82.9844 34.7943 83.0527 34.5697 83.0918 34.3223V33.4385C83.0723 33.2464 83.0316 33.0674 82.9697 32.9014C82.9111 32.7354 82.8314 32.5905 82.7305 32.4668C82.6296 32.3398 82.5026 32.2422 82.3496 32.1738C82.1966 32.1022 82.016 32.0664 81.8076 32.0664C81.596 32.0664 81.4121 32.112 81.2559 32.2031C81.0996 32.2943 80.971 32.4196 80.8701 32.5791C80.7725 32.7386 80.6992 32.9242 80.6504 33.1357C80.6016 33.3473 80.5771 33.5736 80.5771 33.8145ZM85.0547 33.917V33.8047C85.0547 33.4238 85.11 33.0706 85.2207 32.7451C85.3314 32.4163 85.4909 32.1315 85.6992 31.8906C85.9108 31.6465 86.168 31.4577 86.4707 31.3242C86.7767 31.1875 87.1217 31.1191 87.5059 31.1191C87.8932 31.1191 88.2383 31.1875 88.541 31.3242C88.847 31.4577 89.1058 31.6465 89.3174 31.8906C89.529 32.1315 89.6901 32.4163 89.8008 32.7451C89.9115 33.0706 89.9668 33.4238 89.9668 33.8047V33.917C89.9668 34.2979 89.9115 34.651 89.8008 34.9766C89.6901 35.3021 89.529 35.5869 89.3174 35.8311C89.1058 36.0719 88.8486 36.2607 88.5459 36.3975C88.2432 36.5309 87.8997 36.5977 87.5156 36.5977C87.1283 36.5977 86.7816 36.5309 86.4756 36.3975C86.1729 36.2607 85.9157 36.0719 85.7041 35.8311C85.4925 35.5869 85.3314 35.3021 85.2207 34.9766C85.11 34.651 85.0547 34.2979 85.0547 33.917ZM86.2314 33.8047V33.917C86.2314 34.1546 86.2559 34.3792 86.3047 34.5908C86.3535 34.8024 86.43 34.988 86.5342 35.1475C86.6383 35.307 86.7718 35.4323 86.9346 35.5234C87.0973 35.6146 87.291 35.6602 87.5156 35.6602C87.7337 35.6602 87.9225 35.6146 88.082 35.5234C88.2448 35.4323 88.3783 35.307 88.4824 35.1475C88.5866 34.988 88.6631 34.8024 88.7119 34.5908C88.764 34.3792 88.79 34.1546 88.79 33.917V33.8047C88.79 33.5703 88.764 33.349 88.7119 33.1406C88.6631 32.929 88.585 32.7419 88.4775 32.5791C88.3734 32.4163 88.2399 32.2894 88.0771 32.1982C87.9176 32.1038 87.7272 32.0566 87.5059 32.0566C87.2845 32.0566 87.0924 32.1038 86.9297 32.1982C86.7702 32.2894 86.6383 32.4163 86.5342 32.5791C86.43 32.7419 86.3535 32.929 86.3047 33.1406C86.2559 33.349 86.2314 33.5703 86.2314 33.8047ZM92.5938 35.5674L93.8877 31.2168H95.1084L93.2725 36.5H92.5107L92.5938 35.5674ZM91.6025 31.2168L92.9209 35.5869L92.9844 36.5H92.2227L90.377 31.2168H91.6025ZM95.25 35.9141C95.25 35.7318 95.3118 35.5788 95.4355 35.4551C95.5592 35.3281 95.7269 35.2646 95.9385 35.2646C96.1533 35.2646 96.321 35.3281 96.4414 35.4551C96.5651 35.5788 96.627 35.7318 96.627 35.9141C96.627 36.0964 96.5651 36.2493 96.4414 36.373C96.321 36.4967 96.1533 36.5586 95.9385 36.5586C95.7269 36.5586 95.5592 36.4967 95.4355 36.373C95.3118 36.2493 95.25 36.0964 95.25 35.9141ZM101.163 35.2549V31.2168H102.345V36.5H101.231L101.163 35.2549ZM101.329 34.1562L101.725 34.1465C101.725 34.5013 101.686 34.8285 101.607 35.1279C101.529 35.4242 101.409 35.6829 101.246 35.9043C101.083 36.1224 100.875 36.2933 100.621 36.417C100.367 36.5374 100.063 36.5977 99.708 36.5977C99.4508 36.5977 99.2148 36.5602 99 36.4854C98.7852 36.4105 98.5996 36.2949 98.4434 36.1387C98.2904 35.9824 98.1715 35.779 98.0869 35.5283C98.0023 35.2777 97.96 34.9782 97.96 34.6299V31.2168H99.1367V34.6396C99.1367 34.8317 99.1595 34.9928 99.2051 35.123C99.2507 35.25 99.3125 35.3525 99.3906 35.4307C99.4688 35.5088 99.5599 35.5641 99.6641 35.5967C99.7682 35.6292 99.8789 35.6455 99.9961 35.6455C100.331 35.6455 100.595 35.5804 100.787 35.4502C100.982 35.3167 101.121 35.1377 101.202 34.9131C101.287 34.6885 101.329 34.4362 101.329 34.1562ZM104.737 29V36.5H103.556V29H104.737ZM108.019 31.2168L105.719 33.7656L104.459 35.0547L104.151 34.0586L105.104 32.8818L106.598 31.2168H108.019ZM106.852 36.5L105.138 34.0195L105.88 33.1943L108.214 36.5H106.852Z" fill="#333333"/>
<g clip-path="url(#clip0_63333_214403)">
<rect x="292.75" y="25.75" width="14.5" height="14.5" rx="4.25" stroke="#333333" stroke-width="1.5"/>
<path d="M301.045 28.876V36H299.639V30.4971L297.949 31.0342V29.9258L300.894 28.876H301.045Z" fill="#333333"/>
</g>
<path d="M334.594 37.5938C335 37.1875 335.469 36.9844 336 36.9844C336.531 36.9844 337 37.1875 337.406 37.5938C337.812 38 338.016 38.4688 338.016 39C338.016 39.5312 337.812 40 337.406 40.4062C337 40.8125 336.531 41.0156 336 41.0156C335.469 41.0156 335 40.8125 334.594 40.4062C334.188 40 333.984 39.5312 333.984 39C333.984 38.4688 334.188 38 334.594 37.5938ZM334.594 31.5938C335 31.1875 335.469 30.9844 336 30.9844C336.531 30.9844 337 31.1875 337.406 31.5938C337.812 32 338.016 32.4688 338.016 33C338.016 33.5312 337.812 34 337.406 34.4062C337 34.8125 336.531 35.0156 336 35.0156C335.469 35.0156 335 34.8125 334.594 34.4062C334.188 34 333.984 33.5312 333.984 33C333.984 32.4688 334.188 32 334.594 31.5938ZM337.406 28.4062C337 28.8125 336.531 29.0156 336 29.0156C335.469 29.0156 335 28.8125 334.594 28.4062C334.188 28 333.984 27.5312 333.984 27C333.984 26.4688 334.188 26 334.594 25.5938C335 25.1875 335.469 24.9844 336 24.9844C336.531 24.9844 337 25.1875 337.406 25.5938C337.812 26 338.016 26.4688 338.016 27C338.016 27.5312 337.812 28 337.406 28.4062Z" fill="#333333"/>
<defs>
<clipPath id="clip0_63333_214403">
<rect width="16" height="16" fill="white" transform="translate(292 25)"/>
</clipPath>
</defs>
</svg>
