<svg width="106" height="106" viewBox="0 0 106 106" fill="none" xmlns="http://www.w3.org/2000/svg">
<path d="M53 105.681C60.1751 105.681 66.9149 104.305 73.2192 101.554C79.5584 98.8369 85.1313 95.0752 89.938 90.2686C94.7446 85.4271 98.5238 79.8542 101.275 73.5498C104.027 67.2106 105.403 60.4535 105.403 53.2783C105.403 46.1032 104.027 39.3634 101.275 33.0591C98.5238 26.7199 94.7446 21.147 89.938 16.3403C85.1313 11.4989 79.5584 7.71973 73.2192 5.00293C66.88 2.2513 60.1229 0.875488 52.9478 0.875488C45.7726 0.875488 39.0155 2.2513 32.6763 5.00293C26.3719 7.71973 20.8164 11.4989 16.0098 16.3403C11.2031 21.147 7.42399 26.7199 4.67236 33.0591C1.95557 39.3634 0.597168 46.1032 0.597168 53.2783C0.597168 60.4535 1.95557 67.2106 4.67236 73.5498C7.42399 79.8542 11.2031 85.4271 16.0098 90.2686C20.8512 95.0752 26.4242 98.8369 32.7285 101.554C39.0677 104.305 45.8249 105.681 53 105.681ZM53 98.9414C46.6608 98.9414 40.7396 97.7572 35.2363 95.3887C29.7331 93.0202 24.8916 89.7461 20.7119 85.5664C16.5322 81.3867 13.2581 76.5452 10.8896 71.042C8.55599 65.5039 7.38916 59.5827 7.38916 53.2783C7.38916 46.974 8.55599 41.0701 10.8896 35.5669C13.2581 30.0288 16.5148 25.1699 20.6597 20.9902C24.8394 16.7757 29.6808 13.5016 35.1841 11.168C40.7222 8.79948 46.6434 7.61523 52.9478 7.61523C59.2869 7.61523 65.2082 8.79948 70.7114 11.168C76.2495 13.5016 81.1084 16.7757 85.2881 20.9902C89.4678 25.1699 92.7419 30.0288 95.1104 35.5669C97.4788 41.0701 98.6631 46.974 98.6631 53.2783C98.6631 59.5827 97.4788 65.5039 95.1104 71.042C92.7767 76.5452 89.5026 81.3867 85.2881 85.5664C81.1084 89.7461 76.2495 93.0202 70.7114 95.3887C65.2082 97.7572 59.3044 98.9414 53 98.9414ZM52.9478 62.6304C55.0028 62.6304 56.0477 61.4984 56.0825 59.2344L56.7095 31.2827C56.7443 30.2378 56.396 29.367 55.6646 28.6704C54.9331 27.939 54.0101 27.5732 52.8955 27.5732C51.7461 27.5732 50.8231 27.9215 50.1265 28.6182C49.4299 29.3148 49.099 30.203 49.1338 31.2827L49.7085 59.2344C49.7433 61.4984 50.8231 62.6304 52.9478 62.6304ZM52.9478 78.8267C54.2365 78.8267 55.3511 78.3739 56.2915 77.4683C57.2668 76.5278 57.7544 75.4132 57.7544 74.1245C57.7544 72.8009 57.2842 71.6864 56.3438 70.7808C55.4033 69.8752 54.2713 69.4224 52.9478 69.4224C51.5894 69.4224 50.4399 69.8752 49.4995 70.7808C48.5591 71.6864 48.0889 72.8009 48.0889 74.1245C48.0889 75.3784 48.5591 76.4756 49.4995 77.416C50.4399 78.3564 51.5894 78.8267 52.9478 78.8267Z" fill="#0B0C0C"/>
</svg>
