<svg width="217" height="159" viewBox="0 0 217 159" fill="none" xmlns="http://www.w3.org/2000/svg">
<rect width="217" height="159" rx="8" fill="#6C6C6C"/>
<path d="M96 65L105.068 75.5002C105.285 75.7511 105.678 75.7309 105.861 75.4544C107.367 73.177 113.272 64.257 117.5 58M142.5 64C142.5 82.7777 127.278 98 108.5 98C89.7223 98 74.5 82.7777 74.5 64C74.5 45.2223 89.7223 30 108.5 30C127.278 30 142.5 45.2223 142.5 64Z" stroke="white" stroke-width="3" stroke-linecap="round"/>
<path d="M17.573 134H19.7146V122.022H17.573V134ZM22.3841 134H24.451V128.712C24.451 127.351 25.2147 126.488 26.4432 126.488C27.6966 126.488 28.2694 127.202 28.2694 128.613V134H30.3363V128.131C30.3363 125.973 29.2323 124.753 27.2069 124.753C25.8954 124.753 25.0238 125.342 24.5921 126.313H24.451V124.927H22.3841V134ZM33.3711 134H35.438V126.529H37.3721V124.927H35.4048V124.147C35.4048 123.284 35.7783 122.819 36.7495 122.819C37.04 122.819 37.2973 122.835 37.4551 122.86V121.416C37.123 121.358 36.7495 121.333 36.3096 121.333C34.2925 121.333 33.3711 122.221 33.3711 124.031V124.927H31.8852V126.529H33.3711V134ZM42.8805 134.183C45.5948 134.183 47.2467 132.406 47.2467 129.468V129.451C47.2467 126.529 45.5865 124.753 42.8805 124.753C40.1827 124.753 38.5143 126.538 38.5143 129.451V129.468C38.5143 132.406 40.1578 134.183 42.8805 134.183ZM42.8805 132.506C41.4444 132.506 40.6227 131.385 40.6227 129.476V129.459C40.6227 127.55 41.4444 126.421 42.8805 126.421C44.3082 126.421 45.13 127.55 45.13 129.459V129.476C45.13 131.385 44.3165 132.506 42.8805 132.506ZM49.2522 134H51.3191V128.729C51.3191 127.434 52.2239 126.612 53.6018 126.612C53.9587 126.612 54.2991 126.662 54.6311 126.729V124.877C54.4319 124.819 54.1081 124.778 53.7927 124.778C52.5974 124.778 51.7673 125.351 51.4602 126.322H51.3191V124.927H49.2522V134ZM56.371 134H58.4379V128.48C58.4379 127.351 59.1849 126.488 60.2059 126.488C61.2186 126.488 61.8412 127.11 61.8412 128.115V134H63.9081V128.331C63.9081 127.293 64.6053 126.488 65.6844 126.488C66.7884 126.488 67.328 127.085 67.328 128.264V134H69.3949V127.758C69.3949 125.874 68.2992 124.753 66.473 124.753C65.2113 124.753 64.1654 125.4 63.7255 126.388H63.5843C63.1942 125.384 62.2977 124.753 61.0692 124.753C59.8822 124.753 58.9691 125.326 58.579 126.338H58.4379V124.927H56.371V134ZM74.2475 134.149C75.4429 134.149 76.4058 133.635 76.9038 132.755H77.0449V134H79.0869V127.799C79.0869 125.882 77.7754 124.753 75.4429 124.753C73.2847 124.753 71.8237 125.766 71.6245 127.293L71.6162 127.368H73.5669L73.5752 127.334C73.7827 126.737 74.397 126.396 75.3433 126.396C76.4556 126.396 77.0449 126.895 77.0449 127.799V128.58L74.7124 128.721C72.5044 128.854 71.2676 129.8 71.2676 131.418V131.435C71.2676 133.087 72.521 134.149 74.2475 134.149ZM73.3096 131.335V131.319C73.3096 130.572 73.8491 130.148 75.0029 130.074L77.0449 129.941V130.671C77.0449 131.75 76.1235 132.564 74.8784 132.564C73.9653 132.564 73.3096 132.107 73.3096 131.335ZM85.0685 134.042C85.4669 134.042 85.8487 134.008 86.1476 133.95V132.356C85.8986 132.381 85.7408 132.39 85.4503 132.39C84.587 132.39 84.2301 132.008 84.2301 131.103V126.529H86.1476V124.927H84.2301V122.703H82.13V124.927H80.7189V126.529H82.13V131.593C82.13 133.344 82.985 134.042 85.0685 134.042ZM89.199 123.408C89.8713 123.408 90.4275 122.869 90.4275 122.188C90.4275 121.516 89.8713 120.968 89.199 120.968C88.5183 120.968 87.9622 121.516 87.9622 122.188C87.9622 122.869 88.5183 123.408 89.199 123.408ZM88.1614 134H90.2283V124.927H88.1614V134ZM96.6166 134.183C99.3309 134.183 100.983 132.406 100.983 129.468V129.451C100.983 126.529 99.3226 124.753 96.6166 124.753C93.9188 124.753 92.2504 126.538 92.2504 129.451V129.468C92.2504 132.406 93.8939 134.183 96.6166 134.183ZM96.6166 132.506C95.1805 132.506 94.3588 131.385 94.3588 129.476V129.459C94.3588 127.55 95.1805 126.421 96.6166 126.421C98.0443 126.421 98.8661 127.55 98.8661 129.459V129.476C98.8661 131.385 98.0526 132.506 96.6166 132.506ZM102.988 134H105.055V128.712C105.055 127.351 105.819 126.488 107.047 126.488C108.301 126.488 108.874 127.202 108.874 128.613V134H110.94V128.131C110.94 125.973 109.836 124.753 107.811 124.753C106.5 124.753 105.628 125.342 105.196 126.313H105.055V124.927H102.988V134ZM121.202 134.183C123.435 134.183 125.053 133.029 125.053 131.302V131.286C125.053 129.966 124.215 129.21 122.439 128.812L120.969 128.488C119.99 128.264 119.608 127.94 119.608 127.409V127.401C119.608 126.72 120.272 126.272 121.194 126.272C122.165 126.272 122.762 126.737 122.912 127.31L122.92 127.334H124.863V127.318C124.73 125.849 123.41 124.753 121.202 124.753C119.06 124.753 117.566 125.882 117.566 127.517V127.525C117.566 128.862 118.388 129.675 120.115 130.057L121.584 130.389C122.58 130.613 122.978 130.962 122.978 131.493V131.51C122.978 132.19 122.264 132.655 121.235 132.655C120.206 132.655 119.6 132.215 119.384 131.584L119.376 131.568H117.325V131.584C117.5 133.12 118.894 134.183 121.202 134.183ZM130.072 134.183C131.384 134.183 132.305 133.593 132.728 132.622H132.87V134H134.936V124.927H132.87V130.215C132.87 131.576 132.156 132.439 130.819 132.439C129.574 132.439 129.051 131.726 129.051 130.323V124.927H126.984V130.796C126.984 132.954 128.03 134.183 130.072 134.183ZM142.437 134.149C144.711 134.149 146.164 132.348 146.164 129.476V129.459C146.164 126.571 144.736 124.778 142.437 124.778C141.192 124.778 140.154 125.392 139.681 126.372H139.54V121.416H137.473V134H139.54V132.581H139.681C140.179 133.568 141.167 134.149 142.437 134.149ZM141.79 132.406C140.387 132.406 139.515 131.294 139.515 129.476V129.459C139.515 127.642 140.387 126.521 141.79 126.521C143.201 126.521 144.056 127.633 144.056 129.459V129.476C144.056 131.302 143.201 132.406 141.79 132.406ZM148.161 134H150.228V128.48C150.228 127.351 150.975 126.488 151.996 126.488C153.009 126.488 153.631 127.11 153.631 128.115V134H155.698V128.331C155.698 127.293 156.396 126.488 157.475 126.488C158.579 126.488 159.118 127.085 159.118 128.264V134H161.185V127.758C161.185 125.874 160.089 124.753 158.263 124.753C157.002 124.753 155.956 125.4 155.516 126.388H155.375C154.984 125.384 154.088 124.753 152.859 124.753C151.672 124.753 150.759 125.326 150.369 126.338H150.228V124.927H148.161V134ZM164.627 123.408C165.299 123.408 165.855 122.869 165.855 122.188C165.855 121.516 165.299 120.968 164.627 120.968C163.946 120.968 163.39 121.516 163.39 122.188C163.39 122.869 163.946 123.408 164.627 123.408ZM163.589 134H165.656V124.927H163.589V134ZM171.696 134.042C172.094 134.042 172.476 134.008 172.775 133.95V132.356C172.526 132.381 172.368 132.39 172.078 132.39C171.214 132.39 170.857 132.008 170.857 131.103V126.529H172.775V124.927H170.857V122.703H168.757V124.927H167.346V126.529H168.757V131.593C168.757 133.344 169.612 134.042 171.696 134.042ZM178.383 134.042C178.781 134.042 179.163 134.008 179.462 133.95V132.356C179.213 132.381 179.055 132.39 178.765 132.39C177.901 132.39 177.544 132.008 177.544 131.103V126.529H179.462V124.927H177.544V122.703H175.444V124.927H174.033V126.529H175.444V131.593C175.444 133.344 176.299 134.042 178.383 134.042ZM185.253 134.183C187.718 134.183 188.93 132.763 189.22 131.593L189.245 131.518H187.278L187.253 131.576C187.054 131.991 186.415 132.556 185.294 132.556C183.891 132.556 183.011 131.609 182.986 129.982H189.328V129.302C189.328 126.562 187.735 124.753 185.153 124.753C182.571 124.753 180.92 126.621 180.92 129.476V129.484C180.92 132.373 182.555 134.183 185.253 134.183ZM185.178 126.372C186.332 126.372 187.17 127.11 187.311 128.596H183.003C183.161 127.152 184.024 126.372 185.178 126.372ZM194.596 134.149C195.874 134.149 196.854 133.568 197.352 132.581H197.493V134H199.568V121.416H197.493V126.372H197.352C196.879 125.392 195.841 124.778 194.596 124.778C192.297 124.778 190.877 126.571 190.877 129.459V129.476C190.877 132.348 192.322 134.149 194.596 134.149ZM195.243 132.406C193.832 132.406 192.977 131.302 192.977 129.476V129.459C192.977 127.633 193.841 126.521 195.243 126.521C196.646 126.521 197.526 127.642 197.526 129.459V129.476C197.526 131.294 196.655 132.406 195.243 132.406Z" fill="white"/>
</svg>
