<svg width="68" height="55" viewBox="0 0 68 55" fill="none" xmlns="http://www.w3.org/2000/svg">
<g filter="url(#filter0_d_70703_263393)">
<rect x="63" y="5" width="44" height="44" rx="22" transform="rotate(90 63 5)" fill="white"/>
</g>
<path d="M49.656 32.1523L49.656 21.5921L50.0426 21.5921C50.7921 21.5921 51.4079 22.2079 51.4079 22.9574L51.4079 30.7871C51.4079 31.5366 50.7921 32.1523 50.0426 32.1523L49.656 32.1523Z" fill="#505A5F" stroke="#505A5F" stroke-width="1.18424"/>
<path d="M43.8889 23.6544L43.8889 24.2465L44.1169 24.2465L44.286 24.0936L47.053 21.5921L47.2116 21.5921L47.2116 32.1523L47.053 32.1523L44.286 29.6509L44.1169 29.498L43.8889 29.498L30.9577 29.498C30.2081 29.498 29.5924 28.8822 29.5924 28.1327L29.5924 28.1326L29.5924 28.1325L29.5924 28.1324L29.5924 28.1323L29.5924 28.1321L29.5924 28.1319L29.5924 28.1316L29.5924 28.1313L29.5924 28.131L29.5924 28.1307L29.5924 28.1303L29.5924 28.1299L29.5924 28.1295L29.5924 28.129L29.5924 28.1285L29.5924 28.128L29.5924 28.1274L29.5924 28.1268L29.5924 28.1262L29.5924 28.1255L29.5924 28.1248L29.5924 28.1241L29.5924 28.1233L29.5924 28.1226L29.5924 28.1217L29.5924 28.1209L29.5924 28.12L29.5924 28.1191L29.5924 28.1182L29.5924 28.1172L29.5924 28.1162L29.5924 28.1152L29.5924 28.1141L29.5924 28.113L29.5924 28.1119L29.5924 28.1107L29.5924 28.1095L29.5924 28.1083L29.5924 28.1071L29.5924 28.1058L29.5924 28.1045L29.5924 28.1032L29.5924 28.1018L29.5924 28.1004L29.5924 28.099L29.5924 28.0976L29.5924 28.0961L29.5924 28.0946L29.5924 28.093L29.5924 28.0915L29.5924 28.0899L29.5924 28.0883L29.5924 28.0866L29.5924 28.0849L29.5924 28.0832L29.5924 28.0815L29.5924 28.0797L29.5924 28.0779L29.5924 28.0761L29.5924 28.0742L29.5924 28.0724L29.5924 28.0704L29.5924 28.0685L29.5924 28.0665L29.5924 28.0646L29.5924 28.0625L29.5924 28.0605L29.5924 28.0584L29.5924 28.0563L29.5924 28.0542L29.5924 28.052L29.5924 28.0498L29.5924 28.0476L29.5924 28.0454L29.5924 28.0431L29.5924 28.0408L29.5924 28.0385L29.5924 28.0362L29.5924 28.0338L29.5924 28.0314L29.5924 28.029L29.5924 28.0265L29.5924 28.0241L29.5924 28.0215L29.5924 28.019L29.5924 28.0165L29.5924 28.0139L29.5924 28.0113L29.5924 28.0086L29.5924 28.006L29.5924 28.0033L29.5924 28.0006L29.5924 27.9978L29.5924 27.9951L29.5924 27.9923L29.5924 27.9895L29.5924 27.9866L29.5924 27.9838L29.5924 27.9809L29.5924 27.978L29.5924 27.975L29.5924 27.9721L29.5924 27.9691L29.5924 27.9661L29.5924 27.963L29.5924 27.96L29.5924 27.9569L29.5924 27.9538L29.5924 27.9506L29.5924 27.9475L29.5924 27.9443L29.5924 27.9411L29.5924 27.9379L29.5924 27.9346L29.5924 27.9313L29.5924 27.928L29.5924 27.9247L29.5924 27.9214L29.5924 27.918L29.5924 27.9146L29.5924 27.9112L29.5924 27.9077L29.5924 27.9043L29.5924 27.9008L29.5924 27.8973L29.5924 27.8937L29.5924 27.8902L29.5924 27.8866L29.5924 27.883L29.5924 27.8794L29.5924 27.8757L29.5924 27.8721L29.5924 27.8684L29.5924 27.8647L29.5924 27.8609L29.5924 27.8572L29.5924 27.8534L29.5924 27.8496L29.5924 27.8458L29.5924 27.8419L29.5924 27.838L29.5924 27.8342L29.5924 27.8302L29.5924 27.8263L29.5924 27.8224L29.5924 27.8184L29.5924 27.8144L29.5924 27.8104L29.5924 27.8063L29.5924 27.8023L29.5924 27.7982L29.5924 27.7941L29.5924 27.79L29.5924 27.7858L29.5924 27.7817L29.5924 27.7775L29.5924 27.7733L29.5924 27.7691L29.5924 27.7648L29.5924 27.7606L29.5924 27.7563L29.5924 27.752L29.5924 27.7477L29.5924 27.7433L29.5924 27.739L29.5924 27.7346L29.5924 27.7302L29.5924 27.7258L29.5924 27.7213L29.5924 27.7169L29.5924 27.7124L29.5924 27.7079L29.5924 27.7034L29.5924 27.6988L29.5924 27.6943L29.5924 27.6897L29.5924 27.6851L29.5924 27.6805L29.5924 27.6759L29.5924 27.6712L29.5924 27.6666L29.5924 27.6619L29.5924 27.6572L29.5924 27.6525L29.5924 27.6477L29.5924 27.643L29.5924 27.6382L29.5924 27.6334L29.5924 27.6286L29.5924 27.6238L29.5924 27.6189L29.5924 27.6141L29.5924 27.6092L29.5924 27.6043L29.5924 27.5994L29.5924 27.5944L29.5924 27.5895L29.5924 27.5845L29.5924 27.5795L29.5924 27.5745L29.5924 27.5695L29.5924 27.5645L29.5924 27.5594L29.5924 27.5544L29.5924 27.5493L29.5924 27.5442L29.5924 27.5391L29.5924 27.5339L29.5924 27.5288L29.5924 27.5236L29.5924 27.5184L29.5924 27.5132L29.5924 27.508L29.5924 27.5028L29.5924 27.4976L29.5924 27.4923L29.5924 27.487L29.5924 27.4817L29.5924 27.4764L29.5924 27.4711L29.5924 27.4658L29.5924 27.4604L29.5924 27.4551L29.5924 27.4497L29.5924 27.4443L29.5924 27.4389L29.5924 27.4335L29.5924 27.428L29.5924 27.4226L29.5924 27.4171L29.5924 27.4116L29.5924 27.4061L29.5924 27.4006L29.5924 27.3951L29.5924 27.3895L29.5924 27.384L29.5924 27.3784L29.5924 27.3728L29.5924 27.3673L29.5924 27.3616L29.5924 27.356L29.5924 27.3504L29.5924 27.3447L29.5924 27.3391L29.5924 27.3334L29.5924 27.3277L29.5924 27.322L29.5924 27.3163L29.5924 27.3106L29.5924 27.3048L29.5924 27.2991L29.5924 27.2933L29.5924 27.2875L29.5924 27.2818L29.5924 27.276L29.5924 27.2701L29.5924 27.2643L29.5924 27.2585L29.5924 27.2526L29.5924 27.2468L29.5924 27.2409L29.5924 27.235L29.5924 27.2291L29.5924 27.2232L29.5924 27.2173L29.5924 27.2113L29.5924 27.2054L29.5924 27.1994L29.5924 27.1935L29.5924 27.1875L29.5924 27.1815L29.5924 27.1755L29.5924 27.1695L29.5924 27.1635L29.5924 27.1574L29.5924 27.1514L29.5924 27.1453L29.5924 27.1393L29.5924 27.1332L29.5924 27.1271L29.5924 27.121L29.5924 27.1149L29.5924 27.1088L29.5924 27.1027L29.5924 27.0965L29.5924 27.0904L29.5924 27.0842L29.5924 27.0781L29.5924 27.0719L29.5924 27.0657L29.5924 27.0595L29.5924 27.0533L29.5924 27.0471L29.5924 27.0409L29.5924 27.0346L29.5924 27.0284L29.5924 27.0221L29.5924 27.0159L29.5924 27.0096L29.5924 27.0033L29.5924 26.997L29.5924 26.9907L29.5924 26.9844L29.5924 26.9781L29.5924 26.9718L29.5924 26.9655L29.5924 26.9592L29.5924 26.9528L29.5924 26.9465L29.5924 26.9401L29.5924 26.9337L29.5924 26.9274L29.5924 26.921L29.5924 26.9146L29.5924 26.9082L29.5924 26.9018L29.5924 26.8954L29.5924 26.8889L29.5924 26.8825L29.5924 26.8761L29.5924 26.8696L29.5924 26.8632L29.5924 26.8567L29.5924 26.8503L29.5924 26.8438L29.5924 26.8373L29.5924 26.8309L29.5924 26.8244L29.5924 26.8179L29.5924 26.8114L29.5924 26.8049L29.5924 26.7983L29.5924 26.7918L29.5924 26.7853L29.5924 26.7788L29.5924 26.7722L29.5924 26.7657L29.5924 26.7591L29.5924 26.7526L29.5924 26.746L29.5924 26.7395L29.5924 26.7329L29.5924 26.7263L29.5924 26.7197L29.5924 26.7131L29.5924 26.7065L29.5924 26.7L29.5924 26.6933L29.5924 26.6867L29.5924 26.6801L29.5924 26.6735L29.5924 26.6669L29.5924 26.6603L29.5924 26.6536L29.5924 26.647L29.5924 26.6404L29.5924 26.6337L29.5924 26.6271L29.5924 26.6204L29.5924 26.6138L29.5924 26.6071L29.5924 26.6005L29.5924 26.5938L29.5924 26.5871L29.5924 26.5805L29.5924 26.5738L29.5924 26.5671L29.5924 26.5604L29.5924 26.5537L29.5924 26.5471L29.5924 26.5404L29.5924 26.5337L29.5924 26.527L29.5924 26.5203L29.5924 26.5136L29.5924 26.5069L29.5924 26.5002L29.5924 26.4934L29.5924 26.4867L29.5924 26.48L29.5924 26.4733L29.5924 26.4666L29.5924 26.4599L29.5924 26.4531L29.5924 26.4464L29.5924 26.4397L29.5924 26.433L29.5924 26.4262L29.5924 26.4195L29.5924 26.4128L29.5924 26.406L29.5924 26.3993L29.5924 26.3926L29.5924 26.3858L29.5924 26.3791L29.5924 26.3723L29.5924 26.3656L29.5924 26.3589L29.5924 26.3521L29.5924 26.3454L29.5924 26.3386L29.5924 26.3319L29.5924 26.3251L29.5924 26.3184L29.5924 26.3117L29.5924 26.3049L29.5924 26.2982L29.5924 26.2914L29.5924 26.2847L29.5924 26.2779L29.5924 26.2712L29.5924 26.2644L29.5924 26.2577L29.5924 26.2509L29.5924 26.2442L29.5924 26.2375L29.5924 26.2307L29.5924 26.224L29.5924 26.2172L29.5924 26.2105L29.5924 26.2038L29.5924 26.197L29.5924 26.1903L29.5924 26.1836L29.5924 26.1768L29.5924 26.1701L29.5924 26.1634L29.5924 26.1566L29.5924 26.1499L29.5924 26.1432L29.5924 26.1365L29.5924 26.1297L29.5924 26.123L29.5924 26.1163L29.5924 26.1096L29.5924 26.1029L29.5924 26.0962L29.5924 26.0895L29.5924 26.0828L29.5924 26.076L29.5924 26.0693L29.5924 26.0626L29.5924 26.056L29.5924 26.0493L29.5924 26.0426L29.5924 26.0359L29.5924 26.0292L29.5924 26.0225L29.5924 26.0159L29.5924 26.0092L29.5924 26.0025L29.5924 25.9958L29.5924 25.9892L29.5924 25.9825L29.5924 25.9759L29.5924 25.9692L29.5924 25.9626L29.5924 25.9559L29.5924 25.9493L29.5924 25.9427L29.5924 25.936L29.5924 25.9294L29.5924 25.9228L29.5924 25.9162L29.5924 25.9096L29.5924 25.9029L29.5924 25.8963L29.5924 25.8897L29.5924 25.8832L29.5924 25.8766L29.5924 25.87L29.5924 25.8634L29.5924 25.8568L29.5924 25.8503L29.5924 25.8437L29.5924 25.8372L29.5924 25.8306L29.5924 25.8241L29.5924 25.8175L29.5924 25.811L29.5924 25.8045L29.5924 25.7979L29.5924 25.7914L29.5924 25.7849L29.5924 25.7784L29.5924 25.7719L29.5924 25.7654L29.5924 25.7589L29.5924 25.7525L29.5924 25.746L29.5924 25.7395L29.5924 25.7331L29.5924 25.7266L29.5924 25.7202L29.5924 25.7137L29.5924 25.7073L29.5924 25.7009L29.5924 25.6945L29.5924 25.6881L29.5924 25.6817L29.5924 25.6753L29.5924 25.6689L29.5924 25.6625L29.5924 25.6562L29.5924 25.6498L29.5924 25.6434L29.5924 25.6371L29.5924 25.6308L29.5924 25.6244L29.5924 25.6181L29.5924 25.6118C29.5924 24.8622 30.2081 24.2465 30.9577 24.2465L30.9641 24.2465L30.9708 24.2465L30.9777 24.2465L30.9849 24.2465L30.9923 24.2465L30.9999 24.2465L31.0078 24.2465L31.016 24.2465L31.0243 24.2465L31.0329 24.2465L31.0418 24.2465L31.0508 24.2465L31.0602 24.2465L31.0697 24.2465L31.0795 24.2465L31.0895 24.2465L31.0997 24.2465L31.1102 24.2465L31.1209 24.2465L31.1318 24.2465L31.143 24.2465L31.1544 24.2465L31.166 24.2465L31.1778 24.2465L31.1898 24.2465L31.2021 24.2465L31.2146 24.2465L31.2273 24.2465L31.2402 24.2465L31.2534 24.2465L31.2667 24.2465L31.2803 24.2465L31.2941 24.2465L31.3081 24.2465L31.3223 24.2465L31.3368 24.2465L31.3514 24.2465L31.3662 24.2465L31.3813 24.2465L31.3966 24.2465L31.412 24.2465L31.4277 24.2465L31.4436 24.2465L31.4597 24.2465L31.476 24.2465L31.4924 24.2465L31.5091 24.2465L31.526 24.2465L31.5431 24.2465L31.5604 24.2465L31.5778 24.2465L31.5955 24.2465L31.6134 24.2465L31.6314 24.2465L31.6497 24.2465L31.6681 24.2465L31.6868 24.2465L31.7056 24.2465L31.7246 24.2465L31.7438 24.2465L31.7632 24.2465L31.7827 24.2465L31.8025 24.2465L31.8224 24.2465L31.8425 24.2465L31.8628 24.2465L31.8833 24.2465L31.904 24.2465L31.9248 24.2465L31.9458 24.2465L31.967 24.2465L31.9883 24.2465L32.0099 24.2465L32.0316 24.2465L32.0535 24.2465L32.0755 24.2465L32.0977 24.2465L32.1201 24.2465L32.1427 24.2465L32.1654 24.2465L32.1883 24.2465L32.2113 24.2465L32.2346 24.2465L32.2579 24.2465L32.2815 24.2465L32.3052 24.2465L32.329 24.2465L32.3531 24.2465L32.3772 24.2465L32.4016 24.2465L32.4261 24.2465L32.4507 24.2465L32.4755 24.2465L32.5005 24.2465L32.5256 24.2465L32.5508 24.2465L32.5762 24.2465L32.6018 24.2465L32.6275 24.2465L32.6533 24.2465L32.6793 24.2465L32.7054 24.2465L32.7317 24.2465L32.7581 24.2465L32.7847 24.2465L32.8114 24.2465L32.8382 24.2465L32.8652 24.2465L32.8923 24.2465L32.9196 24.2465L32.947 24.2465L32.9745 24.2465L33.0022 24.2465L33.03 24.2465L33.0579 24.2465L33.0859 24.2465L33.1141 24.2465L33.1424 24.2465L33.1709 24.2465L33.1994 24.2465L33.2281 24.2465L33.2569 24.2465L33.2859 24.2465L33.3149 24.2465L33.3441 24.2465L33.3734 24.2465L33.4028 24.2465L33.4324 24.2465L33.462 24.2465L33.4918 24.2465L33.5217 24.2465L33.5517 24.2465L33.5818 24.2465L33.612 24.2465L33.6423 24.2465L33.6728 24.2465L33.7034 24.2465L33.734 24.2465L33.7648 24.2465L33.7957 24.2465L33.8266 24.2465L33.8577 24.2465L33.8889 24.2465L33.9202 24.2465L33.9516 24.2465L33.9831 24.2465L34.0147 24.2465L34.0464 24.2465L34.0782 24.2465L34.11 24.2465L34.142 24.2465L34.1741 24.2465L34.2063 24.2465L34.2385 24.2465L34.2709 24.2465L34.3033 24.2465L34.3358 24.2465L34.3684 24.2465L34.4011 24.2465L34.4339 24.2465L34.4668 24.2465L34.4997 24.2465L34.5328 24.2465L34.5659 24.2465L34.5991 24.2465L34.6324 24.2465L34.6657 24.2465L34.6992 24.2465L34.7327 24.2465L34.7663 24.2465L34.7999 24.2465L34.8337 24.2465L34.8675 24.2465L34.9013 24.2465L34.9353 24.2465L34.9693 24.2465L35.0034 24.2465L35.0376 24.2465L35.0718 24.2465L35.1061 24.2465L35.1404 24.2465L35.1749 24.2465L35.2093 24.2465L35.2439 24.2465L35.2785 24.2465L35.3131 24.2465L35.3479 24.2465L35.3826 24.2465L35.4175 24.2465L35.4524 24.2465L35.4873 24.2465L35.5223 24.2465L35.5574 24.2465L35.5925 24.2465L35.6276 24.2465L35.6628 24.2465L35.6981 24.2465L35.7334 24.2465L35.7687 24.2465L35.8041 24.2465L35.8395 24.2465L35.875 24.2465L35.9105 24.2465L35.9461 24.2465L35.9817 24.2465L36.0173 24.2465L36.053 24.2465L36.0887 24.2465L36.1245 24.2465L36.1602 24.2465L36.1961 24.2465L36.2319 24.2465L36.2678 24.2465L36.3037 24.2465L36.3397 24.2465L36.3756 24.2465L36.4116 24.2465L36.4477 24.2465L36.4837 24.2465L36.5198 24.2465L36.5559 24.2465L36.5921 24.2465L36.6282 24.2465L36.6644 24.2465L36.7006 24.2465L36.7368 24.2465L36.773 24.2465L36.8093 24.2465L36.8455 24.2465L36.8818 24.2465L36.9181 24.2465L36.9544 24.2465L36.9907 24.2465L37.0271 24.2465L37.0634 24.2465L37.0997 24.2465L37.1361 24.2465L37.1725 24.2465L37.2088 24.2465L37.2452 24.2465L37.2816 24.2465L37.318 24.2465L37.3543 24.2465L37.3907 24.2465L37.4271 24.2465L37.4635 24.2465L37.4999 24.2465L37.5362 24.2465L37.5726 24.2465L37.609 24.2465L37.6453 24.2465L37.6817 24.2465L37.718 24.2465L37.7544 24.2465L37.7907 24.2465L37.827 24.2465L37.8633 24.2465L37.8996 24.2465L37.9359 24.2465L37.9721 24.2465L38.0084 24.2465L38.0446 24.2465L38.0808 24.2465L38.117 24.2465L38.1531 24.2465L38.1893 24.2465L38.2254 24.2465L38.2615 24.2465L38.2976 24.2465L38.3336 24.2465L38.3697 24.2465L38.4057 24.2465L38.4416 24.2465L38.4776 24.2465L38.5135 24.2465L38.5493 24.2465L38.5852 24.2465L38.621 24.2465L38.6568 24.2465L38.6925 24.2465L38.7282 24.2465L38.7639 24.2465L38.7995 24.2465L38.8351 24.2465L38.8706 24.2465L38.9061 24.2465L38.9416 24.2465L38.977 24.2465L39.0124 24.2465L39.0477 24.2465L39.083 24.2465L39.1182 24.2465L39.1534 24.2465L39.1885 24.2465L39.2236 24.2465L39.2586 24.2465L39.2936 24.2465L39.3286 24.2465L39.3634 24.2465L39.3982 24.2465L39.433 24.2465L39.4677 24.2465L39.5023 24.2465L39.5369 24.2465L39.5714 24.2465L39.6059 24.2465L39.6403 24.2465L39.6746 24.2465L39.7089 24.2465L39.7431 24.2465L39.7772 24.2465L39.8113 24.2465L39.8453 24.2465L39.8792 24.2465L39.9131 24.2465L39.9468 24.2465L39.9806 24.2465L40.0142 24.2465L40.0478 24.2465L40.0812 24.2465L40.1146 24.2465L40.148 24.2465L40.1812 24.2465L40.2144 24.2465L40.2475 24.2465L40.2805 24.2465L40.3134 24.2465L40.3463 24.2465L40.379 24.2465L40.4117 24.2465L40.4443 24.2465L40.4768 24.2465L40.5092 24.2465L40.5415 24.2465L40.5737 24.2465L40.6058 24.2465L40.6379 24.2465L40.6698 24.2465L40.7017 24.2465L40.7334 24.2465L40.7651 24.2465L40.7966 24.2465L40.8281 24.2465L40.8594 24.2465L40.8907 24.2465L40.9218 24.2465L40.9529 24.2465L40.9838 24.2465L41.0147 24.2465L41.0454 24.2465L41.076 24.2465L41.1065 24.2465L41.137 24.2465L41.1673 24.2465L41.1974 24.2465L41.2275 24.2465L41.2575 24.2465L41.2873 24.2465L41.317 24.2465L41.3467 24.2465L41.3762 24.2465L41.4055 24.2465L41.4348 24.2465L41.4639 24.2465L41.4929 24.2465L41.5218 24.2465L41.5506 24.2465L41.5792 24.2465L41.6078 24.2465L41.6362 24.2465L41.6644 24.2465L41.6926 24.2465L41.7206 24.2465L41.7484 24.2465L41.7762 24.2465L41.8038 24.2465L41.8313 24.2465L41.8586 24.2465L41.8858 24.2465L41.9129 24.2465L41.9398 24.2465L41.9666 24.2465L41.9933 24.2465L42.0198 24.2465L42.0462 24.2465L42.0724 24.2465L42.0985 24.2465L42.1244 24.2465L42.1502 24.2465L42.1758 24.2465L42.2013 24.2465L42.2267 24.2465L42.2519 24.2465L42.2769 24.2465L42.3018 24.2465L42.3266 24.2465L42.3512 24.2465L42.3756 24.2465L42.3999 24.2465L42.424 24.2465L42.448 24.2465L42.4718 24.2465L42.4954 24.2465L42.5189 24.2465L42.5422 24.2465L42.5654 24.2465L42.5884 24.2465L42.6112 24.2465L42.6339 24.2465L42.6564 24.2465L42.6787 24.2465L42.7009 24.2465L42.7228 24.2465L42.7447 24.2465L42.7663 24.2465L42.7878 24.2465L42.8091 24.2465L42.8302 24.2465L42.8512 24.2465L42.8719 24.2465L42.8925 24.2465L42.9129 24.2465L42.9332 24.2465L42.9532 24.2465L42.9731 24.2465L42.9928 24.2465L43.0123 24.2465L43.0316 24.2465L43.0507 24.2465L43.0696 24.2465L43.0884 24.2465L43.107 24.2465L43.1253 24.2465L43.1435 24.2465L43.1615 24.2465L43.1793 24.2465L43.1969 24.2465L43.2143 24.2465L43.2315 24.2465L43.2485 24.2465L43.2654 24.2465L43.282 24.2465L43.2984 24.2465L43.3146 24.2465L43.3306 24.2465L43.3464 24.2465L43.362 24.2465L43.3774 24.2465L43.3926 24.2465L43.4076 24.2465L43.4224 24.2465L43.4369 24.2465L43.4513 24.2465L43.4654 24.2465L43.4793 24.2465L43.4931 24.2465L43.5066 24.2465L43.5198 24.2465L43.5329 24.2465L43.5458 24.2465L43.5584 24.2465L43.5708 24.2465L43.583 24.2465L43.595 24.2465L43.6067 24.2465L43.6182 24.2465L43.6295 24.2465L43.6406 24.2465L43.6514 24.2465L43.6621 24.2465L43.6725 24.2465L43.6826 24.2465L43.6925 24.2465L43.7022 24.2465L43.7117 24.2465L43.7209 24.2465L43.7299 24.2465L43.7387 24.2465L43.7472 24.2465L43.7555 24.2465L43.7635 24.2465L43.7713 24.2465L43.7789 24.2465L43.7862 24.2465L43.7933 24.2465L43.8001 24.2465L43.8067 24.2465L43.8131 24.2465L43.8192 24.2465L43.825 24.2465L43.8306 24.2465L43.836 24.2465L43.8411 24.2465L43.8459 24.2465L43.8505 24.2465L43.8548 24.2465L43.8589 24.2465L43.8628 24.2465L43.8663 24.2465L43.8696 24.2465L43.8727 24.2465L43.8755 24.2465L43.878 24.2465L43.8803 24.2465L43.8823 24.2465L43.884 24.2465L43.8855 24.2465L43.8867 24.2465L43.8877 24.2465L43.8883 24.2465L43.8888 24.2465C43.8888 24.2465 43.8889 24.2465 43.8889 23.6544ZM40.9528 24.8121C39.8134 24.8121 38.8926 25.7329 38.8926 26.8722C38.8926 28.0116 39.8134 28.9324 40.9528 28.9324C42.0921 28.9324 43.0129 28.0116 43.0129 26.8722C43.0129 25.7329 42.0921 24.8121 40.9528 24.8121Z" fill="#505A5F" stroke="#505A5F" stroke-width="1.18424"/>
<rect x="32.0615" y="16" width="28.1972" height="1.9491" rx="0.97455" transform="rotate(45 32.0615 16)" fill="#505A5F" stroke="white" stroke-width="0.4"/>
<path d="M4 14.4258L11.5059 14.4258L11.5059 11.7012L12.4551 11.7012L12.4551 18.2051L11.5059 18.2051L11.5059 15.4805L4 15.4805L4 14.4258ZM3.88867 21.1289C3.88867 19.3301 5.13086 18.2168 7.15234 18.2168L7.16406 18.2168C9.19141 18.2168 10.4277 19.3301 10.4277 21.1289C10.4277 22.9277 9.19141 24.041 7.16406 24.041L7.15234 24.041C5.13086 24.041 3.88867 22.9277 3.88867 21.1289ZM4.79102 21.1289C4.79102 22.3242 5.66406 22.998 7.15234 22.998L7.16406 22.998C8.6582 22.998 9.52539 22.3242 9.52539 21.1289C9.52539 19.9336 8.6582 19.2598 7.16406 19.2598L7.15234 19.2598C5.66406 19.2598 4.79102 19.9336 4.79102 21.1289ZM4 25.623L10.3164 25.623L10.3164 26.6426L9.37891 26.6426L9.37891 26.7363C10.041 26.9766 10.4277 27.5684 10.4277 28.4238C10.4277 28.6172 10.4043 28.834 10.3867 28.9336L9.39648 28.9336C9.43164 28.7227 9.45508 28.5293 9.45508 28.3066C9.45508 27.334 8.83984 26.6426 7.91406 26.6426L4 26.6426L4 25.623ZM3.88867 32.6016C3.88867 30.832 5.17187 29.7012 7.17578 29.7012L7.1875 29.7012C9.15039 29.7012 10.4277 30.8262 10.4277 32.5957C10.4277 34.1309 9.54297 35.0508 8.41797 35.2383L8.38281 35.2441L8.38281 34.2305L8.40039 34.2246C9.02148 34.0664 9.52539 33.5039 9.52539 32.5957C9.52539 31.459 8.61133 30.7441 7.1875 30.7441L7.17578 30.7441C5.72266 30.7441 4.79101 31.4707 4.79101 32.5957C4.79101 33.4453 5.16601 33.9844 5.86914 34.2187L5.9043 34.2305L5.91016 35.2383L5.8457 35.2266C4.70312 34.9687 3.88867 34.1191 3.88867 32.6016ZM4 36.791L12.8242 36.791L12.8242 37.8105L9.36719 37.8105L9.36719 37.9043C10.0352 38.2207 10.4277 38.8125 10.4277 39.7441C10.4277 41.1621 9.58984 41.9531 8.08984 41.9531L4 41.9531L4 40.9336L7.84375 40.9336C8.98047 40.9336 9.52539 40.4648 9.52539 39.457C9.52539 38.4492 8.8457 37.8105 7.73828 37.8105L4 37.8105L4 36.791Z" fill="white"/>
<defs>
<filter id="filter0_d_70703_263393" x="14" y="0" width="54" height="54" filterUnits="userSpaceOnUse" color-interpolation-filters="sRGB">
<feFlood flood-opacity="0" result="BackgroundImageFix"/>
<feColorMatrix in="SourceAlpha" type="matrix" values="0 0 0 0 0 0 0 0 0 0 0 0 0 0 0 0 0 0 127 0" result="hardAlpha"/>
<feOffset/>
<feGaussianBlur stdDeviation="2.5"/>
<feComposite in2="hardAlpha" operator="out"/>
<feColorMatrix type="matrix" values="0 0 0 0 0 0 0 0 0 0 0 0 0 0 0 0 0 0 0.25 0"/>
<feBlend mode="normal" in2="BackgroundImageFix" result="effect1_dropShadow_70703_263393"/>
<feBlend mode="normal" in="SourceGraphic" in2="effect1_dropShadow_70703_263393" result="shape"/>
</filter>
</defs>
</svg>
