<svg width="135" height="135" viewBox="0 0 135 135" fill="none" xmlns="http://www.w3.org/2000/svg">
<rect width="135" height="135" rx="25.5667" fill="#1D70B8"/>
<path d="M33.6886 108.661C32.7389 109.25 31.5712 109.544 30.1855 109.544C27.9045 109.544 26.0362 108.748 24.5804 107.155C23.0624 105.554 22.3034 103.365 22.3034 100.588C22.3034 97.779 23.0702 95.5272 24.6038 93.8325C26.1374 92.1378 28.1653 91.2904 30.6876 91.2904C32.8751 91.2904 34.6306 91.8514 35.954 92.9734C37.2852 94.0875 38.0481 95.4802 38.2427 97.1514H34.7045C34.4321 95.9666 33.7665 95.1389 32.7077 94.6681C32.1161 94.4092 31.4583 94.2797 30.7343 94.2797C29.3486 94.2797 28.2081 94.8093 27.3129 95.8685C26.4254 96.9199 25.9817 98.5048 25.9817 100.623C25.9817 102.757 26.4644 104.268 27.4297 105.154C28.395 106.041 29.4926 106.484 30.7226 106.484C31.9293 106.484 32.9179 106.135 33.6886 105.437C34.4593 104.731 34.9342 103.809 35.1132 102.671H31.1313V99.7758H38.3011V109.085H35.919L35.557 106.92C34.8641 107.743 34.2413 108.324 33.6886 108.661Z" fill="white"/>
<path d="M49.3594 109.568C46.8994 109.568 45.0193 108.893 43.7193 107.543C41.9755 105.888 41.1036 103.503 41.1036 100.388C41.1036 97.2102 41.9755 94.825 43.7193 93.2323C45.0193 91.8828 46.8994 91.208 49.3594 91.208C51.8193 91.208 53.6994 91.8828 54.9994 93.2323C56.7354 94.825 57.6034 97.2102 57.6034 100.388C57.6034 103.503 56.7354 105.888 54.9994 107.543C53.6994 108.893 51.8193 109.568 49.3594 109.568ZM52.7574 104.907C53.5904 103.848 54.0069 102.341 54.0069 100.388C54.0069 98.442 53.5865 96.9395 52.7457 95.8803C51.9128 94.8132 50.784 94.2797 49.3594 94.2797C47.9347 94.2797 46.7982 94.8093 45.9496 95.8685C45.1011 96.9277 44.6768 98.4342 44.6768 100.388C44.6768 102.341 45.1011 103.848 45.9496 104.907C46.7982 105.966 47.9347 106.496 49.3594 106.496C50.784 106.496 51.9166 105.966 52.7574 104.907Z" fill="white"/>
<path d="M59.0864 91.7376H62.9282L66.6649 104.907L70.4366 91.7376H74.1733L68.2997 109.085H64.9016L59.0864 91.7376Z" fill="white"/>
<path d="M73.7879 105.578H77.3261V109.085H73.7879V105.578Z" fill="white"/>
<path d="M90.9533 102.4V91.7376H94.6083V102.4C94.6083 104.244 94.3241 105.68 93.7559 106.708C92.6971 108.591 90.677 109.532 87.6954 109.532C84.7139 109.532 82.6898 108.591 81.6233 106.708C81.055 105.68 80.7709 104.244 80.7709 102.4V91.7376H84.4258V102.4C84.4258 103.593 84.5659 104.464 84.8462 105.013C85.2821 105.986 86.2319 106.472 87.6954 106.472C89.1512 106.472 90.097 105.986 90.533 105.013C90.8132 104.464 90.9533 103.593 90.9533 102.4Z" fill="white"/>
<path d="M113.303 109.085H108.679L103.366 101.506L101.65 103.283V109.085H98.1114V91.7376H101.65V98.8814L108.294 91.7376H112.941L105.888 98.8814L113.303 109.085Z" fill="white"/>
<path fill-rule="evenodd" clip-rule="evenodd" d="M44.0176 39.6904C46.0047 40.5251 48.3893 39.5791 49.1842 37.6316C50.0358 35.6284 49.0706 33.2913 46.9699 32.5123C44.926 31.7332 42.655 32.6792 41.8033 34.6824C41.0085 36.63 41.9736 38.8557 44.0176 39.6904ZM34.9335 44.8654C36.9774 45.7 39.362 44.7541 40.1568 42.8065C41.0085 40.8033 40.0433 38.4662 37.9426 37.7429C35.8986 36.9082 33.6276 37.8541 32.776 39.8573C31.9811 41.8049 32.9463 44.0307 34.9335 44.8654ZM32.3218 54.7145C34.3089 55.5491 36.6935 54.6032 37.4884 52.6C38.34 50.5968 37.3748 48.3153 35.2741 47.5363C33.287 46.7016 30.9592 47.7032 30.1075 49.6508C29.3127 51.5984 30.2778 53.8798 32.3218 54.7145ZM54.0669 42.8065C56.054 43.6412 58.4386 42.6952 59.2335 40.692C60.0851 38.6888 59.1199 36.4074 57.0192 35.6284C54.9753 34.7937 52.7043 35.7953 51.8526 37.7429C51.1145 39.7461 52.0797 42.0275 54.0669 42.8065ZM90.6305 39.6904C88.5865 40.5251 86.202 39.5791 85.4639 37.6316C84.6122 35.6284 85.5774 33.2913 87.6213 32.5123C89.6653 31.7332 91.9931 32.6792 92.8447 34.6824C93.5828 36.63 92.6176 38.8557 90.6305 39.6904ZM99.6578 44.8654C97.6139 45.7 95.2861 44.7541 94.4912 42.8065C93.6396 40.8033 94.6048 38.4662 96.5919 37.7429C98.6358 36.9082 100.964 37.8541 101.815 39.8573C102.667 41.8049 101.645 44.0307 99.6578 44.8654ZM102.326 54.7145C100.282 55.5491 97.8978 54.6032 97.1029 52.6C96.2513 50.5968 97.2164 48.3153 99.3171 47.5363C101.361 46.7016 103.689 47.7032 104.541 49.6508C105.279 51.5984 104.313 53.8798 102.326 54.7145ZM80.5244 42.8065C78.4804 43.6412 76.0959 42.6952 75.301 40.692C74.5061 38.6888 75.4146 36.4074 77.5153 35.6284C79.5592 34.7937 81.887 35.7953 82.7386 37.7429C83.5335 39.7461 82.5683 42.0275 80.5244 42.8065ZM69.3963 32.7348L74.4494 35.3501V28.0607L69.3963 29.6187C69.2828 29.4518 69.1125 29.2849 68.8853 29.1179L70.9293 22.8857H67.2956H63.662L65.6491 29.1179C65.4788 29.2849 65.3085 29.3962 65.1381 29.6187L60.1419 28.0607V35.3501L65.1381 32.7348C65.3085 32.9018 65.4788 33.1244 65.6491 33.2356L62.8103 41.8049C62.8103 41.8049 62.8103 41.8049 62.8103 41.8606C62.6968 42.3057 62.5832 42.7509 62.5832 43.196C62.5832 45.4775 64.3433 47.3694 66.5575 47.7032H66.6711C66.8414 47.7032 67.0685 47.7589 67.2389 47.7589C67.466 47.7589 67.6363 47.7589 67.8066 47.7032H67.9202C70.1912 47.3694 71.9512 45.4218 71.9512 43.196C71.9512 42.7509 71.8945 42.2501 71.7241 41.8606C71.7241 41.8606 71.7241 41.8606 71.7241 41.8049L68.8286 33.2356C69.0557 33.1244 69.226 32.9018 69.3963 32.7348ZM67.2956 74.5239C76.8907 74.5239 85.9181 75.136 94.037 76.3046C96.308 66.9006 99.09 61.4475 101.986 57.6636L96.5351 55.7717C97.1029 58.4983 97.1597 59.7781 96.5351 61.4475C95.6835 60.6684 94.8319 59.0547 94.1506 56.6064L91.4821 65.1756C93.0718 64.0628 94.3209 63.395 95.7403 63.3394C93.2421 68.57 90.0627 69.9611 88.0188 69.5716C85.5774 69.1264 84.4419 67.0119 84.8393 65.1756C85.4071 62.5604 88.0756 61.8926 89.3814 64.8974C91.8228 60.0563 87.6781 58.5539 85.0664 60.0007C89.0975 55.9943 89.5517 52.4887 86.2587 48.2597C81.7167 51.654 81.6599 55.104 83.7038 59.8338C81.0354 56.829 76.834 58.4426 78.3101 63.2837C80.2405 60.3902 82.7954 62.1708 82.398 65.0087C82.0573 67.4014 78.7643 69.349 74.7332 69.0151C68.8853 68.5143 68.5447 64.5636 68.3744 61.3362C69.7938 61.0579 72.4054 62.3378 74.6197 65.3982L75.3578 56.2725C73.03 58.7209 70.8157 59.2217 68.3744 59.2773C69.1692 56.829 72.9164 52.8225 72.9164 52.8225H67.5227H61.3342C61.3342 52.8225 64.9678 56.829 65.8195 59.2773C63.4349 59.2217 61.2774 58.7209 58.836 56.2725L59.6309 65.3982C61.8452 62.3378 64.4568 61.1136 65.8195 61.3362C65.6491 64.5636 65.3085 68.4587 59.5173 69.0151C55.4295 69.349 52.1933 67.4014 51.8526 65.0087C51.4552 62.2265 54.0101 60.3902 55.8837 63.2837C57.4166 58.4426 53.272 56.829 50.5468 59.8338C52.6475 55.104 52.5907 51.654 47.9351 48.2597C44.6421 52.4887 45.0963 55.9943 49.1842 60.0007C46.5157 58.5539 42.4279 60.0563 44.8124 64.8974C46.1183 61.837 48.8435 62.5604 49.4113 65.1756C49.8087 67.0119 48.6732 69.1264 46.1751 69.5716C44.1879 69.9611 41.0652 68.57 38.5103 63.3394C39.9297 63.395 41.1788 64.0628 42.7685 65.1756L40.1 56.6064C39.4187 59.0547 38.5671 60.6128 37.6587 61.4475C37.0342 59.7781 37.1477 58.4983 37.6587 55.7717L32.265 57.6636C35.1038 61.5031 37.8858 66.9563 40.2136 76.3046C48.6164 75.136 57.7005 74.5239 67.2956 74.5239Z" fill="white"/>
</svg>
