<svg width="375" height="799" viewBox="0 0 375 799" fill="none" xmlns="http://www.w3.org/2000/svg">
<g clip-path="url(#clip0_18762_1079)">
<rect width="375" height="799" fill="white"/>
<g filter="url(#filter0_b_18762_1079)">
<rect width="413" height="47" transform="translate(-19)" fill="white"/>
<g clip-path="url(#clip1_18762_1079)">
<path d="M110.768 -2H265.184V13C265.184 22.3888 257.572 30 248.184 30H127.768C118.379 30 110.768 22.3888 110.768 13V-2Z" fill="black"/>
<path d="M111 -2H106C106 -2 106 -2 106 -2C108.651 -2 110.799 0.148747 110.799 2.79934C110.799 2.86656 110.798 2.93345 110.795 3H111V-2Z" fill="black"/>
<path d="M265 -2H270C270 -2 270 -2 270 -2C267.349 -2 265.201 0.148747 265.201 2.79934C265.201 2.86656 265.202 2.93345 265.205 3H265V-2Z" fill="black"/>
<path d="M26.8786 19.7231C29.4352 19.7231 31.6599 21.541 31.6599 25.8574V25.874C31.6599 29.9082 29.842 32.2988 26.8288 32.2988C24.6291 32.2988 22.9855 30.9956 22.6037 29.1611L22.5871 29.0698H24.6955L24.7204 29.1528C25.0358 29.9912 25.7746 30.5391 26.8288 30.5391C28.7297 30.5391 29.5349 28.6797 29.6262 26.3887C29.6262 26.2974 29.6345 26.2061 29.6345 26.1147H29.4684C29.0285 27.061 27.9826 27.8994 26.3391 27.8994C24.0397 27.8994 22.4294 26.2227 22.4294 23.9482V23.9316C22.4294 21.4995 24.2805 19.7231 26.8786 19.7231ZM26.8703 26.2559C28.2233 26.2559 29.2609 25.2764 29.2609 23.9233V23.9067C29.2609 22.5371 28.2233 21.4663 26.8952 21.4663C25.5754 21.4663 24.5212 22.5205 24.5212 23.8569V23.8735C24.5212 25.2598 25.509 26.2559 26.8703 26.2559ZM35.0204 24.2388C34.265 24.2388 33.7006 23.6577 33.7006 22.9272C33.7006 22.1885 34.265 21.6157 35.0204 21.6157C35.7841 21.6157 36.3402 22.1885 36.3402 22.9272C36.3402 23.6577 35.7841 24.2388 35.0204 24.2388ZM35.0204 30.3979C34.265 30.3979 33.7006 29.8252 33.7006 29.0864C33.7006 28.3477 34.265 27.7749 35.0204 27.7749C35.7841 27.7749 36.3402 28.3477 36.3402 29.0864C36.3402 29.8252 35.7841 30.3979 35.0204 30.3979ZM44.1915 32V29.7007H38.3312V27.9492C39.8834 25.2515 41.5851 22.4956 43.212 20.022H46.2418V27.9326H47.8522V29.7007H46.2418V32H44.1915ZM40.3233 27.9824H44.2247V21.7319H44.1002C42.8717 23.6079 41.4855 25.8242 40.3233 27.8579V27.9824ZM52.408 32V22.1304H52.2669L49.2869 24.2388V22.2217L52.4163 20.022H54.5496V32H52.408Z" fill="#010101"/>
<path opacity="0.35" d="M340 19.5275H357C358.918 19.5275 360.472 21.0822 360.472 23V28C360.472 29.9178 358.918 31.4725 357 31.4725H340C338.082 31.4725 336.528 29.9178 336.528 28V23C336.528 21.0822 338.082 19.5275 340 19.5275Z" stroke="black" stroke-width="1.05509"/>
<path opacity="0.4" d="M362 24V28.2203C362.849 27.8629 363.401 27.0314 363.401 26.1102C363.401 25.1889 362.849 24.3574 362 24" fill="black"/>
<path d="M338 23C338 21.8954 338.895 21 340 21H357C358.105 21 359 21.8954 359 23V28C359 29.1046 358.105 30 357 30H340C338.895 30 338 29.1046 338 28V23Z" fill="black"/>
<path fill-rule="evenodd" clip-rule="evenodd" d="M320.5 22.5875C322.967 22.5876 325.339 23.5551 327.127 25.2898C327.261 25.4237 327.477 25.4221 327.609 25.286L328.896 23.9605C328.963 23.8915 329.001 23.798 329 23.7008C328.999 23.6035 328.961 23.5105 328.893 23.4423C324.201 18.8526 316.799 18.8526 312.107 23.4423C312.039 23.5105 312.001 23.6034 312 23.7007C311.999 23.7979 312.037 23.8914 312.104 23.9605L313.391 25.286C313.523 25.4223 313.739 25.424 313.873 25.2898C315.661 23.5549 318.034 22.5875 320.5 22.5875ZM320.536 26.6724C321.891 26.6723 323.198 27.1864 324.203 28.115C324.338 28.2467 324.552 28.2439 324.685 28.1085L325.97 26.7829C326.038 26.7134 326.075 26.6191 326.074 26.5211C326.073 26.4231 326.034 26.3295 325.965 26.2614C322.906 23.3568 318.169 23.3568 315.109 26.2614C315.04 26.3295 315.001 26.4231 315 26.5212C314.999 26.6192 315.037 26.7135 315.105 26.7829L316.39 28.1085C316.522 28.2439 316.736 28.2467 316.872 28.115C317.876 27.1871 319.182 26.6729 320.536 26.6724ZM323.15 29.3427C323.152 29.441 323.114 29.5357 323.045 29.6046L320.822 31.8948C320.756 31.9621 320.668 32 320.575 32C320.482 32 320.393 31.9621 320.328 31.8948L318.105 29.6046C318.036 29.5357 317.998 29.4409 318 29.3426C318.002 29.2443 318.044 29.1512 318.115 29.0853C319.535 27.8595 321.615 27.8595 323.035 29.0853C323.106 29.1513 323.148 29.2444 323.15 29.3427Z" fill="black"/>
<path d="M296 23C296 22.4477 296.448 22 297 22H298C298.552 22 299 22.4477 299 23V31C299 31.5523 298.552 32 298 32H297C296.448 32 296 31.5523 296 31V23Z" fill="black"/>
<path d="M301 21C301 20.4477 301.448 20 302 20H303C303.552 20 304 20.4477 304 21V31C304 31.5523 303.552 32 303 32H302C301.448 32 301 31.5523 301 31V21Z" fill="black"/>
<path d="M291 26.5C291 25.9477 291.448 25.5 292 25.5H293C293.552 25.5 294 25.9477 294 26.5V31C294 31.5523 293.552 32 293 32H292C291.448 32 291 31.5523 291 31V26.5Z" fill="black"/>
<path d="M286 29C286 28.4477 286.448 28 287 28H288C288.552 28 289 28.4477 289 29V31C289 31.5523 288.552 32 288 32H287C286.448 32 286 31.5523 286 31V29Z" fill="black"/>
</g>
</g>
<rect x="16" y="720" width="343" height="50" rx="15" fill="#00703C"/>
<path d="M156.541 751.299C153.146 751.299 151.038 748.892 151.038 745.023V745.007C151.038 741.122 153.138 738.723 156.533 738.723C159.256 738.723 161.323 740.45 161.605 742.898V742.965H159.505L159.496 742.932C159.189 741.512 158.044 740.574 156.533 740.574C154.499 740.574 153.229 742.276 153.229 744.999V745.015C153.229 747.746 154.499 749.448 156.541 749.448C158.06 749.448 159.189 748.601 159.496 747.281L159.505 747.24H161.605V747.298C161.289 749.697 159.305 751.299 156.541 751.299ZM167.628 751.183C164.905 751.183 163.262 749.406 163.262 746.468V746.451C163.262 743.538 164.93 741.753 167.628 741.753C170.334 741.753 171.994 743.529 171.994 746.451V746.468C171.994 749.406 170.342 751.183 167.628 751.183ZM167.628 749.506C169.064 749.506 169.877 748.385 169.877 746.476V746.459C169.877 744.55 169.056 743.421 167.628 743.421C166.192 743.421 165.37 744.55 165.37 746.459V746.476C165.37 748.385 166.192 749.506 167.628 749.506ZM174 751V741.927H176.066V743.313H176.208C176.639 742.342 177.511 741.753 178.822 741.753C180.848 741.753 181.952 742.973 181.952 745.131V751H179.885V745.613C179.885 744.202 179.312 743.488 178.059 743.488C176.83 743.488 176.066 744.351 176.066 745.712V751H174ZM187.892 751.042C185.808 751.042 184.953 750.344 184.953 748.593V743.529H183.542V741.927H184.953V739.703H187.053V741.927H188.971V743.529H187.053V748.103C187.053 749.008 187.41 749.39 188.274 749.39C188.564 749.39 188.722 749.381 188.971 749.356V750.95C188.672 751.008 188.29 751.042 187.892 751.042ZM192.022 740.408C191.342 740.408 190.785 739.869 190.785 739.188C190.785 738.516 191.342 737.968 192.022 737.968C192.695 737.968 193.251 738.516 193.251 739.188C193.251 739.869 192.695 740.408 192.022 740.408ZM190.985 751V741.927H193.052V751H190.985ZM195.522 751V741.927H197.589V743.313H197.73C198.162 742.342 199.033 741.753 200.345 741.753C202.37 741.753 203.474 742.973 203.474 745.131V751H201.407V745.613C201.407 744.202 200.834 743.488 199.581 743.488C198.352 743.488 197.589 744.351 197.589 745.712V751H195.522ZM208.85 751.183C206.808 751.183 205.762 749.954 205.762 747.796V741.927H207.829V747.323C207.829 748.726 208.352 749.439 209.597 749.439C210.933 749.439 211.647 748.576 211.647 747.215V741.927H213.714V751H211.647V749.622H211.506C211.083 750.593 210.161 751.183 208.85 751.183ZM220.052 751.183C217.355 751.183 215.719 749.373 215.719 746.484V746.476C215.719 743.621 217.371 741.753 219.953 741.753C222.534 741.753 224.128 743.562 224.128 746.302V746.982H217.786C217.811 748.609 218.691 749.556 220.094 749.556C221.215 749.556 221.854 748.991 222.053 748.576L222.078 748.518H224.045L224.02 748.593C223.73 749.763 222.518 751.183 220.052 751.183ZM219.978 743.372C218.824 743.372 217.961 744.152 217.803 745.596H222.111C221.97 744.11 221.132 743.372 219.978 743.372Z" fill="white"/>
<path d="M64.1829 410.415C57.0276 410.415 52.6448 405.75 52.6448 397.947V397.931C52.6448 390.261 57.0442 385.629 64.0667 385.629C69.8274 385.629 73.7454 388.982 74.5423 393.481L74.5921 393.714H69.5618L69.4954 393.548C68.6985 391.224 66.7893 389.879 64.0833 389.879C60.1321 389.879 57.7581 392.801 57.7581 397.881V397.897C57.7581 403.094 60.2815 406.165 64.2659 406.165C67.5364 406.165 69.7776 404.223 69.9104 401.268L69.927 400.919H64.4485V397.184H74.8079V399.939C74.8079 406.464 70.8567 410.415 64.1829 410.415ZM89.0616 410.415C81.9395 410.415 77.5069 405.65 77.5069 398.03V397.997C77.5069 390.377 81.9727 385.629 89.0616 385.629C96.1671 385.629 100.616 390.394 100.616 397.997V398.03C100.616 405.65 96.1837 410.415 89.0616 410.415ZM89.0616 406.165C93.046 406.165 95.503 402.994 95.503 398.03V397.997C95.503 393 92.9962 389.879 89.0616 389.879C85.1436 389.879 82.6202 392.983 82.6202 397.997V398.03C82.6202 403.044 85.127 406.165 89.0616 406.165ZM109.641 410L101.622 386.044H107.167L112.645 404.87H112.745L118.207 386.044H123.768L115.75 410H109.641ZM125.969 410.282C124.459 410.282 123.28 409.087 123.28 407.593C123.28 406.082 124.459 404.903 125.969 404.903C127.464 404.903 128.659 406.082 128.659 407.593C128.659 409.087 127.464 410.282 125.969 410.282ZM141.966 410.415C135.824 410.415 131.922 406.862 131.922 401.533V386.044H136.936V401.085C136.936 404.189 138.746 406.165 141.966 406.165C145.187 406.165 146.98 404.189 146.98 401.085V386.044H151.994V401.533C151.994 406.846 148.142 410.415 141.966 410.415ZM156.12 410V386.044H161.134V397.001H161.25L170.033 386.044H175.611L167.028 396.619L176.225 410H170.232L163.375 399.89L161.134 402.662V410H156.12ZM185.325 410V386.044H190.339V410H185.325ZM194.449 410V386.044H203.596C210.768 386.044 215.018 390.311 215.018 397.897V397.931C215.018 405.534 210.785 410 203.596 410H194.449ZM199.463 405.85H202.999C207.481 405.85 209.905 403.127 209.905 397.947V397.914C209.905 392.917 207.398 390.178 202.999 390.178H199.463V405.85ZM235.906 410.415C228.9 410.415 224.5 405.733 224.5 398.014V397.997C224.5 390.277 228.916 385.629 235.906 385.629C241.716 385.629 245.883 389.298 246.348 394.378L246.365 394.527H241.484L241.417 394.245C240.853 391.605 238.894 389.879 235.906 389.879C232.071 389.879 229.614 392.967 229.614 397.98V397.997C229.614 403.044 232.071 406.165 235.906 406.165C238.794 406.165 240.82 404.505 241.467 401.666L241.5 401.5H246.381L246.365 401.683C245.9 406.779 241.7 410.415 235.906 410.415ZM249.313 410V386.044H254.16V395.274H254.26C255.173 393.066 257.049 391.838 259.722 391.838C263.574 391.838 265.964 394.527 265.964 398.827V410H261.116V399.823C261.116 397.333 259.888 395.855 257.68 395.855C255.538 395.855 254.16 397.482 254.16 399.807V410H249.313ZM277.313 410.365C271.867 410.365 268.564 406.829 268.564 401.135V401.118C268.564 395.457 271.9 391.838 277.113 391.838C282.326 391.838 285.597 395.374 285.597 400.753V402.247H273.345C273.395 405.086 274.939 406.746 277.412 406.746C279.404 406.746 280.616 405.65 280.965 404.654L280.998 404.555H285.447L285.398 404.737C284.85 407.36 282.393 410.365 277.313 410.365ZM277.196 395.457C275.204 395.457 273.71 396.785 273.395 399.192H280.948C280.65 396.735 279.205 395.457 277.196 395.457ZM296.364 410.365C290.935 410.365 287.582 406.829 287.582 401.085V401.068C287.582 395.374 290.985 391.838 296.314 391.838C301.145 391.838 304.217 394.81 304.399 398.661V398.777H299.9L299.867 398.628C299.568 396.935 298.39 395.64 296.381 395.64C294.007 395.64 292.513 397.682 292.513 401.085V401.102C292.513 404.588 294.007 406.563 296.397 406.563C298.34 406.563 299.552 405.368 299.884 403.575L299.9 403.426H304.416V403.525C304.184 407.41 301.112 410.365 296.364 410.365ZM307.049 410V386.044H311.896V399.325H311.996L318.006 392.203H323.501L316.777 399.856L323.833 410H318.238L313.141 402.729L311.896 404.106V410H307.049Z" fill="#0B0C0C"/>
<path d="M51.1825 451.282C47.8705 451.282 45.7538 448.842 45.7538 445.015V444.999C45.7538 441.222 47.9037 438.74 51.1825 438.74C53.8387 438.74 55.7064 440.234 56.1795 442.508L56.1961 442.591H54.6854L54.6605 442.508C54.1707 440.964 52.9671 440.118 51.1825 440.118C48.8084 440.118 47.2811 442.027 47.2811 444.999V445.015C47.2811 448.028 48.7835 449.904 51.1908 449.904C53.3324 449.904 54.7767 448.535 54.7767 446.509V446.219H51.4149V444.907H56.2708V446.368C56.2708 449.323 54.2455 451.282 51.1825 451.282ZM63.8794 451.282C60.4428 451.282 58.3842 448.842 58.3842 445.015V444.999C58.3842 441.155 60.4926 438.74 63.8794 438.74C67.2827 438.74 69.3745 441.164 69.3745 444.999V445.015C69.3745 448.833 67.2993 451.282 63.8794 451.282ZM63.8794 449.904C66.3364 449.904 67.8471 447.979 67.8471 445.015V444.999C67.8471 442.01 66.3281 440.118 63.8794 440.118C61.4389 440.118 59.9116 442.01 59.9116 444.999V445.015C59.9116 447.979 61.3891 449.904 63.8794 449.904ZM74.941 451L70.525 439.022H72.0938L75.6134 449.066H75.7462L79.2657 439.022H80.8346L76.4186 451H74.941ZM82.2009 451.083C81.6115 451.083 81.1218 450.593 81.1218 450.004C81.1218 449.406 81.6115 448.925 82.2009 448.925C82.7986 448.925 83.28 449.406 83.28 450.004C83.28 450.593 82.7986 451.083 82.2009 451.083ZM90.183 451.282C87.2113 451.282 85.4183 449.489 85.4183 446.883V439.022H86.9125V446.783C86.9125 448.626 88.1078 449.904 90.183 449.904C92.2582 449.904 93.4369 448.626 93.4369 446.783V439.022H94.931V446.883C94.931 449.489 93.1546 451.282 90.183 451.282ZM97.8994 451V439.022H99.3935V444.841H99.5264L104.772 439.022H106.648L101.859 444.193L107.088 451H105.154L100.83 445.231L99.3935 446.816V451H97.8994ZM113.747 451V439.022H115.241V451H113.747ZM118.226 451V439.022H122.335C125.888 439.022 127.988 441.238 127.988 444.999V445.015C127.988 448.784 125.896 451 122.335 451H118.226ZM119.721 449.655H122.236C124.909 449.655 126.461 447.945 126.461 445.032V445.015C126.461 442.093 124.892 440.367 122.236 440.367H119.721V449.655ZM140.043 451.282C136.789 451.282 134.755 448.875 134.755 445.023V445.007C134.755 441.147 136.78 438.74 140.034 438.74C142.558 438.74 144.525 440.325 144.882 442.625L144.874 442.641H143.371L143.363 442.625C142.964 441.089 141.686 440.118 140.034 440.118C137.735 440.118 136.291 442.01 136.291 445.007V445.023C136.291 448.02 137.735 449.904 140.043 449.904C141.711 449.904 142.981 449.049 143.355 447.671L143.371 447.655H144.882V447.671C144.484 449.863 142.591 451.282 140.043 451.282ZM147.219 451V438.499H148.664V443.396H148.797C149.245 442.45 150.083 441.894 151.403 441.894C153.412 441.894 154.532 443.081 154.532 445.206V451H153.088V445.555C153.088 443.944 152.424 443.172 150.996 443.172C149.569 443.172 148.664 444.135 148.664 445.704V451H147.219ZM160.73 451.158C158.173 451.158 156.629 449.365 156.629 446.559V446.551C156.629 443.787 158.206 441.894 160.639 441.894C163.071 441.894 164.548 443.704 164.548 446.376V446.941H158.107C158.148 448.792 159.169 449.871 160.763 449.871C161.975 449.871 162.722 449.298 162.963 448.759L162.996 448.684H164.44L164.424 448.75C164.117 449.962 162.838 451.158 160.73 451.158ZM160.63 443.181C159.302 443.181 158.289 444.085 158.132 445.787H163.079C162.93 444.019 161.95 443.181 160.63 443.181ZM170.38 451.158C167.874 451.158 166.271 449.34 166.271 446.501V446.484C166.271 443.704 167.865 441.894 170.372 441.894C172.547 441.894 173.85 443.147 174.116 444.741L174.124 444.791H172.688L172.68 444.766C172.456 443.886 171.659 443.172 170.372 443.172C168.762 443.172 167.749 444.467 167.749 446.484V446.501C167.749 448.56 168.778 449.879 170.372 449.879C171.576 449.879 172.339 449.348 172.671 448.352L172.688 448.302L174.116 448.294L174.099 448.385C173.734 450.004 172.53 451.158 170.38 451.158ZM176.246 451V438.499H177.69V445.961H177.823L181.691 442.052H183.443L179.541 445.812L183.7 451H181.882L178.528 446.792L177.69 447.605V451H176.246ZM190.799 440.325C190.251 440.325 189.803 439.877 189.803 439.329C189.803 438.781 190.251 438.333 190.799 438.333C191.347 438.333 191.795 438.781 191.795 439.329C191.795 439.877 191.347 440.325 190.799 440.325ZM190.068 451V442.052H191.513V451H190.068ZM197.237 451.158C195.245 451.158 193.875 450.195 193.709 448.717H195.187C195.427 449.464 196.141 449.954 197.287 449.954C198.49 449.954 199.345 449.381 199.345 448.568V448.551C199.345 447.945 198.889 447.522 197.785 447.256L196.398 446.924C194.722 446.526 193.966 445.795 193.966 444.509V444.5C193.966 443.015 195.394 441.894 197.295 441.894C199.171 441.894 200.474 442.832 200.673 444.293H199.254C199.063 443.587 198.366 443.098 197.287 443.098C196.224 443.098 195.444 443.646 195.444 444.434V444.451C195.444 445.057 195.892 445.438 196.946 445.696L198.324 446.028C200.009 446.435 200.823 447.165 200.823 448.443V448.46C200.823 450.054 199.271 451.158 197.237 451.158ZM210.163 451.158C208.461 451.158 207.175 450.128 207.175 448.501V448.485C207.175 446.891 208.353 445.97 210.437 445.845L213.002 445.688V444.874C213.002 443.77 212.329 443.172 210.993 443.172C209.922 443.172 209.217 443.571 208.984 444.268L208.976 444.293H207.532L207.54 444.243C207.772 442.84 209.134 441.894 211.043 441.894C213.226 441.894 214.446 443.015 214.446 444.874V451H213.002V449.68H212.869C212.304 450.635 211.366 451.158 210.163 451.158ZM208.652 448.468C208.652 449.373 209.424 449.904 210.462 449.904C211.931 449.904 213.002 448.941 213.002 447.663V446.85L210.611 446.999C209.25 447.082 208.652 447.563 208.652 448.452V448.468ZM224.799 451.158C222.807 451.158 221.437 450.195 221.271 448.717H222.749C222.989 449.464 223.703 449.954 224.849 449.954C226.052 449.954 226.907 449.381 226.907 448.568V448.551C226.907 447.945 226.451 447.522 225.347 447.256L223.96 446.924C222.284 446.526 221.528 445.795 221.528 444.509V444.5C221.528 443.015 222.956 441.894 224.857 441.894C226.733 441.894 228.036 442.832 228.235 444.293H226.816C226.625 443.587 225.928 443.098 224.849 443.098C223.786 443.098 223.006 443.646 223.006 444.434V444.451C223.006 445.057 223.454 445.438 224.508 445.696L225.886 446.028C227.571 446.435 228.385 447.165 228.385 448.443V448.46C228.385 450.054 226.833 451.158 224.799 451.158ZM234.209 451.158C231.652 451.158 230.108 449.365 230.108 446.559V446.551C230.108 443.787 231.685 441.894 234.117 441.894C236.549 441.894 238.027 443.704 238.027 446.376V446.941H231.586C231.627 448.792 232.648 449.871 234.242 449.871C235.454 449.871 236.201 449.298 236.442 448.759L236.475 448.684H237.919L237.902 448.75C237.595 449.962 236.317 451.158 234.209 451.158ZM234.109 443.181C232.781 443.181 231.768 444.085 231.61 445.787H236.558C236.408 444.019 235.429 443.181 234.109 443.181ZM243.859 451.158C241.352 451.158 239.75 449.34 239.75 446.501V446.484C239.75 443.704 241.344 441.894 243.851 441.894C246.026 441.894 247.329 443.147 247.594 444.741L247.603 444.791H246.167L246.158 444.766C245.934 443.886 245.137 443.172 243.851 443.172C242.24 443.172 241.228 444.467 241.228 446.484V446.501C241.228 448.56 242.257 449.879 243.851 449.879C245.054 449.879 245.818 449.348 246.15 448.352L246.167 448.302L247.594 448.294L247.578 448.385C247.213 450.004 246.009 451.158 243.859 451.158ZM252.638 451.158C250.604 451.158 249.558 449.962 249.558 447.846V442.052H251.003V447.497C251.003 449.107 251.584 449.879 253.012 449.879C254.589 449.879 255.427 448.917 255.427 447.348V442.052H256.871V451H255.427V449.664H255.294C254.854 450.618 253.95 451.158 252.638 451.158ZM259.5 451V442.052H260.944V443.38H261.077C261.417 442.442 262.255 441.894 263.467 441.894C263.741 441.894 264.048 441.927 264.189 441.952V443.355C263.891 443.305 263.617 443.272 263.301 443.272C261.923 443.272 260.944 444.144 260.944 445.455V451H259.5ZM269.308 451.158C266.751 451.158 265.207 449.365 265.207 446.559V446.551C265.207 443.787 266.784 441.894 269.216 441.894C271.649 441.894 273.126 443.704 273.126 446.376V446.941H266.685C266.726 448.792 267.747 449.871 269.341 449.871C270.553 449.871 271.3 449.298 271.541 448.759L271.574 448.684H273.018L273.002 448.75C272.694 449.962 271.416 451.158 269.308 451.158ZM269.208 443.181C267.88 443.181 266.867 444.085 266.71 445.787H271.657C271.507 444.019 270.528 443.181 269.208 443.181ZM281.736 451L279.229 442.052H280.673L282.433 449.207H282.566L284.566 442.052H285.936L287.936 449.207H288.069L289.829 442.052H291.265L288.758 451H287.306L285.305 444.077H285.172L283.18 451H281.736ZM295.313 451.158C293.611 451.158 292.324 450.128 292.324 448.501V448.485C292.324 446.891 293.503 445.97 295.586 445.845L298.151 445.688V444.874C298.151 443.77 297.479 443.172 296.143 443.172C295.072 443.172 294.366 443.571 294.134 444.268L294.126 444.293H292.681L292.689 444.243C292.922 442.84 294.283 441.894 296.192 441.894C298.376 441.894 299.596 443.015 299.596 444.874V451H298.151V449.68H298.019C297.454 450.635 296.516 451.158 295.313 451.158ZM293.802 448.468C293.802 449.373 294.574 449.904 295.611 449.904C297.081 449.904 298.151 448.941 298.151 447.663V446.85L295.761 446.999C294.399 447.082 293.802 447.563 293.802 448.452V448.468ZM302.597 454.138C302.406 454.138 302.157 454.121 301.958 454.088V452.901C302.132 452.934 302.357 452.942 302.556 452.942C303.378 452.942 303.876 452.569 304.199 451.54L304.365 451.008L301.053 442.052H302.597L305.054 449.415H305.187L307.636 442.052H309.155L305.66 451.548C304.922 453.557 304.183 454.138 302.597 454.138ZM318.885 451.066C317.042 451.066 316.27 450.386 316.27 448.676V443.247H314.859V442.052H316.27V439.736H317.765V442.052H319.724V443.247H317.765V448.311C317.765 449.365 318.13 449.788 319.059 449.788C319.317 449.788 319.458 449.78 319.724 449.755V450.983C319.441 451.033 319.167 451.066 318.885 451.066ZM325.356 451.158C322.808 451.158 321.231 449.398 321.231 446.534V446.518C321.231 443.646 322.808 441.894 325.356 441.894C327.905 441.894 329.482 443.646 329.482 446.518V446.534C329.482 449.398 327.905 451.158 325.356 451.158ZM325.356 449.879C327.05 449.879 328.004 448.643 328.004 446.534V446.518C328.004 444.401 327.05 443.172 325.356 443.172C323.663 443.172 322.709 444.401 322.709 446.518V446.534C322.709 448.643 323.663 449.879 325.356 449.879ZM24.2031 473.158C21.6963 473.158 20.0943 471.34 20.0943 468.501V468.484C20.0943 465.704 21.688 463.894 24.1948 463.894C26.3696 463.894 27.6729 465.147 27.9385 466.741L27.9468 466.791H26.5108L26.5025 466.766C26.2783 465.886 25.4815 465.172 24.1948 465.172C22.5845 465.172 21.5718 466.467 21.5718 468.484V468.501C21.5718 470.56 22.6011 471.879 24.1948 471.879C25.3985 471.879 26.1621 471.348 26.4942 470.352L26.5108 470.302L27.9385 470.294L27.9219 470.385C27.5567 472.004 26.353 473.158 24.2031 473.158ZM33.6627 473.158C31.1144 473.158 29.5372 471.398 29.5372 468.534V468.518C29.5372 465.646 31.1144 463.894 33.6627 463.894C36.2111 463.894 37.7882 465.646 37.7882 468.518V468.534C37.7882 471.398 36.2111 473.158 33.6627 473.158ZM33.6627 471.879C35.3561 471.879 36.3107 470.643 36.3107 468.534V468.518C36.3107 466.401 35.3561 465.172 33.6627 465.172C31.9694 465.172 31.0148 466.401 31.0148 468.518V468.534C31.0148 470.643 31.9694 471.879 33.6627 471.879ZM39.9597 473V464.052H41.4041V465.396H41.5369C41.9851 464.45 42.8235 463.894 44.1433 463.894C46.1521 463.894 47.2727 465.081 47.2727 467.206V473H45.8284V467.555C45.8284 465.944 45.1643 465.172 43.7366 465.172C42.3089 465.172 41.4041 466.135 41.4041 467.704V473H39.9597ZM50.4154 473V465.247H48.9296V464.052H50.4154V463.056C50.4154 461.271 51.3119 460.416 53.0136 460.416C53.3622 460.416 53.6776 460.441 53.9765 460.499V461.653C53.8021 461.62 53.5614 461.611 53.3041 461.611C52.2748 461.611 51.8598 462.118 51.8598 463.097V464.052H53.8935V465.247H51.8598V473H50.4154ZM56.6709 462.325C56.1231 462.325 55.6748 461.877 55.6748 461.329C55.6748 460.781 56.1231 460.333 56.6709 460.333C57.2188 460.333 57.667 460.781 57.667 461.329C57.667 461.877 57.2188 462.325 56.6709 462.325ZM55.9405 473V464.052H57.3848V473H55.9405ZM60.0377 473V464.052H61.4821V465.38H61.6149C61.9552 464.442 62.7936 463.894 64.0055 463.894C64.2794 463.894 64.5866 463.927 64.7277 463.952V465.355C64.4289 465.305 64.1549 465.272 63.8395 465.272C62.4616 465.272 61.4821 466.144 61.4821 467.455V473H60.0377ZM66.6087 473V464.052H68.053V465.413H68.1858C68.5843 464.45 69.4309 463.894 70.6013 463.894C71.8133 463.894 72.6599 464.533 73.075 465.463H73.2078C73.6892 464.517 74.7102 463.894 75.947 463.894C77.7732 463.894 78.7942 464.94 78.7942 466.816V473H77.3499V467.148C77.3499 465.828 76.7439 465.172 75.4822 465.172C74.2371 465.172 73.4153 466.11 73.4153 467.248V473H71.971V466.924C71.971 465.861 71.2405 465.172 70.1116 465.172C68.9412 465.172 68.053 466.193 68.053 467.455V473H66.6087ZM86.8062 476.138C86.6153 476.138 86.3662 476.121 86.167 476.088V474.901C86.3413 474.934 86.5655 474.942 86.7647 474.942C87.5865 474.942 88.0845 474.569 88.4082 473.54L88.5742 473.008L85.2622 464.052H86.8062L89.2632 471.415H89.396L91.8448 464.052H93.3638L89.8692 473.548C89.1304 475.557 88.3916 476.138 86.8062 476.138ZM98.5485 473.158C96.0002 473.158 94.423 471.398 94.423 468.534V468.518C94.423 465.646 96.0002 463.894 98.5485 463.894C101.097 463.894 102.674 465.646 102.674 468.518V468.534C102.674 471.398 101.097 473.158 98.5485 473.158ZM98.5485 471.879C100.242 471.879 101.196 470.643 101.196 468.534V468.518C101.196 466.401 100.242 465.172 98.5485 465.172C96.8551 465.172 95.9006 466.401 95.9006 468.518V468.534C95.9006 470.643 96.8551 471.879 98.5485 471.879ZM107.842 473.158C105.808 473.158 104.762 471.962 104.762 469.846V464.052H106.207V469.497C106.207 471.107 106.788 471.879 108.216 471.879C109.793 471.879 110.631 470.917 110.631 469.348V464.052H112.075V473H110.631V471.664H110.498C110.058 472.618 109.154 473.158 107.842 473.158ZM114.704 473V464.052H116.148V465.38H116.281C116.621 464.442 117.459 463.894 118.671 463.894C118.945 463.894 119.252 463.927 119.393 463.952V465.355C119.095 465.305 118.821 465.272 118.505 465.272C117.127 465.272 116.148 466.144 116.148 467.455V473H114.704ZM126.584 462.325C126.036 462.325 125.588 461.877 125.588 461.329C125.588 460.781 126.036 460.333 126.584 460.333C127.132 460.333 127.58 460.781 127.58 461.329C127.58 461.877 127.132 462.325 126.584 462.325ZM125.853 473V464.052H127.298V473H125.853ZM133.254 473.158C130.988 473.158 129.502 471.323 129.502 468.534V468.518C129.502 465.712 130.98 463.894 133.254 463.894C134.483 463.894 135.554 464.508 136.043 465.463H136.176V460.499H137.62V473H136.176V471.572H136.043C135.495 472.568 134.499 473.158 133.254 473.158ZM133.586 471.879C135.213 471.879 136.209 470.601 136.209 468.534V468.518C136.209 466.451 135.213 465.172 133.586 465.172C131.951 465.172 130.98 466.434 130.98 468.518V468.534C130.98 470.618 131.951 471.879 133.586 471.879ZM143.976 473.158C141.419 473.158 139.875 471.365 139.875 468.559V468.551C139.875 465.787 141.452 463.894 143.884 463.894C146.316 463.894 147.794 465.704 147.794 468.376V468.941H141.352C141.394 470.792 142.415 471.871 144.009 471.871C145.221 471.871 145.968 471.298 146.208 470.759L146.242 470.684H147.686L147.669 470.75C147.362 471.962 146.084 473.158 143.976 473.158ZM143.876 465.181C142.548 465.181 141.535 466.085 141.377 467.787H146.325C146.175 466.019 145.196 465.181 143.876 465.181ZM149.965 473V464.052H151.41V465.396H151.543C151.991 464.45 152.829 463.894 154.149 463.894C156.158 463.894 157.278 465.081 157.278 467.206V473H155.834V467.555C155.834 465.944 155.17 465.172 153.742 465.172C152.314 465.172 151.41 466.135 151.41 467.704V473H149.965ZM163.003 473.066C161.16 473.066 160.388 472.386 160.388 470.676V465.247H158.977V464.052H160.388V461.736H161.882V464.052H163.841V465.247H161.882V470.311C161.882 471.365 162.247 471.788 163.177 471.788C163.434 471.788 163.575 471.78 163.841 471.755V472.983C163.559 473.033 163.285 473.066 163.003 473.066ZM166.693 462.325C166.145 462.325 165.697 461.877 165.697 461.329C165.697 460.781 166.145 460.333 166.693 460.333C167.241 460.333 167.689 460.781 167.689 461.329C167.689 461.877 167.241 462.325 166.693 462.325ZM165.963 473V464.052H167.407V473H165.963ZM173.239 473.066C171.396 473.066 170.624 472.386 170.624 470.676V465.247H169.213V464.052H170.624V461.736H172.119V464.052H174.078V465.247H172.119V470.311C172.119 471.365 172.484 471.788 173.414 471.788C173.671 471.788 173.812 471.78 174.078 471.755V472.983C173.795 473.033 173.521 473.066 173.239 473.066ZM176.93 476.138C176.739 476.138 176.49 476.121 176.291 476.088V474.901C176.465 474.934 176.689 474.942 176.888 474.942C177.71 474.942 178.208 474.569 178.532 473.54L178.698 473.008L175.386 464.052H176.93L179.387 471.415H179.52L181.968 464.052H183.487L179.993 473.548C179.254 475.557 178.515 476.138 176.93 476.138ZM191.765 473L189.258 464.052H190.702L192.462 471.207H192.595L194.596 464.052H195.965L197.966 471.207H198.098L199.858 464.052H201.294L198.787 473H197.335L195.334 466.077H195.201L193.209 473H191.765ZM203.217 473V460.499H204.661V465.396H204.794C205.242 464.45 206.081 463.894 207.4 463.894C209.409 463.894 210.53 465.081 210.53 467.206V473H209.085V467.555C209.085 465.944 208.421 465.172 206.994 465.172C205.566 465.172 204.661 466.135 204.661 467.704V473H203.217ZM216.727 473.158C214.17 473.158 212.627 471.365 212.627 468.559V468.551C212.627 465.787 214.204 463.894 216.636 463.894C219.068 463.894 220.545 465.704 220.545 468.376V468.941H214.104C214.146 470.792 215.167 471.871 216.76 471.871C217.972 471.871 218.719 471.298 218.96 470.759L218.993 470.684H220.438L220.421 470.75C220.114 471.962 218.836 473.158 216.727 473.158ZM216.628 465.181C215.299 465.181 214.287 466.085 214.129 467.787H219.076C218.927 466.019 217.947 465.181 216.628 465.181ZM222.717 473V464.052H224.161V465.396H224.294C224.742 464.45 225.581 463.894 226.901 463.894C228.909 463.894 230.03 465.081 230.03 467.206V473H228.586V467.555C228.586 465.944 227.922 465.172 226.494 465.172C225.066 465.172 224.161 466.135 224.161 467.704V473H222.717ZM238.05 476.138C237.859 476.138 237.61 476.121 237.411 476.088V474.901C237.585 474.934 237.81 474.942 238.009 474.942C238.831 474.942 239.329 474.569 239.652 473.54L239.818 473.008L236.506 464.052H238.05L240.507 471.415H240.64L243.089 464.052H244.608L241.113 473.548C240.374 475.557 239.636 476.138 238.05 476.138ZM249.793 473.158C247.244 473.158 245.667 471.398 245.667 468.534V468.518C245.667 465.646 247.244 463.894 249.793 463.894C252.341 463.894 253.918 465.646 253.918 468.518V468.534C253.918 471.398 252.341 473.158 249.793 473.158ZM249.793 471.879C251.486 471.879 252.441 470.643 252.441 468.534V468.518C252.441 466.401 251.486 465.172 249.793 465.172C248.099 465.172 247.145 466.401 247.145 468.518V468.534C247.145 470.643 248.099 471.879 249.793 471.879ZM259.086 473.158C257.052 473.158 256.007 471.962 256.007 469.846V464.052H257.451V469.497C257.451 471.107 258.032 471.879 259.46 471.879C261.037 471.879 261.875 470.917 261.875 469.348V464.052H263.32V473H261.875V471.664H261.742C261.302 472.618 260.398 473.158 259.086 473.158ZM273.73 473.158C271.738 473.158 270.369 472.195 270.203 470.717H271.68C271.921 471.464 272.635 471.954 273.78 471.954C274.984 471.954 275.839 471.381 275.839 470.568V470.551C275.839 469.945 275.382 469.522 274.278 469.256L272.892 468.924C271.215 468.526 270.46 467.795 270.46 466.509V466.5C270.46 465.015 271.888 463.894 273.789 463.894C275.665 463.894 276.968 464.832 277.167 466.293H275.748C275.557 465.587 274.859 465.098 273.78 465.098C272.718 465.098 271.937 465.646 271.937 466.434V466.451C271.937 467.057 272.386 467.438 273.44 467.696L274.818 468.028C276.503 468.435 277.316 469.165 277.316 470.443V470.46C277.316 472.054 275.764 473.158 273.73 473.158ZM280.252 462.325C279.704 462.325 279.255 461.877 279.255 461.329C279.255 460.781 279.704 460.333 280.252 460.333C280.799 460.333 281.248 460.781 281.248 461.329C281.248 461.877 280.799 462.325 280.252 462.325ZM279.521 473V464.052H280.965V473H279.521ZM287.304 476.154C285.146 476.154 283.768 475.183 283.544 473.714L283.56 473.706H285.054L285.063 473.714C285.22 474.395 286.017 474.876 287.304 474.876C288.906 474.876 289.861 474.121 289.861 472.801V470.991H289.728C289.163 471.979 288.151 472.535 286.922 472.535C284.606 472.535 283.17 470.742 283.17 468.235V468.219C283.17 465.712 284.614 463.894 286.955 463.894C288.217 463.894 289.196 464.517 289.744 465.529H289.844V464.052H291.288V472.875C291.288 474.876 289.744 476.154 287.304 476.154ZM287.237 471.257C288.898 471.257 289.894 470.012 289.894 468.235V468.219C289.894 466.442 288.889 465.172 287.237 465.172C285.577 465.172 284.648 466.442 284.648 468.219V468.235C284.648 470.012 285.577 471.257 287.237 471.257ZM293.908 473V464.052H295.352V465.396H295.485C295.933 464.45 296.772 463.894 298.092 463.894C300.1 463.894 301.221 465.081 301.221 467.206V473H299.777V467.555C299.777 465.944 299.113 465.172 297.685 465.172C296.257 465.172 295.352 466.135 295.352 467.704V473H293.908ZM309.241 462.325C308.693 462.325 308.245 461.877 308.245 461.329C308.245 460.781 308.693 460.333 309.241 460.333C309.789 460.333 310.237 460.781 310.237 461.329C310.237 461.877 309.789 462.325 309.241 462.325ZM308.511 473V464.052H309.955V473H308.511ZM312.608 473V464.052H314.052V465.396H314.185C314.634 464.45 315.472 463.894 316.792 463.894C318.801 463.894 319.921 465.081 319.921 467.206V473H318.477V467.555C318.477 465.944 317.813 465.172 316.385 465.172C314.957 465.172 314.052 466.135 314.052 467.704V473H312.608ZM330.357 473.066C328.514 473.066 327.742 472.386 327.742 470.676V465.247H326.331V464.052H327.742V461.736H329.236V464.052H331.195V465.247H329.236V470.311C329.236 471.365 329.602 471.788 330.531 471.788C330.789 471.788 330.93 471.78 331.195 471.755V472.983C330.913 473.033 330.639 473.066 330.357 473.066ZM336.828 473.158C334.28 473.158 332.703 471.398 332.703 468.534V468.518C332.703 465.646 334.28 463.894 336.828 463.894C339.377 463.894 340.954 465.646 340.954 468.518V468.534C340.954 471.398 339.377 473.158 336.828 473.158ZM336.828 471.879C338.522 471.879 339.476 470.643 339.476 468.534V468.518C339.476 466.401 338.522 465.172 336.828 465.172C335.135 465.172 334.18 466.401 334.18 468.518V468.534C334.18 470.643 335.135 471.879 336.828 471.879ZM350.294 473.158C348.592 473.158 347.306 472.128 347.306 470.501V470.485C347.306 468.891 348.484 467.97 350.568 467.845L353.133 467.688V466.874C353.133 465.77 352.46 465.172 351.124 465.172C350.053 465.172 349.348 465.571 349.115 466.268L349.107 466.293H347.662L347.671 466.243C347.903 464.84 349.265 463.894 351.174 463.894C353.357 463.894 354.577 465.015 354.577 466.874V473H353.133V471.68H353C352.435 472.635 351.497 473.158 350.294 473.158ZM348.783 470.468C348.783 471.373 349.555 471.904 350.593 471.904C352.062 471.904 353.133 470.941 353.133 469.663V468.85L350.742 468.999C349.381 469.082 348.783 469.563 348.783 470.452V470.468ZM42.558 498.154C40.3997 498.154 39.0218 497.183 38.7977 495.714L38.8143 495.706H40.3084L40.3167 495.714C40.4745 496.395 41.2713 496.876 42.558 496.876C44.16 496.876 45.1146 496.121 45.1146 494.801V492.991H44.9818C44.4173 493.979 43.4046 494.535 42.1761 494.535C39.8602 494.535 38.4242 492.742 38.4242 490.235V490.219C38.4242 487.712 39.8685 485.894 42.2093 485.894C43.471 485.894 44.4505 486.517 44.9984 487.529H45.098V486.052H46.5423V494.875C46.5423 496.876 44.9984 498.154 42.558 498.154ZM42.4915 493.257C44.1517 493.257 45.1478 492.012 45.1478 490.235V490.219C45.1478 488.442 44.1434 487.172 42.4915 487.172C40.8314 487.172 39.9017 488.442 39.9017 490.219V490.235C39.9017 492.012 40.8314 493.257 42.4915 493.257ZM52.8393 495.158C50.291 495.158 48.7138 493.398 48.7138 490.534V490.518C48.7138 487.646 50.291 485.894 52.8393 485.894C55.3877 485.894 56.9648 487.646 56.9648 490.518V490.534C56.9648 493.398 55.3877 495.158 52.8393 495.158ZM52.8393 493.879C54.5327 493.879 55.4873 492.643 55.4873 490.534V490.518C55.4873 488.401 54.5327 487.172 52.8393 487.172C51.146 487.172 50.1914 488.401 50.1914 490.518V490.534C50.1914 492.643 51.146 493.879 52.8393 493.879ZM61.336 495L58.024 486.052H59.5514L62.0001 493.423H62.1329L64.5816 486.052H66.109L62.797 495H61.336ZM71.2688 495.158C68.7121 495.158 67.1682 493.365 67.1682 490.559V490.551C67.1682 487.787 68.7453 485.894 71.1775 485.894C73.6096 485.894 75.0871 487.704 75.0871 490.376V490.941H68.6457C68.6872 492.792 69.7082 493.871 71.302 493.871C72.5139 493.871 73.261 493.298 73.5017 492.759L73.5349 492.684H74.9792L74.9626 492.75C74.6555 493.962 73.3772 495.158 71.2688 495.158ZM71.1692 487.181C69.841 487.181 68.8283 488.085 68.6706 489.787H73.6179C73.4685 488.019 72.489 487.181 71.1692 487.181ZM77.2586 495V486.052H78.703V487.38H78.8358C79.1761 486.442 80.0145 485.894 81.2264 485.894C81.5003 485.894 81.8075 485.927 81.9486 485.952V487.355C81.6498 487.305 81.3758 487.272 81.0604 487.272C79.6825 487.272 78.703 488.144 78.703 489.455V495H77.2586ZM83.8296 495V486.052H85.2739V487.396H85.4067C85.855 486.45 86.6933 485.894 88.0132 485.894C90.022 485.894 91.1426 487.081 91.1426 489.206V495H89.6982V489.555C89.6982 487.944 89.0342 487.172 87.6064 487.172C86.1787 487.172 85.2739 488.135 85.2739 489.704V495H83.8296ZM93.6876 495V486.052H95.1319V487.413H95.2648C95.6632 486.45 96.5099 485.894 97.6803 485.894C98.8922 485.894 99.7389 486.533 100.154 487.463H100.287C100.768 486.517 101.789 485.894 103.026 485.894C104.852 485.894 105.873 486.94 105.873 488.816V495H104.429V489.148C104.429 487.828 103.823 487.172 102.561 487.172C101.316 487.172 100.494 488.11 100.494 489.248V495H99.0499V488.924C99.0499 487.861 98.3194 487.172 97.1905 487.172C96.0201 487.172 95.1319 488.193 95.1319 489.455V495H93.6876ZM112.062 495.158C109.506 495.158 107.962 493.365 107.962 490.559V490.551C107.962 487.787 109.539 485.894 111.971 485.894C114.403 485.894 115.881 487.704 115.881 490.376V490.941H109.439C109.481 492.792 110.502 493.871 112.095 493.871C113.307 493.871 114.054 493.298 114.295 492.759L114.328 492.684H115.773L115.756 492.75C115.449 493.962 114.171 495.158 112.062 495.158ZM111.963 487.181C110.635 487.181 109.622 488.085 109.464 489.787H114.411C114.262 488.019 113.282 487.181 111.963 487.181ZM118.052 495V486.052H119.496V487.396H119.629C120.077 486.45 120.916 485.894 122.236 485.894C124.244 485.894 125.365 487.081 125.365 489.206V495H123.921V489.555C123.921 487.944 123.257 487.172 121.829 487.172C120.401 487.172 119.496 488.135 119.496 489.704V495H118.052ZM131.089 495.066C129.247 495.066 128.475 494.386 128.475 492.676V487.247H127.063V486.052H128.475V483.736H129.969V486.052H131.928V487.247H129.969V492.311C129.969 493.365 130.334 493.788 131.264 493.788C131.521 493.788 131.662 493.78 131.928 493.755V494.983C131.646 495.033 131.372 495.066 131.089 495.066ZM141.799 495.158C139.807 495.158 138.437 494.195 138.271 492.717H139.749C139.989 493.464 140.703 493.954 141.849 493.954C143.052 493.954 143.907 493.381 143.907 492.568V492.551C143.907 491.945 143.451 491.522 142.347 491.256L140.961 490.924C139.284 490.526 138.529 489.795 138.529 488.509V488.5C138.529 487.015 139.956 485.894 141.857 485.894C143.733 485.894 145.036 486.832 145.236 488.293H143.816C143.625 487.587 142.928 487.098 141.849 487.098C140.786 487.098 140.006 487.646 140.006 488.434V488.451C140.006 489.057 140.454 489.438 141.509 489.696L142.886 490.028C144.572 490.435 145.385 491.165 145.385 492.443V492.46C145.385 494.054 143.833 495.158 141.799 495.158ZM151.209 495.158C148.652 495.158 147.108 493.365 147.108 490.559V490.551C147.108 487.787 148.685 485.894 151.118 485.894C153.55 485.894 155.027 487.704 155.027 490.376V490.941H148.586C148.627 492.792 149.648 493.871 151.242 493.871C152.454 493.871 153.201 493.298 153.442 492.759L153.475 492.684H154.919L154.903 492.75C154.596 493.962 153.317 495.158 151.209 495.158ZM151.109 487.181C149.781 487.181 148.768 488.085 148.611 489.787H153.558C153.409 488.019 152.429 487.181 151.109 487.181ZM157.199 495V486.052H158.643V487.38H158.776C159.116 486.442 159.955 485.894 161.167 485.894C161.44 485.894 161.748 485.927 161.889 485.952V487.355C161.59 487.305 161.316 487.272 161 487.272C159.623 487.272 158.643 488.144 158.643 489.455V495H157.199ZM166.218 495L162.906 486.052H164.434L166.882 493.423H167.015L169.464 486.052H170.991L167.679 495H166.218ZM173.594 484.325C173.047 484.325 172.598 483.877 172.598 483.329C172.598 482.781 173.047 482.333 173.594 482.333C174.142 482.333 174.591 482.781 174.591 483.329C174.591 483.877 174.142 484.325 173.594 484.325ZM172.864 495V486.052H174.308V495H172.864ZM180.622 495.158C178.115 495.158 176.513 493.34 176.513 490.501V490.484C176.513 487.704 178.107 485.894 180.614 485.894C182.788 485.894 184.092 487.147 184.357 488.741L184.366 488.791H182.93L182.921 488.766C182.697 487.886 181.9 487.172 180.614 487.172C179.003 487.172 177.991 488.467 177.991 490.484V490.501C177.991 492.56 179.02 493.879 180.614 493.879C181.817 493.879 182.581 493.348 182.913 492.352L182.93 492.302L184.357 492.294L184.341 492.385C183.975 494.004 182.772 495.158 180.622 495.158ZM190.057 495.158C187.5 495.158 185.956 493.365 185.956 490.559V490.551C185.956 487.787 187.533 485.894 189.965 485.894C192.397 485.894 193.875 487.704 193.875 490.376V490.941H187.434C187.475 492.792 188.496 493.871 190.09 493.871C191.302 493.871 192.049 493.298 192.29 492.759L192.323 492.684H193.767L193.75 492.75C193.443 493.962 192.165 495.158 190.057 495.158ZM189.957 487.181C188.629 487.181 187.616 488.085 187.458 489.787H192.406C192.256 488.019 191.277 487.181 189.957 487.181ZM202.485 495L199.978 486.052H201.422L203.182 493.207H203.315L205.315 486.052H206.685L208.685 493.207H208.818L210.578 486.052H212.014L209.507 495H208.054L206.054 488.077H205.921L203.929 495H202.485ZM214.617 484.325C214.069 484.325 213.621 483.877 213.621 483.329C213.621 482.781 214.069 482.333 214.617 482.333C215.165 482.333 215.613 482.781 215.613 483.329C215.613 483.877 215.165 484.325 214.617 484.325ZM213.887 495V486.052H215.331V495H213.887ZM221.163 495.066C219.32 495.066 218.548 494.386 218.548 492.676V487.247H217.137V486.052H218.548V483.736H220.042V486.052H222.001V487.247H220.042V492.311C220.042 493.365 220.408 493.788 221.337 493.788C221.595 493.788 221.736 493.78 222.001 493.755V494.983C221.719 495.033 221.445 495.066 221.163 495.066ZM224.173 495V482.499H225.617V487.396H225.75C226.198 486.45 227.037 485.894 228.357 485.894C230.365 485.894 231.486 487.081 231.486 489.206V495H230.042V489.555C230.042 487.944 229.378 487.172 227.95 487.172C226.522 487.172 225.617 488.135 225.617 489.704V495H224.173ZM243.889 495.282C240.577 495.282 238.46 492.842 238.46 489.015V488.999C238.46 485.222 240.61 482.74 243.889 482.74C246.545 482.74 248.413 484.234 248.886 486.508L248.903 486.591H247.392L247.367 486.508C246.877 484.964 245.674 484.118 243.889 484.118C241.515 484.118 239.988 486.027 239.988 488.999V489.015C239.988 492.028 241.49 493.904 243.897 493.904C246.039 493.904 247.483 492.535 247.483 490.509V490.219H244.121V488.907H248.977V490.368C248.977 493.323 246.952 495.282 243.889 495.282ZM256.586 495.282C253.149 495.282 251.091 492.842 251.091 489.015V488.999C251.091 485.155 253.199 482.74 256.586 482.74C259.989 482.74 262.081 485.164 262.081 488.999V489.015C262.081 492.833 260.006 495.282 256.586 495.282ZM256.586 493.904C259.043 493.904 260.554 491.979 260.554 489.015V488.999C260.554 486.01 259.035 484.118 256.586 484.118C254.146 484.118 252.618 486.01 252.618 488.999V489.015C252.618 491.979 254.096 493.904 256.586 493.904ZM267.648 495L263.232 483.022H264.8L268.32 493.066H268.453L271.972 483.022H273.541L269.125 495H267.648ZM274.908 495.083C274.318 495.083 273.828 494.593 273.828 494.004C273.828 493.406 274.318 492.925 274.908 492.925C275.505 492.925 275.987 493.406 275.987 494.004C275.987 494.593 275.505 495.083 274.908 495.083ZM282.89 495.282C279.918 495.282 278.125 493.489 278.125 490.883V483.022H279.619V490.783C279.619 492.626 280.814 493.904 282.89 493.904C284.965 493.904 286.143 492.626 286.143 490.783V483.022H287.638V490.883C287.638 493.489 285.861 495.282 282.89 495.282ZM290.606 495V483.022H292.1V488.841H292.233L297.479 483.022H299.355L294.565 488.193L299.795 495H297.861L293.536 489.231L292.1 490.816V495H290.606ZM311.484 495.282C308.048 495.282 305.989 492.842 305.989 489.015V488.999C305.989 485.155 308.097 482.74 311.484 482.74C314.887 482.74 316.979 485.164 316.979 488.999V489.015C316.979 492.833 314.904 495.282 311.484 495.282ZM311.484 493.904C313.941 493.904 315.452 491.979 315.452 489.015V488.999C315.452 486.01 313.933 484.118 311.484 484.118C309.044 484.118 307.516 486.01 307.516 488.999V489.015C307.516 491.979 308.994 493.904 311.484 493.904ZM319.317 495V486.052H320.761V487.396H320.894C321.342 486.45 322.181 485.894 323.5 485.894C325.509 485.894 326.63 487.081 326.63 489.206V495H325.185V489.555C325.185 487.944 324.521 487.172 323.094 487.172C321.666 487.172 320.761 488.135 320.761 489.704V495H319.317ZM332.827 495.158C330.271 495.158 328.727 493.365 328.727 490.559V490.551C328.727 487.787 330.304 485.894 332.736 485.894C335.168 485.894 336.646 487.704 336.646 490.376V490.941H330.204C330.246 492.792 331.267 493.871 332.86 493.871C334.072 493.871 334.819 493.298 335.06 492.759L335.093 492.684H336.538L336.521 492.75C336.214 493.962 334.936 495.158 332.827 495.158ZM332.728 487.181C331.399 487.181 330.387 488.085 330.229 489.787H335.176C335.027 488.019 334.047 487.181 332.728 487.181ZM164.824 517V505.022H166.318V515.655H172.095V517H164.824ZM177.496 517.158C174.948 517.158 173.37 515.398 173.37 512.534V512.518C173.37 509.646 174.948 507.894 177.496 507.894C180.044 507.894 181.621 509.646 181.621 512.518V512.534C181.621 515.398 180.044 517.158 177.496 517.158ZM177.496 515.879C179.189 515.879 180.144 514.643 180.144 512.534V512.518C180.144 510.401 179.189 509.172 177.496 509.172C175.802 509.172 174.848 510.401 174.848 512.518V512.534C174.848 514.643 175.802 515.879 177.496 515.879ZM187.478 520.154C185.32 520.154 183.942 519.183 183.718 517.714L183.735 517.706H185.229L185.237 517.714C185.395 518.395 186.192 518.876 187.478 518.876C189.08 518.876 190.035 518.121 190.035 516.801V514.991H189.902C189.338 515.979 188.325 516.535 187.097 516.535C184.781 516.535 183.345 514.742 183.345 512.235V512.219C183.345 509.712 184.789 507.894 187.13 507.894C188.391 507.894 189.371 508.517 189.919 509.529H190.018V508.052H191.463V516.875C191.463 518.876 189.919 520.154 187.478 520.154ZM187.412 515.257C189.072 515.257 190.068 514.012 190.068 512.235V512.219C190.068 510.442 189.064 509.172 187.412 509.172C185.752 509.172 184.822 510.442 184.822 512.219V512.235C184.822 514.012 185.752 515.257 187.412 515.257ZM194.846 506.325C194.298 506.325 193.85 505.877 193.85 505.329C193.85 504.781 194.298 504.333 194.846 504.333C195.394 504.333 195.842 504.781 195.842 505.329C195.842 505.877 195.394 506.325 194.846 506.325ZM194.116 517V508.052H195.56V517H194.116ZM198.213 517V508.052H199.657V509.396H199.79C200.238 508.45 201.077 507.894 202.397 507.894C204.405 507.894 205.526 509.081 205.526 511.206V517H204.082V511.555C204.082 509.944 203.418 509.172 201.99 509.172C200.562 509.172 199.657 510.135 199.657 511.704V517H198.213ZM209.25 517.083C208.66 517.083 208.171 516.593 208.171 516.004C208.171 515.406 208.66 514.925 209.25 514.925C209.847 514.925 210.329 515.406 210.329 516.004C210.329 516.593 209.847 517.083 209.25 517.083Z" fill="#0B0C0C"/>
<rect x="121" y="226" width="135" height="135" rx="25.5667" fill="#1D70B8"/>
<path d="M154.689 334.661C153.739 335.25 152.571 335.544 151.186 335.544C148.905 335.544 147.036 334.748 145.581 333.155C144.062 331.554 143.303 329.365 143.303 326.588C143.303 323.779 144.07 321.527 145.604 319.832C147.137 318.138 149.165 317.29 151.688 317.29C153.875 317.29 155.631 317.851 156.954 318.973C158.285 320.087 159.048 321.48 159.243 323.151H155.705C155.432 321.967 154.767 321.139 153.708 320.668C153.116 320.409 152.458 320.28 151.734 320.28C150.349 320.28 149.208 320.809 148.313 321.869C147.425 322.92 146.982 324.505 146.982 326.623C146.982 328.757 147.464 330.268 148.43 331.154C149.395 332.041 150.493 332.484 151.723 332.484C152.929 332.484 153.918 332.135 154.689 331.437C155.459 330.731 155.934 329.809 156.113 328.671H152.131V325.776H159.301V335.085H156.919L156.557 332.92C155.864 333.743 155.241 334.324 154.689 334.661Z" fill="white"/>
<path d="M170.359 335.568C167.899 335.568 166.019 334.893 164.719 333.543C162.976 331.888 162.104 329.503 162.104 326.388C162.104 323.21 162.976 320.825 164.719 319.232C166.019 317.883 167.899 317.208 170.359 317.208C172.819 317.208 174.699 317.883 175.999 319.232C177.735 320.825 178.603 323.21 178.603 326.388C178.603 329.503 177.735 331.888 175.999 333.543C174.699 334.893 172.819 335.568 170.359 335.568ZM173.757 330.907C174.59 329.848 175.007 328.341 175.007 326.388C175.007 324.442 174.587 322.94 173.746 321.88C172.913 320.813 171.784 320.28 170.359 320.28C168.935 320.28 167.798 320.809 166.95 321.869C166.101 322.928 165.677 324.434 165.677 326.388C165.677 328.341 166.101 329.848 166.95 330.907C167.798 331.966 168.935 332.496 170.359 332.496C171.784 332.496 172.917 331.966 173.757 330.907Z" fill="white"/>
<path d="M180.086 317.738H183.928L187.665 330.907L191.437 317.738H195.173L189.3 335.085H185.902L180.086 317.738Z" fill="white"/>
<path d="M194.788 331.578H198.326V335.085H194.788V331.578Z" fill="white"/>
<path d="M211.953 328.4V317.738H215.608V328.4C215.608 330.244 215.324 331.68 214.756 332.708C213.697 334.591 211.677 335.532 208.695 335.532C205.714 335.532 203.69 334.591 202.623 332.708C202.055 331.68 201.771 330.244 201.771 328.4V317.738H205.426V328.4C205.426 329.593 205.566 330.464 205.846 331.013C206.282 331.986 207.232 332.472 208.695 332.472C210.151 332.472 211.097 331.986 211.533 331.013C211.813 330.464 211.953 329.593 211.953 328.4Z" fill="white"/>
<path d="M234.303 335.085H229.679L224.366 327.506L222.65 329.283V335.085H219.111V317.738H222.65V324.881L229.294 317.738H233.941L226.888 324.881L234.303 335.085Z" fill="white"/>
<path fill-rule="evenodd" clip-rule="evenodd" d="M165.018 265.691C167.005 266.526 169.389 265.58 170.184 263.632C171.036 261.629 170.071 259.292 167.97 258.513C165.926 257.734 163.655 258.68 162.803 260.683C162.008 262.63 162.974 264.856 165.018 265.691ZM155.933 270.866C157.977 271.701 160.362 270.755 161.157 268.807C162.008 266.804 161.043 264.467 158.943 263.743C156.899 262.909 154.628 263.855 153.776 265.858C152.981 267.805 153.946 270.031 155.933 270.866ZM153.322 280.715C155.309 281.55 157.693 280.604 158.488 278.6C159.34 276.597 158.375 274.316 156.274 273.537C154.287 272.702 151.959 273.704 151.107 275.651C150.313 277.599 151.278 279.88 153.322 280.715ZM175.067 268.807C177.054 269.642 179.439 268.696 180.233 266.693C181.085 264.689 180.12 262.408 178.019 261.629C175.975 260.794 173.704 261.796 172.853 263.743C172.114 265.747 173.08 268.028 175.067 268.807ZM211.63 265.691C209.586 266.526 207.202 265.58 206.464 263.632C205.612 261.629 206.577 259.292 208.621 258.513C210.665 257.734 212.993 258.68 213.845 260.683C214.583 262.63 213.618 264.856 211.63 265.691ZM220.658 270.866C218.614 271.701 216.286 270.755 215.491 268.807C214.64 266.804 215.605 264.467 217.592 263.743C219.636 262.909 221.964 263.855 222.815 265.858C223.667 267.805 222.645 270.031 220.658 270.866ZM223.326 280.715C221.282 281.55 218.898 280.604 218.103 278.6C217.251 276.597 218.216 274.316 220.317 273.537C222.361 272.702 224.689 273.704 225.54 275.651C226.279 277.599 225.313 279.88 223.326 280.715ZM201.524 268.807C199.48 269.642 197.096 268.696 196.301 266.693C195.506 264.689 196.415 262.408 198.515 261.629C200.559 260.794 202.887 261.796 203.739 263.743C204.533 265.747 203.568 268.028 201.524 268.807ZM190.396 258.735L195.449 261.351V254.061L190.396 255.619C190.283 255.452 190.112 255.285 189.885 255.118L191.929 248.886H188.296H184.662L186.649 255.118C186.479 255.285 186.308 255.397 186.138 255.619L181.142 254.061V261.351L186.138 258.735C186.308 258.902 186.479 259.125 186.649 259.236L183.81 267.805C183.81 267.805 183.81 267.805 183.81 267.861C183.697 268.306 183.583 268.751 183.583 269.197C183.583 271.478 185.343 273.37 187.557 273.704H187.671C187.841 273.704 188.068 273.759 188.239 273.759C188.466 273.759 188.636 273.759 188.807 273.704H188.92C191.191 273.37 192.951 271.422 192.951 269.197C192.951 268.751 192.894 268.251 192.724 267.861C192.724 267.861 192.724 267.861 192.724 267.805L189.829 259.236C190.056 259.125 190.226 258.902 190.396 258.735ZM188.296 300.524C197.891 300.524 206.918 301.137 215.037 302.305C217.308 292.901 220.09 287.448 222.986 283.664L217.535 281.772C218.103 284.499 218.16 285.779 217.535 287.448C216.683 286.669 215.832 285.055 215.151 282.607L212.482 291.176C214.072 290.063 215.321 289.396 216.74 289.34C214.242 294.57 211.063 295.962 209.019 295.572C206.577 295.127 205.442 293.012 205.839 291.176C206.407 288.561 209.076 287.893 210.381 290.898C212.823 286.057 208.678 284.554 206.066 286.001C210.097 281.995 210.552 278.489 207.259 274.26C202.717 277.654 202.66 281.104 204.704 285.834C202.035 282.829 197.834 284.443 199.31 289.284C201.24 286.391 203.795 288.171 203.398 291.009C203.057 293.402 199.764 295.349 195.733 295.016C189.885 294.515 189.545 290.564 189.374 287.337C190.794 287.058 193.405 288.338 195.62 291.399L196.358 282.273C194.03 284.721 191.816 285.222 189.374 285.278C190.169 282.829 193.916 278.823 193.916 278.823H188.523H182.334C182.334 278.823 185.968 282.829 186.819 285.278C184.435 285.222 182.277 284.721 179.836 282.273L180.631 291.399C182.845 288.338 185.457 287.114 186.819 287.337C186.649 290.564 186.308 294.459 180.517 295.016C176.429 295.349 173.193 293.402 172.853 291.009C172.455 288.227 175.01 286.391 176.884 289.284C178.417 284.443 174.272 282.829 171.547 285.834C173.647 281.104 173.591 277.654 168.935 274.26C165.642 278.489 166.096 281.995 170.184 286.001C167.516 284.554 163.428 286.057 165.812 290.898C167.118 287.837 169.843 288.561 170.411 291.176C170.809 293.012 169.673 295.127 167.175 295.572C165.188 295.962 162.065 294.57 159.51 289.34C160.93 289.396 162.179 290.063 163.768 291.176L161.1 282.607C160.419 285.055 159.567 286.613 158.659 287.448C158.034 285.779 158.148 284.499 158.659 281.772L153.265 283.664C156.104 287.504 158.886 292.957 161.214 302.305C169.616 301.137 178.7 300.524 188.296 300.524Z" fill="white"/>
</g>
<defs>
<filter id="filter0_b_18762_1079" x="-39" y="-20" width="453" height="87" filterUnits="userSpaceOnUse" color-interpolation-filters="sRGB">
<feFlood flood-opacity="0" result="BackgroundImageFix"/>
<feGaussianBlur in="BackgroundImageFix" stdDeviation="10"/>
<feComposite in2="SourceAlpha" operator="in" result="effect1_backgroundBlur_18762_1079"/>
<feBlend mode="normal" in="SourceGraphic" in2="effect1_backgroundBlur_18762_1079" result="shape"/>
</filter>
<clipPath id="clip0_18762_1079">
<rect width="375" height="799" fill="white"/>
</clipPath>
<clipPath id="clip1_18762_1079">
<rect width="413" height="47" fill="white" transform="translate(-19)"/>
</clipPath>
</defs>
</svg>
