<svg width="148" height="159" viewBox="0 0 148 159" fill="none" xmlns="http://www.w3.org/2000/svg">
<rect width="148" height="159" rx="8" fill="#6C6C6C"/>
<path d="M61.5 65L70.5684 75.5002C70.785 75.7511 71.1779 75.7309 71.3607 75.4544C72.8669 73.177 78.7723 64.257 83 58M108 64C108 82.7777 92.7777 98 74 98C55.2223 98 40 82.7777 40 64C40 45.2223 55.2223 30 74 30C92.7777 30 108 45.2223 108 64Z" stroke="white" stroke-width="3" stroke-linecap="round"/>
<path d="M44.9239 134.299C47.796 134.299 49.5973 132.838 49.5973 130.505V130.497C49.5973 128.688 48.5431 127.675 46.0196 127.144L44.733 126.87C43.2389 126.554 42.6329 126.023 42.6329 125.176V125.168C42.6329 124.147 43.5792 123.524 44.9073 123.524C46.277 123.516 47.1652 124.18 47.3146 125.11L47.3312 125.209H49.3815L49.3732 125.102C49.2237 123.176 47.5719 121.723 44.9156 121.723C42.3258 121.723 40.483 123.167 40.483 125.309V125.317C40.483 127.102 41.5455 128.248 43.9943 128.762L45.2809 129.028C46.8248 129.36 47.4474 129.883 47.4474 130.746V130.754C47.4474 131.784 46.4347 132.498 44.9903 132.498C43.4713 132.498 42.4005 131.833 42.3009 130.829L42.2926 130.746H40.2174L40.2257 130.862C40.3751 132.929 42.1432 134.299 44.9239 134.299ZM54.7239 134.183C56.0354 134.183 56.9568 133.593 57.3801 132.622H57.5212V134H59.5881V124.927H57.5212V130.215C57.5212 131.576 56.8074 132.439 55.4709 132.439C54.2258 132.439 53.7029 131.726 53.7029 130.323V124.927H51.636V130.796C51.636 132.954 52.6819 134.183 54.7239 134.183ZM65.9349 134.183C68.2342 134.183 69.5707 132.946 69.8695 131.086L69.8861 131.02L67.9354 131.028L67.9188 131.062C67.6615 132.016 67.0057 132.506 65.9349 132.506C64.5321 132.506 63.6937 131.377 63.6937 129.451V129.435C63.6937 127.534 64.5238 126.421 65.9349 126.421C67.0638 126.421 67.7362 127.052 67.9271 127.932L67.9354 127.957H69.8861V127.924C69.6537 126.048 68.2592 124.753 65.9266 124.753C63.1957 124.753 61.5936 126.504 61.5936 129.435V129.451C61.5936 132.415 63.204 134.183 65.9349 134.183ZM75.6768 134.183C77.9761 134.183 79.3125 132.946 79.6113 131.086L79.6279 131.02L77.6772 131.028L77.6606 131.062C77.4033 132.016 76.7476 132.506 75.6768 132.506C74.2739 132.506 73.4355 131.377 73.4355 129.451V129.435C73.4355 127.534 74.2656 126.421 75.6768 126.421C76.8057 126.421 77.478 127.052 77.6689 127.932L77.6772 127.957H79.6279V127.924C79.3955 126.048 78.001 124.753 75.6685 124.753C72.9375 124.753 71.3354 126.504 71.3354 129.435V129.451C71.3354 132.415 72.9458 134.183 75.6768 134.183ZM85.4103 134.183C87.8756 134.183 89.0875 132.763 89.3781 131.593L89.403 131.518H87.4357L87.4108 131.576C87.2115 131.991 86.5724 132.556 85.4518 132.556C84.049 132.556 83.1691 131.609 83.1442 129.982H89.486V129.302C89.486 126.562 87.8922 124.753 85.3107 124.753C82.7291 124.753 81.0773 126.621 81.0773 129.476V129.484C81.0773 132.373 82.7125 134.183 85.4103 134.183ZM85.3356 126.372C86.4894 126.372 87.3278 127.11 87.4689 128.596H83.1608C83.3185 127.152 84.1818 126.372 85.3356 126.372ZM94.9114 134.183C97.1443 134.183 98.7629 133.029 98.7629 131.302V131.286C98.7629 129.966 97.9246 129.21 96.1482 128.812L94.679 128.488C93.6995 128.264 93.3176 127.94 93.3176 127.409V127.401C93.3176 126.72 93.9817 126.272 94.9031 126.272C95.8743 126.272 96.4719 126.737 96.6213 127.31L96.6296 127.334H98.572V127.318C98.4392 125.849 97.1194 124.753 94.9114 124.753C92.7698 124.753 91.2756 125.882 91.2756 127.517V127.525C91.2756 128.862 92.0974 129.675 93.824 130.057L95.2932 130.389C96.2893 130.613 96.6877 130.962 96.6877 131.493V131.51C96.6877 132.19 95.9739 132.655 94.9446 132.655C93.9153 132.655 93.3093 132.215 93.0935 131.584L93.0852 131.568H91.0349V131.584C91.2092 133.12 92.6038 134.183 94.9114 134.183ZM104.039 134.183C106.272 134.183 107.891 133.029 107.891 131.302V131.286C107.891 129.966 107.052 129.21 105.276 128.812L103.807 128.488C102.827 128.264 102.445 127.94 102.445 127.409V127.401C102.445 126.72 103.109 126.272 104.031 126.272C105.002 126.272 105.599 126.737 105.749 127.31L105.757 127.334H107.7V127.318C107.567 125.849 106.247 124.753 104.039 124.753C101.897 124.753 100.403 125.882 100.403 127.517V127.525C100.403 128.862 101.225 129.675 102.952 130.057L104.421 130.389C105.417 130.613 105.815 130.962 105.815 131.493V131.51C105.815 132.19 105.101 132.655 104.072 132.655C103.043 132.655 102.437 132.215 102.221 131.584L102.213 131.568H100.162V131.584C100.337 133.12 101.731 134.183 104.039 134.183Z" fill="white"/>
</svg>
