<svg width="266" height="317" viewBox="0 0 266 317" fill="none" xmlns="http://www.w3.org/2000/svg">
<g filter="url(#filter0_d_91953_7186)">
<path fill-rule="evenodd" clip-rule="evenodd" d="M78 303.222C78 304.879 79.3431 306.222 81 306.222L251 306.222C252.657 306.222 254 304.879 254 303.222L254 220.222C254 218.565 252.657 217.222 251 217.222L81 217.222C79.3431 217.222 78 218.565 78 220.222L78 303.222ZM121 229.999C119.895 229.999 119 230.894 119 231.999L119 294.999C119 296.104 119.895 296.999 121 296.999L212 296.999C213.105 296.999 214 296.104 214 294.999L214 231.999C214 230.894 213.105 229.999 212 229.999L121 229.999Z" fill="white"/>
<path d="M73 222.722L73 300.5C73 301.776 73.241 303.04 73.7093 304.22C74.1775 305.4 74.8639 306.471 75.7291 307.374C77.4765 309.197 79.8465 310.222 82.3177 310.222L250.037 310.222C252.508 310.222 254.878 309.197 256.626 307.374C257.491 306.471 258.177 305.4 258.646 304.22C259.114 303.04 259.355 301.776 259.355 300.5L259.355 222.722C259.355 220.144 258.373 217.671 256.626 215.848C254.878 214.024 252.508 213 250.037 213L82.3177 213C81.0941 213 79.8825 213.251 78.752 213.74C77.6215 214.229 76.5943 214.945 75.7291 215.848C74.8639 216.75 74.1775 217.822 73.7093 219.002C73.241 220.181 73 221.445 73 222.722ZM250.831 217.292C253.335 217.292 255.367 219.347 255.367 221.882L255.367 301.339C255.367 303.875 253.335 305.93 250.831 305.93L81.5242 305.93C79.0196 305.93 76.9883 303.875 76.9883 301.339L76.9883 270.75L78.8863 270.75C80.4116 270.75 81.6472 269.506 81.6472 267.973L81.6472 255.151C81.6472 253.618 80.4116 252.375 78.8863 252.375L76.9883 252.375L76.9883 221.882C76.9883 219.347 79.0196 217.292 81.5242 217.292L250.831 217.292Z" fill="#B3B3B3" stroke="#B3B3B3" stroke-width="2.76656" stroke-linecap="round" stroke-linejoin="round"/>
</g>
<rect x="120" y="230.999" width="93" height="65" rx="1" stroke="#B3B3B3" stroke-width="2"/>
<path fill-rule="evenodd" clip-rule="evenodd" d="M158 254.999L160 251.999H171.5L174 254.999H179C180.657 254.999 182 256.342 182 257.999V269.999C182 271.656 180.657 272.999 179 272.999H153C151.343 272.999 150 271.656 150 269.999V257.999C150 256.342 151.343 254.999 153 254.999H158ZM166 267.499C167.933 267.499 169.5 265.932 169.5 263.999C169.5 262.066 167.933 260.499 166 260.499C164.067 260.499 162.5 262.066 162.5 263.999C162.5 265.932 164.067 267.499 166 267.499ZM166 269.999C169.314 269.999 172 267.313 172 263.999C172 260.685 169.314 257.999 166 257.999C162.686 257.999 160 260.685 160 263.999C160 267.313 162.686 269.999 166 269.999Z" fill="#666666"/>
<g filter="url(#filter1_d_91953_7186)">
<path d="M3 16.6166L3 124.006L167 124.006L167 16.6487C167 8.99252 160.995 3.01855 154.028 3.01855L16.0523 3.01855C8.76562 2.68446 2.99999 8.99253 3 16.6487" fill="#253D65"/>
</g>
<path d="M152.376 64.4699C152.376 62.2522 150.589 60.4544 148.386 60.4544C146.182 60.4544 144.396 62.2522 144.396 64.4699C144.396 66.6876 146.182 68.4854 148.386 68.4854C150.589 68.4854 152.376 66.6876 152.376 64.4699Z" fill="#B59D57"/>
<path d="M139.076 80.5771L147.056 80.5771L147.056 71.0792C145.553 70.771 144.203 69.9499 143.234 68.7549C142.264 67.5599 141.734 66.0645 141.734 64.5216C141.734 62.9788 142.264 61.4833 143.234 60.2884C144.203 59.0934 145.553 58.2723 147.056 57.9641L147.056 48.4618L139.076 48.4618L139.076 80.5771Z" fill="#B59D57"/>
<path d="M157.695 48.4618L149.715 48.4618L149.715 57.9641C151.217 58.2723 152.568 59.0934 153.537 60.2884C154.507 61.4833 155.037 62.9788 155.037 64.5216C155.037 66.0645 154.507 67.5599 153.537 68.7549C152.568 69.9499 151.217 70.771 149.715 71.0792L149.715 80.5771L157.695 80.5771L157.695 48.4618Z" fill="#B59D57"/>
<path d="M84.9152 64.6023L84.9152 64.6025C84.9162 82.2991 70.6667 96.6247 53.1079 96.6236L53.1075 96.6236C35.5479 96.6267 21.2982 82.2992 21.2982 64.6014C21.2982 46.9058 35.5478 32.5792 53.1066 32.5802L53.1068 32.5802C70.6667 32.5792 84.9172 46.9069 84.9152 64.6023Z" stroke="#F3D94E" stroke-width="3.0828" stroke-miterlimit="10"/>
<path d="M19.8789 64.6025L86.3364 64.6025" stroke="#F3D94E" stroke-width="3.0828" stroke-miterlimit="10"/>
<path d="M53.1064 31.1614L53.1064 98.0449" stroke="#F3D94E" stroke-width="3.0828" stroke-miterlimit="10"/>
<mask id="path-12-inside-1_91953_7186" fill="white">
<path d="M19.9536 66.2257C19.9536 66.2257 22.6461 82.6523 53.1081 82.6523C83.5701 82.6523 86.2149 66.2257 86.2149 66.2257"/>
</mask>
<path d="M19.9536 66.2257C16.9114 66.7243 16.9119 66.7271 16.9123 66.7299C16.9125 66.7309 16.913 66.7338 16.9133 66.7358C16.914 66.7399 16.9147 66.7443 16.9155 66.7489C16.9171 66.7581 16.9189 66.7684 16.9209 66.7797C16.9249 66.8022 16.9299 66.8288 16.9358 66.8594C16.9476 66.9205 16.9635 66.9973 16.9841 67.0889C17.0255 67.272 17.0862 67.5144 17.1731 67.8075C17.3467 68.3933 17.6254 69.1843 18.0635 70.1104C18.9419 71.9676 20.4565 74.358 23.0247 76.7117C28.208 81.4621 37.3091 85.7351 53.1081 85.7351L53.1081 79.5695C38.4451 79.5695 30.969 75.6292 27.1905 72.1663C25.2779 70.4134 24.2155 68.6971 23.6371 67.4742C23.3467 66.8604 23.1771 66.368 23.0845 66.0555C23.0383 65.8994 23.0114 65.7889 22.9984 65.7314C22.9919 65.7026 22.9889 65.6873 22.9887 65.6862C22.9886 65.6857 22.9892 65.6887 22.9904 65.6955C22.991 65.6989 22.9918 65.7032 22.9927 65.7084C22.9932 65.711 22.9936 65.7139 22.9942 65.717C22.9944 65.7186 22.9948 65.7211 22.995 65.7218C22.9954 65.7244 22.9958 65.727 19.9536 66.2257ZM53.1081 85.7351C68.9067 85.7351 77.998 81.4623 83.1707 76.7089C85.7335 74.3538 87.2421 71.9621 88.1156 70.1038C88.5513 69.1771 88.8278 68.3857 88.9999 67.7996C89.0859 67.5064 89.146 67.2639 89.1868 67.0806C89.2072 66.989 89.2229 66.912 89.2345 66.8509C89.2404 66.8203 89.2452 66.7937 89.2492 66.7711C89.2512 66.7598 89.2529 66.7496 89.2545 66.7403C89.2553 66.7357 89.256 66.7313 89.2567 66.7272C89.257 66.7252 89.2575 66.7223 89.2576 66.7213C89.2581 66.7185 89.2585 66.7157 86.2149 66.2257C83.1713 65.7356 83.1718 65.733 83.1722 65.7304C83.1723 65.7296 83.1727 65.7271 83.173 65.7256C83.1735 65.7225 83.174 65.7196 83.1744 65.717C83.1753 65.7117 83.176 65.7074 83.1766 65.704C83.1778 65.6972 83.1784 65.6942 83.1783 65.6947C83.1781 65.6957 83.1752 65.711 83.1688 65.7397C83.156 65.7971 83.1295 65.9075 83.0838 66.0634C82.9921 66.3756 82.8241 66.8675 82.5358 67.4808C81.9615 68.7026 80.905 70.4175 78.9989 72.1691C75.2336 75.6291 67.7715 79.5695 53.1081 79.5695L53.1081 85.7351Z" fill="#F3D94E" mask="url(#path-12-inside-1_91953_7186)"/>
<mask id="path-14-inside-2_91953_7186" fill="white">
<path d="M19.9536 63.0684C19.9536 63.0684 22.646 47.3436 53.108 47.3436C83.57 47.3436 86.261 63.0684 86.261 63.0684"/>
</mask>
<path d="M19.9536 63.0684C22.9922 63.5886 22.9917 63.5914 22.9913 63.594C22.9911 63.5949 22.9907 63.5975 22.9904 63.5991C22.9898 63.6024 22.9893 63.6054 22.9888 63.6082C22.9878 63.6139 22.9869 63.6186 22.9862 63.6224C22.9847 63.6301 22.9839 63.6343 22.9838 63.635C22.9835 63.6364 22.9859 63.6242 22.9918 63.5993C23.0036 63.5493 23.029 63.4486 23.0737 63.3044C23.1631 63.0158 23.3286 62.5548 23.6141 61.977C24.1822 60.8273 25.2338 59.1963 27.1407 57.5234C30.917 54.2102 38.4116 50.4264 53.108 50.4264L53.108 44.2608C37.3425 44.2608 28.2598 48.3394 23.0745 52.8886C20.5005 55.1468 18.9752 57.4471 18.0864 59.2458C17.6435 60.1422 17.3608 60.9097 17.1839 61.481C17.0954 61.7667 17.0333 62.0039 16.9908 62.1843C16.9695 62.2745 16.9531 62.3505 16.9408 62.4115C16.9346 62.442 16.9294 62.4687 16.9252 62.4915C16.9231 62.5029 16.9212 62.5133 16.9195 62.5228C16.9186 62.5275 16.9178 62.5319 16.9171 62.5362C16.9167 62.5383 16.9162 62.5413 16.916 62.5423C16.9155 62.5452 16.915 62.5481 19.9536 63.0684ZM53.108 50.4264C67.8045 50.4264 75.2986 54.2102 79.0746 57.5233C80.9813 59.1962 82.0327 60.8271 82.6006 61.9768C82.8861 62.5546 83.0516 63.0155 83.1409 63.3042C83.1855 63.4484 83.211 63.549 83.2228 63.599C83.2287 63.624 83.2311 63.6362 83.2308 63.6347C83.2307 63.634 83.2298 63.6299 83.2284 63.6222C83.2277 63.6183 83.2268 63.6136 83.2258 63.608C83.2253 63.6052 83.2248 63.6021 83.2242 63.5988C83.2239 63.5972 83.2235 63.5946 83.2233 63.5938C83.2229 63.5911 83.2224 63.5884 86.261 63.0684C89.2996 62.5484 89.2991 62.5455 89.2986 62.5426C89.2985 62.5415 89.2979 62.5385 89.2976 62.5364C89.2968 62.5322 89.296 62.5277 89.2952 62.523C89.2935 62.5136 89.2916 62.5031 89.2895 62.4917C89.2852 62.4689 89.2801 62.4422 89.2739 62.4118C89.2616 62.3508 89.2452 62.2747 89.2239 62.1845C89.1814 62.0041 89.1193 61.767 89.0309 61.4812C88.854 60.9099 88.5713 60.1424 88.1285 59.246C87.2399 57.4472 85.7148 55.147 83.1409 52.8887C77.9559 48.3394 68.8736 44.2608 53.108 44.2608L53.108 50.4264Z" fill="#F3D94E" mask="url(#path-14-inside-2_91953_7186)"/>
<mask id="path-16-inside-3_91953_7186" fill="white">
<path d="M31.6699 90.4922C31.6699 90.4922 42.3889 85.0984 42.3889 64.6018C42.3889 44.1052 31.6699 38.7114 31.6699 38.7114"/>
</mask>
<path d="M31.6699 90.4922C33.0556 93.246 33.0577 93.2449 33.0599 93.2439C33.0606 93.2435 33.0628 93.2424 33.0644 93.2416C33.0674 93.24 33.0707 93.2384 33.0741 93.2366C33.0809 93.2332 33.0883 93.2293 33.0965 93.2251C33.1127 93.2167 33.1315 93.2068 33.1529 93.1954C33.1956 93.1726 33.2485 93.1437 33.3107 93.1084C33.4352 93.0378 33.5974 92.9416 33.7919 92.8172C34.1808 92.5684 34.6991 92.2064 35.3022 91.7107C36.5097 90.7183 38.0533 89.1927 39.5724 86.9758C42.6325 82.5103 45.4717 75.4193 45.4717 64.6018L39.3061 64.6018C39.3061 74.2809 36.7858 80.1351 34.4864 83.4906C33.3258 85.1842 32.1896 86.2882 31.3873 86.9475C30.9855 87.2778 30.6664 87.4973 30.4691 87.6236C30.3705 87.6867 30.3024 87.7264 30.2699 87.7448C30.2536 87.754 30.2463 87.7579 30.2484 87.7568C30.2495 87.7562 30.253 87.7544 30.2589 87.7513C30.2619 87.7497 30.2655 87.7479 30.2697 87.7457C30.2718 87.7447 30.274 87.7435 30.2765 87.7423C30.2777 87.7417 30.2796 87.7407 30.2802 87.7404C30.2822 87.7394 30.2842 87.7384 31.6699 90.4922ZM45.4717 64.6018C45.4717 53.7843 42.6325 46.6933 39.5724 42.2278C38.0533 40.0109 36.5097 38.4853 35.3022 37.4928C34.6991 36.9972 34.1808 36.6352 33.7919 36.3864C33.5974 36.262 33.4352 36.1658 33.3107 36.0952C33.2485 36.0599 33.1956 36.031 33.1529 36.0082C33.1315 35.9968 33.1127 35.9869 33.0965 35.9785C33.0883 35.9743 33.0809 35.9704 33.0741 35.9669C33.0707 35.9652 33.0674 35.9636 33.0644 35.962C33.0628 35.9612 33.0606 35.9601 33.0599 35.9597C33.0577 35.9587 33.0556 35.9576 31.6699 38.7114C30.2842 41.4652 30.2822 41.4642 30.2802 41.4632C30.2796 41.4629 30.2777 41.4619 30.2765 41.4613C30.274 41.4601 30.2718 41.4589 30.2697 41.4579C30.2655 41.4557 30.2619 41.4539 30.2589 41.4523C30.253 41.4492 30.2495 41.4474 30.2484 41.4468C30.2463 41.4457 30.2536 41.4496 30.2699 41.4588C30.3024 41.4772 30.3705 41.5169 30.4691 41.58C30.6664 41.7063 30.9855 41.9258 31.3873 42.2561C32.1896 42.9154 33.3258 44.0194 34.4864 45.713C36.7858 49.0685 39.3061 54.9227 39.3061 64.6018L45.4717 64.6018Z" fill="#F3D94E" mask="url(#path-16-inside-3_91953_7186)"/>
<mask id="path-18-inside-4_91953_7186" fill="white">
<path d="M74.5461 90.4922C74.5461 90.4922 63.8271 85.0984 63.8271 64.6018C63.8271 44.1052 74.5461 38.7114 74.5461 38.7114"/>
</mask>
<path d="M74.5461 90.4922C75.9318 87.7384 75.9338 87.7394 75.9358 87.7404C75.9364 87.7407 75.9383 87.7417 75.9396 87.7423C75.942 87.7435 75.9442 87.7447 75.9463 87.7457C75.9505 87.7479 75.9541 87.7497 75.9571 87.7513C75.963 87.7544 75.9665 87.7562 75.9676 87.7568C75.9698 87.7579 75.9624 87.754 75.9461 87.7448C75.9136 87.7264 75.8456 87.6867 75.7469 87.6236C75.5496 87.4973 75.2305 87.2778 74.8287 86.9475C74.0264 86.2881 72.8902 85.1842 71.7296 83.4906C69.4302 80.1351 66.9099 74.2809 66.9099 64.6018L60.7443 64.6018C60.7444 75.4193 63.5835 82.5103 66.6436 86.9758C68.1627 89.1927 69.7063 90.7183 70.9138 91.7107C71.5169 92.2064 72.0353 92.5684 72.4241 92.8172C72.6186 92.9416 72.7808 93.0378 72.9053 93.1084C72.9675 93.1437 73.0204 93.1726 73.0631 93.1954C73.0845 93.2068 73.1033 93.2167 73.1196 93.2251C73.1277 93.2293 73.1352 93.2332 73.142 93.2366C73.1454 93.2384 73.1486 93.24 73.1517 93.2416C73.1532 93.2424 73.1554 93.2435 73.1561 93.2439C73.1583 93.2449 73.1604 93.246 74.5461 90.4922ZM66.9099 64.6018C66.9099 54.9227 69.4302 49.0685 71.7296 45.713C72.8902 44.0194 74.0264 42.9154 74.8287 42.2561C75.2305 41.9258 75.5496 41.7063 75.7469 41.58C75.8456 41.5169 75.9136 41.4772 75.9461 41.4588C75.9624 41.4496 75.9698 41.4457 75.9676 41.4468C75.9665 41.4474 75.963 41.4492 75.9571 41.4523C75.9541 41.4539 75.9505 41.4557 75.9463 41.4579C75.9442 41.4589 75.942 41.4601 75.9396 41.4613C75.9383 41.4619 75.9364 41.4629 75.9358 41.4632C75.9338 41.4642 75.9318 41.4652 74.5461 38.7114C73.1604 35.9576 73.1583 35.9587 73.1561 35.9597C73.1554 35.9601 73.1532 35.9612 73.1517 35.962C73.1486 35.9636 73.1454 35.9652 73.142 35.9669C73.1351 35.9704 73.1277 35.9743 73.1196 35.9785C73.1033 35.9869 73.0845 35.9968 73.0631 36.0082C73.0204 36.031 72.9675 36.0599 72.9053 36.0952C72.7808 36.1658 72.6186 36.262 72.4241 36.3864C72.0353 36.6352 71.5169 36.9972 70.9138 37.4928C69.7063 38.4853 68.1627 40.0109 66.6436 42.2278C63.5835 46.6933 60.7443 53.7843 60.7443 64.6018L66.9099 64.6018Z" fill="#F3D94E" mask="url(#path-18-inside-4_91953_7186)"/>
<defs>
<filter id="filter0_d_91953_7186" x="68.6167" y="208.617" width="197.122" height="107.987" filterUnits="userSpaceOnUse" color-interpolation-filters="sRGB">
<feFlood flood-opacity="0" result="BackgroundImageFix"/>
<feColorMatrix in="SourceAlpha" type="matrix" values="0 0 0 0 0 0 0 0 0 0 0 0 0 0 0 0 0 0 127 0" result="hardAlpha"/>
<feOffset dx="1" dy="1"/>
<feGaussianBlur stdDeviation="2"/>
<feComposite in2="hardAlpha" operator="out"/>
<feColorMatrix type="matrix" values="0 0 0 0 0 0 0 0 0 0 0 0 0 0 0 0 0 0 1 0"/>
<feBlend mode="normal" in2="BackgroundImageFix" result="effect1_dropShadow_91953_7186"/>
<feBlend mode="normal" in="SourceGraphic" in2="effect1_dropShadow_91953_7186" result="shape"/>
</filter>
<filter id="filter1_d_91953_7186" x="0" y="0.00585938" width="172" height="129" filterUnits="userSpaceOnUse" color-interpolation-filters="sRGB">
<feFlood flood-opacity="0" result="BackgroundImageFix"/>
<feColorMatrix in="SourceAlpha" type="matrix" values="0 0 0 0 0 0 0 0 0 0 0 0 0 0 0 0 0 0 127 0" result="hardAlpha"/>
<feOffset dx="1" dy="1"/>
<feGaussianBlur stdDeviation="2"/>
<feComposite in2="hardAlpha" operator="out"/>
<feColorMatrix type="matrix" values="0 0 0 0 0 0 0 0 0 0 0 0 0 0 0 0 0 0 0.9 0"/>
<feBlend mode="normal" in2="BackgroundImageFix" result="effect1_dropShadow_91953_7186"/>
<feBlend mode="normal" in="SourceGraphic" in2="effect1_dropShadow_91953_7186" result="shape"/>
</filter>
</defs>
</svg>
