<svg width="198" height="364" viewBox="0 0 198 364" fill="none" xmlns="http://www.w3.org/2000/svg">
<g filter="url(#filter0_d_91953_7187)">
<mask id="path-1-inside-1_91953_7187" fill="white">
<path d="M16 16.6108L16 124.046L180 124.046L180 16.6429C180 8.98341 173.995 3.00687 167.028 3.00688L29.0523 3.00688C21.7656 2.67265 16 8.98341 16 16.6429"/>
</mask>
<path d="M16 16.6108L16 124.046L180 124.046L180 16.6429C180 8.98341 173.995 3.00687 167.028 3.00688L29.0523 3.00688C21.7656 2.67265 16 8.98341 16 16.6429" fill="#EEF3FB"/>
<path d="M16 124.046L12.925 124.046L12.925 127.121L16 127.121L16 124.046ZM180 124.046L180 127.121L183.075 127.121L183.075 124.046L180 124.046ZM29.0523 3.00688L28.9114 6.07865L28.9819 6.08188L29.0523 6.08188L29.0523 3.00688ZM12.925 16.6108L12.925 124.046L19.075 124.046L19.075 16.6108L12.925 16.6108ZM16 127.121L180 127.121L180 120.971L16 120.971L16 127.121ZM183.075 124.046L183.075 16.6429L176.925 16.6429L176.925 124.046L183.075 124.046ZM183.075 16.6429C183.075 7.38126 175.787 -0.0681222 167.028 -0.0681218L167.028 6.08187C172.202 6.08187 176.925 10.5855 176.925 16.6429L183.075 16.6429ZM167.028 -0.0681218L29.0523 -0.0681158L29.0523 6.08188L167.028 6.08187L167.028 -0.0681218ZM29.1932 -0.0648886C19.8541 -0.493263 12.925 7.5462 12.925 16.6429L19.075 16.6429C19.075 10.4206 23.6772 5.83856 28.9114 6.07865L29.1932 -0.0648886Z" fill="#253D65" mask="url(#path-1-inside-1_91953_7187)"/>
</g>
<g filter="url(#filter1_d_91953_7187)">
<mask id="path-3-inside-2_91953_7187" fill="white">
<path d="M180 133.769L180 124.057L16 124.057L16 133.766C16 134.459 22.0055 134.999 28.9724 134.999L166.948 134.999C174.234 135.029 180 134.459 180 133.766"/>
</mask>
<path d="M180 133.769L180 124.057L16 124.057L16 133.766C16 134.459 22.0055 134.999 28.9724 134.999L166.948 134.999C174.234 135.029 180 134.459 180 133.766" fill="#EEF3FB"/>
<path d="M180 124.057L183.075 124.057L183.075 120.982L180 120.982L180 124.057ZM16 124.057L16 120.982L12.925 120.982L12.925 124.057L16 124.057ZM166.948 134.999L166.96 131.924L166.948 131.924L166.948 134.999ZM183.075 133.769L183.075 124.057L176.925 124.057L176.925 133.769L183.075 133.769ZM180 120.982L16 120.982L16 127.132L180 127.132L180 120.982ZM12.925 124.057L12.925 133.766L19.075 133.766L19.075 124.057L12.925 124.057ZM12.925 133.766C12.925 135.008 13.61 135.81 13.9882 136.158C14.3732 136.512 14.7698 136.713 14.9964 136.816C15.4705 137.032 15.982 137.165 16.3856 137.254C17.2426 137.443 18.3587 137.589 19.5876 137.704C22.0805 137.937 25.4232 138.074 28.9724 138.074L28.9724 131.924C25.5547 131.924 22.4112 131.791 20.1597 131.58C19.0163 131.474 18.1955 131.355 17.7088 131.248C17.4405 131.189 17.4285 131.166 17.5469 131.22C17.5957 131.242 17.8565 131.36 18.1501 131.63C18.4369 131.894 19.075 132.611 19.075 133.766L12.925 133.766ZM28.9724 138.074L166.948 138.074L166.948 131.924L28.9724 131.924L28.9724 138.074ZM166.935 138.074C170.648 138.089 174.018 137.952 176.5 137.714C177.722 137.597 178.826 137.447 179.674 137.252C180.073 137.16 180.584 137.022 181.06 136.796C181.289 136.687 181.683 136.477 182.062 136.114C182.442 135.75 183.075 134.958 183.075 133.766L176.925 133.766C176.925 132.66 177.513 131.955 177.805 131.675C178.096 131.396 178.359 131.27 178.417 131.243C178.548 131.18 178.552 131.2 178.297 131.258C177.836 131.364 177.043 131.484 175.913 131.593C173.69 131.805 170.534 131.939 166.96 131.924L166.935 138.074Z" fill="#253D65" mask="url(#path-3-inside-2_91953_7187)"/>
</g>
<path d="M170.75 127.455L78.5 127.455" stroke="#253D65" stroke-width="3.10222" stroke-miterlimit="10" stroke-linecap="round"/>
<path d="M170.75 129.342L78.5 129.342" stroke="#253D65" stroke-width="3.10222" stroke-miterlimit="10" stroke-linecap="round"/>
<path d="M170.75 128.588L78.5 128.588" stroke="#253D65" stroke-width="3.10222" stroke-miterlimit="10" stroke-linecap="round"/>
<path d="M34.0915 125.185C34.0915 125.185 28.4971 125.185 28.4971 125.667L28.4971 129.543C28.4971 129.543 28.4971 130.026 34.0915 130.026L63.9026 130.026C63.9026 130.026 69.4971 130.026 69.4971 129.543L69.4971 125.667C69.4971 125.667 69.4971 125.185 63.9026 125.185L34.0915 125.185Z" fill="#EEF3FB" stroke="#253D65" stroke-width="3.10222" stroke-miterlimit="10" stroke-linecap="round"/>
<path d="M41.6547 128.51L33.2497 128.669C31.6671 126.933 37.9309 125.938 48.7375 125.938C60.3712 125.938 66.5653 126.933 64.6383 128.669L56.6187 128.539M58.8563 127.522C54.1761 127.522 44.126 127.411 39.8579 127.156C37.9309 128.262 42.9555 128.963 49.1506 128.963C55.3457 128.963 59.2694 128.374 58.8563 127.522Z" fill="#EEF3FB"/>
<path d="M41.6547 128.51L33.2497 128.669C31.6671 126.933 37.9309 125.938 48.7375 125.938C60.3712 125.938 66.5653 126.933 64.6383 128.669L56.6187 128.539M58.8563 127.522C54.1761 127.522 44.126 127.411 39.8579 127.156C37.9309 128.262 42.9555 128.963 49.1506 128.963C55.3457 128.963 59.2694 128.374 58.8563 127.522Z" stroke="#253D65" stroke-width="3.10222" stroke-miterlimit="10" stroke-linecap="round"/>
<path d="M50.4708 131.226L43.1641 131.535L50.5042 131.849" stroke="#253D65" stroke-width="1.77075" stroke-linecap="round" stroke-linejoin="round"/>
<path d="M81.9328 131.226L74.626 131.535L81.9661 131.849" stroke="#253D65" stroke-width="1.77075" stroke-linecap="round" stroke-linejoin="round"/>
<path d="M71.506 131.226L64.1992 131.535L71.5394 131.849" stroke="#253D65" stroke-width="1.77075" stroke-linecap="round" stroke-linejoin="round"/>
<path d="M60.9435 131.226L53.6367 131.535L60.9769 131.849" stroke="#253D65" stroke-width="1.77075" stroke-linecap="round" stroke-linejoin="round"/>
<path d="M102.923 131.226L95.6162 131.535L102.956 131.849" stroke="#253D65" stroke-width="1.77075" stroke-linecap="round" stroke-linejoin="round"/>
<path d="M123.736 131.226L116.43 131.535L123.77 131.849" stroke="#253D65" stroke-width="1.77075" stroke-linecap="round" stroke-linejoin="round"/>
<path d="M134.164 131.226L126.857 131.535L134.198 131.849" stroke="#253D65" stroke-width="1.77075" stroke-linecap="round" stroke-linejoin="round"/>
<path d="M92.4503 131.226L85.1436 131.535L92.4837 131.849" stroke="#253D65" stroke-width="1.77075" stroke-linecap="round" stroke-linejoin="round"/>
<path d="M113.485 131.226L106.179 131.535L113.519 131.849" stroke="#253D65" stroke-width="1.77075" stroke-linecap="round" stroke-linejoin="round"/>
<path d="M30.6543 132.187L30.6543 131.226C33.8674 131.229 37.6752 131.27 37.7922 131.469C37.7922 131.734 33.3456 131.756 30.6543 131.756" stroke="#253D65" stroke-width="1.77075" stroke-linecap="round"/>
<path d="M50.4708 132.358L43.1641 132.668L50.5042 132.982" stroke="#253D65" stroke-width="1.77075" stroke-linecap="round" stroke-linejoin="round"/>
<path d="M81.9328 132.358L74.626 132.668L81.9661 132.982" stroke="#253D65" stroke-width="1.77075" stroke-linecap="round" stroke-linejoin="round"/>
<path d="M71.506 132.358L64.1992 132.668L71.5394 132.982" stroke="#253D65" stroke-width="1.77075" stroke-linecap="round" stroke-linejoin="round"/>
<path d="M60.9435 132.358L53.6367 132.668L60.9769 132.982" stroke="#253D65" stroke-width="1.77075" stroke-linecap="round" stroke-linejoin="round"/>
<path d="M102.923 132.358L95.6162 132.668L102.956 132.982" stroke="#253D65" stroke-width="1.77075" stroke-linecap="round" stroke-linejoin="round"/>
<path d="M123.736 132.358L116.43 132.668L123.77 132.982" stroke="#253D65" stroke-width="1.77075" stroke-linecap="round" stroke-linejoin="round"/>
<path d="M134.164 132.358L126.857 132.668L134.198 132.982" stroke="#253D65" stroke-width="1.77075" stroke-linecap="round" stroke-linejoin="round"/>
<path d="M92.4503 132.358L85.1436 132.668L92.4837 132.982" stroke="#253D65" stroke-width="1.77075" stroke-linecap="round" stroke-linejoin="round"/>
<path d="M113.485 132.358L106.179 132.668L113.519 132.982" stroke="#253D65" stroke-width="1.77075" stroke-linecap="round" stroke-linejoin="round"/>
<path d="M38.0675 132.358L30.7607 132.668L38.1009 132.982" stroke="#253D65" stroke-width="1.77075" stroke-linecap="round" stroke-linejoin="round"/>
<path d="M155.329 131.226L148.022 131.535L155.363 131.849" stroke="#253D65" stroke-width="1.77075" stroke-linecap="round" stroke-linejoin="round"/>
<path d="M165.758 131.226L158.451 131.535L165.791 131.849" stroke="#253D65" stroke-width="1.77075" stroke-linecap="round" stroke-linejoin="round"/>
<path d="M145.079 131.226L137.772 131.535L145.113 131.849" stroke="#253D65" stroke-width="1.77075" stroke-linecap="round" stroke-linejoin="round"/>
<path d="M165.758 132.358L158.451 132.668L165.791 132.982" stroke="#253D65" stroke-width="1.77075" stroke-linecap="round" stroke-linejoin="round"/>
<path d="M144.799 132.358L137.492 132.668L144.832 132.982" stroke="#253D65" stroke-width="1.77075" stroke-linecap="round" stroke-linejoin="round"/>
<path d="M155.225 132.358L147.918 132.668L155.258 132.982" stroke="#253D65" stroke-width="1.77075" stroke-linecap="round" stroke-linejoin="round"/>
<g filter="url(#filter2_d_91953_7187)">
<path fill-rule="evenodd" clip-rule="evenodd" d="M10 350.222C10 351.879 11.3431 353.222 13 353.222L183 353.222C184.657 353.222 186 351.879 186 350.222L186 267.222C186 265.565 184.657 264.222 183 264.222L13 264.222C11.3431 264.222 10 265.565 10 267.222L10 350.222ZM53 276.999C51.8954 276.999 51 277.894 51 278.999L51 341.999C51 343.104 51.8954 343.999 53 343.999L144 343.999C145.105 343.999 146 343.104 146 341.999L146 278.999C146 277.894 145.105 276.999 144 276.999L53 276.999Z" fill="white"/>
<path d="M5 269.722L5 347.5C5 348.776 5.24101 350.04 5.70927 351.22C6.17753 352.4 6.86387 353.471 7.7291 354.374C9.47652 356.197 11.8465 357.222 14.3177 357.222L182.037 357.222C184.508 357.222 186.878 356.197 188.626 354.374C189.491 353.471 190.177 352.4 190.646 351.22C191.114 350.04 191.355 348.776 191.355 347.5L191.355 269.722C191.355 267.144 190.373 264.671 188.626 262.848C186.878 261.024 184.508 260 182.037 260L14.3177 260C13.0941 260 11.8825 260.251 10.752 260.74C9.62152 261.229 8.59434 261.945 7.7291 262.848C6.86387 263.75 6.17753 264.822 5.70927 266.002C5.24101 267.181 5 268.445 5 269.722ZM182.831 264.292C185.335 264.292 187.367 266.347 187.367 268.882L187.367 348.339C187.367 350.875 185.335 352.93 182.831 352.93L13.5242 352.93C11.0196 352.93 8.98831 350.875 8.98831 348.339L8.98831 317.75L10.8863 317.75C12.4116 317.75 13.6472 316.506 13.6472 314.973L13.6472 302.151C13.6472 300.618 12.4116 299.375 10.8863 299.375L8.98831 299.375L8.98831 268.882C8.98831 266.347 11.0196 264.292 13.5242 264.292L182.831 264.292Z" fill="#B3B3B3" stroke="#B3B3B3" stroke-width="2.76656" stroke-linecap="round" stroke-linejoin="round"/>
</g>
<rect x="52" y="277.999" width="93" height="65" rx="1" stroke="#B3B3B3" stroke-width="2"/>
<path fill-rule="evenodd" clip-rule="evenodd" d="M90 301.999L92 298.999H103.5L106 301.999H111C112.657 301.999 114 303.342 114 304.999V316.999C114 318.656 112.657 319.999 111 319.999H85C83.3431 319.999 82 318.656 82 316.999V304.999C82 303.342 83.3431 301.999 85 301.999H90ZM98 314.499C99.933 314.499 101.5 312.932 101.5 310.999C101.5 309.066 99.933 307.499 98 307.499C96.067 307.499 94.5 309.066 94.5 310.999C94.5 312.932 96.067 314.499 98 314.499ZM98 316.999C101.314 316.999 104 314.313 104 310.999C104 307.685 101.314 304.999 98 304.999C94.6863 304.999 92 307.685 92 310.999C92 314.313 94.6863 316.999 98 316.999Z" fill="#666666"/>
<defs>
<filter id="filter0_d_91953_7187" x="13" y="-0.00585938" width="172" height="129.052" filterUnits="userSpaceOnUse" color-interpolation-filters="sRGB">
<feFlood flood-opacity="0" result="BackgroundImageFix"/>
<feColorMatrix in="SourceAlpha" type="matrix" values="0 0 0 0 0 0 0 0 0 0 0 0 0 0 0 0 0 0 127 0" result="hardAlpha"/>
<feOffset dx="1" dy="1"/>
<feGaussianBlur stdDeviation="2"/>
<feComposite in2="hardAlpha" operator="out"/>
<feColorMatrix type="matrix" values="0 0 0 0 0 0 0 0 0 0 0 0 0 0 0 0 0 0 0.9 0"/>
<feBlend mode="normal" in2="BackgroundImageFix" result="effect1_dropShadow_91953_7187"/>
<feBlend mode="normal" in="SourceGraphic" in2="effect1_dropShadow_91953_7187" result="shape"/>
</filter>
<filter id="filter1_d_91953_7187" x="13" y="121.057" width="172" height="18.9434" filterUnits="userSpaceOnUse" color-interpolation-filters="sRGB">
<feFlood flood-opacity="0" result="BackgroundImageFix"/>
<feColorMatrix in="SourceAlpha" type="matrix" values="0 0 0 0 0 0 0 0 0 0 0 0 0 0 0 0 0 0 127 0" result="hardAlpha"/>
<feOffset dx="1" dy="1"/>
<feGaussianBlur stdDeviation="2"/>
<feComposite in2="hardAlpha" operator="out"/>
<feColorMatrix type="matrix" values="0 0 0 0 0 0 0 0 0 0 0 0 0 0 0 0 0 0 0.9 0"/>
<feBlend mode="normal" in2="BackgroundImageFix" result="effect1_dropShadow_91953_7187"/>
<feBlend mode="normal" in="SourceGraphic" in2="effect1_dropShadow_91953_7187" result="shape"/>
</filter>
<filter id="filter2_d_91953_7187" x="0.616699" y="255.617" width="197.122" height="107.987" filterUnits="userSpaceOnUse" color-interpolation-filters="sRGB">
<feFlood flood-opacity="0" result="BackgroundImageFix"/>
<feColorMatrix in="SourceAlpha" type="matrix" values="0 0 0 0 0 0 0 0 0 0 0 0 0 0 0 0 0 0 127 0" result="hardAlpha"/>
<feOffset dx="1" dy="1"/>
<feGaussianBlur stdDeviation="2"/>
<feComposite in2="hardAlpha" operator="out"/>
<feColorMatrix type="matrix" values="0 0 0 0 0 0 0 0 0 0 0 0 0 0 0 0 0 0 1 0"/>
<feBlend mode="normal" in2="BackgroundImageFix" result="effect1_dropShadow_91953_7187"/>
<feBlend mode="normal" in="SourceGraphic" in2="effect1_dropShadow_91953_7187" result="shape"/>
</filter>
</defs>
</svg>
