<svg width="198" height="247" viewBox="0 0 198 247" fill="none" xmlns="http://www.w3.org/2000/svg">
<g filter="url(#filter0_d_91953_7190)">
<mask id="path-1-inside-1_91953_7190" fill="white">
<path d="M16 16.6166L16 124.052L180 124.052L180 16.6487C180 8.98927 173.995 3.01273 167.028 3.01273L29.0523 3.01274C21.7656 2.6785 16 8.98927 16 16.6488"/>
</mask>
<path d="M16 16.6166L16 124.052L180 124.052L180 16.6487C180 8.98927 173.995 3.01273 167.028 3.01273L29.0523 3.01274C21.7656 2.6785 16 8.98927 16 16.6488" fill="#EEF3FB"/>
<path d="M16 124.052L12.925 124.052L12.925 127.127L16 127.127L16 124.052ZM180 124.052L180 127.127L183.075 127.127L183.075 124.052L180 124.052ZM29.0523 3.01274L28.9114 6.08451L28.9819 6.08774L29.0523 6.08774L29.0523 3.01274ZM12.925 16.6166L12.925 124.052L19.075 124.052L19.075 16.6166L12.925 16.6166ZM16 127.127L180 127.127L180 120.977L16 120.977L16 127.127ZM183.075 124.052L183.075 16.6487L176.925 16.6487L176.925 124.052L183.075 124.052ZM183.075 16.6487C183.075 7.38712 175.787 -0.0622628 167.028 -0.0622625L167.028 6.08773C172.202 6.08773 176.925 10.5914 176.925 16.6487L183.075 16.6487ZM167.028 -0.0622625L29.0523 -0.0622564L29.0523 6.08774L167.028 6.08773L167.028 -0.0622625ZM29.1932 -0.0590292C19.8541 -0.487404 12.925 7.55206 12.925 16.6488L19.075 16.6488C19.075 10.4265 23.6772 5.84442 28.9114 6.08451L29.1932 -0.0590292Z" fill="#253D65" mask="url(#path-1-inside-1_91953_7190)"/>
</g>
<g filter="url(#filter1_d_91953_7190)">
<mask id="path-3-inside-2_91953_7190" fill="white">
<path d="M180 227.856L180 124.062L16 124.062L16 227.825C16 235.225 22.0055 240.999 28.9724 240.999L166.948 240.999C174.234 241.321 180 235.225 180 227.825"/>
</mask>
<path d="M180 227.856L180 124.062L16 124.062L16 227.825C16 235.225 22.0055 240.999 28.9724 240.999L166.948 240.999C174.234 241.321 180 235.225 180 227.825" fill="#EEF3FB"/>
<path d="M180 124.062L183.075 124.063L183.075 120.988L180 120.988L180 124.062ZM16 124.062L16 120.987L12.925 120.987L12.925 124.062L16 124.062ZM166.948 240.999L167.084 237.927L167.016 237.924L166.948 237.924L166.948 240.999ZM183.075 227.856L183.075 124.063L176.925 124.062L176.925 227.856L183.075 227.856ZM180 120.988L16 120.987L16 127.137L180 127.137L180 120.988ZM12.925 124.062L12.925 227.825L19.075 227.825L19.075 124.062L12.925 124.062ZM12.925 227.825C12.925 236.927 20.3118 244.074 28.9724 244.074L28.9724 237.924C23.6991 237.924 19.075 233.522 19.075 227.825L12.925 227.825ZM28.9724 244.074L166.948 244.074L166.948 237.924L28.9724 237.924L28.9724 244.074ZM166.812 244.071C176.047 244.48 183.075 236.771 183.075 227.825L176.925 227.825C176.925 233.678 172.422 238.163 167.084 237.927L166.812 244.071Z" fill="#253D65" mask="url(#path-3-inside-2_91953_7190)"/>
</g>
<path d="M170.75 160.232L78.5 160.232" stroke="#253D65" stroke-width="3.10222" stroke-miterlimit="10" stroke-linecap="round"/>
<path d="M170.75 181.033L78.5 181.033" stroke="#253D65" stroke-width="3.10222" stroke-miterlimit="10" stroke-linecap="round"/>
<path d="M170.75 170.578L78.5 170.578" stroke="#253D65" stroke-width="3.10222" stroke-miterlimit="10" stroke-linecap="round"/>
<path d="M34.0915 135.764C34.0915 135.764 28.4971 135.764 28.4971 140.923L28.4971 182.344C28.4971 182.344 28.4971 187.505 34.0915 187.505L63.9026 187.505C63.9026 187.505 69.4971 187.505 69.4971 182.344L69.4971 140.923C69.4971 140.923 69.4971 135.764 63.9026 135.764L34.0915 135.764Z" fill="#EEF3FB" stroke="#253D65" stroke-width="3.10222" stroke-miterlimit="10" stroke-linecap="round"/>
<path d="M41.6552 172.957L33.2502 174.648C31.6676 156.103 37.9314 145.463 48.738 145.463C60.3717 145.463 66.5658 156.1 64.6388 174.648L56.6192 173.268M58.8568 162.401C54.1766 162.401 44.1265 161.212 39.8584 158.482C37.9314 170.309 42.956 177.797 49.1511 177.797C55.3462 177.797 59.2699 171.499 58.8568 162.401Z" fill="#EEF3FB"/>
<path d="M41.6552 172.957L33.2502 174.648C31.6676 156.103 37.9314 145.463 48.738 145.463C60.3717 145.463 66.5658 156.1 64.6388 174.648L56.6192 173.268M58.8568 162.401C54.1766 162.401 44.1265 161.212 39.8584 158.482C37.9314 170.309 42.956 177.797 49.1511 177.797C55.3462 177.797 59.2699 171.499 58.8568 162.401Z" stroke="#253D65" stroke-width="3.10222" stroke-miterlimit="10" stroke-linecap="round"/>
<path d="M50.4708 202.061L43.1641 205.37L50.5042 208.722" stroke="#253D65" stroke-width="1.77075" stroke-linecap="round" stroke-linejoin="round"/>
<path d="M81.9328 201.971L74.626 205.281L81.9661 208.632" stroke="#253D65" stroke-width="1.77075" stroke-linecap="round" stroke-linejoin="round"/>
<path d="M71.506 201.971L64.1992 205.281L71.5394 208.632" stroke="#253D65" stroke-width="1.77075" stroke-linecap="round" stroke-linejoin="round"/>
<path d="M60.9435 201.971L53.6367 205.281L60.9769 208.632" stroke="#253D65" stroke-width="1.77075" stroke-linecap="round" stroke-linejoin="round"/>
<path d="M102.923 202.061L95.6162 205.37L102.956 208.722" stroke="#253D65" stroke-width="1.77075" stroke-linecap="round" stroke-linejoin="round"/>
<path d="M123.736 201.971L116.43 205.281L123.77 208.632" stroke="#253D65" stroke-width="1.77075" stroke-linecap="round" stroke-linejoin="round"/>
<path d="M134.164 201.971L126.857 205.281L134.198 208.632" stroke="#253D65" stroke-width="1.77075" stroke-linecap="round" stroke-linejoin="round"/>
<path d="M92.4503 201.971L85.1436 205.281L92.4837 208.632" stroke="#253D65" stroke-width="1.77075" stroke-linecap="round" stroke-linejoin="round"/>
<path d="M113.485 201.971L106.179 205.281L113.519 208.632" stroke="#253D65" stroke-width="1.77075" stroke-linecap="round" stroke-linejoin="round"/>
<path d="M30.6543 210.717L30.6543 200.438C33.8674 200.478 37.6752 200.91 37.7922 203.037C37.7922 205.872 33.3456 206.109 30.6543 206.109" stroke="#253D65" stroke-width="1.77075" stroke-linecap="round"/>
<path d="M50.4708 213.404L43.1641 216.714L50.5042 220.066" stroke="#253D65" stroke-width="1.77075" stroke-linecap="round" stroke-linejoin="round"/>
<path d="M81.9328 213.313L74.626 216.622L81.9661 219.974" stroke="#253D65" stroke-width="1.77075" stroke-linecap="round" stroke-linejoin="round"/>
<path d="M71.506 213.313L64.1992 216.622L71.5394 219.974" stroke="#253D65" stroke-width="1.77075" stroke-linecap="round" stroke-linejoin="round"/>
<path d="M60.9435 213.313L53.6367 216.622L60.9769 219.974" stroke="#253D65" stroke-width="1.77075" stroke-linecap="round" stroke-linejoin="round"/>
<path d="M102.923 213.404L95.6162 216.714L102.956 220.066" stroke="#253D65" stroke-width="1.77075" stroke-linecap="round" stroke-linejoin="round"/>
<path d="M123.736 213.313L116.43 216.622L123.77 219.974" stroke="#253D65" stroke-width="1.77075" stroke-linecap="round" stroke-linejoin="round"/>
<path d="M134.164 213.313L126.857 216.622L134.198 219.974" stroke="#253D65" stroke-width="1.77075" stroke-linecap="round" stroke-linejoin="round"/>
<path d="M92.4503 213.313L85.1436 216.622L92.4837 219.974" stroke="#253D65" stroke-width="1.77075" stroke-linecap="round" stroke-linejoin="round"/>
<path d="M113.485 213.313L106.179 216.622L113.519 219.974" stroke="#253D65" stroke-width="1.77075" stroke-linecap="round" stroke-linejoin="round"/>
<path d="M38.0675 213.166L30.7607 216.476L38.1009 219.828" stroke="#253D65" stroke-width="1.77075" stroke-linecap="round" stroke-linejoin="round"/>
<path d="M155.329 201.971L148.022 205.281L155.363 208.632" stroke="#253D65" stroke-width="1.77075" stroke-linecap="round" stroke-linejoin="round"/>
<path d="M165.758 201.971L158.451 205.281L165.791 208.632" stroke="#253D65" stroke-width="1.77075" stroke-linecap="round" stroke-linejoin="round"/>
<path d="M145.079 201.971L137.772 205.281L145.112 208.632" stroke="#253D65" stroke-width="1.77075" stroke-linecap="round" stroke-linejoin="round"/>
<path d="M165.758 213.313L158.451 216.622L165.791 219.974" stroke="#253D65" stroke-width="1.77075" stroke-linecap="round" stroke-linejoin="round"/>
<path d="M144.799 213.313L137.492 216.622L144.832 219.974" stroke="#253D65" stroke-width="1.77075" stroke-linecap="round" stroke-linejoin="round"/>
<path d="M155.225 213.313L147.918 216.622L155.258 219.974" stroke="#253D65" stroke-width="1.77075" stroke-linecap="round" stroke-linejoin="round"/>
<g filter="url(#filter2_d_91953_7190)">
<path fill-rule="evenodd" clip-rule="evenodd" d="M10 222.222C10 223.879 11.3431 225.222 13 225.222L183 225.222C184.657 225.222 186 223.879 186 222.222L186 139.222C186 137.565 184.657 136.222 183 136.222L13 136.222C11.3431 136.222 10 137.565 10 139.222L10 222.222ZM53 148.999C51.8954 148.999 51 149.894 51 150.999L51 213.999C51 215.104 51.8954 215.999 53 215.999L144 215.999C145.105 215.999 146 215.104 146 213.999L146 150.999C146 149.894 145.105 148.999 144 148.999L53 148.999Z" fill="white"/>
<path d="M5 141.722L5 219.5C5 220.776 5.24101 222.04 5.70927 223.22C6.17753 224.4 6.86387 225.471 7.7291 226.374C9.47652 228.197 11.8465 229.222 14.3177 229.222L182.037 229.222C184.508 229.222 186.878 228.197 188.626 226.374C189.491 225.471 190.177 224.4 190.646 223.22C191.114 222.04 191.355 220.776 191.355 219.5L191.355 141.722C191.355 139.144 190.373 136.671 188.626 134.848C186.878 133.024 184.508 132 182.037 132L14.3177 132C13.0941 132 11.8825 132.251 10.752 132.74C9.62152 133.229 8.59434 133.945 7.7291 134.848C6.86387 135.75 6.17753 136.822 5.70927 138.002C5.24101 139.181 5 140.445 5 141.722ZM182.831 136.292C185.335 136.292 187.367 138.347 187.367 140.882L187.367 220.339C187.367 222.875 185.335 224.93 182.831 224.93L13.5242 224.93C11.0196 224.93 8.98831 222.875 8.98831 220.339L8.98831 189.75L10.8863 189.75C12.4116 189.75 13.6472 188.506 13.6472 186.973L13.6472 174.151C13.6472 172.618 12.4116 171.375 10.8863 171.375L8.98831 171.375L8.98831 140.882C8.98831 138.347 11.0196 136.292 13.5242 136.292L182.831 136.292Z" fill="#B3B3B3" stroke="#B3B3B3" stroke-width="2.76656" stroke-linecap="round" stroke-linejoin="round"/>
</g>
<rect x="52" y="149.999" width="93" height="65" rx="1" stroke="#666666" stroke-width="2"/>
<path d="M71.2814 194.996L66.7534 197.027L71.3021 199.085" stroke="#666666" stroke-width="1.28966" stroke-linecap="round" stroke-linejoin="round"/>
<path d="M90.777 194.939L86.249 196.971L90.7977 199.028" stroke="#666666" stroke-width="1.28966" stroke-linecap="round" stroke-linejoin="round"/>
<path d="M84.3161 194.939L79.7881 196.971L84.3367 199.028" stroke="#666666" stroke-width="1.28966" stroke-linecap="round" stroke-linejoin="round"/>
<path d="M77.7702 194.939L73.2422 196.971L77.7909 199.028" stroke="#666666" stroke-width="1.28966" stroke-linecap="round" stroke-linejoin="round"/>
<path d="M103.784 194.996L99.2563 197.027L103.805 199.085" stroke="#666666" stroke-width="1.28966" stroke-linecap="round" stroke-linejoin="round"/>
<path d="M116.682 194.939L112.154 196.971L116.703 199.028" stroke="#666666" stroke-width="1.28966" stroke-linecap="round" stroke-linejoin="round"/>
<path d="M123.144 194.939L118.616 196.971L123.164 199.028" stroke="#666666" stroke-width="1.28966" stroke-linecap="round" stroke-linejoin="round"/>
<path d="M97.2951 194.939L92.7671 196.971L97.3158 199.028" stroke="#666666" stroke-width="1.28966" stroke-linecap="round" stroke-linejoin="round"/>
<path d="M110.33 194.939L105.802 196.971L110.35 199.028" stroke="#666666" stroke-width="1.28966" stroke-linecap="round" stroke-linejoin="round"/>
<path d="M59 200.309V194C60.9912 194.025 63.3508 194.29 63.4233 195.595C63.4233 197.336 60.6678 197.481 59 197.481" stroke="#666666" stroke-width="1.28966" stroke-linecap="round"/>
<path d="M71.2814 201.957L66.7534 203.988L71.3021 206.046" stroke="#666666" stroke-width="1.28966" stroke-linecap="round" stroke-linejoin="round"/>
<path d="M90.777 201.901L86.249 203.933L90.7977 205.99" stroke="#666666" stroke-width="1.28966" stroke-linecap="round" stroke-linejoin="round"/>
<path d="M84.3161 201.901L79.7881 203.933L84.3367 205.99" stroke="#666666" stroke-width="1.28966" stroke-linecap="round" stroke-linejoin="round"/>
<path d="M77.7702 201.901L73.2422 203.933L77.7909 205.99" stroke="#666666" stroke-width="1.28966" stroke-linecap="round" stroke-linejoin="round"/>
<path d="M103.784 201.957L99.2563 203.988L103.805 206.046" stroke="#666666" stroke-width="1.28966" stroke-linecap="round" stroke-linejoin="round"/>
<path d="M116.682 201.901L112.154 203.933L116.703 205.99" stroke="#666666" stroke-width="1.28966" stroke-linecap="round" stroke-linejoin="round"/>
<path d="M123.144 201.901L118.616 203.933L123.164 205.99" stroke="#666666" stroke-width="1.28966" stroke-linecap="round" stroke-linejoin="round"/>
<path d="M97.2951 201.901L92.7671 203.933L97.3158 205.99" stroke="#666666" stroke-width="1.28966" stroke-linecap="round" stroke-linejoin="round"/>
<path d="M110.33 201.901L105.802 203.933L110.35 205.99" stroke="#666666" stroke-width="1.28966" stroke-linecap="round" stroke-linejoin="round"/>
<path d="M63.5944 201.812L59.0664 203.844L63.6151 205.901" stroke="#666666" stroke-width="1.28966" stroke-linecap="round" stroke-linejoin="round"/>
<path d="M136.261 194.939L131.733 196.971L136.282 199.028" stroke="#666666" stroke-width="1.28966" stroke-linecap="round" stroke-linejoin="round"/>
<path d="M142.723 194.939L138.195 196.971L142.743 199.028" stroke="#666666" stroke-width="1.28966" stroke-linecap="round" stroke-linejoin="round"/>
<path d="M129.909 194.939L125.381 196.971L129.93 199.028" stroke="#666666" stroke-width="1.28966" stroke-linecap="round" stroke-linejoin="round"/>
<path d="M142.723 201.901L138.195 203.933L142.743 205.99" stroke="#666666" stroke-width="1.28966" stroke-linecap="round" stroke-linejoin="round"/>
<path d="M129.735 201.901L125.207 203.933L129.756 205.99" stroke="#666666" stroke-width="1.28966" stroke-linecap="round" stroke-linejoin="round"/>
<path d="M136.196 201.901L131.668 203.933L136.217 205.99" stroke="#666666" stroke-width="1.28966" stroke-linecap="round" stroke-linejoin="round"/>
<defs>
<filter id="filter0_d_91953_7190" x="13" y="0" width="172" height="129.052" filterUnits="userSpaceOnUse" color-interpolation-filters="sRGB">
<feFlood flood-opacity="0" result="BackgroundImageFix"/>
<feColorMatrix in="SourceAlpha" type="matrix" values="0 0 0 0 0 0 0 0 0 0 0 0 0 0 0 0 0 0 127 0" result="hardAlpha"/>
<feOffset dx="1" dy="1"/>
<feGaussianBlur stdDeviation="2"/>
<feComposite in2="hardAlpha" operator="out"/>
<feColorMatrix type="matrix" values="0 0 0 0 0 0 0 0 0 0 0 0 0 0 0 0 0 0 0.9 0"/>
<feBlend mode="normal" in2="BackgroundImageFix" result="effect1_dropShadow_91953_7190"/>
<feBlend mode="normal" in="SourceGraphic" in2="effect1_dropShadow_91953_7190" result="shape"/>
</filter>
<filter id="filter1_d_91953_7190" x="13" y="121.062" width="172" height="124.948" filterUnits="userSpaceOnUse" color-interpolation-filters="sRGB">
<feFlood flood-opacity="0" result="BackgroundImageFix"/>
<feColorMatrix in="SourceAlpha" type="matrix" values="0 0 0 0 0 0 0 0 0 0 0 0 0 0 0 0 0 0 127 0" result="hardAlpha"/>
<feOffset dx="1" dy="1"/>
<feGaussianBlur stdDeviation="2"/>
<feComposite in2="hardAlpha" operator="out"/>
<feColorMatrix type="matrix" values="0 0 0 0 0 0 0 0 0 0 0 0 0 0 0 0 0 0 0.9 0"/>
<feBlend mode="normal" in2="BackgroundImageFix" result="effect1_dropShadow_91953_7190"/>
<feBlend mode="normal" in="SourceGraphic" in2="effect1_dropShadow_91953_7190" result="shape"/>
</filter>
<filter id="filter2_d_91953_7190" x="0.616699" y="127.617" width="197.122" height="107.987" filterUnits="userSpaceOnUse" color-interpolation-filters="sRGB">
<feFlood flood-opacity="0" result="BackgroundImageFix"/>
<feColorMatrix in="SourceAlpha" type="matrix" values="0 0 0 0 0 0 0 0 0 0 0 0 0 0 0 0 0 0 127 0" result="hardAlpha"/>
<feOffset dx="1" dy="1"/>
<feGaussianBlur stdDeviation="2"/>
<feComposite in2="hardAlpha" operator="out"/>
<feColorMatrix type="matrix" values="0 0 0 0 0 0 0 0 0 0 0 0 0 0 0 0 0 0 1 0"/>
<feBlend mode="normal" in2="BackgroundImageFix" result="effect1_dropShadow_91953_7190"/>
<feBlend mode="normal" in="SourceGraphic" in2="effect1_dropShadow_91953_7190" result="shape"/>
</filter>
</defs>
</svg>
