<svg width="377" height="816" viewBox="0 0 377 816" fill="none" xmlns="http://www.w3.org/2000/svg">
<rect width="377" height="816" fill="white"/>
<g filter="url(#filter0_d_62609_284129)">
<mask id="path-1-inside-1_62609_284129" fill="white">
<path d="M155.001 405.693L155.001 458.5L235.611 458.5L235.611 405.709C235.611 401.944 232.659 399.006 229.235 399.006L161.417 399.006C157.835 398.842 155.001 401.944 155.001 405.709"/>
</mask>
<path d="M155.001 405.693L155.001 458.5L235.611 458.5L235.611 405.709C235.611 401.944 232.659 399.006 229.235 399.006L161.417 399.006C157.835 398.842 155.001 401.944 155.001 405.709" fill="#EEF3FB"/>
<path d="M155.001 458.5L153.49 458.5L153.49 460.011L155.001 460.011L155.001 458.5ZM235.611 458.5L235.611 460.011L237.123 460.011L237.123 458.5L235.611 458.5ZM161.417 399.006L161.347 400.516L161.382 400.518L161.417 400.518L161.417 399.006ZM153.49 405.693L153.49 458.5L156.512 458.5L156.512 405.693L153.49 405.693ZM155.001 460.011L235.611 460.011L235.611 456.989L155.001 456.989L155.001 460.011ZM237.123 458.5L237.123 405.709L234.1 405.709L234.1 458.5L237.123 458.5ZM237.123 405.709C237.123 401.156 233.541 397.495 229.235 397.495L229.235 400.518C231.778 400.518 234.1 402.731 234.1 405.709L237.123 405.709ZM229.235 397.495L161.417 397.495L161.417 400.518L229.235 400.518L229.235 397.495ZM161.486 397.496C156.895 397.286 153.49 401.237 153.49 405.709L156.512 405.709C156.512 402.65 158.775 400.398 161.347 400.516L161.486 397.496Z" fill="#253D65" mask="url(#path-1-inside-1_62609_284129)"/>
</g>
<g filter="url(#filter1_d_62609_284129)">
<mask id="path-3-inside-2_62609_284129" fill="white">
<path d="M235.61 509.545L235.61 458.528L155 458.528L155 509.53C155 513.167 157.952 516.005 161.376 516.005L229.195 516.005C232.776 516.164 235.61 513.167 235.61 509.53"/>
</mask>
<path d="M235.61 509.545L235.61 458.528L155 458.528L155 509.53C155 513.167 157.952 516.005 161.376 516.005L229.195 516.005C232.776 516.164 235.61 513.167 235.61 509.53" fill="#EEF3FB"/>
<path d="M235.61 458.528L237.122 458.528L237.122 457.017L235.61 457.017L235.61 458.528ZM155 458.528L155 457.017L153.489 457.017L153.489 458.528L155 458.528ZM229.195 516.005L229.262 514.495L229.228 514.494L229.195 514.494L229.195 516.005ZM237.122 509.545L237.122 458.528L234.099 458.528L234.099 509.545L237.122 509.545ZM235.61 457.017L155 457.017L155 460.04L235.61 460.04L235.61 457.017ZM153.489 458.528L153.489 509.53L156.512 509.53L156.512 458.528L153.489 458.528ZM153.489 509.53C153.489 514.004 157.119 517.517 161.376 517.517L161.376 514.494C158.784 514.494 156.512 512.33 156.512 509.53L153.489 509.53ZM161.376 517.517L229.195 517.517L229.195 514.494L161.376 514.494L161.376 517.517ZM229.128 517.515C233.667 517.717 237.122 513.928 237.122 509.53L234.099 509.53C234.099 512.407 231.886 514.612 229.262 514.495L229.128 517.515Z" fill="#253D65" mask="url(#path-3-inside-2_62609_284129)"/>
</g>
<path d="M231.063 476.308L185.72 476.308" stroke="#253D65" stroke-width="1.52482" stroke-miterlimit="10" stroke-linecap="round"/>
<path d="M231.063 486.534L185.72 486.534" stroke="#253D65" stroke-width="1.52482" stroke-miterlimit="10" stroke-linecap="round"/>
<path d="M231.063 481.394L185.72 481.394" stroke="#253D65" stroke-width="1.52482" stroke-miterlimit="10" stroke-linecap="round"/>
<path d="M163.892 464.281C163.892 464.281 161.143 464.281 161.143 466.817L161.143 487.177C161.143 487.177 161.143 489.713 163.892 489.713L178.545 489.713C178.545 489.713 181.295 489.713 181.295 487.177L181.295 466.817C181.295 466.817 181.295 464.281 178.545 464.281L163.892 464.281Z" fill="#EEF3FB" stroke="#253D65" stroke-width="1.52482" stroke-miterlimit="10" stroke-linecap="round"/>
<path d="M167.61 482.562L163.479 483.393C162.701 474.278 165.78 469.048 171.091 469.048C176.81 469.048 179.854 474.276 178.907 483.393L174.965 482.715M176.065 477.373C173.765 477.373 168.825 476.789 166.727 475.447C165.78 481.26 168.249 484.941 171.294 484.941C174.339 484.941 176.268 481.845 176.065 477.373Z" fill="#EEF3FB"/>
<path d="M167.61 482.562L163.479 483.393C162.701 474.278 165.78 469.048 171.091 469.048C176.81 469.048 179.854 474.276 178.907 483.393L174.965 482.715M176.065 477.373C173.765 477.373 168.825 476.789 166.727 475.447C165.78 481.26 168.249 484.941 171.294 484.941C174.339 484.941 176.268 481.845 176.065 477.373Z" stroke="#253D65" stroke-width="1.52482" stroke-miterlimit="10" stroke-linecap="round"/>
<path d="M171.945 496.862L168.354 498.489L171.961 500.137" stroke="#253D65" stroke-width="0.870371" stroke-linecap="round" stroke-linejoin="round"/>
<path d="M187.41 496.818L183.818 498.445L187.426 500.093" stroke="#253D65" stroke-width="0.870371" stroke-linecap="round" stroke-linejoin="round"/>
<path d="M182.285 496.818L178.693 498.445L182.301 500.093" stroke="#253D65" stroke-width="0.870371" stroke-linecap="round" stroke-linejoin="round"/>
<path d="M177.092 496.818L173.501 498.445L177.109 500.093" stroke="#253D65" stroke-width="0.870371" stroke-linecap="round" stroke-linejoin="round"/>
<path d="M197.726 496.862L194.135 498.489L197.743 500.137" stroke="#253D65" stroke-width="0.870371" stroke-linecap="round" stroke-linejoin="round"/>
<path d="M207.957 496.818L204.365 498.445L207.973 500.093" stroke="#253D65" stroke-width="0.870371" stroke-linecap="round" stroke-linejoin="round"/>
<path d="M213.083 496.818L209.491 498.445L213.099 500.093" stroke="#253D65" stroke-width="0.870371" stroke-linecap="round" stroke-linejoin="round"/>
<path d="M192.579 496.818L188.987 498.445L192.595 500.093" stroke="#253D65" stroke-width="0.870371" stroke-linecap="round" stroke-linejoin="round"/>
<path d="M202.919 496.818L199.327 498.445L202.935 500.093" stroke="#253D65" stroke-width="0.870371" stroke-linecap="round" stroke-linejoin="round"/>
<path d="M162.204 501.116L162.204 496.063C163.783 496.083 165.655 496.296 165.713 497.341C165.713 498.735 163.527 498.851 162.204 498.851" stroke="#253D65" stroke-width="0.870371" stroke-linecap="round"/>
<path d="M171.945 502.438L168.354 504.065L171.961 505.713" stroke="#253D65" stroke-width="0.870371" stroke-linecap="round" stroke-linejoin="round"/>
<path d="M187.41 502.393L183.818 504.019L187.426 505.667" stroke="#253D65" stroke-width="0.870371" stroke-linecap="round" stroke-linejoin="round"/>
<path d="M182.285 502.393L178.693 504.019L182.301 505.667" stroke="#253D65" stroke-width="0.870371" stroke-linecap="round" stroke-linejoin="round"/>
<path d="M177.092 502.393L173.501 504.019L177.109 505.667" stroke="#253D65" stroke-width="0.870371" stroke-linecap="round" stroke-linejoin="round"/>
<path d="M197.726 502.438L194.135 504.065L197.743 505.713" stroke="#253D65" stroke-width="0.870371" stroke-linecap="round" stroke-linejoin="round"/>
<path d="M207.957 502.393L204.365 504.019L207.973 505.667" stroke="#253D65" stroke-width="0.870371" stroke-linecap="round" stroke-linejoin="round"/>
<path d="M213.083 502.393L209.491 504.019L213.099 505.667" stroke="#253D65" stroke-width="0.870371" stroke-linecap="round" stroke-linejoin="round"/>
<path d="M192.579 502.393L188.987 504.019L192.595 505.667" stroke="#253D65" stroke-width="0.870371" stroke-linecap="round" stroke-linejoin="round"/>
<path d="M202.919 502.393L199.327 504.019L202.935 505.667" stroke="#253D65" stroke-width="0.870371" stroke-linecap="round" stroke-linejoin="round"/>
<path d="M165.848 502.32L162.257 503.947L165.865 505.595" stroke="#253D65" stroke-width="0.870371" stroke-linecap="round" stroke-linejoin="round"/>
<path d="M223.486 496.818L219.895 498.445L223.502 500.093" stroke="#253D65" stroke-width="0.870371" stroke-linecap="round" stroke-linejoin="round"/>
<path d="M228.611 496.818L225.02 498.445L228.627 500.093" stroke="#253D65" stroke-width="0.870371" stroke-linecap="round" stroke-linejoin="round"/>
<path d="M218.447 496.818L214.855 498.445L218.463 500.093" stroke="#253D65" stroke-width="0.870371" stroke-linecap="round" stroke-linejoin="round"/>
<path d="M228.611 502.393L225.02 504.019L228.627 505.667" stroke="#253D65" stroke-width="0.870371" stroke-linecap="round" stroke-linejoin="round"/>
<path d="M218.309 502.393L214.718 504.019L218.326 505.667" stroke="#253D65" stroke-width="0.870371" stroke-linecap="round" stroke-linejoin="round"/>
<path d="M223.434 502.393L219.843 504.019L223.451 505.667" stroke="#253D65" stroke-width="0.870371" stroke-linecap="round" stroke-linejoin="round"/>
<rect x="16" y="724" width="343" height="50" rx="15" fill="#00703C"/>
<path d="M172.416 755.299C175.288 755.299 177.089 753.838 177.089 751.505V751.497C177.089 749.688 176.035 748.675 173.511 748.144L172.225 747.87C170.731 747.554 170.125 747.023 170.125 746.176V746.168C170.125 745.147 171.071 744.524 172.399 744.524C173.769 744.516 174.657 745.18 174.806 746.11L174.823 746.209H176.873L176.865 746.102C176.716 744.176 175.064 742.723 172.407 742.723C169.818 742.723 167.975 744.167 167.975 746.309V746.317C167.975 748.102 169.037 749.248 171.486 749.762L172.773 750.028C174.317 750.36 174.939 750.883 174.939 751.746V751.754C174.939 752.784 173.927 753.498 172.482 753.498C170.963 753.498 169.892 752.833 169.793 751.829L169.784 751.746H167.709L167.718 751.862C167.867 753.929 169.635 755.299 172.416 755.299ZM182.78 755.042C183.179 755.042 183.56 755.008 183.859 754.95V753.356C183.61 753.381 183.453 753.39 183.162 753.39C182.299 753.39 181.942 753.008 181.942 752.103V747.529H183.859V745.927H181.942V743.703H179.842V745.927H178.431V747.529H179.842V752.593C179.842 754.344 180.697 755.042 182.78 755.042ZM188.322 755.149C189.517 755.149 190.48 754.635 190.978 753.755H191.119V755H193.161V748.799C193.161 746.882 191.85 745.753 189.517 745.753C187.359 745.753 185.898 746.766 185.699 748.293L185.69 748.368H187.641L187.649 748.334C187.857 747.737 188.471 747.396 189.417 747.396C190.53 747.396 191.119 747.895 191.119 748.799V749.58L188.787 749.721C186.579 749.854 185.342 750.8 185.342 752.418V752.435C185.342 754.087 186.595 755.149 188.322 755.149ZM187.384 752.335V752.319C187.384 751.572 187.923 751.148 189.077 751.074L191.119 750.941V751.671C191.119 752.75 190.198 753.564 188.953 753.564C188.04 753.564 187.384 753.107 187.384 752.335ZM195.573 755H197.64V749.729C197.64 748.434 198.545 747.612 199.923 747.612C200.28 747.612 200.62 747.662 200.952 747.729V745.877C200.753 745.819 200.429 745.778 200.114 745.778C198.919 745.778 198.089 746.351 197.781 747.322H197.64V745.927H195.573V755ZM206.344 755.042C206.743 755.042 207.125 755.008 207.424 754.95V753.356C207.175 753.381 207.017 753.39 206.726 753.39C205.863 753.39 205.506 753.008 205.506 752.103V747.529H207.424V745.927H205.506V743.703H203.406V745.927H201.995V747.529H203.406V752.593C203.406 754.344 204.261 755.042 206.344 755.042Z" fill="white"/>
<g filter="url(#filter2_b_62609_284129)">
<rect width="375" height="91" fill="white"/>
<g clip-path="url(#clip0_62609_284129)">
<path d="M110.768 -2H265.184V13C265.184 22.3888 257.572 30 248.184 30H127.768C118.379 30 110.768 22.3888 110.768 13V-2Z" fill="black"/>
<path d="M111 -2H106C106 -2 106 -2 106 -2C108.651 -2 110.799 0.148747 110.799 2.79934C110.799 2.86656 110.798 2.93345 110.795 3H111V-2Z" fill="black"/>
<path d="M265 -2H270C270 -2 270 -2 270 -2C267.349 -2 265.201 0.148747 265.201 2.79934C265.201 2.86656 265.202 2.93345 265.205 3H265V-2Z" fill="black"/>
<path d="M39.8786 19.7231C42.4352 19.7231 44.6599 21.541 44.6599 25.8574V25.874C44.6599 29.9082 42.842 32.2988 39.8288 32.2988C37.6291 32.2988 35.9855 30.9956 35.6037 29.1611L35.5871 29.0698H37.6955L37.7204 29.1528C38.0358 29.9912 38.7746 30.5391 39.8288 30.5391C41.7297 30.5391 42.5349 28.6797 42.6262 26.3887C42.6262 26.2974 42.6345 26.2061 42.6345 26.1147H42.4684C42.0285 27.061 40.9826 27.8994 39.3391 27.8994C37.0397 27.8994 35.4294 26.2227 35.4294 23.9482V23.9316C35.4294 21.4995 37.2805 19.7231 39.8786 19.7231ZM39.8703 26.2559C41.2233 26.2559 42.2609 25.2764 42.2609 23.9233V23.9067C42.2609 22.5371 41.2233 21.4663 39.8952 21.4663C38.5754 21.4663 37.5212 22.5205 37.5212 23.8569V23.8735C37.5212 25.2598 38.509 26.2559 39.8703 26.2559ZM48.0204 24.2388C47.265 24.2388 46.7006 23.6577 46.7006 22.9272C46.7006 22.1885 47.265 21.6157 48.0204 21.6157C48.7841 21.6157 49.3402 22.1885 49.3402 22.9272C49.3402 23.6577 48.7841 24.2388 48.0204 24.2388ZM48.0204 30.3979C47.265 30.3979 46.7006 29.8252 46.7006 29.0864C46.7006 28.3477 47.265 27.7749 48.0204 27.7749C48.7841 27.7749 49.3402 28.3477 49.3402 29.0864C49.3402 29.8252 48.7841 30.3979 48.0204 30.3979ZM57.1915 32V29.7007H51.3312V27.9492C52.8834 25.2515 54.5851 22.4956 56.212 20.022H59.2418V27.9326H60.8522V29.7007H59.2418V32H57.1915ZM53.3233 27.9824H57.2247V21.7319H57.1002C55.8717 23.6079 54.4855 25.8242 53.3233 27.8579V27.9824ZM65.408 32V22.1304H65.2669L62.2869 24.2388V22.2217L65.4163 20.022H67.5496V32H65.408Z" fill="#010101"/>
<path opacity="0.35" d="M324.528 23C324.528 21.0822 326.082 19.5275 328 19.5275H345C346.918 19.5275 348.472 21.0822 348.472 23V28C348.472 29.9178 346.918 31.4725 345 31.4725H328C326.082 31.4725 324.528 29.9178 324.528 28V23Z" stroke="black" stroke-width="1.05509"/>
<path opacity="0.4" d="M350 24V28.2203C350.849 27.8629 351.401 27.0314 351.401 26.1102C351.401 25.1889 350.849 24.3574 350 24Z" fill="black"/>
<path d="M326 23C326 21.8954 326.895 21 328 21H345C346.105 21 347 21.8954 347 23V28C347 29.1046 346.105 30 345 30H328C326.895 30 326 29.1046 326 28V23Z" fill="black"/>
<path fill-rule="evenodd" clip-rule="evenodd" d="M308.5 22.5875C310.967 22.5876 313.339 23.5551 315.127 25.2898C315.261 25.4237 315.477 25.4221 315.609 25.286L316.896 23.9605C316.963 23.8915 317.001 23.798 317 23.7008C316.999 23.6035 316.961 23.5105 316.893 23.4423C312.201 18.8526 304.799 18.8526 300.107 23.4423C300.039 23.5105 300.001 23.6034 300 23.7007C299.999 23.7979 300.037 23.8914 300.104 23.9605L301.391 25.286C301.523 25.4223 301.739 25.424 301.873 25.2898C303.661 23.5549 306.034 22.5875 308.5 22.5875ZM308.536 26.6724C309.891 26.6723 311.198 27.1864 312.203 28.115C312.338 28.2467 312.552 28.2439 312.685 28.1085L313.97 26.7829C314.038 26.7134 314.075 26.6191 314.074 26.5211C314.073 26.4231 314.034 26.3295 313.965 26.2614C310.906 23.3568 306.169 23.3568 303.109 26.2614C303.04 26.3295 303.001 26.4231 303 26.5212C302.999 26.6192 303.037 26.7135 303.105 26.7829L304.39 28.1085C304.522 28.2439 304.736 28.2467 304.872 28.115C305.876 27.1871 307.182 26.6729 308.536 26.6724ZM311.15 29.3427C311.152 29.441 311.114 29.5357 311.045 29.6046L308.822 31.8948C308.756 31.9621 308.668 32 308.575 32C308.482 32 308.393 31.9621 308.328 31.8948L306.105 29.6046C306.036 29.5357 305.998 29.4409 306 29.3426C306.002 29.2443 306.044 29.1512 306.115 29.0853C307.535 27.8595 309.615 27.8595 311.035 29.0853C311.106 29.1513 311.148 29.2444 311.15 29.3427Z" fill="black"/>
<path d="M284 23C284 22.4477 284.448 22 285 22H286C286.552 22 287 22.4477 287 23V31C287 31.5523 286.552 32 286 32H285C284.448 32 284 31.5523 284 31V23Z" fill="black"/>
<path d="M289 21C289 20.4477 289.448 20 290 20H291C291.552 20 292 20.4477 292 21V31C292 31.5523 291.552 32 291 32H290C289.448 32 289 31.5523 289 31V21Z" fill="black"/>
<path d="M279 26.5C279 25.9477 279.448 25.5 280 25.5H281C281.552 25.5 282 25.9477 282 26.5V31C282 31.5523 281.552 32 281 32H280C279.448 32 279 31.5523 279 31V26.5Z" fill="black"/>
<path d="M274 29C274 28.4477 274.448 28 275 28H276C276.552 28 277 28.4477 277 29V31C277 31.5523 276.552 32 276 32H275C274.448 32 274 31.5523 274 31V29Z" fill="black"/>
</g>
<path d="M10.8013 69.8916C10.8125 69.5098 10.9473 69.1841 11.2505 68.8921L20.0103 60.3232C20.2461 60.0762 20.5605 59.9526 20.9199 59.9526C21.6499 59.9526 22.2227 60.5142 22.2227 61.2441C22.2227 61.6035 22.0767 61.9292 21.8296 62.1875L13.9346 69.8916L21.8296 77.5957C22.0767 77.8428 22.2227 78.1685 22.2227 78.5278C22.2227 79.269 21.6499 79.8306 20.9199 79.8306C20.5605 79.8306 20.2461 79.707 20.0103 79.46L11.2505 70.8911C10.9473 70.5991 10.8013 70.2734 10.8013 69.8916Z" fill="#00703C"/>
<path d="M33.5273 76V64.022H38.1094C40.3091 64.022 41.6538 65.1758 41.6538 67.002V67.0186C41.6538 68.2554 40.7407 69.3843 39.5869 69.5918V69.7246C41.2222 69.9321 42.2598 71.0527 42.2598 72.6299V72.6465C42.2598 74.7466 40.749 76 38.2007 76H33.5273ZM37.7939 65.3418H35.0215V69.1851H37.4121C39.2217 69.1851 40.1431 68.5376 40.1431 67.2759V67.2593C40.1431 66.0474 39.2798 65.3418 37.7939 65.3418ZM37.8354 70.4717H35.0215V74.6802H37.9766C39.7778 74.6802 40.7241 73.9497 40.7241 72.5718V72.5552C40.7241 71.1772 39.7446 70.4717 37.8354 70.4717ZM46.5666 76.1577C44.8649 76.1577 43.5783 75.1284 43.5783 73.5015V73.4849C43.5783 71.8911 44.757 70.9697 46.8405 70.8452L49.4055 70.6875V69.874C49.4055 68.77 48.7331 68.1724 47.3967 68.1724C46.3259 68.1724 45.6203 68.5708 45.3879 69.2681L45.3796 69.293H43.9353L43.9436 69.2432C44.176 67.8403 45.5373 66.894 47.4465 66.894C49.6296 66.894 50.8498 68.0146 50.8498 69.874V76H49.4055V74.6802H49.2727C48.7082 75.6348 47.7702 76.1577 46.5666 76.1577ZM45.0559 73.4683C45.0559 74.373 45.8278 74.9043 46.8654 74.9043C48.3347 74.9043 49.4055 73.9414 49.4055 72.6631V71.8496L47.0149 71.999C45.6535 72.082 45.0559 72.5635 45.0559 73.4517V73.4683ZM56.7421 76.1577C54.2353 76.1577 52.6332 74.3398 52.6332 71.501V71.4844C52.6332 68.7036 54.227 66.894 56.7338 66.894C58.9086 66.894 60.2118 68.1475 60.4775 69.7412L60.4858 69.791H59.0497L59.0414 69.7661C58.8173 68.8862 58.0204 68.1724 56.7338 68.1724C55.1235 68.1724 54.1108 69.4673 54.1108 71.4844V71.501C54.1108 73.5596 55.1401 74.8794 56.7338 74.8794C57.9374 74.8794 58.7011 74.3481 59.0331 73.3521L59.0497 73.3022L60.4775 73.2939L60.4609 73.3853C60.0956 75.0039 58.892 76.1577 56.7421 76.1577ZM62.2692 76V63.499H63.7135V70.9614H63.8463L67.7145 67.0518H69.4659L65.5646 70.812L69.7233 76H67.9054L64.5519 71.7915L63.7135 72.605V76H62.2692Z" fill="#00703C"/>
</g>
<g filter="url(#filter3_d_62609_284129)">
<path fill-rule="evenodd" clip-rule="evenodd" d="M106 529.222C106 530.879 107.343 532.222 109 532.222L279 532.222C280.657 532.222 282 530.879 282 529.222L282 446.222C282 444.565 280.657 443.222 279 443.222L109 443.222C107.343 443.222 106 444.565 106 446.222L106 529.222ZM149 455.999C147.895 455.999 147 456.894 147 457.999L147 520.999C147 522.104 147.895 522.999 149 522.999L240 522.999C241.105 522.999 242 522.104 242 520.999L242 457.999C242 456.894 241.105 455.999 240 455.999L149 455.999Z" fill="white"/>
<path d="M101 448.722L101 526.5C101 527.776 101.241 529.04 101.709 530.22C102.178 531.4 102.864 532.471 103.729 533.374C105.477 535.197 107.847 536.222 110.318 536.222L278.037 536.222C280.508 536.222 282.878 535.197 284.626 533.374C285.491 532.471 286.177 531.4 286.646 530.22C287.114 529.04 287.355 527.776 287.355 526.5L287.355 448.722C287.355 446.144 286.373 443.671 284.626 441.848C282.878 440.024 280.508 439 278.037 439L110.318 439C109.094 439 107.882 439.251 106.752 439.74C105.622 440.229 104.594 440.945 103.729 441.848C102.864 442.75 102.178 443.822 101.709 445.002C101.241 446.181 101 447.445 101 448.722ZM278.831 443.292C281.335 443.292 283.367 445.347 283.367 447.882L283.367 527.339C283.367 529.875 281.335 531.93 278.831 531.93L109.524 531.93C107.02 531.93 104.988 529.875 104.988 527.339L104.988 496.75L106.886 496.75C108.412 496.75 109.647 495.506 109.647 493.973L109.647 481.151C109.647 479.618 108.412 478.375 106.886 478.375L104.988 478.375L104.988 447.882C104.988 445.347 107.02 443.292 109.524 443.292L278.831 443.292Z" fill="#B3B3B3" stroke="#B3B3B3" stroke-width="2.76656" stroke-linecap="round" stroke-linejoin="round"/>
</g>
<rect x="148" y="456.999" width="93" height="65" rx="1" stroke="#31973F" stroke-width="2"/>
<path d="M167.282 501.995L162.754 504.027L167.303 506.084" stroke="#31973F" stroke-width="1.28966" stroke-linecap="round" stroke-linejoin="round"/>
<path d="M186.777 501.938L182.249 503.97L186.798 506.027" stroke="#31973F" stroke-width="1.28966" stroke-linecap="round" stroke-linejoin="round"/>
<path d="M180.316 501.938L175.788 503.97L180.337 506.027" stroke="#31973F" stroke-width="1.28966" stroke-linecap="round" stroke-linejoin="round"/>
<path d="M173.77 501.938L169.242 503.97L173.791 506.027" stroke="#31973F" stroke-width="1.28966" stroke-linecap="round" stroke-linejoin="round"/>
<path d="M199.784 501.995L195.256 504.027L199.805 506.084" stroke="#31973F" stroke-width="1.28966" stroke-linecap="round" stroke-linejoin="round"/>
<path d="M212.682 501.938L208.154 503.97L212.703 506.027" stroke="#31973F" stroke-width="1.28966" stroke-linecap="round" stroke-linejoin="round"/>
<path d="M219.143 501.938L214.615 503.97L219.164 506.027" stroke="#31973F" stroke-width="1.28966" stroke-linecap="round" stroke-linejoin="round"/>
<path d="M193.296 501.938L188.768 503.97L193.316 506.027" stroke="#31973F" stroke-width="1.28966" stroke-linecap="round" stroke-linejoin="round"/>
<path d="M206.33 501.938L201.802 503.97L206.35 506.027" stroke="#31973F" stroke-width="1.28966" stroke-linecap="round" stroke-linejoin="round"/>
<path d="M155 507.308V500.999C156.991 501.024 159.351 501.289 159.423 502.594C159.423 504.335 156.668 504.48 155 504.48" stroke="#31973F" stroke-width="1.28966" stroke-linecap="round"/>
<path d="M167.282 508.956L162.754 510.987L167.303 513.045" stroke="#31973F" stroke-width="1.28966" stroke-linecap="round" stroke-linejoin="round"/>
<path d="M186.777 508.899L182.249 510.931L186.798 512.988" stroke="#31973F" stroke-width="1.28966" stroke-linecap="round" stroke-linejoin="round"/>
<path d="M180.316 508.899L175.788 510.931L180.337 512.988" stroke="#31973F" stroke-width="1.28966" stroke-linecap="round" stroke-linejoin="round"/>
<path d="M173.77 508.899L169.242 510.931L173.791 512.988" stroke="#31973F" stroke-width="1.28966" stroke-linecap="round" stroke-linejoin="round"/>
<path d="M199.784 508.956L195.256 510.987L199.805 513.045" stroke="#31973F" stroke-width="1.28966" stroke-linecap="round" stroke-linejoin="round"/>
<path d="M212.682 508.899L208.154 510.931L212.703 512.988" stroke="#31973F" stroke-width="1.28966" stroke-linecap="round" stroke-linejoin="round"/>
<path d="M219.143 508.899L214.615 510.931L219.164 512.988" stroke="#31973F" stroke-width="1.28966" stroke-linecap="round" stroke-linejoin="round"/>
<path d="M193.296 508.899L188.768 510.931L193.316 512.988" stroke="#31973F" stroke-width="1.28966" stroke-linecap="round" stroke-linejoin="round"/>
<path d="M206.33 508.899L201.802 510.931L206.35 512.988" stroke="#31973F" stroke-width="1.28966" stroke-linecap="round" stroke-linejoin="round"/>
<path d="M159.594 508.812L155.066 510.843L159.615 512.9" stroke="#31973F" stroke-width="1.28966" stroke-linecap="round" stroke-linejoin="round"/>
<path d="M232.26 501.938L227.732 503.97L232.281 506.027" stroke="#31973F" stroke-width="1.28966" stroke-linecap="round" stroke-linejoin="round"/>
<path d="M238.723 501.938L234.195 503.97L238.744 506.027" stroke="#31973F" stroke-width="1.28966" stroke-linecap="round" stroke-linejoin="round"/>
<path d="M225.909 501.938L221.381 503.97L225.93 506.027" stroke="#31973F" stroke-width="1.28966" stroke-linecap="round" stroke-linejoin="round"/>
<path d="M238.723 508.899L234.195 510.931L238.744 512.988" stroke="#31973F" stroke-width="1.28966" stroke-linecap="round" stroke-linejoin="round"/>
<path d="M225.735 508.899L221.207 510.931L225.756 512.988" stroke="#31973F" stroke-width="1.28966" stroke-linecap="round" stroke-linejoin="round"/>
<path d="M232.196 508.899L227.668 510.931L232.217 512.988" stroke="#31973F" stroke-width="1.28966" stroke-linecap="round" stroke-linejoin="round"/>
<path d="M24.0566 193.258C19.6523 193.258 16.9023 190.175 16.9023 185.255V185.233C16.9023 180.324 19.6631 177.241 24.0566 177.241C28.4395 177.241 31.1895 180.324 31.1895 185.233V185.255C31.1895 190.175 28.4502 193.258 24.0566 193.258ZM24.0566 191.475C27.2471 191.475 29.2129 189.036 29.2129 185.255V185.233C29.2129 181.431 27.2148 179.024 24.0566 179.024C20.8877 179.024 18.8789 181.42 18.8789 185.233V185.255C18.8789 189.068 20.877 191.475 24.0566 191.475ZM33.3827 196.76V181.828H35.2518V183.719H35.2948C35.993 182.419 37.2391 181.613 38.8397 181.613C41.6971 181.613 43.5877 183.891 43.5877 187.414V187.425C43.5877 190.948 41.6756 193.215 38.8719 193.215C37.2928 193.215 35.993 192.42 35.2948 191.131H35.2518V196.76H33.3827ZM38.4745 191.561C40.451 191.561 41.6756 189.971 41.6756 187.425V187.414C41.6756 184.847 40.451 183.268 38.4745 183.268C36.5838 183.268 35.2411 184.911 35.2411 187.414V187.425C35.2411 189.917 36.5946 191.561 38.4745 191.561ZM50.153 193.215C46.9411 193.215 45.0075 190.97 45.0075 187.457V187.446C45.0075 183.987 46.9841 181.613 50.0349 181.613C53.0856 181.613 54.944 183.88 54.944 187.231V187.919H46.8981C46.9411 190.218 48.2087 191.561 50.196 191.561C51.614 191.561 52.613 190.852 52.9352 189.896L52.9675 189.799H54.8044L54.7829 189.906C54.4177 191.754 52.5915 193.215 50.153 193.215ZM50.0241 183.268C48.402 183.268 47.1345 184.374 46.9304 186.458H53.0427C52.8601 184.288 51.6569 183.268 50.0241 183.268ZM56.9117 193V181.828H58.7808V183.418H58.8238C59.4253 182.376 60.564 181.613 62.2613 181.613C64.7105 181.613 66.1285 183.203 66.1285 185.749V193H64.2593V186.082C64.2593 184.267 63.4107 183.268 61.6919 183.268C59.9302 183.268 58.7808 184.524 58.7808 186.426V193H56.9117ZM74.2532 196.76C73.8879 196.76 73.4905 196.717 73.2541 196.674V195.148C73.4153 195.181 73.6301 195.213 73.8557 195.213C75.0373 195.213 75.6926 194.912 76.1438 193.645L76.3694 193.011L72.2229 181.828H74.2209L77.3039 191.131H77.3469L80.4407 181.828H82.4065L78.0452 193.698C77.2502 195.836 76.2727 196.76 74.2532 196.76ZM88.1554 193.215C85.0509 193.215 82.9776 190.97 82.9776 187.414V187.393C82.9776 183.837 85.0616 181.613 88.1446 181.613C91.2276 181.613 93.3223 183.826 93.3223 187.393V187.414C93.3223 190.98 91.2384 193.215 88.1554 193.215ZM88.1661 191.561C90.1319 191.561 91.4102 190.035 91.4102 187.414V187.393C91.4102 184.771 90.1212 183.268 88.1446 183.268C86.2003 183.268 84.8897 184.782 84.8897 187.393V187.414C84.8897 190.046 86.1895 191.561 88.1661 191.561ZM99.1035 193.215C96.6542 193.215 95.2363 191.625 95.2363 189.079V181.828H97.1054V188.746C97.1054 190.562 97.954 191.561 99.6728 191.561C101.435 191.561 102.584 190.304 102.584 188.402V181.828H104.453V193H102.584V191.41H102.541C101.939 192.452 100.801 193.215 99.1035 193.215ZM106.969 193V181.828H108.838V183.719H108.881C109.257 182.43 110.223 181.613 111.48 181.613C111.803 181.613 112.082 181.667 112.232 181.688V183.504C112.082 183.45 111.684 183.396 111.233 183.396C109.783 183.396 108.838 184.406 108.838 186.104V193H106.969ZM118.423 196.76V181.828H120.292V183.719H120.335C121.034 182.419 122.28 181.613 123.88 181.613C126.738 181.613 128.628 183.891 128.628 187.414V187.425C128.628 190.948 126.716 193.215 123.913 193.215C122.333 193.215 121.034 192.42 120.335 191.131H120.292V196.76H118.423ZM123.515 191.561C125.492 191.561 126.716 189.971 126.716 187.425V187.414C126.716 184.847 125.492 183.268 123.515 183.268C121.624 183.268 120.282 184.911 120.282 187.414V187.425C120.282 189.917 121.635 191.561 123.515 191.561ZM133.862 193.215C131.638 193.215 130.145 191.872 130.145 189.842V189.82C130.145 187.919 131.627 186.727 134.195 186.576L137.396 186.394V185.459C137.396 184.095 136.504 183.268 134.947 183.268C133.507 183.268 132.605 183.955 132.39 184.954L132.368 185.051H130.564L130.575 184.933C130.736 183.096 132.336 181.613 134.968 181.613C137.611 181.613 139.265 183.042 139.265 185.276V193H137.396V191.185H137.353C136.698 192.409 135.355 193.215 133.862 193.215ZM132.057 189.842C132.057 190.916 132.938 191.593 134.281 191.593C136.042 191.593 137.396 190.379 137.396 188.757V187.844L134.41 188.026C132.916 188.112 132.057 188.778 132.057 189.82V189.842ZM145.68 193.215C143.048 193.215 141.458 191.872 141.233 189.874L141.222 189.777H143.091L143.112 189.885C143.338 191.002 144.165 191.657 145.691 191.657C147.205 191.657 148.108 191.023 148.108 190.014V190.003C148.108 189.197 147.689 188.746 146.421 188.435L144.649 188.005C142.543 187.5 141.523 186.522 141.523 184.911V184.9C141.523 182.978 143.209 181.613 145.626 181.613C148.075 181.613 149.633 183.042 149.773 184.911L149.783 185.051H148L147.989 184.976C147.839 183.891 147.012 183.171 145.626 183.171C144.273 183.171 143.435 183.826 143.435 184.814V184.825C143.435 185.588 143.94 186.114 145.175 186.415L146.947 186.845C149.203 187.393 150.02 188.284 150.02 189.874V189.885C150.02 191.84 148.172 193.215 145.68 193.215ZM156.005 193.215C153.373 193.215 151.783 191.872 151.558 189.874L151.547 189.777H153.416L153.438 189.885C153.663 191.002 154.49 191.657 156.016 191.657C157.53 191.657 158.433 191.023 158.433 190.014V190.003C158.433 189.197 158.014 188.746 156.746 188.435L154.974 188.005C152.868 187.5 151.848 186.522 151.848 184.911V184.9C151.848 182.978 153.534 181.613 155.951 181.613C158.4 181.613 159.958 183.042 160.098 184.911L160.108 185.051H158.325L158.314 184.976C158.164 183.891 157.337 183.171 155.951 183.171C154.598 183.171 153.76 183.826 153.76 184.814V184.825C153.76 185.588 154.265 186.114 155.5 186.415L157.272 186.845C159.528 187.393 160.345 188.284 160.345 189.874V189.885C160.345 191.84 158.497 193.215 156.005 193.215ZM162.366 196.76V181.828H164.235V183.719H164.278C164.976 182.419 166.223 181.613 167.823 181.613C170.681 181.613 172.571 183.891 172.571 187.414V187.425C172.571 190.948 170.659 193.215 167.855 193.215C166.276 193.215 164.976 192.42 164.278 191.131H164.235V196.76H162.366ZM167.458 191.561C169.434 191.561 170.659 189.971 170.659 187.425V187.414C170.659 184.847 169.434 183.268 167.458 183.268C165.567 183.268 164.224 184.911 164.224 187.414V187.425C164.224 189.917 165.578 191.561 167.458 191.561ZM179.169 193.215C176.064 193.215 173.991 190.97 173.991 187.414V187.393C173.991 183.837 176.075 181.613 179.158 181.613C182.241 181.613 184.336 183.826 184.336 187.393V187.414C184.336 190.98 182.252 193.215 179.169 193.215ZM179.179 191.561C181.145 191.561 182.424 190.035 182.424 187.414V187.393C182.424 184.771 181.134 183.268 179.158 183.268C177.214 183.268 175.903 184.782 175.903 187.393V187.414C175.903 190.046 177.203 191.561 179.179 191.561ZM186.303 193V181.828H188.172V183.719H188.215C188.591 182.43 189.558 181.613 190.815 181.613C191.137 181.613 191.417 181.667 191.567 181.688V183.504C191.417 183.45 191.019 183.396 190.568 183.396C189.118 183.396 188.172 184.406 188.172 186.104V193H186.303ZM197.337 193.215C195.286 193.215 194.276 192.291 194.276 190.153V183.375H192.643V181.828H194.276V178.81H196.209V181.828H198.336V183.375H196.209V190.143C196.209 191.335 196.736 191.668 197.735 191.668C197.96 191.668 198.175 191.636 198.336 191.625V193.14C198.1 193.172 197.703 193.215 197.337 193.215ZM208.642 193.215C206.59 193.215 205.58 192.291 205.58 190.153V183.375H203.947V181.828H205.58V178.81H207.514V181.828H209.641V183.375H207.514V190.143C207.514 191.335 208.04 191.668 209.039 191.668C209.265 191.668 209.48 191.636 209.641 191.625V193.14C209.404 193.172 209.007 193.215 208.642 193.215ZM216.034 193.215C212.93 193.215 210.856 190.97 210.856 187.414V187.393C210.856 183.837 212.94 181.613 216.023 181.613C219.106 181.613 221.201 183.826 221.201 187.393V187.414C221.201 190.98 219.117 193.215 216.034 193.215ZM216.045 191.561C218.011 191.561 219.289 190.035 219.289 187.414V187.393C219.289 184.771 218 183.268 216.023 183.268C214.079 183.268 212.769 184.782 212.769 187.393V187.414C212.769 190.046 214.068 191.561 216.045 191.561ZM231.388 193.215C229.337 193.215 228.327 192.291 228.327 190.153V183.375H226.694V181.828H228.327V178.81H230.26V181.828H232.387V183.375H230.26V190.143C230.26 191.335 230.787 191.668 231.786 191.668C232.011 191.668 232.226 191.636 232.387 191.625V193.14C232.151 193.172 231.754 193.215 231.388 193.215ZM234.57 193V177.499H236.439V183.611H236.482C237.083 182.354 238.297 181.613 239.962 181.613C242.336 181.613 243.958 183.45 243.958 186.157V193H242.089V186.479C242.089 184.46 241.058 183.268 239.318 183.268C237.588 183.268 236.439 184.578 236.439 186.479V193H234.57ZM251.007 193.215C247.795 193.215 245.862 190.97 245.862 187.457V187.446C245.862 183.987 247.838 181.613 250.889 181.613C253.94 181.613 255.798 183.88 255.798 187.231V187.919H247.752C247.795 190.218 249.063 191.561 251.05 191.561C252.468 191.561 253.467 190.852 253.789 189.896L253.822 189.799H255.659L255.637 189.906C255.272 191.754 253.446 193.215 251.007 193.215ZM250.878 183.268C249.256 183.268 247.989 184.374 247.785 186.458H253.897C253.714 184.288 252.511 183.268 250.878 183.268ZM262.355 196.76V181.828H264.224V183.719H264.267C264.965 182.419 266.211 181.613 267.812 181.613C270.669 181.613 272.56 183.891 272.56 187.414V187.425C272.56 190.948 270.648 193.215 267.844 193.215C266.265 193.215 264.965 192.42 264.267 191.131H264.224V196.76H262.355ZM267.446 191.561C269.423 191.561 270.648 189.971 270.648 187.425V187.414C270.648 184.847 269.423 183.268 267.446 183.268C265.556 183.268 264.213 184.911 264.213 187.414V187.425C264.213 189.917 265.566 191.561 267.446 191.561ZM274.624 193V177.499H276.493V183.611H276.536C277.138 182.354 278.351 181.613 280.017 181.613C282.391 181.613 284.013 183.45 284.013 186.157V193H282.143V186.479C282.143 184.46 281.112 183.268 279.372 183.268C277.642 183.268 276.493 184.578 276.493 186.479V193H274.624ZM291.094 193.215C287.989 193.215 285.916 190.97 285.916 187.414V187.393C285.916 183.837 288 181.613 291.083 181.613C294.166 181.613 296.26 183.826 296.26 187.393V187.414C296.26 190.98 294.177 193.215 291.094 193.215ZM291.104 191.561C293.07 191.561 294.348 190.035 294.348 187.414V187.393C294.348 184.771 293.059 183.268 291.083 183.268C289.138 183.268 287.828 184.782 287.828 187.393V187.414C287.828 190.046 289.128 191.561 291.104 191.561ZM301.859 193.215C299.807 193.215 298.797 192.291 298.797 190.153V183.375H297.165V181.828H298.797V178.81H300.731V181.828H302.858V183.375H300.731V190.143C300.731 191.335 301.257 191.668 302.256 191.668C302.482 191.668 302.697 191.636 302.858 191.625V193.14C302.622 193.172 302.224 193.215 301.859 193.215ZM309.251 193.215C306.147 193.215 304.074 190.97 304.074 187.414V187.393C304.074 183.837 306.158 181.613 309.241 181.613C312.324 181.613 314.418 183.826 314.418 187.393V187.414C314.418 190.98 312.334 193.215 309.251 193.215ZM309.262 191.561C311.228 191.561 312.506 190.035 312.506 187.414V187.393C312.506 184.771 311.217 183.268 309.241 183.268C307.296 183.268 305.986 184.782 305.986 187.393V187.414C305.986 190.046 307.286 191.561 309.262 191.561ZM17.2139 224.76V209.828H19.083V211.719H19.126C19.8242 210.419 21.0703 209.613 22.6709 209.613C25.5283 209.613 27.4189 211.891 27.4189 215.414V215.425C27.4189 218.948 25.5068 221.215 22.7031 221.215C21.124 221.215 19.8242 220.42 19.126 219.131H19.083V224.76H17.2139ZM22.3057 219.561C24.2822 219.561 25.5068 217.971 25.5068 215.425V215.414C25.5068 212.847 24.2822 211.268 22.3057 211.268C20.415 211.268 19.0723 212.911 19.0723 215.414V215.425C19.0723 217.917 20.4258 219.561 22.3057 219.561ZM32.6522 221.215C30.4286 221.215 28.9354 219.872 28.9354 217.842V217.82C28.9354 215.919 30.4178 214.727 32.9852 214.576L36.1864 214.394V213.459C36.1864 212.095 35.2948 211.268 33.7372 211.268C32.2977 211.268 31.3954 211.955 31.1805 212.954L31.159 213.051H29.3543L29.3651 212.933C29.5262 211.096 31.1268 209.613 33.7586 209.613C36.4012 209.613 38.0555 211.042 38.0555 213.276V221H36.1864V219.185H36.1434C35.4881 220.409 34.1454 221.215 32.6522 221.215ZM30.8475 217.842C30.8475 218.916 31.7284 219.593 33.0711 219.593C34.8329 219.593 36.1864 218.379 36.1864 216.757V215.844L33.2 216.026C31.7069 216.112 30.8475 216.778 30.8475 217.82V217.842ZM45.2331 224.975C42.4724 224.975 40.7321 223.675 40.3669 222.021L40.3454 221.924H42.2253L42.2683 222.021C42.6227 222.826 43.6862 223.32 45.2116 223.32C47.1774 223.32 48.2946 222.235 48.2946 220.506V219.077H48.2517C47.5856 220.312 46.2966 221.107 44.696 221.107C41.8815 221.107 39.9587 218.841 39.9587 215.35V215.339C39.9587 211.869 41.903 209.613 44.739 209.613C46.3181 209.613 47.5642 210.473 48.2517 211.719H48.2946V209.828H50.1638V220.688C50.1638 223.277 48.2624 224.975 45.2331 224.975ZM45.1042 219.453C47.0056 219.453 48.2946 217.831 48.2946 215.35V215.339C48.2946 212.879 46.9948 211.268 45.1042 211.268C43.1169 211.268 41.8708 212.857 41.8708 215.339V215.35C41.8708 217.885 43.1169 219.453 45.1042 219.453ZM57.2554 221.215C54.0435 221.215 52.1099 218.97 52.1099 215.457V215.446C52.1099 211.987 54.0865 209.613 57.1372 209.613C60.188 209.613 62.0464 211.88 62.0464 215.231V215.919H54.0005C54.0435 218.218 55.3111 219.561 57.2984 219.561C58.7164 219.561 59.7154 218.852 60.0376 217.896L60.0699 217.799H61.9068L61.8853 217.906C61.5201 219.754 59.6939 221.215 57.2554 221.215ZM57.1265 211.268C55.5044 211.268 54.2369 212.374 54.0328 214.458H60.1451C59.9624 212.288 58.7593 211.268 57.1265 211.268ZM71.8684 221.215C69.6448 221.215 68.1516 219.872 68.1516 217.842V217.82C68.1516 215.919 69.634 214.727 72.2014 214.576L75.4026 214.394V213.459C75.4026 212.095 74.511 211.268 72.9534 211.268C71.5139 211.268 70.6116 211.955 70.3967 212.954L70.3752 213.051H68.5705L68.5813 212.933C68.7424 211.096 70.343 209.613 72.9748 209.613C75.6174 209.613 77.2717 211.042 77.2717 213.276V221H75.4026V219.185H75.3596C74.7043 220.409 73.3616 221.215 71.8684 221.215ZM70.0637 217.842C70.0637 218.916 70.9446 219.593 72.2873 219.593C74.0491 219.593 75.4026 218.379 75.4026 216.757V215.844L72.4162 216.026C70.9231 216.112 70.0637 216.778 70.0637 217.82V217.842ZM79.7227 221V209.828H81.5919V211.418H81.6349C82.2364 210.376 83.3751 209.613 85.0724 209.613C87.5216 209.613 88.9395 211.203 88.9395 213.749V221H87.0704V214.082C87.0704 212.267 86.2218 211.268 84.503 211.268C82.7413 211.268 81.5919 212.524 81.5919 214.426V221H79.7227ZM95.6015 221.215C92.7441 221.215 90.8535 218.938 90.8535 215.414V215.403C90.8535 211.88 92.7656 209.613 95.5693 209.613C97.1484 209.613 98.4482 210.408 99.1464 211.697H99.1894V205.499H101.059V221H99.1894V219.109H99.1464C98.4482 220.409 97.2021 221.215 95.6015 221.215ZM95.9667 219.561C97.8574 219.561 99.2001 217.917 99.2001 215.414V215.403C99.2001 212.911 97.8466 211.268 95.9667 211.268C93.9902 211.268 92.7656 212.857 92.7656 215.403V215.414C92.7656 217.981 93.9902 219.561 95.9667 219.561ZM108.249 224.76V209.828H110.118V211.719H110.161C110.859 210.419 112.105 209.613 113.706 209.613C116.563 209.613 118.454 211.891 118.454 215.414V215.425C118.454 218.948 116.542 221.215 113.738 221.215C112.159 221.215 110.859 220.42 110.161 219.131H110.118V224.76H108.249ZM113.34 219.561C115.317 219.561 116.542 217.971 116.542 215.425V215.414C116.542 212.847 115.317 211.268 113.34 211.268C111.45 211.268 110.107 212.911 110.107 215.414V215.425C110.107 217.917 111.461 219.561 113.34 219.561ZM125.051 221.215C121.947 221.215 119.874 218.97 119.874 215.414V215.393C119.874 211.837 121.957 209.613 125.041 209.613C128.124 209.613 130.218 211.826 130.218 215.393V215.414C130.218 218.98 128.134 221.215 125.051 221.215ZM125.062 219.561C127.028 219.561 128.306 218.035 128.306 215.414V215.393C128.306 212.771 127.017 211.268 125.041 211.268C123.096 211.268 121.786 212.782 121.786 215.393V215.414C121.786 218.046 123.085 219.561 125.062 219.561ZM136.15 221.215C133.518 221.215 131.928 219.872 131.702 217.874L131.692 217.777H133.561L133.582 217.885C133.808 219.002 134.635 219.657 136.16 219.657C137.675 219.657 138.577 219.023 138.577 218.014V218.003C138.577 217.197 138.159 216.746 136.891 216.435L135.118 216.005C133.013 215.5 131.993 214.522 131.993 212.911V212.9C131.993 210.978 133.679 209.613 136.096 209.613C138.545 209.613 140.103 211.042 140.243 212.911L140.253 213.051H138.47L138.459 212.976C138.309 211.891 137.482 211.171 136.096 211.171C134.743 211.171 133.905 211.826 133.905 212.814V212.825C133.905 213.588 134.41 214.114 135.645 214.415L137.417 214.845C139.673 215.393 140.49 216.284 140.49 217.874V217.885C140.49 219.84 138.642 221.215 136.15 221.215ZM143.564 207.938C142.919 207.938 142.393 207.411 142.393 206.767C142.393 206.111 142.919 205.596 143.564 205.596C144.219 205.596 144.735 206.111 144.735 206.767C144.735 207.411 144.219 207.938 143.564 207.938ZM142.629 221V209.828H144.498V221H142.629ZM150.752 221.215C148.7 221.215 147.69 220.291 147.69 218.153V211.375H146.058V209.828H147.69V206.81H149.624V209.828H151.751V211.375H149.624V218.143C149.624 219.335 150.15 219.668 151.149 219.668C151.375 219.668 151.59 219.636 151.751 219.625V221.14C151.515 221.172 151.117 221.215 150.752 221.215ZM154.89 207.938C154.245 207.938 153.719 207.411 153.719 206.767C153.719 206.111 154.245 205.596 154.89 205.596C155.545 205.596 156.06 206.111 156.06 206.767C156.06 207.411 155.545 207.938 154.89 207.938ZM153.955 221V209.828H155.824V221H153.955ZM163.077 221.215C159.972 221.215 157.899 218.97 157.899 215.414V215.393C157.899 211.837 159.983 209.613 163.066 209.613C166.149 209.613 168.244 211.826 168.244 215.393V215.414C168.244 218.98 166.16 221.215 163.077 221.215ZM163.088 219.561C165.053 219.561 166.332 218.035 166.332 215.414V215.393C166.332 212.771 165.043 211.268 163.066 211.268C161.122 211.268 159.811 212.782 159.811 215.393V215.414C159.811 218.046 161.111 219.561 163.088 219.561ZM170.211 221V209.828H172.081V211.418H172.124C172.725 210.376 173.864 209.613 175.561 209.613C178.01 209.613 179.428 211.203 179.428 213.749V221H177.559V214.082C177.559 212.267 176.711 211.268 174.992 211.268C173.23 211.268 172.081 212.524 172.081 214.426V221H170.211ZM187.532 207.938C186.887 207.938 186.361 207.411 186.361 206.767C186.361 206.111 186.887 205.596 187.532 205.596C188.187 205.596 188.702 206.111 188.702 206.767C188.702 207.411 188.187 207.938 187.532 207.938ZM186.597 221V209.828H188.466V221H186.597ZM194.72 221.215C192.668 221.215 191.658 220.291 191.658 218.153V211.375H190.025V209.828H191.658V206.81H193.592V209.828H195.719V211.375H193.592V218.143C193.592 219.335 194.118 219.668 195.117 219.668C195.343 219.668 195.558 219.636 195.719 219.625V221.14C195.483 221.172 195.085 221.215 194.72 221.215ZM203.446 207.938C202.802 207.938 202.275 207.411 202.275 206.767C202.275 206.111 202.802 205.596 203.446 205.596C204.101 205.596 204.617 206.111 204.617 206.767C204.617 207.411 204.101 207.938 203.446 207.938ZM202.512 221V209.828H204.381V221H202.512ZM207.004 221V209.828H208.873V211.418H208.916C209.517 210.376 210.656 209.613 212.353 209.613C214.802 209.613 216.22 211.203 216.22 213.749V221H214.351V214.082C214.351 212.267 213.503 211.268 211.784 211.268C210.022 211.268 208.873 212.524 208.873 214.426V221H207.004ZM222.646 221.215C220.014 221.215 218.424 219.872 218.199 217.874L218.188 217.777H220.057L220.079 217.885C220.304 219.002 221.131 219.657 222.657 219.657C224.171 219.657 225.074 219.023 225.074 218.014V218.003C225.074 217.197 224.655 216.746 223.387 216.435L221.615 216.005C219.509 215.5 218.489 214.522 218.489 212.911V212.9C218.489 210.978 220.175 209.613 222.592 209.613C225.042 209.613 226.599 211.042 226.739 212.911L226.75 213.051H224.966L224.956 212.976C224.805 211.891 223.978 211.171 222.592 211.171C221.239 211.171 220.401 211.826 220.401 212.814V212.825C220.401 213.588 220.906 214.114 222.141 214.415L223.914 214.845C226.169 215.393 226.986 216.284 226.986 217.874V217.885C226.986 219.84 225.138 221.215 222.646 221.215ZM230.06 207.938C229.415 207.938 228.889 207.411 228.889 206.767C228.889 206.111 229.415 205.596 230.06 205.596C230.715 205.596 231.231 206.111 231.231 206.767C231.231 207.411 230.715 207.938 230.06 207.938ZM229.125 221V209.828H230.994V221H229.125ZM237.818 221.215C234.96 221.215 233.07 218.938 233.07 215.414V215.403C233.07 211.88 234.982 209.613 237.785 209.613C239.364 209.613 240.664 210.408 241.363 211.697H241.405V205.499H243.275V221H241.405V219.109H241.363C240.664 220.409 239.418 221.215 237.818 221.215ZM238.183 219.561C240.073 219.561 241.416 217.917 241.416 215.414V215.403C241.416 212.911 240.063 211.268 238.183 211.268C236.206 211.268 234.982 212.857 234.982 215.403V215.414C234.982 217.981 236.206 219.561 238.183 219.561ZM250.474 221.215C247.262 221.215 245.328 218.97 245.328 215.457V215.446C245.328 211.987 247.305 209.613 250.356 209.613C253.406 209.613 255.265 211.88 255.265 215.231V215.919H247.219C247.262 218.218 248.529 219.561 250.517 219.561C251.935 219.561 252.934 218.852 253.256 217.896L253.288 217.799H255.125L255.104 217.906C254.738 219.754 252.912 221.215 250.474 221.215ZM250.345 211.268C248.723 211.268 247.455 212.374 247.251 214.458H253.363C253.181 212.288 251.978 211.268 250.345 211.268ZM265.452 221.215C263.4 221.215 262.39 220.291 262.39 218.153V211.375H260.758V209.828H262.39V206.81H264.324V209.828H266.451V211.375H264.324V218.143C264.324 219.335 264.85 219.668 265.849 219.668C266.075 219.668 266.29 219.636 266.451 219.625V221.14C266.215 221.172 265.817 221.215 265.452 221.215ZM268.633 221V205.499H270.503V211.611H270.546C271.147 210.354 272.361 209.613 274.026 209.613C276.4 209.613 278.022 211.45 278.022 214.157V221H276.153V214.479C276.153 212.46 275.122 211.268 273.381 211.268C271.652 211.268 270.503 212.578 270.503 214.479V221H268.633ZM285.071 221.215C281.859 221.215 279.925 218.97 279.925 215.457V215.446C279.925 211.987 281.902 209.613 284.953 209.613C288.003 209.613 289.862 211.88 289.862 215.231V215.919H281.816C281.859 218.218 283.126 219.561 285.114 219.561C286.532 219.561 287.531 218.852 287.853 217.896L287.885 217.799H289.722L289.701 217.906C289.335 219.754 287.509 221.215 285.071 221.215ZM284.942 211.268C283.32 211.268 282.052 212.374 281.848 214.458H287.96C287.778 212.288 286.575 211.268 284.942 211.268ZM297.02 221V211.375H295.462V209.828H297.02V208.453C297.02 206.305 298.019 205.284 300.081 205.284C300.5 205.284 300.941 205.316 301.22 205.359V206.874C300.994 206.842 300.704 206.831 300.414 206.831C299.383 206.831 298.867 207.357 298.867 208.464V209.828H301.166V211.375H298.889V221H297.02ZM303.177 221V209.828H305.046V211.719H305.089C305.465 210.43 306.432 209.613 307.688 209.613C308.011 209.613 308.29 209.667 308.44 209.688V211.504C308.29 211.45 307.893 211.396 307.441 211.396C305.991 211.396 305.046 212.406 305.046 214.104V221H303.177ZM313.094 221.215C310.87 221.215 309.377 219.872 309.377 217.842V217.82C309.377 215.919 310.859 214.727 313.427 214.576L316.628 214.394V213.459C316.628 212.095 315.736 211.268 314.179 211.268C312.739 211.268 311.837 211.955 311.622 212.954L311.6 213.051H309.796L309.806 212.933C309.968 211.096 311.568 209.613 314.2 209.613C316.843 209.613 318.497 211.042 318.497 213.276V221H316.628V219.185H316.585C315.93 220.409 314.587 221.215 313.094 221.215ZM311.289 217.842C311.289 218.916 312.17 219.593 313.513 219.593C315.274 219.593 316.628 218.379 316.628 216.757V215.844L313.641 216.026C312.148 216.112 311.289 216.778 311.289 217.82V217.842ZM320.948 221V209.828H322.817V211.461H322.86C323.365 210.354 324.482 209.613 325.922 209.613C327.447 209.613 328.575 210.397 329.058 211.762H329.101C329.724 210.419 331.035 209.613 332.603 209.613C334.816 209.613 336.245 211.063 336.245 213.287V221H334.376V213.717C334.376 212.181 333.527 211.268 332.055 211.268C330.573 211.268 329.531 212.374 329.531 213.899V221H327.662V213.513C327.662 212.159 326.759 211.268 325.374 211.268C323.891 211.268 322.817 212.438 322.817 213.996V221H320.948ZM343.304 221.215C340.092 221.215 338.159 218.97 338.159 215.457V215.446C338.159 211.987 340.135 209.613 343.186 209.613C346.237 209.613 348.095 211.88 348.095 215.231V215.919H340.049C340.092 218.218 341.36 219.561 343.347 219.561C344.765 219.561 345.764 218.852 346.086 217.896L346.119 217.799H347.956L347.934 217.906C347.569 219.754 345.743 221.215 343.304 221.215ZM343.175 211.268C341.553 211.268 340.286 212.374 340.082 214.458H346.194C346.011 212.288 344.808 211.268 343.175 211.268ZM21.0273 249.215C18.5781 249.215 17.1602 247.625 17.1602 245.079V237.828H19.0293V244.746C19.0293 246.562 19.8779 247.561 21.5967 247.561C23.3584 247.561 24.5078 246.304 24.5078 244.402V237.828H26.377V249H24.5078V247.41H24.4648C23.8633 248.452 22.7246 249.215 21.0273 249.215ZM28.8924 249V237.828H30.7616V239.418H30.8045C31.4061 238.376 32.5448 237.613 34.242 237.613C36.6913 237.613 38.1092 239.203 38.1092 241.749V249H36.2401V242.082C36.2401 240.267 35.3915 239.268 33.6727 239.268C31.911 239.268 30.7616 240.524 30.7616 242.426V249H28.8924ZM44.2019 249.215C42.1501 249.215 41.1403 248.291 41.1403 246.153V239.375H39.5075V237.828H41.1403V234.81H43.0739V237.828H45.2009V239.375H43.0739V246.143C43.0739 247.335 43.6003 247.668 44.5993 247.668C44.8249 247.668 45.0397 247.636 45.2009 247.625V249.14C44.9645 249.172 44.5671 249.215 44.2019 249.215ZM48.3394 235.938C47.6949 235.938 47.1685 235.411 47.1685 234.767C47.1685 234.111 47.6949 233.596 48.3394 233.596C48.9947 233.596 49.5103 234.111 49.5103 234.767C49.5103 235.411 48.9947 235.938 48.3394 235.938ZM47.4048 249V237.828H49.274V249H47.4048ZM51.9935 249V233.499H53.8627V249H51.9935ZM64.6837 249.215C62.6319 249.215 61.6222 248.291 61.6222 246.153V239.375H59.9893V237.828H61.6222V234.81H63.5558V237.828H65.6827V239.375H63.5558V246.143C63.5558 247.335 64.0821 247.668 65.0811 247.668C65.3067 247.668 65.5216 247.636 65.6827 247.625V249.14C65.4464 249.172 65.0489 249.215 64.6837 249.215ZM67.8652 249V233.499H69.7343V239.611H69.7773C70.3788 238.354 71.5927 237.613 73.2578 237.613C75.6318 237.613 77.2538 239.45 77.2538 242.157V249H75.3847V242.479C75.3847 240.46 74.3535 239.268 72.6132 239.268C70.8837 239.268 69.7343 240.578 69.7343 242.479V249H67.8652ZM84.3025 249.215C81.0906 249.215 79.157 246.97 79.157 243.457V243.446C79.157 239.987 81.1336 237.613 84.1844 237.613C87.2351 237.613 89.0935 239.88 89.0935 243.231V243.919H81.0476C81.0906 246.218 82.3582 247.561 84.3455 247.561C85.7635 247.561 86.7625 246.852 87.0848 245.896L87.117 245.799H88.9539L88.9324 245.906C88.5672 247.754 86.741 249.215 84.3025 249.215ZM84.1736 239.268C82.5515 239.268 81.284 240.374 81.0799 242.458H87.1922C87.0096 240.288 85.8064 239.268 84.1736 239.268ZM96.2514 249V239.375H94.6938V237.828H96.2514V236.453C96.2514 234.305 97.2505 233.284 99.313 233.284C99.7319 233.284 100.172 233.316 100.452 233.359V234.874C100.226 234.842 99.936 234.831 99.646 234.831C98.6147 234.831 98.0991 235.357 98.0991 236.464V237.828H100.398V239.375H98.1206V249H96.2514ZM102.409 249V237.828H104.278V239.719H104.321C104.697 238.43 105.663 237.613 106.92 237.613C107.243 237.613 107.522 237.667 107.672 237.688V239.504C107.522 239.45 107.124 239.396 106.673 239.396C105.223 239.396 104.278 240.406 104.278 242.104V249H102.409ZM112.325 249.215C110.102 249.215 108.609 247.872 108.609 245.842V245.82C108.609 243.919 110.091 242.727 112.658 242.576L115.86 242.394V241.459C115.86 240.095 114.968 239.268 113.41 239.268C111.971 239.268 111.069 239.955 110.854 240.954L110.832 241.051H109.028L109.038 240.933C109.199 239.096 110.8 237.613 113.432 237.613C116.074 237.613 117.729 239.042 117.729 241.276V249H115.86V247.185H115.817C115.161 248.409 113.819 249.215 112.325 249.215ZM110.521 245.842C110.521 246.916 111.402 247.593 112.744 247.593C114.506 247.593 115.86 246.379 115.86 244.757V243.844L112.873 244.026C111.38 244.112 110.521 244.778 110.521 245.82V245.842ZM120.18 249V237.828H122.049V239.461H122.092C122.597 238.354 123.714 237.613 125.153 237.613C126.679 237.613 127.807 238.397 128.29 239.762H128.333C128.956 238.419 130.267 237.613 131.835 237.613C134.048 237.613 135.477 239.063 135.477 241.287V249H133.607V241.717C133.607 240.181 132.759 239.268 131.287 239.268C129.805 239.268 128.763 240.374 128.763 241.899V249H126.894V241.513C126.894 240.159 125.991 239.268 124.605 239.268C123.123 239.268 122.049 240.438 122.049 241.996V249H120.18ZM142.536 249.215C139.324 249.215 137.391 246.97 137.391 243.457V243.446C137.391 239.987 139.367 237.613 142.418 237.613C145.469 237.613 147.327 239.88 147.327 243.231V243.919H139.281C139.324 246.218 140.592 247.561 142.579 247.561C143.997 247.561 144.996 246.852 145.318 245.896L145.35 245.799H147.187L147.166 245.906C146.801 247.754 144.974 249.215 142.536 249.215ZM142.407 239.268C140.785 239.268 139.517 240.374 139.313 242.458H145.426C145.243 240.288 144.04 239.268 142.407 239.268ZM157.514 249.215C155.462 249.215 154.453 248.291 154.453 246.153V239.375H152.82V237.828H154.453V234.81H156.386V237.828H158.513V239.375H156.386V246.143C156.386 247.335 156.913 247.668 157.912 247.668C158.137 247.668 158.352 247.636 158.513 247.625V249.14C158.277 249.172 157.879 249.215 157.514 249.215ZM164.413 249.215C161.963 249.215 160.545 247.625 160.545 245.079V237.828H162.414V244.746C162.414 246.562 163.263 247.561 164.982 247.561C166.744 247.561 167.893 246.304 167.893 244.402V237.828H169.762V249H167.893V247.41H167.85C167.248 248.452 166.11 249.215 164.413 249.215ZM172.278 249V237.828H174.147V239.719H174.19C174.566 238.43 175.532 237.613 176.789 237.613C177.112 237.613 177.391 237.667 177.541 237.688V239.504C177.391 239.45 176.993 239.396 176.542 239.396C175.092 239.396 174.147 240.406 174.147 242.104V249H172.278ZM179.144 249V237.828H181.013V239.418H181.056C181.657 238.376 182.796 237.613 184.493 237.613C186.942 237.613 188.36 239.203 188.36 241.749V249H186.491V242.082C186.491 240.267 185.643 239.268 183.924 239.268C182.162 239.268 181.013 240.524 181.013 242.426V249H179.144ZM194.786 249.215C192.154 249.215 190.564 247.872 190.339 245.874L190.328 245.777H192.197L192.219 245.885C192.444 247.002 193.271 247.657 194.797 247.657C196.311 247.657 197.214 247.023 197.214 246.014V246.003C197.214 245.197 196.795 244.746 195.527 244.435L193.755 244.005C191.649 243.5 190.629 242.522 190.629 240.911V240.9C190.629 238.978 192.315 237.613 194.732 237.613C197.182 237.613 198.739 239.042 198.879 240.911L198.89 241.051H197.106L197.096 240.976C196.945 239.891 196.118 239.171 194.732 239.171C193.379 239.171 192.541 239.826 192.541 240.814V240.825C192.541 241.588 193.046 242.114 194.281 242.415L196.054 242.845C198.31 243.393 199.126 244.284 199.126 245.874V245.885C199.126 247.84 197.278 249.215 194.786 249.215ZM210.463 252.975C207.702 252.975 205.962 251.675 205.596 250.021L205.575 249.924H207.455L207.498 250.021C207.852 250.826 208.916 251.32 210.441 251.32C212.407 251.32 213.524 250.235 213.524 248.506V247.077H213.481C212.815 248.312 211.526 249.107 209.925 249.107C207.111 249.107 205.188 246.841 205.188 243.35V243.339C205.188 239.869 207.132 237.613 209.968 237.613C211.548 237.613 212.794 238.473 213.481 239.719H213.524V237.828H215.393V248.688C215.393 251.277 213.492 252.975 210.463 252.975ZM210.334 247.453C212.235 247.453 213.524 245.831 213.524 243.35V243.339C213.524 240.879 212.224 239.268 210.334 239.268C208.346 239.268 207.1 240.857 207.1 243.339V243.35C207.1 245.885 208.346 247.453 210.334 247.453ZM217.887 249V237.828H219.756V239.719H219.799C220.175 238.43 221.142 237.613 222.399 237.613C222.721 237.613 223 237.667 223.151 237.688V239.504C223 239.45 222.603 239.396 222.152 239.396C220.702 239.396 219.756 240.406 219.756 242.104V249H217.887ZM228.814 249.215C225.602 249.215 223.668 246.97 223.668 243.457V243.446C223.668 239.987 225.645 237.613 228.696 237.613C231.746 237.613 233.605 239.88 233.605 243.231V243.919H225.559C225.602 246.218 226.869 247.561 228.857 247.561C230.275 247.561 231.274 246.852 231.596 245.896L231.628 245.799H233.465L233.444 245.906C233.078 247.754 231.252 249.215 228.814 249.215ZM228.685 239.268C227.063 239.268 225.795 240.374 225.591 242.458H231.703C231.521 240.288 230.318 239.268 228.685 239.268ZM240.17 249.215C236.958 249.215 235.025 246.97 235.025 243.457V243.446C235.025 239.987 237.001 237.613 240.052 237.613C243.103 237.613 244.961 239.88 244.961 243.231V243.919H236.915C236.958 246.218 238.226 247.561 240.213 247.561C241.631 247.561 242.63 246.852 242.952 245.896L242.985 245.799H244.821L244.8 245.906C244.435 247.754 242.609 249.215 240.17 249.215ZM240.041 239.268C238.419 239.268 237.152 240.374 236.947 242.458H243.06C242.877 240.288 241.674 239.268 240.041 239.268ZM246.929 249V237.828H248.798V239.418H248.841C249.442 238.376 250.581 237.613 252.278 237.613C254.728 237.613 256.146 239.203 256.146 241.749V249H254.276V242.082C254.276 240.267 253.428 239.268 251.709 239.268C249.947 239.268 248.798 240.524 248.798 242.426V249H246.929ZM259.757 249.15C259.069 249.15 258.532 248.613 258.532 247.926C258.532 247.238 259.069 246.701 259.757 246.701C260.444 246.701 260.981 247.238 260.981 247.926C260.981 248.613 260.444 249.15 259.757 249.15Z" fill="#0B0C0C"/>
<path d="M17.6406 118V98.2715H21.7695V106.283H30.6562V98.2715H34.7852V118H30.6562V109.688H21.7695V118H17.6406ZM44.552 118.301C40.0949 118.301 37.2922 115.443 37.2922 110.672V110.645C37.2922 105.928 40.1633 103.043 44.5383 103.043C48.927 103.043 51.8117 105.9 51.8117 110.645V110.672C51.8117 115.457 48.9817 118.301 44.552 118.301ZM44.5656 115.17C46.507 115.17 47.7512 113.529 47.7512 110.672V110.645C47.7512 107.814 46.4797 106.174 44.5383 106.174C42.6106 106.174 41.3528 107.814 41.3528 110.645V110.672C41.3528 113.543 42.5969 115.17 44.5656 115.17ZM56.6977 118L52.8012 103.344H56.8207L59.0356 114.213H59.1176L61.7153 103.344H65.5434L68.1547 114.213H68.2368L70.4653 103.344H74.4028L70.52 118H66.268L63.6157 107.637H63.5336L60.895 118H56.6977ZM87.538 118.301C84.2841 118.301 82.7528 117.043 82.7528 113.898V106.352H80.7157V103.344H82.7528V99.7617H86.786V103.344H89.4657V106.352H86.786V113.461C86.786 114.828 87.4012 115.293 88.6044 115.293C88.9598 115.293 89.2196 115.252 89.4657 115.225V118.15C89.0145 118.219 88.3719 118.301 87.538 118.301ZM98.2755 118.301C93.8185 118.301 91.0157 115.443 91.0157 110.672V110.645C91.0157 105.928 93.8868 103.043 98.2618 103.043C102.65 103.043 105.535 105.9 105.535 110.645V110.672C105.535 115.457 102.705 118.301 98.2755 118.301ZM98.2892 115.17C100.231 115.17 101.475 113.529 101.475 110.672V110.645C101.475 107.814 100.203 106.174 98.2618 106.174C96.3341 106.174 95.0763 107.814 95.0763 110.645V110.672C95.0763 113.543 96.3204 115.17 98.2892 115.17ZM119.176 118.301C115.922 118.301 114.391 117.043 114.391 113.898V106.352H112.354V103.344H114.391V99.7617H118.424V103.344H121.104V106.352H118.424V113.461C118.424 114.828 119.04 115.293 120.243 115.293C120.598 115.293 120.858 115.252 121.104 115.225V118.15C120.653 118.219 120.01 118.301 119.176 118.301ZM127.631 118.232C124.691 118.232 122.709 116.387 122.709 113.803V113.775C122.709 111.109 124.773 109.551 128.41 109.318L132.033 109.1V108.197C132.033 106.898 131.185 106.092 129.627 106.092C128.136 106.092 127.234 106.789 127.043 107.732L127.015 107.855H123.365L123.379 107.691C123.597 104.984 125.922 103.043 129.791 103.043C133.578 103.043 136.025 104.998 136.025 107.951V118H132.033V115.812H131.951C131.117 117.316 129.558 118.232 127.631 118.232ZM126.66 113.598C126.66 114.678 127.549 115.32 128.929 115.32C130.72 115.32 132.033 114.172 132.033 112.641V111.588L129.011 111.779C127.467 111.875 126.66 112.531 126.66 113.57V113.598ZM138.847 118V98.2715H142.839V109.209H142.921L147.87 103.344H152.395L146.858 109.646L152.669 118H148.062L143.864 112.012L142.839 113.146V118H138.847ZM159.865 118.301C155.381 118.301 152.66 115.389 152.66 110.699V110.686C152.66 106.023 155.408 103.043 159.701 103.043C163.994 103.043 166.688 105.955 166.688 110.385V111.615H156.598C156.639 113.953 157.91 115.32 159.947 115.32C161.588 115.32 162.586 114.418 162.873 113.598L162.901 113.516H166.565L166.524 113.666C166.072 115.826 164.049 118.301 159.865 118.301ZM159.77 106.023C158.129 106.023 156.899 107.117 156.639 109.1H162.86C162.613 107.076 161.424 106.023 159.77 106.023ZM178.866 118.232C175.926 118.232 173.944 116.387 173.944 113.803V113.775C173.944 111.109 176.008 109.551 179.645 109.318L183.268 109.1V108.197C183.268 106.898 182.421 106.092 180.862 106.092C179.372 106.092 178.469 106.789 178.278 107.732L178.251 107.855H174.6L174.614 107.691C174.833 104.984 177.157 103.043 181.026 103.043C184.813 103.043 187.26 104.998 187.26 107.951V118H183.268V115.812H183.186C182.352 117.316 180.794 118.232 178.866 118.232ZM177.895 113.598C177.895 114.678 178.784 115.32 180.165 115.32C181.956 115.32 183.268 114.172 183.268 112.641V111.588L180.247 111.779C178.702 111.875 177.895 112.531 177.895 113.57V113.598ZM195.597 122.785V103.344H199.589V105.9H199.685C200.478 104.123 202.077 103.043 204.155 103.043C207.874 103.043 210.144 105.887 210.144 110.658V110.672C210.144 115.43 207.874 118.301 204.21 118.301C202.118 118.301 200.464 117.234 199.671 115.498H199.589V122.785H195.597ZM202.843 114.992C204.825 114.992 206.083 113.338 206.083 110.672V110.658C206.083 107.979 204.825 106.352 202.843 106.352C200.901 106.352 199.575 108.02 199.575 110.672V110.686C199.575 113.324 200.901 114.992 202.843 114.992ZM212.418 118V98.2715H216.41V105.873H216.492C217.244 104.055 218.789 103.043 220.991 103.043C224.162 103.043 226.131 105.258 226.131 108.799V118H222.139V109.619C222.139 107.568 221.127 106.352 219.309 106.352C217.545 106.352 216.41 107.691 216.41 109.605V118H212.418ZM235.529 118.301C231.072 118.301 228.269 115.443 228.269 110.672V110.645C228.269 105.928 231.14 103.043 235.515 103.043C239.904 103.043 242.789 105.9 242.789 110.645V110.672C242.789 115.457 239.958 118.301 235.529 118.301ZM235.542 115.17C237.484 115.17 238.728 113.529 238.728 110.672V110.645C238.728 107.814 237.457 106.174 235.515 106.174C233.587 106.174 232.33 107.814 232.33 110.645V110.672C232.33 113.543 233.574 115.17 235.542 115.17ZM250.778 118.301C247.524 118.301 245.993 117.043 245.993 113.898V106.352H243.956V103.344H245.993V99.7617H250.026V103.344H252.706V106.352H250.026V113.461C250.026 114.828 250.641 115.293 251.844 115.293C252.2 115.293 252.46 115.252 252.706 115.225V118.15C252.255 118.219 251.612 118.301 250.778 118.301ZM261.516 118.301C257.059 118.301 254.256 115.443 254.256 110.672V110.645C254.256 105.928 257.127 103.043 261.502 103.043C265.891 103.043 268.775 105.9 268.775 110.645V110.672C268.775 115.457 265.945 118.301 261.516 118.301ZM261.529 115.17C263.471 115.17 264.715 113.529 264.715 110.672V110.645C264.715 107.814 263.443 106.174 261.502 106.174C259.574 106.174 258.316 107.814 258.316 110.645V110.672C258.316 113.543 259.561 115.17 261.529 115.17ZM283.319 118.301C278.862 118.301 276.059 115.443 276.059 110.672V110.645C276.059 105.928 278.93 103.043 283.305 103.043C287.694 103.043 290.578 105.9 290.578 110.645V110.672C290.578 115.457 287.748 118.301 283.319 118.301ZM283.332 115.17C285.274 115.17 286.518 113.529 286.518 110.672V110.645C286.518 107.814 285.246 106.174 283.305 106.174C281.377 106.174 280.12 107.814 280.12 110.645V110.672C280.12 113.543 281.364 115.17 283.332 115.17ZM293.81 118V106.352H291.814V103.344H293.81V102.168C293.81 99.2969 295.177 97.9707 298.636 97.9707C299.375 97.9707 300.181 98.0391 300.646 98.1348V100.773C300.373 100.719 299.99 100.705 299.621 100.705C298.295 100.705 297.707 101.266 297.707 102.318V103.344H300.619V106.352H297.802V118H293.81ZM19.5957 156.826C18.8164 156.826 18.0234 156.73 17.5586 156.648V153.682C17.8457 153.736 18.3105 153.818 18.8984 153.818C20.0879 153.818 20.7441 153.477 21.0996 152.479L21.2773 152L16.0957 137.344H20.4844L23.5742 148.801H23.6836L26.7871 137.344H30.998L25.9668 152.26C24.8184 155.719 22.8496 156.826 19.5957 156.826ZM38.7004 152.301C34.2434 152.301 31.4406 149.443 31.4406 144.672V144.645C31.4406 139.928 34.3117 137.043 38.6867 137.043C43.0754 137.043 45.9602 139.9 45.9602 144.645V144.672C45.9602 149.457 43.1301 152.301 38.7004 152.301ZM38.7141 149.17C40.6555 149.17 41.8996 147.529 41.8996 144.672V144.645C41.8996 141.814 40.6281 140.174 38.6867 140.174C36.759 140.174 35.5012 141.814 35.5012 144.645V144.672C35.5012 147.543 36.7453 149.17 38.7141 149.17ZM53.1157 152.301C49.8891 152.301 48.0571 150.236 48.0571 146.805V137.344H52.0493V145.971C52.0493 147.885 52.9516 148.992 54.7426 148.992C56.5336 148.992 57.6684 147.68 57.6684 145.766V137.344H61.6606V152H57.6684V149.58H57.5864C56.8344 151.262 55.3305 152.301 53.1157 152.301ZM64.359 152V137.344H68.3512V139.9H68.4333C68.8708 138.096 70.0602 137.043 71.7692 137.043C72.2067 137.043 72.6169 137.111 72.9176 137.193V140.707C72.5895 140.57 72.0426 140.488 71.4684 140.488C69.4997 140.488 68.3512 141.664 68.3512 143.797V152H64.359ZM80.3106 156.785V137.344H84.3028V139.9H84.3985C85.1915 138.123 86.7911 137.043 88.8692 137.043C92.588 137.043 94.8575 139.887 94.8575 144.658V144.672C94.8575 149.43 92.588 152.301 88.9239 152.301C86.8321 152.301 85.1778 151.234 84.3849 149.498H84.3028V156.785H80.3106ZM87.5567 148.992C89.5392 148.992 90.797 147.338 90.797 144.672V144.658C90.797 141.979 89.5392 140.352 87.5567 140.352C85.6153 140.352 84.2892 142.02 84.2892 144.672V144.686C84.2892 147.324 85.6153 148.992 87.5567 148.992ZM97.1321 152V132.271H101.124V139.873H101.206C101.958 138.055 103.503 137.043 105.704 137.043C108.876 137.043 110.845 139.258 110.845 142.799V152H106.853V143.619C106.853 141.568 105.841 140.352 104.023 140.352C102.259 140.352 101.124 141.691 101.124 143.605V152H97.1321ZM120.243 152.301C115.786 152.301 112.983 149.443 112.983 144.672V144.645C112.983 139.928 115.854 137.043 120.229 137.043C124.618 137.043 127.502 139.9 127.502 144.645V144.672C127.502 149.457 124.672 152.301 120.243 152.301ZM120.256 149.17C122.198 149.17 123.442 147.529 123.442 144.672V144.645C123.442 141.814 122.17 140.174 120.229 140.174C118.301 140.174 117.043 141.814 117.043 144.645V144.672C117.043 147.543 118.288 149.17 120.256 149.17ZM135.492 152.301C132.238 152.301 130.707 151.043 130.707 147.898V140.352H128.67V137.344H130.707V133.762H134.74V137.344H137.42V140.352H134.74V147.461C134.74 148.828 135.355 149.293 136.558 149.293C136.914 149.293 137.174 149.252 137.42 149.225V152.15C136.969 152.219 136.326 152.301 135.492 152.301ZM146.229 152.301C141.772 152.301 138.97 149.443 138.97 144.672V144.645C138.97 139.928 141.841 137.043 146.216 137.043C150.604 137.043 153.489 139.9 153.489 144.645V144.672C153.489 149.457 150.659 152.301 146.229 152.301ZM146.243 149.17C148.185 149.17 149.429 147.529 149.429 144.672V144.645C149.429 141.814 148.157 140.174 146.216 140.174C144.288 140.174 143.03 141.814 143.03 144.645V144.672C143.03 147.543 144.274 149.17 146.243 149.17ZM161.648 152V132.271H165.777V152H161.648ZM169.159 152V132.271H176.692C182.598 132.271 186.098 135.785 186.098 142.033V142.061C186.098 148.322 182.612 152 176.692 152H169.159ZM173.288 148.582H176.2C179.891 148.582 181.887 146.34 181.887 142.074V142.047C181.887 137.932 179.823 135.676 176.2 135.676H173.288V148.582Z" fill="#0B0C0C"/>
<defs>
<filter id="filter0_d_62609_284129" x="153.526" y="397.525" width="84.5426" height="63.4322" filterUnits="userSpaceOnUse" color-interpolation-filters="sRGB">
<feFlood flood-opacity="0" result="BackgroundImageFix"/>
<feColorMatrix in="SourceAlpha" type="matrix" values="0 0 0 0 0 0 0 0 0 0 0 0 0 0 0 0 0 0 127 0" result="hardAlpha"/>
<feOffset dx="0.491526" dy="0.491526"/>
<feGaussianBlur stdDeviation="0.983052"/>
<feComposite in2="hardAlpha" operator="out"/>
<feColorMatrix type="matrix" values="0 0 0 0 0 0 0 0 0 0 0 0 0 0 0 0 0 0 0.9 0"/>
<feBlend mode="normal" in2="BackgroundImageFix" result="effect1_dropShadow_62609_284129"/>
<feBlend mode="normal" in="SourceGraphic" in2="effect1_dropShadow_62609_284129" result="shape"/>
</filter>
<filter id="filter1_d_62609_284129" x="153.525" y="457.054" width="84.5426" height="61.4156" filterUnits="userSpaceOnUse" color-interpolation-filters="sRGB">
<feFlood flood-opacity="0" result="BackgroundImageFix"/>
<feColorMatrix in="SourceAlpha" type="matrix" values="0 0 0 0 0 0 0 0 0 0 0 0 0 0 0 0 0 0 127 0" result="hardAlpha"/>
<feOffset dx="0.491526" dy="0.491526"/>
<feGaussianBlur stdDeviation="0.983052"/>
<feComposite in2="hardAlpha" operator="out"/>
<feColorMatrix type="matrix" values="0 0 0 0 0 0 0 0 0 0 0 0 0 0 0 0 0 0 0.9 0"/>
<feBlend mode="normal" in2="BackgroundImageFix" result="effect1_dropShadow_62609_284129"/>
<feBlend mode="normal" in="SourceGraphic" in2="effect1_dropShadow_62609_284129" result="shape"/>
</filter>
<filter id="filter2_b_62609_284129" x="-20" y="-20" width="415" height="131" filterUnits="userSpaceOnUse" color-interpolation-filters="sRGB">
<feFlood flood-opacity="0" result="BackgroundImageFix"/>
<feGaussianBlur in="BackgroundImageFix" stdDeviation="10"/>
<feComposite in2="SourceAlpha" operator="in" result="effect1_backgroundBlur_62609_284129"/>
<feBlend mode="normal" in="SourceGraphic" in2="effect1_backgroundBlur_62609_284129" result="shape"/>
</filter>
<filter id="filter3_d_62609_284129" x="96.6167" y="434.617" width="197.122" height="107.987" filterUnits="userSpaceOnUse" color-interpolation-filters="sRGB">
<feFlood flood-opacity="0" result="BackgroundImageFix"/>
<feColorMatrix in="SourceAlpha" type="matrix" values="0 0 0 0 0 0 0 0 0 0 0 0 0 0 0 0 0 0 127 0" result="hardAlpha"/>
<feOffset dx="1" dy="1"/>
<feGaussianBlur stdDeviation="2"/>
<feComposite in2="hardAlpha" operator="out"/>
<feColorMatrix type="matrix" values="0 0 0 0 0 0 0 0 0 0 0 0 0 0 0 0 0 0 1 0"/>
<feBlend mode="normal" in2="BackgroundImageFix" result="effect1_dropShadow_62609_284129"/>
<feBlend mode="normal" in="SourceGraphic" in2="effect1_dropShadow_62609_284129" result="shape"/>
</filter>
<clipPath id="clip0_62609_284129">
<rect width="375" height="47" fill="white"/>
</clipPath>
</defs>
</svg>
