<svg width="198" height="146" viewBox="0 0 198 146" fill="none" xmlns="http://www.w3.org/2000/svg">
<g filter="url(#filter0_d_91479_7181)">
<mask id="path-1-inside-1_91479_7181" fill="white">
<path d="M59.001 8.69283L59.001 61.5L139.611 61.5L139.611 8.70863C139.611 4.94379 136.659 2.00617 133.235 2.00617L65.4165 2.00618C61.8349 1.84189 59.001 4.9438 59.001 8.70863"/>
</mask>
<path d="M59.001 8.69283L59.001 61.5L139.611 61.5L139.611 8.70863C139.611 4.94379 136.659 2.00617 133.235 2.00617L65.4165 2.00618C61.8349 1.84189 59.001 4.9438 59.001 8.70863" fill="#EEF3FB"/>
<path d="M59.001 61.5L57.4895 61.5L57.4895 63.0114L59.001 63.0114L59.001 61.5ZM139.611 61.5L139.611 63.0114L141.123 63.0114L141.123 61.5L139.611 61.5ZM65.4165 2.00618L65.3473 3.51603L65.3819 3.51762L65.4165 3.51762L65.4165 2.00618ZM57.4895 8.69283L57.4895 61.5L60.5124 61.5L60.5124 8.69283L57.4895 8.69283ZM59.001 63.0114L139.611 63.0114L139.611 59.9886L59.001 59.9886L59.001 63.0114ZM141.123 61.5L141.123 8.70863L138.1 8.70863L138.1 61.5L141.123 61.5ZM141.123 8.70863C141.123 4.1563 137.541 0.494732 133.235 0.494732L133.235 3.51762C135.778 3.51762 138.1 5.73129 138.1 8.70863L141.123 8.70863ZM133.235 0.494732L65.4165 0.494735L65.4165 3.51762L133.235 3.51762L133.235 0.494732ZM65.4858 0.496322C60.8953 0.285763 57.4895 4.23737 57.4895 8.70863L60.5124 8.70863C60.5124 5.65022 62.7745 3.39802 65.3473 3.51603L65.4858 0.496322Z" fill="#253D65" mask="url(#path-1-inside-1_91479_7181)"/>
</g>
<g filter="url(#filter1_d_91479_7181)">
<mask id="path-3-inside-2_91479_7181" fill="white">
<path d="M139.61 112.545L139.61 61.5283L59.0001 61.5283L59.0001 112.53C59.0001 116.167 61.9519 119.005 65.3764 119.005L133.195 119.005C136.776 119.164 139.61 116.167 139.61 112.53"/>
</mask>
<path d="M139.61 112.545L139.61 61.5283L59.0001 61.5283L59.0001 112.53C59.0001 116.167 61.9519 119.005 65.3764 119.005L133.195 119.005C136.776 119.164 139.61 116.167 139.61 112.53" fill="#EEF3FB"/>
<path d="M139.61 61.5283L141.122 61.5283L141.122 60.0169L139.61 60.0169L139.61 61.5283ZM59.0001 61.5283L59.0001 60.0169L57.4887 60.0169L57.4887 61.5283L59.0001 61.5283ZM133.195 119.005L133.262 117.495L133.228 117.494L133.195 117.494L133.195 119.005ZM141.122 112.545L141.122 61.5283L138.099 61.5283L138.099 112.545L141.122 112.545ZM139.61 60.0169L59.0001 60.0169L59.0001 63.0398L139.61 63.0398L139.61 60.0169ZM57.4887 61.5283L57.4887 112.53L60.5115 112.53L60.5115 61.5283L57.4887 61.5283ZM57.4887 112.53C57.4887 117.004 61.1195 120.517 65.3764 120.517L65.3764 117.494C62.7844 117.494 60.5115 115.33 60.5115 112.53L57.4887 112.53ZM65.3764 120.517L133.195 120.517L133.195 117.494L65.3764 117.494L65.3764 120.517ZM133.128 120.515C137.667 120.717 141.122 116.928 141.122 112.53L138.099 112.53C138.099 115.407 135.886 117.612 133.262 117.495L133.128 120.515Z" fill="#253D65" mask="url(#path-3-inside-2_91479_7181)"/>
</g>
<path d="M135.063 79.3076L89.7197 79.3076" stroke="#253D65" stroke-width="1.52482" stroke-miterlimit="10" stroke-linecap="round"/>
<path d="M135.063 89.5342L89.7197 89.5342" stroke="#253D65" stroke-width="1.52482" stroke-miterlimit="10" stroke-linecap="round"/>
<path d="M135.063 84.3936L89.7197 84.3936" stroke="#253D65" stroke-width="1.52482" stroke-miterlimit="10" stroke-linecap="round"/>
<path d="M67.8924 67.2813C67.8924 67.2813 65.1426 67.2813 65.1426 69.8171L65.1426 90.1769C65.1426 90.1769 65.1426 92.7132 67.8924 92.7132L82.5453 92.7132C82.5453 92.7132 85.2951 92.7132 85.2951 90.1769L85.2951 69.8171C85.2951 69.8171 85.2951 67.2813 82.5453 67.2813L67.8924 67.2813Z" fill="#EEF3FB" stroke="#253D65" stroke-width="1.52482" stroke-miterlimit="10" stroke-linecap="round"/>
<path d="M71.61 85.562L67.4788 86.3932C66.7009 77.2778 69.7797 72.0479 75.0914 72.0479C80.8097 72.0479 83.8542 77.2763 82.9071 86.3932L78.9652 85.7146M80.0651 80.3733C77.7646 80.3733 72.8247 79.7888 70.7269 78.4473C69.7797 84.2602 72.2494 87.9407 75.2944 87.9407C78.3395 87.9407 80.2681 84.8452 80.0651 80.3733Z" fill="#EEF3FB"/>
<path d="M71.61 85.562L67.4788 86.3932C66.7009 77.2778 69.7797 72.0479 75.0914 72.0479C80.8097 72.0479 83.8542 77.2763 82.9071 86.3932L78.9652 85.7146M80.0651 80.3733C77.7646 80.3733 72.8247 79.7888 70.7269 78.4473C69.7797 84.2602 72.2494 87.9407 75.2944 87.9407C78.3395 87.9407 80.2681 84.8452 80.0651 80.3733Z" stroke="#253D65" stroke-width="1.52482" stroke-miterlimit="10" stroke-linecap="round"/>
<path d="M75.945 99.8623L72.3535 101.489L75.9614 103.137" stroke="#253D65" stroke-width="0.870371" stroke-linecap="round" stroke-linejoin="round"/>
<path d="M91.4098 99.8184L87.8184 101.445L91.4262 103.093" stroke="#253D65" stroke-width="0.870371" stroke-linecap="round" stroke-linejoin="round"/>
<path d="M86.2848 99.8184L82.6934 101.445L86.3012 103.093" stroke="#253D65" stroke-width="0.870371" stroke-linecap="round" stroke-linejoin="round"/>
<path d="M81.0924 99.8184L77.501 101.445L81.1088 103.093" stroke="#253D65" stroke-width="0.870371" stroke-linecap="round" stroke-linejoin="round"/>
<path d="M101.726 99.8623L98.1348 101.489L101.743 103.137" stroke="#253D65" stroke-width="0.870371" stroke-linecap="round" stroke-linejoin="round"/>
<path d="M111.957 99.8184L108.365 101.445L111.973 103.093" stroke="#253D65" stroke-width="0.870371" stroke-linecap="round" stroke-linejoin="round"/>
<path d="M117.083 99.8184L113.491 101.445L117.099 103.093" stroke="#253D65" stroke-width="0.870371" stroke-linecap="round" stroke-linejoin="round"/>
<path d="M96.5788 99.8184L92.9873 101.445L96.5952 103.093" stroke="#253D65" stroke-width="0.870371" stroke-linecap="round" stroke-linejoin="round"/>
<path d="M106.919 99.8184L103.327 101.445L106.935 103.093" stroke="#253D65" stroke-width="0.870371" stroke-linecap="round" stroke-linejoin="round"/>
<path d="M66.2041 104.116L66.2041 99.0635C67.7834 99.0835 69.655 99.2958 69.7126 100.341C69.7126 101.735 67.527 101.851 66.2041 101.851" stroke="#253D65" stroke-width="0.870371" stroke-linecap="round"/>
<path d="M75.945 105.438L72.3535 107.065L75.9614 108.713" stroke="#253D65" stroke-width="0.870371" stroke-linecap="round" stroke-linejoin="round"/>
<path d="M91.4098 105.393L87.8184 107.019L91.4262 108.667" stroke="#253D65" stroke-width="0.870371" stroke-linecap="round" stroke-linejoin="round"/>
<path d="M86.2848 105.393L82.6934 107.019L86.3012 108.667" stroke="#253D65" stroke-width="0.870371" stroke-linecap="round" stroke-linejoin="round"/>
<path d="M81.0924 105.393L77.501 107.019L81.1088 108.667" stroke="#253D65" stroke-width="0.870371" stroke-linecap="round" stroke-linejoin="round"/>
<path d="M101.726 105.438L98.1348 107.065L101.743 108.713" stroke="#253D65" stroke-width="0.870371" stroke-linecap="round" stroke-linejoin="round"/>
<path d="M111.957 105.393L108.365 107.019L111.973 108.667" stroke="#253D65" stroke-width="0.870371" stroke-linecap="round" stroke-linejoin="round"/>
<path d="M117.083 105.393L113.491 107.019L117.099 108.667" stroke="#253D65" stroke-width="0.870371" stroke-linecap="round" stroke-linejoin="round"/>
<path d="M96.5788 105.393L92.9873 107.019L96.5952 108.667" stroke="#253D65" stroke-width="0.870371" stroke-linecap="round" stroke-linejoin="round"/>
<path d="M106.919 105.393L103.327 107.019L106.935 108.667" stroke="#253D65" stroke-width="0.870371" stroke-linecap="round" stroke-linejoin="round"/>
<path d="M69.8483 105.32L66.2568 106.947L69.8647 108.595" stroke="#253D65" stroke-width="0.870371" stroke-linecap="round" stroke-linejoin="round"/>
<path d="M127.486 99.8184L123.895 101.445L127.502 103.093" stroke="#253D65" stroke-width="0.870371" stroke-linecap="round" stroke-linejoin="round"/>
<path d="M132.611 99.8184L129.02 101.445L132.627 103.093" stroke="#253D65" stroke-width="0.870371" stroke-linecap="round" stroke-linejoin="round"/>
<path d="M122.447 99.8184L118.855 101.445L122.463 103.093" stroke="#253D65" stroke-width="0.870371" stroke-linecap="round" stroke-linejoin="round"/>
<path d="M132.611 105.393L129.02 107.019L132.627 108.667" stroke="#253D65" stroke-width="0.870371" stroke-linecap="round" stroke-linejoin="round"/>
<path d="M122.309 105.393L118.718 107.019L122.326 108.667" stroke="#253D65" stroke-width="0.870371" stroke-linecap="round" stroke-linejoin="round"/>
<path d="M127.434 105.393L123.843 107.019L127.451 108.667" stroke="#253D65" stroke-width="0.870371" stroke-linecap="round" stroke-linejoin="round"/>
<g filter="url(#filter2_d_91479_7181)">
<path fill-rule="evenodd" clip-rule="evenodd" d="M10 132.222C10 133.879 11.3431 135.222 13 135.222L183 135.222C184.657 135.222 186 133.879 186 132.222L186 49.2217C186 47.5648 184.657 46.2217 183 46.2217L13 46.2217C11.3431 46.2217 10 47.5648 10 49.2217L10 132.222ZM53 58.999C51.8954 58.999 51 59.8945 51 60.999L51 123.999C51 125.104 51.8954 125.999 53 125.999L144 125.999C145.105 125.999 146 125.104 146 123.999L146 60.999C146 59.8945 145.105 58.999 144 58.999L53 58.999Z" fill="white"/>
<path d="M5 51.7222L5 129.5C5 130.776 5.24101 132.04 5.70927 133.22C6.17753 134.4 6.86387 135.471 7.7291 136.374C9.47652 138.197 11.8465 139.222 14.3177 139.222L182.037 139.222C184.508 139.222 186.878 138.197 188.626 136.374C189.491 135.471 190.177 134.4 190.646 133.22C191.114 132.04 191.355 130.776 191.355 129.5L191.355 51.7222C191.355 49.1437 190.373 46.6708 188.626 44.8476C186.878 43.0243 184.508 42 182.037 42L14.3177 42C13.0941 42 11.8825 42.2515 10.752 42.74C9.62152 43.2286 8.59434 43.9448 7.7291 44.8475C6.86387 45.7503 6.17753 46.8221 5.70927 48.0016C5.24101 49.1812 5 50.4454 5 51.7222ZM182.831 46.2916C185.335 46.2916 187.367 48.3469 187.367 50.8824L187.367 130.339C187.367 132.875 185.335 134.93 182.831 134.93L13.5242 134.93C11.0196 134.93 8.98831 132.875 8.98831 130.339L8.98831 99.7497L10.8863 99.7497C12.4116 99.7497 13.6472 98.5062 13.6472 96.973L13.6472 84.1514C13.6472 82.6182 12.4116 81.3748 10.8863 81.3748L8.98831 81.3748L8.98831 50.8824C8.98831 48.3469 11.0196 46.2916 13.5242 46.2916L182.831 46.2916Z" fill="#B3B3B3" stroke="#B3B3B3" stroke-width="2.76656" stroke-linecap="round" stroke-linejoin="round"/>
</g>
<rect x="52" y="59.999" width="93" height="65" rx="1" stroke="#31973F" stroke-width="2"/>
<path d="M71.2819 104.995L66.7539 107.027L71.3026 109.084" stroke="#31973F" stroke-width="1.28966" stroke-linecap="round" stroke-linejoin="round"/>
<path d="M90.777 104.938L86.249 106.97L90.7977 109.027" stroke="#31973F" stroke-width="1.28966" stroke-linecap="round" stroke-linejoin="round"/>
<path d="M84.3161 104.938L79.7881 106.97L84.3367 109.027" stroke="#31973F" stroke-width="1.28966" stroke-linecap="round" stroke-linejoin="round"/>
<path d="M77.7702 104.938L73.2422 106.97L77.7909 109.027" stroke="#31973F" stroke-width="1.28966" stroke-linecap="round" stroke-linejoin="round"/>
<path d="M103.784 104.995L99.2559 107.027L103.805 109.084" stroke="#31973F" stroke-width="1.28966" stroke-linecap="round" stroke-linejoin="round"/>
<path d="M116.682 104.938L112.154 106.97L116.703 109.027" stroke="#31973F" stroke-width="1.28966" stroke-linecap="round" stroke-linejoin="round"/>
<path d="M123.143 104.938L118.615 106.97L123.164 109.027" stroke="#31973F" stroke-width="1.28966" stroke-linecap="round" stroke-linejoin="round"/>
<path d="M97.2956 104.938L92.7676 106.97L97.3162 109.027" stroke="#31973F" stroke-width="1.28966" stroke-linecap="round" stroke-linejoin="round"/>
<path d="M110.33 104.938L105.802 106.97L110.35 109.027" stroke="#31973F" stroke-width="1.28966" stroke-linecap="round" stroke-linejoin="round"/>
<path d="M59 110.308V103.999C60.9912 104.024 63.3508 104.289 63.4233 105.594C63.4233 107.335 60.6678 107.48 59 107.48" stroke="#31973F" stroke-width="1.28966" stroke-linecap="round"/>
<path d="M71.2819 111.956L66.7539 113.987L71.3026 116.045" stroke="#31973F" stroke-width="1.28966" stroke-linecap="round" stroke-linejoin="round"/>
<path d="M90.777 111.899L86.249 113.931L90.7977 115.988" stroke="#31973F" stroke-width="1.28966" stroke-linecap="round" stroke-linejoin="round"/>
<path d="M84.3161 111.899L79.7881 113.931L84.3367 115.988" stroke="#31973F" stroke-width="1.28966" stroke-linecap="round" stroke-linejoin="round"/>
<path d="M77.7702 111.899L73.2422 113.931L77.7909 115.988" stroke="#31973F" stroke-width="1.28966" stroke-linecap="round" stroke-linejoin="round"/>
<path d="M103.784 111.956L99.2559 113.987L103.805 116.045" stroke="#31973F" stroke-width="1.28966" stroke-linecap="round" stroke-linejoin="round"/>
<path d="M116.682 111.899L112.154 113.931L116.703 115.988" stroke="#31973F" stroke-width="1.28966" stroke-linecap="round" stroke-linejoin="round"/>
<path d="M123.143 111.899L118.615 113.931L123.164 115.988" stroke="#31973F" stroke-width="1.28966" stroke-linecap="round" stroke-linejoin="round"/>
<path d="M97.2956 111.899L92.7676 113.931L97.3162 115.988" stroke="#31973F" stroke-width="1.28966" stroke-linecap="round" stroke-linejoin="round"/>
<path d="M110.33 111.899L105.802 113.931L110.35 115.988" stroke="#31973F" stroke-width="1.28966" stroke-linecap="round" stroke-linejoin="round"/>
<path d="M63.5944 111.812L59.0664 113.843L63.6151 115.9" stroke="#31973F" stroke-width="1.28966" stroke-linecap="round" stroke-linejoin="round"/>
<path d="M136.26 104.938L131.732 106.97L136.281 109.027" stroke="#31973F" stroke-width="1.28966" stroke-linecap="round" stroke-linejoin="round"/>
<path d="M142.723 104.938L138.195 106.97L142.744 109.027" stroke="#31973F" stroke-width="1.28966" stroke-linecap="round" stroke-linejoin="round"/>
<path d="M129.909 104.938L125.381 106.97L129.93 109.027" stroke="#31973F" stroke-width="1.28966" stroke-linecap="round" stroke-linejoin="round"/>
<path d="M142.723 111.899L138.195 113.931L142.744 115.988" stroke="#31973F" stroke-width="1.28966" stroke-linecap="round" stroke-linejoin="round"/>
<path d="M129.735 111.899L125.207 113.931L129.756 115.988" stroke="#31973F" stroke-width="1.28966" stroke-linecap="round" stroke-linejoin="round"/>
<path d="M136.196 111.899L131.668 113.931L136.217 115.988" stroke="#31973F" stroke-width="1.28966" stroke-linecap="round" stroke-linejoin="round"/>
<defs>
<filter id="filter0_d_91479_7181" x="57.5264" y="0.525422" width="84.5426" height="63.4322" filterUnits="userSpaceOnUse" color-interpolation-filters="sRGB">
<feFlood flood-opacity="0" result="BackgroundImageFix"/>
<feColorMatrix in="SourceAlpha" type="matrix" values="0 0 0 0 0 0 0 0 0 0 0 0 0 0 0 0 0 0 127 0" result="hardAlpha"/>
<feOffset dx="0.491526" dy="0.491526"/>
<feGaussianBlur stdDeviation="0.983052"/>
<feComposite in2="hardAlpha" operator="out"/>
<feColorMatrix type="matrix" values="0 0 0 0 0 0 0 0 0 0 0 0 0 0 0 0 0 0 0.9 0"/>
<feBlend mode="normal" in2="BackgroundImageFix" result="effect1_dropShadow_91479_7181"/>
<feBlend mode="normal" in="SourceGraphic" in2="effect1_dropShadow_91479_7181" result="shape"/>
</filter>
<filter id="filter1_d_91479_7181" x="57.5254" y="60.0537" width="84.5426" height="61.4156" filterUnits="userSpaceOnUse" color-interpolation-filters="sRGB">
<feFlood flood-opacity="0" result="BackgroundImageFix"/>
<feColorMatrix in="SourceAlpha" type="matrix" values="0 0 0 0 0 0 0 0 0 0 0 0 0 0 0 0 0 0 127 0" result="hardAlpha"/>
<feOffset dx="0.491526" dy="0.491526"/>
<feGaussianBlur stdDeviation="0.983052"/>
<feComposite in2="hardAlpha" operator="out"/>
<feColorMatrix type="matrix" values="0 0 0 0 0 0 0 0 0 0 0 0 0 0 0 0 0 0 0.9 0"/>
<feBlend mode="normal" in2="BackgroundImageFix" result="effect1_dropShadow_91479_7181"/>
<feBlend mode="normal" in="SourceGraphic" in2="effect1_dropShadow_91479_7181" result="shape"/>
</filter>
<filter id="filter2_d_91479_7181" x="0.616699" y="37.6172" width="197.122" height="107.987" filterUnits="userSpaceOnUse" color-interpolation-filters="sRGB">
<feFlood flood-opacity="0" result="BackgroundImageFix"/>
<feColorMatrix in="SourceAlpha" type="matrix" values="0 0 0 0 0 0 0 0 0 0 0 0 0 0 0 0 0 0 127 0" result="hardAlpha"/>
<feOffset dx="1" dy="1"/>
<feGaussianBlur stdDeviation="2"/>
<feComposite in2="hardAlpha" operator="out"/>
<feColorMatrix type="matrix" values="0 0 0 0 0 0 0 0 0 0 0 0 0 0 0 0 0 0 1 0"/>
<feBlend mode="normal" in2="BackgroundImageFix" result="effect1_dropShadow_91479_7181"/>
<feBlend mode="normal" in="SourceGraphic" in2="effect1_dropShadow_91479_7181" result="shape"/>
</filter>
</defs>
</svg>
